<?xml version="1.0" encoding="UTF-8" standalone="no"?>
<!-- Created with Inkscape (http://www.inkscape.org/) -->

<svg
   version="1.1"
   id="svg1"
   width="1512"
   height="1512"
   viewBox="0 0 1512 1512"
   sodipodi:docname="Ally1Attack.svg"
   inkscape:version="1.3.2 (091e20e, 2023-11-25)"
   inkscape:export-filename="../../Utopia/Assets/Sprites/Tetra.png"
   inkscape:export-xdpi="96"
   inkscape:export-ydpi="96"
   xmlns:inkscape="http://www.inkscape.org/namespaces/inkscape"
   xmlns:sodipodi="http://sodipodi.sourceforge.net/DTD/sodipodi-0.dtd"
   xmlns="http://www.w3.org/2000/svg"
   xmlns:svg="http://www.w3.org/2000/svg">
  <defs
     id="defs1" />
  <sodipodi:namedview
     id="namedview1"
     pagecolor="#505050"
     bordercolor="#eeeeee"
     borderopacity="1"
     inkscape:showpageshadow="0"
     inkscape:pageopacity="0"
     inkscape:pagecheckerboard="0"
     inkscape:deskcolor="#505050"
     inkscape:zoom="0.33397567"
     inkscape:cx="528.48161"
     inkscape:cy="628.78831"
     inkscape:window-width="1512"
     inkscape:window-height="917"
     inkscape:window-x="0"
     inkscape:window-y="65"
     inkscape:window-maximized="0"
     inkscape:current-layer="layer1"
     showguides="false"
     showgrid="false">
    <sodipodi:guide
       position="720.38788,1357.177"
       orientation="0,-1"
       id="guide37"
       inkscape:locked="false" />
  </sodipodi:namedview>
  <g
     inkscape:groupmode="layer"
     id="layer1"
     inkscape:label="Layer1"
     style="display:inline">
    <path
       style="display:inline;fill:#007100;fill-opacity:1;stroke-width:3.42516"
       d="m 690.1709,300.3658 c 3.35857,13.171 9.71278,63.0469 19.15485,81.4533 l 2.60588,-51.0602 c 0.0695,15.2977 3.24646,37.248 8.54786,52.5457 l 5.2853,-48.9226 c 2.78042,14.6091 7.37957,36.1977 12.75795,52.5457 2.42498,-13.3041 3.37653,-33.1174 4.08243,-44.6956 0.88127,11.7448 3.60977,30.272 7.94641,42.884 3.58189,-12.2783 8.34977,-36.1459 8.50903,-48.4243 l 8.93763,52.8659 c 21.01738,-72.7381 19.81347,-81.3224 23.32371,-98.0493 l -45.70958,-70.0471 c -18.34911,34.1845 -37.62866,33.9938 -55.44147,78.9045 z"
       id="path5"
       inkscape:label="path5"
       sodipodi:nodetypes="ccccccccccccc" />
    <path
       d="m 748.21875,185.26758 c -39.58575,1.7421 -50.84465,10.40277 -50.1543,67.94922 L 699.5,284.03711 c 2.22462,6.32169 -0.47121,2.33716 3.17773,9.31445 5.51038,26.38158 7.24456,48.28641 6.67383,64.49219 -33.5446,0.3516 -84.73664,11.11147 -91.98242,40.52344 -5.33776,21.6669 -12.36335,47.03111 -19.92187,82.31836 l 62.58007,8.75195 0.0664,0.36328 c 0.41214,-3.36116 0.96225,-6.75006 1.35547,-10.10742 11.30268,49.64315 15.27378,37.64393 29.51562,182.64648 -26.07765,164.37524 -52.46814,331.99977 -64.23632,496.37496 l -19.22461,309.002 c -0.56176,22.5299 -17.83082,29.9761 -10.95313,44.2539 l 51.0293,0.057 c 4.19061,-15.5123 -8.86511,-26.539 -8.08789,-42.7929 l 55.24609,-300.5332 c 25.58318,-129.7606 51.67751,-259.52266 63.28125,-389.28323 2.48141,119.78818 18.31485,247.62003 34.89649,375.90233 l 46.63085,299.1211 c 1.94551,18.851 -13.77843,34.0708 -6.42578,57.7891 l 135.47852,-0.031 c 4.41429,-4.0502 6.91827,-7.4263 6.91797,-11.4765 -51.54438,-5.2481 -71.18758,-15.4472 -99.75391,-54.6211 l -9.39648,-285.0723 C 855.8099,997.60586 830.11397,830.14739 799.50781,660.97266 c 4.6777,-154.17495 12.99726,-130.89222 19.20117,-186.00586 11.94691,55.05744 15.62499,91.38513 54.36914,233.17968 5.80366,67.00634 26.47025,157.88591 45.1875,245.63672 l -4.39453,42.72266 c 4.54589,13.20754 12.07587,16.34324 20.60938,20.13084 11.13069,-2.7081 20.27786,-7.9071 26.90625,-16.2656 L 947.47461,956.14453 C 936.99586,852.14214 926.51776,760.9392 916.03906,696.69336 884.97945,462.80489 863.06915,406.5834 857.89648,396.41211 c -19.73275,-38.80156 -69.24507,-43.53498 -95.4375,-39.98828 -1.10852,-8.00549 -3.62425,-14.59911 -1.66211,-25.6875 12.50291,-10.83309 21.89711,-24.97857 29.48047,-41.62305 1.30522,-15.84938 3.42701,-29.515 3.01758,-49.95508 -3.22448,-23.92107 -7.82547,-53.69492 -45.07617,-53.89062 z"
       style="display:inline;fill:#ffe6d5;stroke-width:3.42516"
       id="path54" />
    <path
       style="display:inline;fill:#333333;stroke-width:3.42516"
       d="m 709.44213,357.84095 c 5.88581,16.0223 25.33068,16.86905 41.42708,21.22215 16.75775,-9.4332 12.48325,-16.0961 11.44273,-23.7081 3.29448,-0.2945 15.66891,0.0341 19.3295,0.20346 31.38749,48.9532 32.35683,93.18084 37.48114,121.20004 -10.45508,66.71609 -22.13344,134.49602 -16.33635,202.23557 36.06767,143.3605 61.38519,425.30013 64.05828,450.67833 2.85889,54.4687 11.41611,229.2955 11.51687,319.112 -10.72109,1.1028 -13.87811,4.0732 -40.05568,1.1714 -13.02018,-94.4958 -51.46192,-263.155 -52.2104,-311.6018 -10.63986,-84.3454 -31.10118,-266.4115 -28.40528,-341.2916 -23.26505,213.3054 -73.4671,437.4172 -111.63982,655.4492 -12.34679,-0.8588 -21.22955,3.4669 -38.27212,-0.8861 2.05721,-328.8018 50.60369,-550.058 79.30517,-780.7917 3.18855,-61.1841 -17.27235,-151.39656 -26.38971,-191.55186 16.51365,-118.9181 18.91663,-99.84397 32.79172,-120.98607 2.67593,-0.2218 12.81742,-0.31082 15.95687,-0.45492 z"
       id="path6"
       inkscape:label="path6"
       sodipodi:nodetypes="ccccccccccccccccc" />
    <path
       style="fill:#ffffff;stroke-width:4.14303"
       d="m 739.61154,263.4394 c -5.06514,-6.7019 -8.22655,-7.7622 -15.82085,-8.9864 -7.09337,0.4939 -12.12463,0.1863 -18.40528,2.9696 3.19166,5.4129 0.43566,14.0748 14.38963,14.6981 8.7565,-0.099 1.64266,0.1107 10.52422,-0.4412 3.57573,-2.2659 7.37751,-6.3607 9.31228,-8.2401 z"
       id="path8"
       sodipodi:nodetypes="cccccc" />
    <path
       style="fill:#007100;fill-opacity:1;stroke-width:4.23239"
       d="m 734.65255,258.1746 c -4.85199,-4.3986 -16.6476,-4.0632 -22.94862,-2.5435 -0.51342,8.2494 4.31083,14.3128 11.01697,16.4785 1.55046,-0.095 4.37469,-0.01 5.91813,-0.281 4.84743,-0.999 11.48474,-9.2593 6.01352,-13.654 z"
       id="path9"
       sodipodi:nodetypes="ccccc" />
    <path
       style="fill:#007100;fill-opacity:1;stroke-width:4.14303"
       d="m 704.77547,257.6333 c 12.50189,-3.3093 24.2683,-5.1548 34.62646,3.8563 -10.41742,-12.1955 -25.81634,-8.2141 -34.62646,-3.8563 z"
       id="path10"
       sodipodi:nodetypes="ccc" />
    <path
       style="fill:#007100;fill-opacity:1;stroke-width:3.06566"
       d="m 764.58763,251.9393 c 9.8283,-4.3187 16.85656,-4.124 25.35777,1.4624 -8.26038,-8.1385 -15.75312,-8.0726 -25.35777,-1.4624 z"
       id="path10-8-6"
       sodipodi:nodetypes="ccc" />
    <path
       style="fill:#007100;fill-opacity:1;stroke-width:3.01349"
       d="m 735.36796,251.9734 c -9.44751,-4.4617 -19.9203,-4.2203 -28.19796,1.2408 8.07393,-8.0164 18.99258,-7.9904 28.19796,-1.2408 z"
       id="path10-8-6-6"
       sodipodi:nodetypes="ccc" />
    <path
       style="fill:#ffffff;stroke-width:3.94212"
       d="m 759.95232,263.5235 c 4.5858,-6.7019 6.92441,-8.1478 13.80001,-9.372 6.42208,0.4939 10.97719,0.1863 16.66345,2.9697 -2.88962,5.4128 0.0143,13.7152 -12.6191,14.3386 -7.92781,-0.099 -1.48719,0.1107 -9.52823,-0.4412 -3.23733,-2.2659 -6.56446,-5.6157 -8.31613,-7.4951 z"
       id="path8-9"
       sodipodi:nodetypes="cccccc" />
    <path
       style="display:inline;fill:#007100;fill-opacity:1;stroke-width:3.92566"
       d="m 790.70863,257.2016 c -11.22443,-3.3092 -21.5648,-4.9078 -30.86455,4.1033 9.35295,-12.1954 22.95467,-8.461 30.86455,-4.1033 z"
       id="path10-5"
       sodipodi:nodetypes="ccc" />
    <path
       style="display:inline;fill:#007100;fill-opacity:1;stroke-width:4.13743"
       d="m 766.90759,256.3392 c 9.23589,-3.8758 15.9915,-1.2231 22.01293,0.2966 0.49064,8.2494 -4.11955,12.7375 -10.52813,14.9031 -1.48166,-0.095 -4.18058,-0.01 -5.65553,-0.281 -4.63234,-0.999 -11.05772,-10.5241 -5.82927,-14.9187 z"
       id="path9-5"
       sodipodi:nodetypes="ccccc" />
    <path
       style="display:inline;fill:#000000;fill-opacity:0.1;stroke-width:3.42516"
       d="m 704.07994,300.3637 c 6.9172,14.1575 26.44095,28.7187 43.24894,38.9722 6.25939,-2.597 9.79572,-5.5305 13.42993,-8.7132 l -0.42513,5.018 -13.63613,11.9837 c -12.27913,-11.4811 -32.53934,-22.3993 -40.88098,-37.0576 -0.49325,-3.401 -1.15771,-6.802 -1.73663,-10.2031 z"
       id="path15"
       sodipodi:nodetypes="ccccccc" />
    <path
       style="display:inline;fill:#000000;fill-opacity:0.1;stroke-width:3.42516"
       d="m 711.86269,259.9771 c 12.92654,-3.1398 16.91365,-1.3059 24.12813,-0.1143 -4.43169,-6.7647 -19.26124,-5.0584 -24.25556,-3.819 -0.076,0.2508 0.20522,3.6121 0.12743,3.9333 z"
       id="path2"
       sodipodi:nodetypes="cccc" />
    <path
       style="display:inline;fill:#000000;fill-opacity:0.1;stroke-width:3.38771"
       d="m 765.01643,259.9753 c 10.24757,-4.0713 16.60296,-1.5084 23.91068,-0.043 -0.0621,-0.6519 0.0974,-2.8121 -0.0187,-3.2802 -7.01502,-2.3961 -23.69613,-4.5749 -23.89195,3.5755 z"
       id="path2-2"
       sodipodi:nodetypes="ccccc" />
    <path
       style="fill:#ffffff;fill-opacity:0.5;stroke-width:3.42516"
       d="m 767.02475,266.4708 c 6.85034,4.1621 12.85463,3.2276 18.581,0.6188 -1.50429,1.7136 -3.66145,3.2524 -7.2737,4.4017 l -4.39533,-0.095 c -3.54039,-0.062 -5.97453,-3.103 -6.91197,-4.9259 z"
       id="path36"
       sodipodi:nodetypes="ccccc" />
    <path
       style="display:inline;fill:#e6e6e6;stroke-width:3.77953"
       d="m 724.66922,540.18047 10.94525,81.24331 32.8941,54.10322 21.15177,-59.47808 6.38615,-83.23566 -34.47528,-35.40606 z"
       id="path47"
       sodipodi:nodetypes="ccccccc"
       inkscape:label="path47" />
    <path
       style="display:inline;fill:#e6e6e6;stroke-width:3.77953"
       d="M 681.61847,404.47126 762.24033,474.22575 803.33598,400 c 8.16185,20.57064 11.37265,39.87763 15.79122,77.32986 -11.90022,72.06653 -32.82636,57.08451 -50.89888,73.94641 C 755.293,540.75845 684.4535,548.50122 661.133,482.39492 c 6.95529,-34.89906 13.53018,-57.15228 20.48547,-77.92366 z"
       id="path29"
       sodipodi:nodetypes="ccccccc" />
    <path
       style="display:inline;fill:#000000;fill-opacity:0.1;stroke-width:3.77953"
       d="m 725.41737,544.8629 44.41722,13.04195 26.78532,-19.15367 -0.34033,-3.43451 c -4.51957,3.99825 -20.89968,8.92493 -28.05352,15.9083 -6.35357,-5.16505 -22.34777,-5.29873 -43.2273,-11.43626 z"
       id="path48"
       sodipodi:nodetypes="ccccccc" />
    <path
       style="fill:#ffffff;fill-opacity:0.5;stroke-width:3.42516"
       d="m 715.60665,267.3624 c 6.85034,4.1621 13.25699,2.9705 18.98336,0.3617 -1.50429,1.7136 -2.92988,3.3259 -6.2495,4.1814 l -5.52926,0.1625 c -3.90618,-1.2002 -5.97453,-3.1031 -7.2046,-4.7056 z"
       id="path36-0"
       sodipodi:nodetypes="ccccc" />
    <path
       style="display:inline;fill:#ffffff;stroke-width:2.458"
       d="m 740.37046,314.7734 c -0.40642,0.1046 0.44258,-2.1128 2.9873,-2.0078 13.86099,-0.2054 14.35951,-0.073 17.62407,-0.1995 0.94191,0.3146 0.51302,1.7378 0.23016,1.9003 -11.22433,0.2573 -16.76992,-0.097 -20.84143,0.307 z"
       id="path14"
       sodipodi:nodetypes="cccccc" />
    <path
       style="display:inline;fill:#e6e6e6;stroke-width:3.77953"
       d="m 598.79251,1421.3901 7.75025,18.8733 22.05611,-18.5272 17.20375,18.086 14.55703,-20.2916 8.82244,-74.5496 -37.57455,39.5801 -29.31474,-37.2464 z"
       id="path22"
       sodipodi:nodetypes="ccccccccc" />
    <path
       style="display:inline;fill:#e6e6e6;stroke-width:3.77953"
       d="m 601.88236,1339.9656 29.82378,35.3363 38.56341,-38.7643 21.09395,-100.6372 -33.54719,-107.5103 -55.7231,111.8387 z"
       id="path23"
       sodipodi:nodetypes="ccccccc" />
    <path
       style="fill:#000000;fill-opacity:0.1;stroke-width:6.51894"
       d="m 753.37892,274.46228 1.61552,11.29665 -1.01162,8.89221 2.28229,-8.61665 z"
       id="path32"
       sodipodi:nodetypes="ccccc" />
    <path
       style="fill:#007100;fill-opacity:1;stroke-width:3.77953"
       d="m 687.25053,650.79746 c 50.97961,59.72063 107.74476,43.13513 115.35022,26.40872 69.34223,253.12733 -63.89816,434.43702 -229.95454,682.02962 52.03788,-329.3702 -5.02259,-213.8774 114.60432,-708.43834 z"
       id="path19"
       sodipodi:nodetypes="cccc" />
    <path
       id="path28"
       style="display:inline;fill:#e6e6e6;stroke-width:3.77953"
       d="m 762.26758,355.04688 19.50677,37.78519 -23.55719,40.61644 -50.40801,-38.87318 1.74358,-36.83119 -27.34765,38.75586 77.97851,62.72461 40.12696,-68.34961 z"
       sodipodi:nodetypes="ccccccccc" />
    <path
       d="M 642.15421,432.92165 627.055,507.99834 c 48.18036,13.15011 123.65348,14.19967 230.14611,10.15192 65.78431,2.33869 155.01629,-2.70311 249.70769,-9.46311 l 44.0052,1.55201 c 10.6331,-7.3972 12.3487,-18.35249 14.7702,-29.02574 -6.6226,-7.97503 -9.6874,-12.38438 -26.3541,-12.88531 l -35.9214,13.39762 C 1011.7589,472.45732 930.4851,467.3283 864.63962,468.35485 786.06322,456.35054 706.45574,431.51727 642.15421,432.92165 Z"
       style="display:inline;fill:#ffe6d5;stroke-width:3.42516"
       id="path57"
       sodipodi:nodetypes="cccccccccc" />
    <path
       style="display:inline;fill:#007100;fill-opacity:1;stroke-width:3.77953"
       d="m 690.54692,358.67534 c -46.42851,2.32213 -70.07081,24.32383 -96.47319,73.93505 -22.94224,43.10945 -37.73855,150.74365 -36.18867,250.73793 49.64941,-50.37672 69.67215,-48.26472 116.10663,-189.29693 0.13852,-40.71969 28.00381,-87.41443 16.55523,-135.37605 z"
       id="path20"
       sodipodi:nodetypes="csccc" />
    <path
       id="path4"
       style="display:inline;fill:#007100;fill-opacity:1;stroke-width:3.42516"
       inkscape:label="path4"
       d="m 744.22241,159 c -45.90662,0 -65.23079,12.9123 -69.64887,67.1231 -5.48553,58.1671 8.41071,115.6229 26.58459,170.5956 1.73386,-53.4592 3.20244,-109.1149 1.78961,-152.9233 5.87688,0.4538 9.10173,-0.548 12.77151,-2.8501 1.28206,1.4827 1.71148,4.7191 2.13707,6.2018 l 5.3598,-10.3164 c 2.01563,3.2355 2.9009,8.116 3.36934,10.6856 l 3.02348,-9.7545 c 2.95164,4.1525 2.40773,7.5309 3.5813,10.4082 l 4.56737,-11.6426 c 3.8653,24.8233 2.26806,41.1716 3.31388,61.6201 3.23922,-16.9916 10.20244,-31.3467 12.77951,-54.0414 -0.34469,3.7201 2.63962,18.16 3.17535,21.5643 l 6.7212,-27.1673 c 1.84796,4.0625 2.77222,5.3491 3.3651,7.8994 l 4.16261,-9.7233 c 2.08594,3.2727 2.11187,6.9448 2.99697,10.0452 l 3.62678,-7.2432 c 4.76075,3.7796 9.31446,7.1378 14.50759,5.6515 -6.63581,49.7819 -5.75308,102.8582 -2.83693,152.6402 20.02276,-69.8813 26.72099,-127.5967 23.0894,-180.0788 C 807.35822,175.0518 785.77067,159.4873 744.22242,159 Z"
       sodipodi:nodetypes="scccccccccccccccccccccss" />
    <path
       style="display:inline;fill:#000000;fill-opacity:0.1;stroke-width:3.42516"
       d="m 725.70571,159.8709 c -21.86789,27.6675 -50.91219,28.2134 -41.33933,128.2256 l 6.35222,74.2417 c -9.61584,-32.414 -21.94475,-89.6879 -16.2127,-136.1345 3.18873,-38.3909 12.90918,-62.6389 51.19981,-66.3328 z"
       id="path31"
       sodipodi:nodetypes="ccccc" />
    <path
       style="display:inline;fill:#333333;stroke-width:4.32916"
       d="m 587.17153,1070.4636 9.50089,66.7267 42.15476,-65.7833 8.8145,-48.2627 z"
       id="path11"
       sodipodi:nodetypes="ccccc" />
    <path
       style="display:inline;fill:#ffffff;fill-opacity:0.5;stroke-width:2.93942"
       d="m 687.9906,209.5023 c 3.5615,7.2991 10.08846,12.1455 15.39465,-1.3159 1.51829,13.4692 4.46322,2.9671 8.74083,1.7266 6.93689,10.7821 8.77649,1.909 11.8954,-0.042 -0.23999,13.1042 8.07288,3.8385 12.78807,-2.3187 3.32352,3.3008 4.03985,16.9738 10.8756,2.4224 3.74064,10.473 8.4168,6.7142 12.15744,-0.6167 4.35257,13.3575 14.16317,4.1798 13.95145,-1.1919 2.73155,8.4864 4.85143,10.4681 9.77583,0.5043 0.0488,13.9277 9.23036,4.7456 13.32484,0.3155 3.15409,6.8845 4.47577,5.2268 7.62987,2.0903 2.41729,3.6056 4.83458,1.7707 7.25187,0.091 1.43947,6.3271 1.32311,10.4842 1.56215,14.5536 -2.94093,-8.399 -5.88188,-15.3223 -8.82282,-0.2633 -2.42149,-18.8525 -8.03711,-2.5136 -10.95415,-0.3715 0.60554,-4.9654 1.26482,-14.6311 -6.85604,-2.4523 -3.56444,-13.3297 -7.93731,-0.994 -11.50176,3.761 -1.74513,-14.6871 -8.86817,-6.0743 -13.86301,-2.2259 -1.14847,-7.3111 -1.87128,-10.5029 -8.3323,0.9167 -1.76453,-5.6622 -8.97903,-7.8589 -14.97958,-1.6126 0.0444,-11.1745 -4.00785,-10.841 -11.67463,-0.3484 -7.53825,-8.1149 -8.00371,-4.7465 -10.04271,1.5789 -1.08262,-12.4665 -10.24882,-6.0227 -16.15925,1.8978 -0.075,-7.263 -6.49738,-8.3947 -15.3921,-4.2808 0.95479,-4.6774 1.83865,-8.6455 3.23035,-12.8186 z"
       id="path43"
       sodipodi:nodetypes="cccccccccccccccccccccccccc" />
    <path
       style="fill:#e6e6e6;fill-opacity:0.986842;stroke-width:3.77953"
       d="m 681.42111,741.04755 -21.90283,273.83765 -90.50567,67.6564 81.84926,-387.33292 z"
       id="path18"
       sodipodi:nodetypes="ccccc" />
    <path
       style="display:inline;fill:#333333;stroke-width:3.42831"
       d="m 583.27848,524.27535 -7.6727,-28.1346 -3.61011,54.58671 5.70092,32.07626 36.77157,-33.40314 15.96698,-42.17304 z"
       id="path7"
       sodipodi:nodetypes="ccccccc" />
    <path
       style="display:inline;fill:#e6e6e6;fill-opacity:0.986842;stroke-width:3.42831"
       d="m 676.75254,355.46013 -38.66874,152.76164 -60.0454,27.26469 -3.7135,-55.04572 55.51459,-134.87317 33.95123,-30.9913 z"
       id="path21"
       sodipodi:nodetypes="ccccccc" />
    <path
       style="display:inline;fill:#333333;fill-opacity:1;stroke-width:3.77291"
       d="m 1071.576,473.46148 -159.9616,4.43705 -1.33846,-29.9401 25.3188,0.14463 4.0176,-5.05324 -99.118,0.31599 c -12.34626,-17.86414 -11.79961,-29.27198 -1.6254,-46.73823 l 271.74986,-9.38563 208.6726,-19.87299 38.214,15.47571 3.4542,58.27458 -38.6777,16.9122 -213.3871,-14.02834 -122.9493,0.36822 6.74651,4.05765 52.70889,0.30086 z"
       id="path3"
       sodipodi:nodetypes="ccccccccccccccccc" />
    <path
       style="display:inline;fill:#e6e6e6;stroke-width:3.77291"
       d="m 1114.0716,470.6917 -4.9619,3.90388 -5.2428,4.12487 -22.33,17.56871 28.2378,23.54022 -29.6874,-2.06749 -25.1906,-21.3137 15.238,-11.62577 -65.1913,-2.84838 33.1513,-13.47153 -27.307,-19.66023 81.0972,0.62943 z"
       id="path26"
       sodipodi:nodetypes="ccccccccccccc" />
    <path
       style="display:inline;fill:#e6e6e6;stroke-width:3.77291"
       d="m 1054.1669,490.51021 -6.8109,5.17768 27.8768,22.57017 -98.1819,12.27417 -109.01398,-57.46891 41.6664,-25.72504 27.58552,18.08646 35.51186,-7.60219 50.7978,7.91961 -27.18311,15.09326 13.14771,9.90522 z"
       id="path27"
       sodipodi:nodetypes="cccccccccccc" />
    <path
       id="path12"
       style="display:inline;fill:#333333;stroke-width:3.77953"
       d="m 819.5219,385.85594 -0.4062,10.90234 c -6.3231,-1.38725 -12.6077,-3.05612 -18.8692,-4.92773 l 2.1992,5.8125 c 11.3575,4.32264 23.1277,6.19986 35.0332,7.41406 l 5.67,10.32813 -2.6778,-10.03711 c 7.2548,0.6781 14.5504,1.16933 21.8281,1.86132 0.063,0.17921 0.1245,0.35697 0.1895,0.53711 l 4.0488,3.85547 -4.8633,-6.14062 c -0.5365,-1.48886 -1.0858,-2.98755 -1.7519,-4.58008 -1.9046,0.0643 -3.801,0.0759 -5.6934,0.0625 l 0.5,-12.38281 -3.289,12.33789 c -9.9263,-0.26306 -19.6958,-1.53356 -29.3672,-3.51172 z" />
    <path
       id="path33"
       style="display:inline;fill:#333333;stroke-width:3.77953"
       d="m 804.266,402.08836 2.7442,7.98438 c 3.3263,2.77329 6.5116,5.42655 9.6348,7.98046 l -3.8379,11.87696 6.2441,-9.91407 c 8.5454,6.89682 16.6818,12.9045 25.7207,17.84961 l 4.2949,11.27149 -1.4941,-9.78906 c 7.8223,4.00144 16.3878,7.22944 26.5078,9.57031 l 4.4551,4.79101 -5.1973,-8.02343 c -0.1548,-0.71445 -0.2822,-1.27294 -0.6055,-2.42188 -2.0917,-0.45185 -4.1939,-1.00959 -6.3066,-1.66015 l 2.8379,-9.83008 -5.5,8.96094 c -9.7982,-3.37032 -19.7551,-8.70995 -29.5547,-15.21876 l 5.793,-11.77343 -8.5743,9.88086 c -9.3174,-6.41483 -18.4655,-13.81084 -27.1621,-21.53516 z" />
    <path
       id="path40"
       style="display:inline;fill:#333333;stroke-width:3.77953"
       d="m 833.1508,362.395 -3.3808,5.36914 0.033,0.0176 c -4.951,8.50766 -13.9058,11.1908 -25.3614,15.13672 l -2.5429,-14.33594 -0.2168,15.29883 c -1.4546,0.51496 -2.9379,1.05092 -4.4629,1.63476 l 2.3359,4.83594 c 9.3339,-3.96025 17.3621,-6.97357 23.918,-11.09765 l 15.0019,7.35351 -12.3222,-9.16992 c 2.8935,-2.11109 5.4574,-4.53068 7.6679,-7.48047 -0.8942,-0.50831 -1.8221,-1.04647 -2.7382,-1.54687 z" />
    <path
       style="display:inline;fill:#007100;fill-opacity:1;stroke-width:3.77291"
       d="m 833.22645,408.55582 266.86935,-7.41451 36.6713,14.53651 127.136,-1.7035 26.5782,-43.90942 7.8838,-0.58374 -32.0549,52.6535 -129.7616,1.47486 -36.9722,-15.50625 -267.55696,4.86041 c 0.26261,-1.00374 0.6673,-3.15395 1.20701,-4.40786 z"
       id="path13"
       sodipodi:nodetypes="ccccccccccc" />
    <path
       style="display:inline;fill:#e6e6e6;fill-opacity:1;stroke-width:3.77291"
       d="m 1278.2845,370.72007 -22.0385,35.07415 -120.7045,1.81837 -45.3742,-19.59971 c 54.6324,-6.18157 118.0801,-12.43088 188.1172,-17.29281 z"
       id="path16"
       sodipodi:nodetypes="ccccc" />
  </g>
</svg>
