<?xml version="1.0" encoding="UTF-8" standalone="no"?>
<!-- Created with Inkscape (http://www.inkscape.org/) -->

<svg
   version="1.1"
   id="svg1"
   width="1512"
   height="1512"
   viewBox="0 0 1512 1512"
   sodipodi:docname="Ally1.svg"
   inkscape:version="1.3.2 (091e20e, 2023-11-25)"
   inkscape:export-filename="../../Utopia/Assets/Sprites/Tetra.png"
   inkscape:export-xdpi="96"
   inkscape:export-ydpi="96"
   xmlns:inkscape="http://www.inkscape.org/namespaces/inkscape"
   xmlns:sodipodi="http://sodipodi.sourceforge.net/DTD/sodipodi-0.dtd"
   xmlns="http://www.w3.org/2000/svg"
   xmlns:svg="http://www.w3.org/2000/svg">
  <defs
     id="defs1" />
  <sodipodi:namedview
     id="namedview1"
     pagecolor="#505050"
     bordercolor="#eeeeee"
     borderopacity="1"
     inkscape:showpageshadow="0"
     inkscape:pageopacity="0"
     inkscape:pagecheckerboard="0"
     inkscape:deskcolor="#505050"
     inkscape:zoom="0.66264738"
     inkscape:cx="625.52122"
     inkscape:cy="648.91225"
     inkscape:window-width="1512"
     inkscape:window-height="831"
     inkscape:window-x="0"
     inkscape:window-y="38"
     inkscape:window-maximized="0"
     inkscape:current-layer="layer1"
     showguides="true"
     showgrid="false" />
  <g
     inkscape:groupmode="layer"
     id="layer1"
     inkscape:label="Layer1"
     style="display:inline">
    <path
       style="display:inline;fill:#007100;stroke-width:3.42516;fill-opacity:1"
       d="m 690.1709,300.3658 c 3.35857,13.171 9.71278,63.0469 19.15485,81.4533 l 2.60588,-51.0602 c 0.0695,15.2977 3.24646,37.248 8.54786,52.5457 l 5.2853,-48.9226 c 2.78042,14.6091 7.37957,36.1977 12.75795,52.5457 2.42498,-13.3041 3.37653,-33.1174 4.08243,-44.6956 0.88127,11.7448 3.60977,30.272 7.94641,42.884 3.58189,-12.2783 8.34977,-36.1459 8.50903,-48.4243 l 8.93763,52.8659 c 21.01738,-72.7381 19.81347,-81.3224 23.32371,-98.0493 l -45.70958,-70.0471 c -18.34911,34.1845 -37.62866,33.9938 -55.44147,78.9045 z"
       id="path5"
       inkscape:label="path5"
       sodipodi:nodetypes="ccccccccccccc" />
    <path
       id="path1"
       style="display:inline;fill:#f4e3d7;stroke-width:3.42516"
       d="m 748.2197,185.2674 c -39.58579,1.7421 -50.84509,10.4034 -50.15474,67.9499 l 1.43436,30.8189 c 2.22462,6.3217 -0.47034,2.3388 3.17861,9.3161 5.51038,26.3816 7.24368,48.286 6.67295,64.4918 -33.54464,0.3516 -84.73529,11.112 -91.98108,40.524 -12.79429,51.9343 -35.10827,121.3615 -51.8883,311.9912 -10.57339,64.9712 -16.76625,154.1311 -21.93944,248.9225 l -7.05965,43.4624 c 6.00474,11.4771 16.65813,14.5529 26.94325,18.2943 8.74289,-5.5697 13.50258,-8.0563 16.09053,-24.5286 l -8.78477,-37.3186 c 20.69339,-89.763 35.97759,-169.7517 43.21999,-235.2058 23.40705,-82.9514 38.11276,-164.1559 47.49836,-244.2918 11.30269,49.6432 15.27392,37.6442 29.51578,182.6469 -26.07768,164.3754 -52.46913,331.9992 -64.23733,496.3746 l -19.22439,309.0014 c -0.56176,22.5299 -17.83059,29.976 -10.95289,44.2538 l 51.02889,0.057 c 4.19062,-15.5124 -8.86439,-26.5388 -8.08717,-42.7927 l 55.24605,-300.5344 c 25.5832,-129.7607 51.67793,-259.522 63.28168,-389.2827 2.48141,119.7883 18.31478,247.6206 34.89643,375.903 l 46.62925,299.1209 c 1.94551,18.851 -13.7776,34.0712 -6.42494,57.7895 l 135.47765,-0.032 c 4.4143,-4.0502 6.9191,-7.4257 6.9188,-11.4759 -51.54443,-5.2481 -71.18741,-15.4471 -99.75377,-54.6211 l -9.39757,-285.0729 c -10.5573,-163.4236 -36.25257,-330.8816 -66.85876,-500.0565 4.6777,-154.1751 12.99751,-130.8922 19.20143,-186.0059 11.94692,55.0575 15.62569,91.3857 54.36988,233.1804 5.80366,67.0064 26.46879,157.8852 45.18606,245.6361 l -4.3939,42.7233 c 4.54589,13.2076 12.07671,16.3427 20.61023,20.1303 11.1307,-2.7081 20.2763,-7.9076 26.9047,-16.2661 l -13.9108,-44.2263 C 936.99632,852.1419 926.51782,760.9383 916.03911,696.6924 884.97947,462.8037 863.0687,406.5842 857.89603,396.4129 c -19.73277,-38.8016 -69.24407,-43.5361 -95.43652,-39.9894 -1.10853,-8.0055 -3.62439,-14.5979 -1.66224,-25.6863 12.50292,-10.8331 21.89708,-24.9789 29.48045,-41.6234 1.30522,-15.8494 3.42655,-29.5153 3.01712,-49.9554 -3.22449,-23.9211 -7.8244,-53.6953 -45.07514,-53.891 z"
       sodipodi:nodetypes="cccccsccccccccccccccccccccccccccccccccsccccc" />
    <path
       style="display:inline;fill:#333333;stroke-width:3.42516"
       d="m 709.44213,357.84095 c 5.88581,16.0223 25.33068,16.86905 41.42708,21.22215 16.75775,-9.4332 12.48325,-16.0961 11.44273,-23.7081 3.29448,-0.2945 15.66891,0.0341 19.3295,0.20346 31.38749,48.9532 32.35683,93.18084 37.48114,121.20004 -10.45508,66.71609 -22.13344,134.49602 -16.33635,202.23557 36.06767,143.3605 61.38519,425.30013 64.05828,450.67833 2.85889,54.4687 11.41611,229.2955 11.51687,319.112 -10.72109,1.1028 -13.87811,4.0732 -40.05568,1.1714 -13.02018,-94.4958 -51.46192,-263.155 -52.2104,-311.6018 -10.63986,-84.3454 -31.10118,-266.4115 -28.40528,-341.2916 -23.26505,213.3054 -73.4671,437.4172 -111.63982,655.4492 -12.34679,-0.8588 -21.22955,3.4669 -38.27212,-0.8861 2.05721,-328.8018 50.60369,-550.058 79.30517,-780.7917 3.18855,-61.1841 -17.27235,-151.39656 -26.38971,-191.55186 16.51365,-118.9181 18.91663,-99.84397 32.79172,-120.98607 2.67593,-0.2218 12.81742,-0.31082 15.95687,-0.45492 z"
       id="path6"
       inkscape:label="path6"
       sodipodi:nodetypes="ccccccccccccccccc" />
    <path
       style="fill:#ffffff;stroke-width:4.14303"
       d="m 739.61154,263.4394 c -5.06514,-6.7019 -8.22655,-7.7622 -15.82085,-8.9864 -7.09337,0.4939 -12.12463,0.1863 -18.40528,2.9696 3.19166,5.4129 0.43566,14.0748 14.38963,14.6981 8.7565,-0.099 1.64266,0.1107 10.52422,-0.4412 3.57573,-2.2659 7.37751,-6.3607 9.31228,-8.2401 z"
       id="path8"
       sodipodi:nodetypes="cccccc" />
    <path
       style="fill:#007100;stroke-width:4.23239;fill-opacity:1"
       d="m 734.65255,258.1746 c -4.85199,-4.3986 -16.6476,-4.0632 -22.94862,-2.5435 -0.51342,8.2494 4.31083,14.3128 11.01697,16.4785 1.55046,-0.095 4.37469,-0.01 5.91813,-0.281 4.84743,-0.999 11.48474,-9.2593 6.01352,-13.654 z"
       id="path9"
       sodipodi:nodetypes="ccccc" />
    <path
       style="fill:#007100;stroke-width:4.14303;fill-opacity:1"
       d="m 704.77547,257.6333 c 12.50189,-3.3093 24.2683,-5.1548 34.62646,3.8563 -10.41742,-12.1955 -25.81634,-8.2141 -34.62646,-3.8563 z"
       id="path10"
       sodipodi:nodetypes="ccc" />
    <path
       style="fill:#007100;stroke-width:3.06566;fill-opacity:1"
       d="m 764.58763,251.9393 c 9.8283,-4.3187 16.85656,-4.124 25.35777,1.4624 -8.26038,-8.1385 -15.75312,-8.0726 -25.35777,-1.4624 z"
       id="path10-8-6"
       sodipodi:nodetypes="ccc" />
    <path
       style="fill:#007100;stroke-width:3.01349;fill-opacity:1"
       d="m 735.36796,251.9734 c -9.44751,-4.4617 -19.9203,-4.2203 -28.19796,1.2408 8.07393,-8.0164 18.99258,-7.9904 28.19796,-1.2408 z"
       id="path10-8-6-6"
       sodipodi:nodetypes="ccc" />
    <path
       style="fill:#ffffff;stroke-width:3.94212"
       d="m 759.95232,263.5235 c 4.5858,-6.7019 6.92441,-8.1478 13.80001,-9.372 6.42208,0.4939 10.97719,0.1863 16.66345,2.9697 -2.88962,5.4128 0.0143,13.7152 -12.6191,14.3386 -7.92781,-0.099 -1.48719,0.1107 -9.52823,-0.4412 -3.23733,-2.2659 -6.56446,-5.6157 -8.31613,-7.4951 z"
       id="path8-9"
       sodipodi:nodetypes="cccccc" />
    <path
       style="display:inline;fill:#007100;stroke-width:3.92566;fill-opacity:1"
       d="m 790.70863,257.2016 c -11.22443,-3.3092 -21.5648,-4.9078 -30.86455,4.1033 9.35295,-12.1954 22.95467,-8.461 30.86455,-4.1033 z"
       id="path10-5"
       sodipodi:nodetypes="ccc" />
    <path
       style="display:inline;fill:#007100;stroke-width:4.13743;fill-opacity:1"
       d="m 766.90759,256.3392 c 9.23589,-3.8758 15.9915,-1.2231 22.01293,0.2966 0.49064,8.2494 -4.11955,12.7375 -10.52813,14.9031 -1.48166,-0.095 -4.18058,-0.01 -5.65553,-0.281 -4.63234,-0.999 -11.05772,-10.5241 -5.82927,-14.9187 z"
       id="path9-5"
       sodipodi:nodetypes="ccccc" />
    <path
       style="display:inline;fill:#000000;fill-opacity:0.1;stroke-width:3.42516"
       d="m 704.07994,300.3637 c 6.9172,14.1575 26.44095,28.7187 43.24894,38.9722 6.25939,-2.597 9.79572,-5.5305 13.42993,-8.7132 l -0.42513,5.018 -13.63613,11.9837 c -12.27913,-11.4811 -32.53934,-22.3993 -40.88098,-37.0576 -0.49325,-3.401 -1.15771,-6.802 -1.73663,-10.2031 z"
       id="path15"
       sodipodi:nodetypes="ccccccc" />
    <path
       style="display:inline;fill:#000000;fill-opacity:0.1;stroke-width:3.42516"
       d="m 711.86269,259.9771 c 12.92654,-3.1398 16.91365,-1.3059 24.12813,-0.1143 -4.43169,-6.7647 -19.26124,-5.0584 -24.25556,-3.819 -0.076,0.2508 0.20522,3.6121 0.12743,3.9333 z"
       id="path2"
       sodipodi:nodetypes="cccc" />
    <path
       style="display:inline;fill:#000000;fill-opacity:0.1;stroke-width:3.38771"
       d="m 765.01643,259.9753 c 10.24757,-4.0713 16.60296,-1.5084 23.91068,-0.043 -0.0621,-0.6519 0.0974,-2.8121 -0.0187,-3.2802 -7.01502,-2.3961 -23.69613,-4.5749 -23.89195,3.5755 z"
       id="path2-2"
       sodipodi:nodetypes="ccccc" />
    <path
       style="fill:#ffffff;fill-opacity:0.5;stroke-width:3.42516"
       d="m 767.02475,266.4708 c 6.85034,4.1621 12.85463,3.2276 18.581,0.6188 -1.50429,1.7136 -3.66145,3.2524 -7.2737,4.4017 l -4.39533,-0.095 c -3.54039,-0.062 -5.97453,-3.103 -6.91197,-4.9259 z"
       id="path36"
       sodipodi:nodetypes="ccccc" />
    <path
       style="fill:#ffffff;fill-opacity:0.5;stroke-width:3.42516"
       d="m 715.60665,267.3624 c 6.85034,4.1621 13.25699,2.9705 18.98336,0.3617 -1.50429,1.7136 -2.92988,3.3259 -6.2495,4.1814 l -5.52926,0.1625 c -3.90618,-1.2002 -5.97453,-3.1031 -7.2046,-4.7056 z"
       id="path36-0"
       sodipodi:nodetypes="ccccc" />
    <path
       style="display:inline;fill:#ffffff;stroke-width:2.458"
       d="m 740.37046,314.7734 c -0.40642,0.1046 0.44258,-2.1128 2.9873,-2.0078 13.86099,-0.2054 14.35951,-0.073 17.62407,-0.1995 0.94191,0.3146 0.51302,1.7378 0.23016,1.9003 -11.22433,0.2573 -16.76992,-0.097 -20.84143,0.307 z"
       id="path14"
       sodipodi:nodetypes="cccccc" />
    <path
       style="display:inline;fill:#e6e6e6;stroke-width:3.77953"
       d="m 598.79251,1421.3901 7.75025,18.8733 22.05611,-18.5272 17.20375,18.086 14.55703,-20.2916 8.82244,-74.5496 -37.57455,39.5801 -29.31474,-37.2464 z"
       id="path22"
       sodipodi:nodetypes="ccccccccc" />
    <path
       style="display:inline;fill:#333333;fill-opacity:1;stroke-width:3.77953"
       d="m 540.0825,922.20957 18.13737,-158.99915 -29.82091,-3.88902 -2.02409,25.23875 -5.39651,3.57164 8.80559,-98.72934 c -16.80403,-13.82594 -28.257,-14.25497 -46.59205,-5.60867 l -32.66016,269.95707 -37.74318,206.21495 12.20021,39.3954 57.97003,8.4155 20.22252,-37.093 4.25084,-213.80588 10.89894,-122.46916 3.47918,7.06823 -4.21376,52.54213 z"
       id="path3"
       sodipodi:nodetypes="ccccccccccccccccc" />
    <path
       style="display:inline;fill:#e6e6e6;stroke-width:3.77953"
       d="m 601.88236,1339.9656 29.82378,35.3363 38.56341,-38.7643 21.09395,-100.6372 -33.54719,-107.5103 -55.7231,111.8387 z"
       id="path23"
       sodipodi:nodetypes="ccccccc" />
    <path
       style="fill:#000000;fill-opacity:0.1;stroke-width:6.51894"
       d="m 753.37892,274.46228 1.61552,11.29665 -1.01162,8.89221 2.28229,-8.61665 z"
       id="path32"
       sodipodi:nodetypes="ccccc" />
    <path
       style="fill:#007100;stroke-width:3.77953;fill-opacity:1"
       d="m 687.25053,650.79746 c 50.97961,59.72063 107.74476,43.13513 115.35022,26.40872 69.34223,253.12733 -63.89816,434.43702 -229.95454,682.02962 52.03788,-329.3702 -5.02259,-213.8774 114.60432,-708.43834 z"
       id="path19"
       sodipodi:nodetypes="cccc" />
    <path
       style="fill:#007100;stroke-width:3.77953;fill-opacity:1"
       d="m 693.91556,356.93795 c -70.29007,-5.01546 -151.76255,75.89094 -169.07587,326.41037 36.78965,-51.18046 99.41035,-59.74539 136.20001,-200.7776 z"
       id="path20"
       sodipodi:nodetypes="cccc" />
    <path
       id="path28"
       style="display:inline;fill:#e6e6e6;stroke-width:3.77953"
       d="m 762.26758,355.04688 19.50677,37.78519 -23.55719,40.61644 -50.40801,-38.87318 1.74358,-36.83119 -27.34765,38.75586 77.97851,62.72461 40.12696,-68.34961 z"
       sodipodi:nodetypes="ccccccccc" />
    <path
       style="fill:#e6e6e6;stroke-width:3.77953"
       d="m 533.6733,964.31372 4.32833,-4.61061 4.57331,-4.87157 19.47868,-20.74902 21.11807,30.14395 0.47564,-29.75556 -19.15289,-26.91781 -12.9292,14.19015 2.73579,-65.19657 -16.30898,31.88055 -17.31842,-28.88536 -6.31679,80.85496 z"
       id="path26"
       sodipodi:nodetypes="ccccccccccccc" />
    <path
       style="fill:#e6e6e6;stroke-width:3.77953"
       d="m 558.61977,906.31917 5.76038,-6.34415 20.17911,29.7015 20.68179,-96.77599 -48.12314,-113.52126 -29.28997,39.31866 15.72101,29.02858 -10.64275,34.73341 3.56756,51.28835 17.41926,-25.79564 8.77756,13.94518 z"
       id="path27"
       sodipodi:nodetypes="cccccccccccc" />
    <path
       style="fill:#e6e6e6;stroke-width:3.77953"
       d="m 681.6181,403.90344 80.62186,69.75449 41.09565,-74.22575 c 8.16185,20.57064 11.37265,39.87763 15.79122,77.32986 -13.78653,71.77633 -35.73415,86.25408 -47.50289,104.08579 -12.93532,-10.51782 -87.17081,-32.91443 -110.49131,-99.02073 6.95529,-34.89906 13.53018,-57.15228 20.48547,-77.92366 z"
       id="path29"
       sodipodi:nodetypes="ccccccc" />
    <path
       id="path4"
       style="display:inline;fill:#007100;stroke-width:3.42516;fill-opacity:1"
       inkscape:label="path4"
       d="m 744.22241,159 c -45.90662,0 -65.23079,12.9123 -69.64887,67.1231 -5.48553,58.1671 8.41071,115.6229 26.58459,170.5956 1.73386,-53.4592 3.20244,-109.1149 1.78961,-152.9233 5.87688,0.4538 9.10173,-0.548 12.77151,-2.8501 1.28206,1.4827 1.71148,4.7191 2.13707,6.2018 l 5.3598,-10.3164 c 2.01563,3.2355 2.9009,8.116 3.36934,10.6856 l 3.02348,-9.7545 c 2.95164,4.1525 2.40773,7.5309 3.5813,10.4082 l 4.56737,-11.6426 c 3.8653,24.8233 2.26806,41.1716 3.31388,61.6201 3.23922,-16.9916 10.20244,-31.3467 12.77951,-54.0414 -0.34469,3.7201 2.63962,18.16 3.17535,21.5643 l 6.7212,-27.1673 c 1.84796,4.0625 2.77222,5.3491 3.3651,7.8994 l 4.16261,-9.7233 c 2.08594,3.2727 2.11187,6.9448 2.99697,10.0452 l 3.62678,-7.2432 c 4.76075,3.7796 9.31446,7.1378 14.50759,5.6515 -6.63581,49.7819 -5.75308,102.8582 -2.83693,152.6402 20.02276,-69.8813 26.72099,-127.5967 23.0894,-180.0788 C 807.35822,175.0518 785.77067,159.4873 744.22242,159 Z"
       sodipodi:nodetypes="scccccccccccccccccccccss" />
    <path
       style="display:inline;fill:#000000;fill-opacity:0.1;stroke-width:3.42516"
       d="m 725.70571,159.8709 c -21.86789,27.6675 -50.91219,28.2134 -41.33933,128.2256 l 6.35222,74.2417 c -9.61584,-32.414 -21.94475,-89.6879 -16.2127,-136.1345 3.18873,-38.3909 12.90918,-62.6389 51.19981,-66.3328 z"
       id="path31"
       sodipodi:nodetypes="ccccc" />
    <path
       style="display:inline;fill:#333333;stroke-width:4.32916"
       d="m 587.17153,1070.4636 9.50089,66.7267 42.15476,-65.7833 8.8145,-48.2627 z"
       id="path11"
       sodipodi:nodetypes="ccccc" />
    <path
       style="display:inline;fill:#ffffff;fill-opacity:0.5;stroke-width:2.93942"
       d="m 687.9906,209.5023 c 3.5615,7.2991 10.08846,12.1455 15.39465,-1.3159 1.51829,13.4692 4.46322,2.9671 8.74083,1.7266 6.93689,10.7821 8.77649,1.909 11.8954,-0.042 -0.23999,13.1042 8.07288,3.8385 12.78807,-2.3187 3.32352,3.3008 4.03985,16.9738 10.8756,2.4224 3.74064,10.473 8.4168,6.7142 12.15744,-0.6167 4.35257,13.3575 14.16317,4.1798 13.95145,-1.1919 2.73155,8.4864 4.85143,10.4681 9.77583,0.5043 0.0488,13.9277 9.23036,4.7456 13.32484,0.3155 3.15409,6.8845 4.47577,5.2268 7.62987,2.0903 2.41729,3.6056 4.83458,1.7707 7.25187,0.091 1.43947,6.3271 1.32311,10.4842 1.56215,14.5536 -2.94093,-8.399 -5.88188,-15.3223 -8.82282,-0.2633 -2.42149,-18.8525 -8.03711,-2.5136 -10.95415,-0.3715 0.60554,-4.9654 1.26482,-14.6311 -6.85604,-2.4523 -3.56444,-13.3297 -7.93731,-0.994 -11.50176,3.761 -1.74513,-14.6871 -8.86817,-6.0743 -13.86301,-2.2259 -1.14847,-7.3111 -1.87128,-10.5029 -8.3323,0.9167 -1.76453,-5.6622 -8.97903,-7.8589 -14.97958,-1.6126 0.0444,-11.1745 -4.00785,-10.841 -11.67463,-0.3484 -7.53825,-8.1149 -8.00371,-4.7465 -10.04271,1.5789 -1.08262,-12.4665 -10.24882,-6.0227 -16.15925,1.8978 -0.075,-7.263 -6.49738,-8.3947 -15.3921,-4.2808 0.95479,-4.6774 1.83865,-8.6455 3.23035,-12.8186 z"
       id="path43"
       sodipodi:nodetypes="cccccccccccccccccccccccccc" />
    <path
       style="fill:#007100;fill-opacity:1;stroke-width:3.77953"
       d="m 495.60161,679.18998 -30.27127,265.2627 11.39339,37.77811 -12.5927,126.52671 -46.17929,22.7335 -1.25889,7.8051 55.39119,-27.4438 12.58891,-129.16216 -12.33713,-38.16082 27.77643,-266.16572 c -1.02616,0.17597 -3.21073,0.39566 -4.51064,0.82638 z"
       id="path13"
       sodipodi:nodetypes="ccccccccccc" />
    <path
       style="fill:#e6e6e6;fill-opacity:1;stroke-width:3.77953"
       d="m 419.65142,1119.3946 36.95656,-18.9645 12.15676,-120.10881 -15.71047,-46.88151 c -10.86004,53.90544 -22.54281,116.58822 -33.40285,185.95482 z"
       id="path16"
       sodipodi:nodetypes="ccccc" />
    <path
       style="fill:#e6e6e6;fill-opacity:0.986842;stroke-width:3.77953"
       d="m 681.42111,741.04755 -21.90283,273.83765 -90.50567,67.6564 81.84926,-387.33292 z"
       id="path18"
       sodipodi:nodetypes="ccccc" />
    <path
       style="display:inline;fill:#333333;stroke-width:3.42831"
       d="m 534.67166,515.07443 4.83221,56.71417 29.98587,-33.40314 15.96698,-34.00914 z"
       id="path7"
       sodipodi:nodetypes="ccccc" />
    <path
       style="fill:#e6e6e6;fill-opacity:0.986842;stroke-width:3.42831"
       d="M 655.01112,363.71836 585.15985,504.97058 520.73129,519.03381 645.84902,319.4476 Z"
       id="path21"
       sodipodi:nodetypes="ccccc" />
  </g>
</svg>
