<?xml version="1.0" encoding="UTF-8" standalone="no"?>
<!-- Created with Inkscape (http://www.inkscape.org/) -->

<svg
   version="1.1"
   id="svg1"
   width="1512"
   height="1512"
   viewBox="0 0 1512 1512"
   sodipodi:docname="Ally2.svg"
   inkscape:version="1.3.2 (091e20e, 2023-11-25)"
   inkscape:export-filename="../../Utopia/Assets/Sprites/Dusty.png"
   inkscape:export-xdpi="96"
   inkscape:export-ydpi="96"
   xmlns:inkscape="http://www.inkscape.org/namespaces/inkscape"
   xmlns:sodipodi="http://sodipodi.sourceforge.net/DTD/sodipodi-0.dtd"
   xmlns="http://www.w3.org/2000/svg"
   xmlns:svg="http://www.w3.org/2000/svg">
  <defs
     id="defs1" />
  <sodipodi:namedview
     id="namedview1"
     pagecolor="#505050"
     bordercolor="#eeeeee"
     borderopacity="1"
     inkscape:showpageshadow="0"
     inkscape:pageopacity="0"
     inkscape:pagecheckerboard="0"
     inkscape:deskcolor="#505050"
     inkscape:zoom="5.3641719"
     inkscape:cx="757.8989"
     inkscape:cy="289.69989"
     inkscape:window-width="1512"
     inkscape:window-height="917"
     inkscape:window-x="0"
     inkscape:window-y="65"
     inkscape:window-maximized="0"
     inkscape:current-layer="layer1"
     showguides="true"
     showgrid="false" />
  <g
     inkscape:groupmode="layer"
     id="layer1"
     inkscape:label="Layer1"
     style="display:inline">
    <path
       style="display:inline;fill:#3771c8;fill-opacity:1;stroke-width:3.93684"
       d="m 762.7863,341.04071 c 1.35637,7.34564 -0.14612,13.22616 -0.23884,19.82915 5.14727,-7.21985 7.7233,-18.06345 9.79251,-29.62134 l 0.47767,11.75061 c 5.76738,-13.84169 14.41743,-31.25149 17.83144,-52.59756 l -44.90227,-68.30046 -55.23262,66.37264 7.60511,48.68133 3.11362,-8.53523 c 1.23484,10.92297 1.52682,24.74516 5.29748,27.87077 1.0571,-5.44679 -1.1957,-11.41868 3.15724,-17.61616 l 28.43836,10.39121 z"
       id="path4"
       sodipodi:nodetypes="ccccccccccccc" />
    <path
       id="path1"
       style="display:inline;fill:#f4e3d7;stroke-width:3.42516"
       d="m 748.2197,184.81403 c -39.58579,1.74213 -50.84509,10.40345 -50.15474,67.94991 l 1.43436,30.8189 c 2.22462,6.32169 -0.47034,2.33888 3.17861,9.31616 5.51038,26.38158 7.24368,48.28598 6.67295,64.49172 -33.54464,0.35168 -84.73529,11.11207 -91.98108,40.52404 -12.79429,51.93427 -35.10827,121.36156 -51.8883,311.99123 -10.57339,64.9712 -16.76625,154.13108 -21.93944,248.92248 l -7.05965,43.46243 c 6.00474,11.4771 16.65813,14.5529 26.94325,18.2943 8.74289,-5.5697 13.50258,-8.0563 16.09053,-24.52868 l -8.78477,-37.31851 c 20.69339,-89.76299 35.97759,-169.75176 43.21999,-235.20587 23.40705,-82.95133 38.11276,-164.15592 47.49836,-244.29173 11.30269,49.64314 15.27392,37.64421 29.51578,182.64683 -26.07768,164.37544 -52.46913,331.99922 -64.23733,496.37466 l -19.22439,309.0014 c -0.56176,22.5299 -17.83059,29.976 -10.95289,44.2538 l 51.02889,0.057 c 4.19062,-15.5124 -8.86439,-26.5388 -8.08717,-42.7927 l 55.24605,-300.5344 c 25.5832,-129.7607 51.67793,-259.52208 63.28168,-389.28269 2.48141,119.7883 18.31478,247.62059 34.89643,375.90299 l 46.62925,299.1209 c 1.94551,18.851 -13.7776,34.0712 -6.42494,57.7895 l 135.47765,-0.032 c 4.4143,-4.0502 6.9191,-7.4257 6.9188,-11.4759 -51.54443,-5.2481 -71.18741,-15.4471 -99.75377,-54.6211 l -9.39757,-285.0729 c -10.5573,-163.42363 -36.25257,-330.88166 -66.85876,-500.05654 4.6777,-154.17509 12.99751,-130.89217 19.20143,-186.00593 11.94692,55.05755 15.62569,91.38569 54.36988,233.18048 5.80366,67.00638 26.46879,157.88512 45.18606,245.63608 l -4.3939,42.7233 c 4.54589,13.20761 12.07671,16.34271 20.61023,20.13031 11.1307,-2.7081 20.2763,-7.9076 26.9047,-16.26609 l -13.9108,-44.22635 C 936.99632,851.68861 926.51782,760.48499 916.03911,696.23905 884.97947,462.35037 863.0687,406.13091 857.89603,395.95961 c -19.73277,-38.80162 -69.24407,-43.53615 -95.43652,-39.98949 -1.10853,-8.00541 -3.62439,-14.59789 -1.66224,-25.68627 12.50292,-10.83304 21.89708,-24.97889 29.48045,-41.62334 1.30522,-15.84948 3.42655,-29.5153 3.01712,-49.95546 -3.22449,-23.9211 -7.8244,-53.69524 -45.07514,-53.89102 z"
       sodipodi:nodetypes="cccccsccccccccccccccccccccccccccccccccsccccc" />
    <path
       style="fill:#ffffff;stroke-width:4.14303"
       d="m 739.61154,262.98603 c -5.06514,-6.70182 -8.22655,-7.76217 -15.82085,-8.98637 -7.09337,0.49386 -12.12463,0.18627 -18.40528,2.96962 3.19166,5.41286 0.43566,14.07475 14.38963,14.69807 8.7565,-0.0988 1.64266,0.11073 10.52422,-0.44114 3.57573,-2.26597 7.37751,-6.36074 9.31228,-8.24018 z"
       id="path8"
       sodipodi:nodetypes="cccccc" />
    <path
       style="fill:#3771c8;stroke-width:4.23239"
       d="m 734.65255,257.72124 c -4.85199,-4.39854 -16.6476,-4.06322 -22.94862,-2.5435 -0.51342,8.2494 4.31083,14.31284 11.01697,16.47848 1.55046,-0.095 4.37469,-0.009 5.91813,-0.28097 4.84743,-0.99901 11.48474,-9.2593 6.01352,-13.65401 z"
       id="path9"
       sodipodi:nodetypes="ccccc" />
    <path
       style="fill:#3771c8;stroke-width:4.14303"
       d="m 704.77547,257.17997 c 12.50189,-3.30927 24.2683,-5.1548 34.62646,3.85626 -10.41742,-12.19542 -25.81634,-8.21402 -34.62646,-3.85626 z"
       id="path10"
       sodipodi:nodetypes="ccc" />
    <path
       style="fill:#3771c8;stroke-width:3.06566"
       d="m 764.58763,251.48599 c 9.8283,-4.31868 16.85656,-4.124 25.35777,1.46242 -8.26038,-8.13857 -15.75312,-8.07263 -25.35777,-1.46242 z"
       id="path10-8-6"
       sodipodi:nodetypes="ccc" />
    <path
       style="fill:#3771c8;stroke-width:3.01349"
       d="m 735.36796,251.5201 c -9.44751,-4.46173 -19.9203,-4.22037 -28.19796,1.24081 8.07393,-8.01646 18.99258,-7.99045 28.19796,-1.24081 z"
       id="path10-8-6-6"
       sodipodi:nodetypes="ccc" />
    <path
       style="fill:#ffffff;stroke-width:3.94212"
       d="m 759.95232,263.07012 c 4.5858,-6.70183 6.92441,-8.14771 13.80001,-9.37193 6.42208,0.49388 10.97719,0.18627 16.66345,2.96964 -2.88962,5.41285 0.0143,13.71528 -12.6191,14.3386 -7.92781,-0.0988 -1.48719,0.11074 -9.52823,-0.44114 -3.23733,-2.26596 -6.56446,-5.61575 -8.31613,-7.49517 z"
       id="path8-9"
       sodipodi:nodetypes="cccccc" />
    <path
       style="display:inline;fill:#3771c8;stroke-width:3.92566"
       d="m 790.70863,256.74831 c -11.22443,-3.30928 -21.5648,-4.90782 -30.86455,4.10326 9.35295,-12.19543 22.95467,-8.46103 30.86455,-4.10326 z"
       id="path10-5"
       sodipodi:nodetypes="ccc" />
    <path
       style="display:inline;fill:#3771c8;stroke-width:4.13743"
       d="m 766.90759,255.88582 c 9.23589,-3.87579 15.9915,-1.22304 22.01293,0.29669 0.49064,8.24939 -4.11955,12.73743 -10.52813,14.90307 -1.48166,-0.095 -4.18058,-0.009 -5.65553,-0.28097 -4.63234,-0.99901 -11.05772,-10.52409 -5.82927,-14.91879 z"
       id="path9-5"
       sodipodi:nodetypes="ccccc" />
    <path
       style="display:inline;fill:#5f8dd3;fill-opacity:0.1;stroke-width:3.42516"
       d="m 704.07994,299.91039 c 6.9172,14.15745 26.44095,28.7187 43.24894,38.97221 6.25939,-2.59704 9.79572,-5.53049 13.42993,-8.71325 l -0.42513,5.01802 -13.63613,11.98373 c -12.27913,-11.48112 -32.53934,-22.39935 -40.88098,-37.05759 -0.49325,-3.40104 -1.15771,-6.80208 -1.73663,-10.20312 z"
       id="path15"
       sodipodi:nodetypes="ccccccc" />
    <path
       style="display:inline;fill:#000000;fill-opacity:0.1;stroke-width:3.42516"
       d="m 711.86269,259.52374 c 12.92654,-3.13974 16.91365,-1.30589 24.12813,-0.11427 -4.43169,-6.76467 -19.26124,-5.05843 -24.25556,-3.81904 -0.076,0.25084 0.20522,3.61211 0.12743,3.93331 z"
       id="path2"
       sodipodi:nodetypes="cccc" />
    <path
       style="display:inline;fill:#000000;fill-opacity:0.1;stroke-width:3.38771"
       d="m 765.01643,259.52196 c 10.24757,-4.07124 16.60296,-1.50839 23.91068,-0.0433 -0.0621,-0.65186 0.0974,-2.8121 -0.0187,-3.28015 -7.01502,-2.39617 -23.69613,-4.57496 -23.89195,3.57548 z"
       id="path2-2"
       sodipodi:nodetypes="ccccc" />
    <path
       style="fill:#ffffff;fill-opacity:0.5;stroke-width:3.42516"
       d="m 767.02475,266.01746 c 6.85034,4.16214 12.85463,3.2276 18.581,0.61878 -1.50429,1.71364 -3.66145,3.25247 -7.2737,4.40173 l -4.39533,-0.0946 c -3.54039,-0.0617 -5.97453,-3.10304 -6.91197,-4.92594 z"
       id="path36"
       sodipodi:nodetypes="ccccc" />
    <path
       style="fill:#ffffff;fill-opacity:0.5;stroke-width:3.42516"
       d="m 715.60665,266.90907 c 6.85034,4.16213 13.25699,2.97051 18.98336,0.36169 -1.50429,1.71364 -2.92988,3.32593 -6.2495,4.18139 l -5.52926,0.16249 c -3.90618,-1.20014 -5.97453,-3.10304 -7.2046,-4.70557 z"
       id="path36-0"
       sodipodi:nodetypes="ccccc" />
    <path
       id="path3"
       style="fill:#3771c8;fill-opacity:1;stroke-width:3.93684"
       d="m 746.90423,165.00142 c -26.72143,-0.15728 -58.36848,12.74444 -64.74416,32.41598 -11.00412,33.95209 -9.24962,69.78982 -5.00569,99.25033 -0.33619,-9.00001 1.91011,-19.30699 4.29629,-27.85482 -0.62935,24.23125 10.6475,54.81775 14.66561,78.64658 l -0.9545,-64.76348 0.53853,2.09055 0.52449,4.8299 0.30343,-1.62507 4.60575,17.85107 c -1.14423,-13.25295 -1.82397,-22.65434 -2.28881,-30.28318 l 5.24171,-27.21927 3.17702,5.21094 6.83227,-11.72358 7.62401,8.79268 2.22451,-7.81641 3.97276,8.30454 3.17701,-8.79268 7.62401,14.9799 1.88491,-5.79794 c 1.42501,10.33924 0.60017,22.10737 1.03996,32.60735 3.61694,-9.66345 6.23343,-20.65034 7.69128,-30.81544 2.11609,10.63694 7.12988,21.17 11.7606,30.81544 -2.12942,-11.44572 -2.91447,-24.14774 -3.69048,-35.70508 l 1.97935,5.02145 1.45889,-11.70916 2.91577,4.98232 2.91779,-7.47244 4.61781,4.48388 4.61781,-3.98545 7.53359,8.22011 2.66458,-5.22535 c 1.34354,0.96183 2.64772,2.10814 3.9366,3.42932 l 1.29314,16.55024 c -2.11244,27.95536 -4.32026,60.92646 -5.37019,85.75082 4.76236,-18.53274 9.46838,-28.49971 13.76173,-56.91173 1.88652,9.30097 2.39365,24.25728 3.58293,36.41682 6.21719,-38.33062 2.81319,-61.93694 2.8665,-72.04157 l 6.59017,21.10003 c -4.55303,-35.66197 -9.25878,-77.59184 -20.6896,-93.22763 -9.24193,-12.85806 -26.89432,-18.67235 -45.17738,-18.77997 z"
       sodipodi:nodetypes="ssccccccccccccccccccccccccccccccccccccccs" />
    <path
       style="display:inline;fill:#ffffff;fill-opacity:0.5;stroke-width:2.77923"
       d="m 709.528,209.53076 c 1.2871,14.20384 3.78362,3.12892 7.40989,1.82077 5.88064,11.37025 7.44013,2.01309 10.08413,-0.0441 -0.20344,13.81898 6.84366,4.04788 10.84088,-2.44521 2.81746,3.48083 3.42472,17.89962 9.21962,2.55458 3.17105,11.04424 7.13519,7.08037 10.30626,-0.65034 3.68982,14.08609 12.0066,4.40772 11.82711,-1.25697 2.31563,8.94927 4.11273,11.03914 8.28731,0.53179 0.0414,14.68739 7.82488,5.00454 11.29592,0.3327 2.67382,7.26003 3.79426,5.512 6.46809,2.20433 2.04921,3.80236 5.52297,1.78272 7.57219,0.0117 1.22029,6.24044 2.31767,10.10469 2.9621,15.50992 -2.49313,-8.85721 -8.04862,-16.2359 -10.54175,-0.35549 -2.05279,-19.88083 -6.81334,-2.65073 -9.28621,-0.3918 0.51334,-5.23622 1.07223,-15.42907 -5.81209,-2.58596 -3.0217,-14.0568 -6.72872,-1.04828 -9.75043,3.96612 -1.47941,-15.48827 -7.51785,-6.40569 -11.75214,-2.34738 -0.97359,-7.70988 -1.58635,-11.07573 -7.06357,0.96672 -1.49585,-5.97098 -7.61182,-8.28752 -12.69869,-1.70051 0.0377,-11.784 -3.3976,-11.43235 -9.89697,-0.36748 -6.39044,-8.55753 -6.78502,-5.00536 -8.51355,1.66511 -0.91778,-13.1465 -8.68827,-6.35122 -13.69874,2.00123 -0.0636,-7.65909 -7.92392,-8.27483 -15.46427,-3.93643 0.62396,-5.16156 1.86574,-9.10572 3.00636,-13.89617 9.65758,13.97148 13.05844,2.96267 15.19855,-1.58711 z"
       id="path43"
       sodipodi:nodetypes="cccccccccccccccccccccccccc"
       inkscape:label="path43" />
    <path
       style="display:inline;fill:#000000;fill-opacity:0.1;stroke-width:3.93684"
       d="m 703.52626,175.46691 c -9.08297,32.69174 -20.85095,62.3873 -18.09332,126.17806 -1.68063,-11.49942 -3.20028,-10.94919 -3.99434,-32.62181 -2.00923,7.92506 -4.47675,16.65877 -4.3301,27.17488 -8.40964,-56.95373 1.53093,-91.47969 6.89116,-103.09116 4.1625,-7.2437 11.16125,-13.24085 19.5266,-17.63997 z"
       id="path6"
       sodipodi:nodetypes="cccccc" />
    <path
       style="display:inline;fill:#ffffff;stroke-width:2.458"
       d="m 742.29868,312.34533 c -0.40642,0.10459 0.44258,-2.11283 2.9873,-2.00785 13.86099,-0.20543 14.35951,-0.0731 17.62407,-0.19953 0.94191,0.31466 0.51302,1.73789 0.23016,1.90038 -11.22433,0.25724 -16.76992,-0.0974 -20.84143,0.307 z"
       id="path14"
       sodipodi:nodetypes="cccccc" />
    <path
       style="display:inline;fill:#333333;stroke-width:3.42516"
       d="m 709.44208,357.70804 c 5.8859,16.02236 25.3307,16.54865 41.4271,20.90176 16.7578,-9.43325 12.4833,-16.09615 11.4428,-23.70815 3.2944,-0.29453 15.7466,0.26729 19.3295,0.66995 31.3875,48.95313 32.3568,92.71437 37.4811,120.73354 -5.6209,36.46735 -23.1227,130.38262 -16.4326,202.42809 36.0677,143.36059 61.4814,425.10757 64.1545,450.48577 2.8589,54.4687 11.4161,229.2955 11.5169,319.112 -10.7211,1.1028 -13.8781,4.0732 -40.0557,1.1714 -13.0202,-94.4958 -51.4619,-263.155 -52.2104,-311.6018 -10.6398,-84.3454 -31.1012,-266.41146 -28.4053,-341.29158 -23.265,213.30538 -73.4671,437.41718 -111.6398,655.44918 -12.3468,-0.8588 -21.2295,3.4669 -38.2721,-0.8861 2.0572,-328.8018 50.6037,-550.05798 79.3052,-780.79165 3.1885,-61.18406 -16.3736,-150.17088 -25.4909,-190.3262 16.5136,-118.91811 18.0178,-100.62097 31.8929,-121.76312 2.6759,-0.22172 12.8174,-0.43895 15.9568,-0.58309 z"
       id="path6-6"
       inkscape:label="path6"
       sodipodi:nodetypes="ccccccccccccccccc" />
    <path
       style="display:inline;fill:#000000;fill-opacity:0.1;stroke-width:6.51894"
       d="m 754,272.01725 1.61552,11.29665 -1.01162,8.89221 2.28229,-8.61665 z"
       id="path32"
       sodipodi:nodetypes="ccccc" />
  </g>
</svg>
