<?xml version="1.0" encoding="UTF-8" standalone="no"?>
<!-- Created with Inkscape (http://www.inkscape.org/) -->

<svg
   version="1.1"
   id="svg1"
   width="1512"
   height="1512"
   viewBox="0 0 1512 1512"
   sodipodi:docname="Ally2Attack.svg"
   inkscape:version="1.3.2 (091e20e, 2023-11-25)"
   inkscape:export-filename="../../Utopia/Assets/Sprites/Dusty.png"
   inkscape:export-xdpi="96"
   inkscape:export-ydpi="96"
   xmlns:inkscape="http://www.inkscape.org/namespaces/inkscape"
   xmlns:sodipodi="http://sodipodi.sourceforge.net/DTD/sodipodi-0.dtd"
   xmlns="http://www.w3.org/2000/svg"
   xmlns:svg="http://www.w3.org/2000/svg">
  <defs
     id="defs1" />
  <sodipodi:namedview
     id="namedview1"
     pagecolor="#505050"
     bordercolor="#eeeeee"
     borderopacity="1"
     inkscape:showpageshadow="0"
     inkscape:pageopacity="0"
     inkscape:pagecheckerboard="0"
     inkscape:deskcolor="#505050"
     inkscape:zoom="0.19632771"
     inkscape:cx="853.16537"
     inkscape:cy="687.62582"
     inkscape:window-width="1512"
     inkscape:window-height="831"
     inkscape:window-x="0"
     inkscape:window-y="38"
     inkscape:window-maximized="0"
     inkscape:current-layer="layer1"
     showguides="true"
     showgrid="false" />
  <g
     inkscape:groupmode="layer"
     id="layer1"
     inkscape:label="Layer1"
     style="display:inline">
    <path
       style="display:inline;fill:#333333;fill-opacity:1;stroke-width:3.77953"
       d="m 563.5136,376.2206 -17.6294,-64.0543 -52.069,-132.1132 15.9456,-10.6304 84.6961,114.8909 40.3911,45.2868 3.0957,45.6808 48.5817,100.4806 -21.8401,17.1721 -68.159,-93.9563 z"
       id="path21"
       sodipodi:nodetypes="ccccccccccc" />
    <path
       id="path19"
       style="display:inline;fill:#e6e6e6;fill-opacity:1;stroke-width:4.38374"
       d="m 519.8731,203.6481 54.041,119.2832 -10.4707,53.2871 -18.4688,-64.543 -92.7363,-20.1211 81.3633,31.4942 30.6191,92.7363 17.3594,-76.2227 465.0937,884.334 13.0879,-9.4199 -462.1836,-883.5332 69.004,18.3516 -59.4922,-69.9883 -4.375,-73.4902 -7.8731,79.6132 39.4688,43.9414 -47.375,-15.9257 z" />
    <path
       style="display:inline;fill:#0071ff;fill-opacity:1;stroke-width:3.77953"
       d="m 728.7697,660.2053 c -65.3687,245.0718 -117.6189,482.1824 -113.6812,734.1916 122.2417,-50.2471 208.7672,-37.8844 323.6758,-3.1578 37.6412,-246.3088 -49.2607,-550.6419 -104.2078,-712.0869 z"
       id="path11"
       sodipodi:nodetypes="ccccc" />
    <path
       style="display:inline;fill:#0071ff;fill-opacity:1;stroke-width:3.93684"
       d="m 796.8371,341.263 c 1.3564,7.3457 -0.1461,13.2262 -0.2388,19.8292 5.1472,-7.2199 7.7233,-18.0635 9.7925,-29.6214 l 0.4776,11.7506 c 5.7674,-13.8417 14.4175,-31.2515 17.8315,-52.5975 l -44.9023,-68.3005 -55.2326,66.3727 7.6051,48.6813 3.1136,-8.5352 c 1.2349,10.9229 1.5268,24.7451 5.2975,27.8707 1.0571,-5.4468 -1.1957,-11.4187 3.1572,-17.6161 l 28.4384,10.3912 z"
       id="path4"
       sodipodi:nodetypes="ccccccccccccc" />
    <path
       id="path1"
       style="display:inline;fill:#483737;stroke-width:3.42516"
       d="m 782.2705,185.0363 c -39.5858,1.7422 -50.8451,10.4035 -50.1547,67.9499 1.804,12.9585 -2.3725,19.1551 4.6129,40.1351 5.5104,26.3816 7.2437,48.286 6.673,64.4917 -33.5447,0.3517 -84.7353,11.1121 -91.9811,40.5241 -12.7943,51.9342 -30.9862,129.6057 -47.7662,320.2354 -10.5734,64.9712 -20.8883,145.8869 -26.0615,240.6783 l -7.0597,43.4624 c 6.0048,11.4771 16.6581,14.5529 26.9433,18.2943 8.7429,-5.5697 13.5025,-8.0563 16.0905,-24.5287 l -8.7848,-37.3185 c 20.6934,-89.763 35.9776,-169.7517 43.22,-235.2059 23.4071,-82.9513 38.1128,-164.1559 47.4984,-244.2917 11.3027,49.6432 15.2739,37.6442 29.5158,182.6468 -26.0777,164.3755 -52.4692,331.9993 -64.2374,496.3747 l -19.2244,309.0014 c -0.5617,22.5299 -17.8306,29.976 -10.9529,44.2538 l 51.0289,0.057 c 4.1907,-15.5124 -8.8644,-26.5388 -8.0871,-42.7927 l 55.246,-300.5344 c 25.5832,-129.7607 51.6779,-259.5221 63.2817,-389.2827 2.4814,119.7883 18.3148,247.6206 34.8964,375.903 l 46.6293,299.1209 c 1.9455,18.851 -13.7776,34.0712 -6.425,57.7895 l 135.4777,-0.032 c 4.4143,-4.0502 6.9191,-7.4257 6.9188,-11.4759 -51.5444,-5.2481 -71.1874,-15.4471 -99.7538,-54.6211 L 900.417,1160.7981 C 889.8597,997.3745 864.1645,829.9164 833.5583,660.7416 c 4.6777,-154.1751 12.9975,-130.8922 19.2014,-186.006 11.9469,55.0576 15.6257,91.3857 54.3699,233.1805 5.8037,67.0064 26.4688,157.8851 45.1861,245.6361 l -4.3939,42.7233 c 4.5458,13.2076 12.0767,16.3427 20.6102,20.1303 11.1307,-2.7081 20.2763,-7.9076 26.9047,-16.2661 L 981.5259,955.9134 C 971.0471,851.9109 960.5686,760.7073 950.0899,696.4614 919.0303,462.5727 897.1195,406.3532 891.9468,396.1819 c -19.7327,-38.8016 -69.244,-43.5361 -95.4365,-39.9895 -1.1085,-8.0054 -3.6244,-14.5979 -1.6622,-25.6862 12.5029,-10.8331 21.897,-24.9789 29.4804,-41.6234 1.3052,-15.8495 3.4266,-29.5153 3.0171,-49.9554 -3.2244,-23.9211 -7.8244,-53.6953 -45.0751,-53.8911 z"
       sodipodi:nodetypes="ccccsccccccccccccccccccccccccccccccccsccccc" />
    <path
       style="display:inline;fill:#ffffff;stroke-width:4.14303"
       d="m 773.6623,263.2083 c -5.0651,-6.7018 -8.2265,-7.7621 -15.8208,-8.9863 -7.0934,0.4938 -12.1246,0.1862 -18.4053,2.9696 3.1917,5.4128 0.4357,14.0747 14.3896,14.6981 8.7565,-0.099 1.6427,0.1107 10.5243,-0.4412 3.5757,-2.266 7.3775,-6.3607 9.3122,-8.2402 z"
       id="path8"
       sodipodi:nodetypes="cccccc" />
    <path
       style="display:inline;fill:#0071ff;fill-opacity:1;stroke-width:4.23239"
       d="m 768.7034,257.9435 c -4.852,-4.3985 -16.6476,-4.0632 -22.9487,-2.5435 -0.5134,8.2494 4.3109,14.3129 11.017,16.4785 1.5505,-0.095 4.3747,-0.01 5.9181,-0.2809 4.8475,-0.9991 11.4848,-9.2594 6.0136,-13.6541 z"
       id="path9"
       sodipodi:nodetypes="ccccc" />
    <path
       style="display:inline;fill:#0071ff;fill-opacity:1;stroke-width:4.14303"
       d="m 738.8263,257.4023 c 12.5019,-3.3093 24.2683,-5.1548 34.6264,3.8562 -10.4174,-12.1954 -25.8163,-8.214 -34.6264,-3.8562 z"
       id="path10"
       sodipodi:nodetypes="ccc" />
    <path
       style="display:inline;fill:#0071ff;fill-opacity:1;stroke-width:3.06566"
       d="m 798.6384,251.7083 c 9.8283,-4.3187 16.8566,-4.124 25.3578,1.4624 -8.2604,-8.1386 -15.7531,-8.0726 -25.3578,-1.4624 z"
       id="path10-8-6"
       sodipodi:nodetypes="ccc" />
    <path
       style="display:inline;fill:#0071ff;fill-opacity:1;stroke-width:3.01349"
       d="m 769.4188,251.7424 c -9.4475,-4.4617 -19.9203,-4.2204 -28.198,1.2408 8.0739,-8.0164 18.9926,-7.9904 28.198,-1.2408 z"
       id="path10-8-6-6"
       sodipodi:nodetypes="ccc" />
    <path
       style="display:inline;fill:#ffffff;stroke-width:3.94212"
       d="m 794.0031,263.2924 c 4.5858,-6.7018 6.9244,-8.1477 13.8,-9.3719 6.4221,0.4939 10.9772,0.1863 16.6635,2.9696 -2.8896,5.4129 0.014,13.7153 -12.6191,14.3386 -7.9278,-0.099 -1.4872,0.1108 -9.5282,-0.4411 -3.2374,-2.266 -6.5645,-5.6158 -8.3162,-7.4952 z"
       id="path8-9"
       sodipodi:nodetypes="cccccc" />
    <path
       style="display:inline;fill:#0071ff;fill-opacity:1;stroke-width:3.92566"
       d="m 824.7594,256.9706 c -11.2244,-3.3093 -21.5648,-4.9078 -30.8645,4.1033 9.3529,-12.1955 22.9547,-8.4611 30.8645,-4.1033 z"
       id="path10-5"
       sodipodi:nodetypes="ccc" />
    <path
       style="display:inline;fill:#0071ff;fill-opacity:1;stroke-width:4.13743"
       d="m 800.9584,256.1081 c 9.2359,-3.8758 15.9915,-1.223 22.0129,0.2967 0.4907,8.2494 -4.1195,12.7374 -10.5281,14.9031 -1.4817,-0.095 -4.1806,-0.01 -5.6555,-0.281 -4.6324,-0.999 -11.0578,-10.5241 -5.8293,-14.9188 z"
       id="path9-5"
       sodipodi:nodetypes="ccccc" />
    <path
       style="display:inline;fill:#000000;fill-opacity:0.1;stroke-width:3.42516"
       d="m 738.1307,300.1327 c 6.9172,14.1574 26.441,28.7187 43.249,38.9722 6.2594,-2.597 9.7957,-5.5305 13.4299,-8.7132 l -0.4251,5.018 -13.6362,11.9837 c -12.2791,-11.4811 -32.5393,-22.3994 -40.8809,-37.0576 -0.4933,-3.401 -1.1577,-6.8021 -1.7367,-10.2031 z"
       id="path15"
       sodipodi:nodetypes="ccccccc" />
    <path
       style="display:inline;fill:#000000;fill-opacity:0.1;stroke-width:3.42516"
       d="m 745.9135,259.746 c 12.9265,-3.1397 16.9136,-1.3058 24.1281,-0.1142 -4.4317,-6.7647 -19.2612,-5.0585 -24.2555,-3.8191 -0.076,0.2509 0.2052,3.6121 0.1274,3.9333 z"
       id="path2"
       sodipodi:nodetypes="cccc" />
    <path
       style="display:inline;fill:#000000;fill-opacity:0.1;stroke-width:3.38771"
       d="m 799.0672,259.7443 c 10.2476,-4.0713 16.603,-1.5084 23.9107,-0.043 -0.062,-0.6519 0.097,-2.8121 -0.019,-3.2802 -7.015,-2.3962 -23.6961,-4.5749 -23.8919,3.5755 z"
       id="path2-2"
       sodipodi:nodetypes="ccccc" />
    <path
       style="display:inline;fill:#ffffff;fill-opacity:0.5;stroke-width:3.42516"
       d="m 801.0756,266.2398 c 6.8503,4.1621 12.8546,3.2276 18.581,0.6187 -1.5043,1.7137 -3.6615,3.2525 -7.2737,4.4018 l -4.3954,-0.095 c -3.5404,-0.062 -5.9745,-3.1031 -6.9119,-4.926 z"
       id="path36"
       sodipodi:nodetypes="ccccc" />
    <path
       style="display:inline;fill:#ffffff;fill-opacity:0.5;stroke-width:3.42516"
       d="m 749.6575,267.1314 c 6.8503,4.1621 13.2569,2.9705 18.9833,0.3617 -1.5043,1.7136 -2.9299,3.3259 -6.2495,4.1814 l -5.5293,0.1624 c -3.9061,-1.2001 -5.9745,-3.103 -7.2045,-4.7055 z"
       id="path36-0"
       sodipodi:nodetypes="ccccc" />
    <path
       id="path3"
       style="display:inline;fill:#0071ff;fill-opacity:1;stroke-width:3.93684"
       d="m 780.955,165.2237 c -26.7214,-0.1573 -58.3684,12.7445 -64.7441,32.416 -11.0041,33.9521 -9.2497,69.7898 -5.0057,99.2503 -0.3362,-9 1.9101,-19.307 4.2963,-27.8548 -0.6294,24.2313 10.6475,54.8178 14.6656,78.6466 l -0.9545,-64.7635 0.5385,2.0906 0.5245,4.8299 0.3034,-1.6251 4.6058,17.8511 c -1.1442,-13.253 -1.824,-22.6544 -2.2888,-30.2832 l 5.2417,-27.2193 3.177,5.2109 6.8323,-11.7235 7.624,8.7927 2.2245,-7.8165 3.9728,8.3046 3.177,-8.7927 7.624,14.9799 1.8849,-5.7979 c 1.425,10.3392 0.6002,22.1073 1.0399,32.6073 3.617,-9.6634 6.2335,-20.6503 7.6913,-30.8154 2.1161,10.6369 7.1299,21.17 11.7606,30.8154 -2.1294,-11.4457 -2.9144,-24.1477 -3.6905,-35.7051 l 1.9794,5.0215 1.4589,-11.7092 2.9158,4.9823 2.9177,-7.4724 4.6178,4.4839 4.6179,-3.9855 7.5335,8.2201 2.6646,-5.2253 c 1.3436,0.9618 2.6478,2.1081 3.9366,3.4293 l 1.2932,16.5503 c -2.1125,27.9553 -4.3203,60.9264 -5.3702,85.7508 4.7623,-18.5328 9.4684,-28.4997 13.7617,-56.9118 1.8865,9.301 2.3937,24.2573 3.5829,36.4169 6.2172,-38.3307 2.8132,-61.937 2.8665,-72.0416 l 6.5902,21.1 c -4.553,-35.662 -9.2588,-77.5918 -20.6896,-93.2276 -9.2419,-12.8581 -26.8943,-18.6724 -45.1774,-18.78 z"
       sodipodi:nodetypes="ssccccccccccccccccccccccccccccccccccccccs" />
    <path
       style="display:inline;fill:#ffffff;fill-opacity:0.5;stroke-width:2.77923"
       d="m 743.5788,209.7531 c 1.2871,14.2038 3.7836,3.1289 7.4099,1.8207 5.8806,11.3703 7.4401,2.0131 10.0841,-0.044 -0.2034,13.819 6.8437,4.0479 10.8409,-2.4452 2.8175,3.4809 3.4247,17.8996 9.2196,2.5546 3.1711,11.0442 7.1352,7.0804 10.3063,-0.6503 3.6898,14.0861 12.0066,4.4077 11.8271,-1.257 2.3156,8.9493 4.1127,11.0391 8.2873,0.5318 0.041,14.6874 7.8249,5.0045 11.2959,0.3327 2.6738,7.26 3.7943,5.512 6.4681,2.2043 2.0492,3.8024 5.523,1.7827 7.5722,0.012 1.2203,6.2405 2.3177,10.1047 2.9621,15.5099 -2.4931,-8.8572 -8.0486,-16.2359 -10.5418,-0.3555 -2.0527,-19.8808 -6.8133,-2.6507 -9.2862,-0.3918 0.5134,-5.2362 1.0723,-15.429 -5.8121,-2.5859 -3.0217,-14.0568 -6.7287,-1.0483 -9.7504,3.9661 -1.4794,-15.4883 -7.5178,-6.4057 -11.7521,-2.3474 -0.9736,-7.7099 -1.5864,-11.0757 -7.0636,0.9667 -1.4958,-5.9709 -7.6118,-8.2875 -12.6987,-1.7005 0.038,-11.784 -3.3976,-11.4323 -9.897,-0.3674 -6.3904,-8.5576 -6.785,-5.0054 -8.5135,1.6651 -0.9178,-13.1465 -8.6883,-6.3513 -13.6987,2.0012 -0.064,-7.6591 -7.924,-8.2748 -15.4643,-3.9364 0.6239,-5.1616 1.8657,-9.1058 3.0063,-13.8962 9.6576,13.9715 13.0585,2.9627 15.1986,-1.5871 z"
       id="path43"
       sodipodi:nodetypes="cccccccccccccccccccccccccc"
       inkscape:label="path43" />
    <path
       style="display:inline;fill:#000000;fill-opacity:0.1;stroke-width:3.93684"
       d="m 737.5771,175.6892 c -9.083,32.6918 -20.851,62.3873 -18.0934,126.1781 -1.6806,-11.4994 -3.2002,-10.9492 -3.9943,-32.6218 -2.0092,7.925 -4.4767,16.6587 -4.3301,27.1748 -8.4096,-56.9537 1.5309,-91.4796 6.8912,-103.0911 4.1625,-7.2437 11.1612,-13.2409 19.5266,-17.64 z"
       id="path6"
       sodipodi:nodetypes="cccccc" />
    <path
       style="display:inline;fill:#ffffff;stroke-width:2.458"
       d="m 776.3495,312.5676 c -0.4064,0.1046 0.4426,-2.1128 2.9873,-2.0078 13.861,-0.2054 14.3595,-0.073 17.6241,-0.1995 0.9419,0.3146 0.513,1.7378 0.2301,1.9003 -11.2243,0.2573 -16.7699,-0.097 -20.8414,0.307 z"
       id="path14"
       sodipodi:nodetypes="cccccc" />
    <path
       style="display:inline;fill:#333333;stroke-width:3.42516"
       d="m 743.4929,357.592 c 5.8859,16.0224 25.3307,16.887 41.4271,21.2401 16.7578,-9.4332 12.4833,-16.0962 11.4428,-23.7081 3.2944,-0.2946 15.7466,-0.2683 19.3295,0.1343 31.3875,48.9532 32.3568,93.25 37.4811,121.2691 -5.6209,36.4674 -23.1227,130.3827 -16.4326,202.4281 36.0677,143.3606 61.4814,425.1076 64.1545,450.4858 2.8589,54.4687 11.4161,229.2955 11.5169,319.112 -10.7211,1.1028 -13.8781,4.0732 -40.0557,1.1714 -13.0202,-94.4958 -51.4619,-263.155 -52.2104,-311.6018 -10.6398,-84.3454 -31.1012,-266.4115 -28.4053,-341.2916 -23.265,213.3054 -73.4671,437.4172 -111.6398,655.4492 -12.3468,-0.8588 -21.2295,3.4669 -38.2721,-0.8861 2.0572,-328.8018 50.6037,-550.058 79.3052,-780.7916 3.1885,-61.1841 -16.3736,-150.1709 -25.4909,-190.3262 16.5136,-118.9182 18.0178,-100.621 31.8929,-121.7632 2.9853,-0.6195 13.2901,-1.385 15.9568,-0.9214 z"
       id="path6-6"
       inkscape:label="path6"
       sodipodi:nodetypes="ccccccccccccccccc" />
    <path
       style="display:inline;fill:#000000;fill-opacity:0.1;stroke-width:6.51894"
       d="m 788.0508,272.2395 1.6155,11.2967 -1.0116,8.8922 2.2823,-8.6166 z"
       id="path32"
       sodipodi:nodetypes="ccccc" />
    <path
       style="display:inline;fill:#e6e6e6;fill-opacity:1;stroke-width:3.77953"
       d="m 743.1957,357.3985 c 43.5328,102.6918 88.3602,115.6562 111.1208,122.2511 -14.9046,69.0085 -16.0606,132.4921 -16.901,202.2496 L 721.3489,663.337 c 1.6068,-64.0169 -14.2546,-122.4248 -26.3226,-183.7352 6.7465,-33.5939 6.3275,-65.4815 18.5356,-99.9548 3.8436,-10.1926 8.7104,-18.3799 13.8752,-21.0852 4.9373,-0.8714 10.3733,-1.188 15.7586,-1.1633 z"
       id="path5"
       sodipodi:nodetypes="cccccccc" />
    <path
       style="display:inline;fill:#0071ff;fill-opacity:1;stroke-width:3.77953"
       d="m 721.3888,658.1879 c -33.8611,152.9863 -63.3103,272.5261 -82.2663,456.7174 -8.735,84.8758 -9.2997,159.5983 12.1024,265.2354 l 28.2883,-40.2977 c 60.6802,-205.2879 72.579,-360.4446 85.9882,-572.2713 20.3124,-9.37 40.106,-8.4874 52.8703,1.4686 -2.7516,208.7418 18.3351,367.2685 51.3242,577.9071 l 23.498,35.2469 c 20.5853,-82.7077 32.8297,-186.011 26.4351,-283.4438 -16.2192,-247.1298 -55.9481,-314.7848 -81.9342,-418.5022 -34.363,-1.7061 -73.1426,-8.8461 -116.306,-22.0604 z"
       id="path7"
       sodipodi:nodetypes="csccccccscc" />
    <path
       id="path16"
       style="display:inline;fill:#e6e6e6;fill-opacity:1;stroke-width:3.77953"
       d="m 807.7189,348.7129 -4.7306,5.6657 c 9.2591,16.2122 13.5086,28.2547 15.6211,51.4355 l -8.627,6.8711 2.3418,-11.9063 -11.1269,-17.1777 7.8086,17.959 -2.5371,17.7637 12.6562,-9.5703 4.3145,32.9277 2.2871,-32.6797 9.9258,8.4883 -0.9785,-16.8125 4.9785,-15.9297 -8.2969,14.9531 1.3574,11.5039 -6.7734,-5.2519 c 0.1646,-31.2968 -4.5132,-32.8581 -13.2735,-52.2012 z"
       sodipodi:nodetypes="ccccccccccccccccccc" />
    <path
       style="display:inline;fill:#0071ff;fill-opacity:1;stroke-width:3.77953"
       d="m 602.8503,714.9804 c -14.316,97.9535 -26.6932,204.9549 -48.0839,269.8929 l 38.8352,-28.1482 30.2816,36.8645 c -3.4386,-77.2334 15.6575,-180.7573 25.5944,-273.5956 l -28.1334,25.413 z"
       id="path17"
       sodipodi:nodetypes="ccccccc" />
    <path
       style="display:inline;fill:#0071ff;fill-opacity:1;stroke-width:3.77953"
       d="m 904.6469,700.2846 31.265,21.4266 14.361,-29.1937 c 13.667,92.5727 29.0968,185.1453 57.5373,277.718 l -37.1546,-20.8608 -35.6489,31.166 c 0.6632,-90.7229 -11.0756,-184.5463 -30.3598,-280.2561 z"
       id="path18"
       sodipodi:nodetypes="ccccccc" />
    <path
       style="display:inline;fill:#0071ff;fill-opacity:1;stroke-width:3.77953"
       d="m 596.5831,399.3008 -13.054,-45.2412 -8.4177,30.4782 z"
       id="path22"
       sodipodi:nodetypes="cccc" />
    <path
       style="display:inline;fill:#0071ff;fill-opacity:1;stroke-width:3.77953"
       d="m 637.8239,374.9793 -30.4933,-31.9439 28.4995,0.7122 z"
       id="path23"
       sodipodi:nodetypes="cccc" />
    <path
       style="display:inline;fill:#333333;fill-opacity:1;stroke-width:3.77953"
       d="m 744.1525,807.0477 -16.8535,269.0579 -45.9843,94.7371 -21.2534,-100.8129 48.8202,-268.7225 21.2386,-31.4646 z"
       id="path24"
       sodipodi:nodetypes="ccccccc" />
    <path
       style="display:inline;fill:#e6e6e6;fill-opacity:1;stroke-width:3.77953"
       d="m 666.7743,1064.0438 18.8822,-21.2648 -15.6137,29.1092 11.7665,71.9064 37.2606,-66.0232 -5.2296,-30.7235 10.4591,24.8403 13.0739,-267.9455 -7.8695,-24.9537 -15.6635,24.8844 z"
       id="path25"
       sodipodi:nodetypes="ccccccccccc" />
    <path
       style="display:inline;fill:#333333;fill-opacity:1;stroke-width:3.77874"
       d="m 833.7602,800.3075 16.8465,269.058 45.9651,94.7371 21.2444,-100.8129 -48.7997,-268.7226 -21.2297,-31.4645 z"
       id="path24-6"
       sodipodi:nodetypes="ccccccc" />
    <path
       style="display:inline;fill:#e6e6e6;fill-opacity:1;stroke-width:3.77874"
       d="m 911.106,1057.3037 -18.8742,-21.2648 15.6071,29.1092 -11.7615,71.9064 -37.245,-66.0232 5.2273,-30.7235 -10.4547,24.8403 -13.0684,-267.9456 7.8662,-24.9537 15.6569,24.8845 z"
       id="path25-0"
       sodipodi:nodetypes="ccccccccccc" />
    <path
       style="display:inline;fill:#333333;fill-opacity:1;stroke-width:3.77953"
       d="m 721.4658,652.3232 18.7103,-44.5225 -13.278,46.7109 c 39.6344,13.4084 72.9579,17.0655 102.9336,20.131 l -8.1608,-112.7055 15.8312,114.4137 -0.062,3.8661 c -5.2749,0.6457 -72.8891,-4.5046 -115.997,-21.9601 z"
       id="path26"
       sodipodi:nodetypes="ccccccccc" />
    <path
       style="display:inline;fill:#0071ff;fill-opacity:1;stroke-width:3.77953"
       d="m 694.7864,479.5447 c 60.9137,35.426 91.7066,-13.5089 160.3839,0.4727 -0.5947,5.7678 -11.5206,68.6397 -12.1153,73.7283 -44.0145,-68.3681 -93.3784,-27.4489 -143.8388,-52.8622 z"
       id="path27"
       sodipodi:nodetypes="ccccc" />
  </g>
</svg>
