<?xml version="1.0" encoding="UTF-8" standalone="no"?>
<!-- Created with Inkscape (http://www.inkscape.org/) -->

<svg
   version="1.1"
   id="svg1"
   width="1512"
   height="1512"
   viewBox="0 0 1512 1512"
   sodipodi:docname="Ally3Attack.svg"
   inkscape:version="1.3.2 (091e20e, 2023-11-25)"
   inkscape:export-filename="../../Utopia/Assets/Sprites/Nehustar.png"
   inkscape:export-xdpi="96"
   inkscape:export-ydpi="96"
   xmlns:inkscape="http://www.inkscape.org/namespaces/inkscape"
   xmlns:sodipodi="http://sodipodi.sourceforge.net/DTD/sodipodi-0.dtd"
   xmlns="http://www.w3.org/2000/svg"
   xmlns:svg="http://www.w3.org/2000/svg">
  <defs
     id="defs1" />
  <sodipodi:namedview
     id="namedview1"
     pagecolor="#505050"
     bordercolor="#eeeeee"
     borderopacity="1"
     inkscape:showpageshadow="0"
     inkscape:pageopacity="0"
     inkscape:pagecheckerboard="0"
     inkscape:deskcolor="#505050"
     inkscape:zoom="0.19358203"
     inkscape:cx="1314.6882"
     inkscape:cy="1120.9718"
     inkscape:window-width="1512"
     inkscape:window-height="831"
     inkscape:window-x="0"
     inkscape:window-y="38"
     inkscape:window-maximized="0"
     inkscape:current-layer="layer1"
     showguides="true"
     showgrid="false" />
  <g
     inkscape:groupmode="layer"
     id="layer1"
     inkscape:label="Layer1"
     style="display:inline">
    <path
       id="path5"
       style="display:inline;fill:#00c49f;fill-opacity:1;stroke-width:3.77953"
       d="m 717.1074,147.46759 c -5.9246,0.01 -12.7382,2.5031 -21.3789,6.9024 6.7896,-0.5443 13.3696,-0.3267 19.9082,0.3574 -4.2313,2.7156 -7.7792,6.2108 -8.6211,10.3379 -7.4863,36.6993 -18.2246,123.541 -18.2246,123.541 37.6278,106.375 -14.3812,99.6183 7.1094,348.2207 l 25.7168,153.87891 32.6992,-157.84961 c 35.6494,-146.8647 7.652,-209.4799 6.9375,-282.9981 0.6988,10.2125 9.128,22.2027 13.3008,31.3731 -1.9117,-47.1186 5.7506,-27.8051 10.2578,-103.2578 l -29.6309,-115.4863 c -1.8503,-8.7781 -14.3289,-13.6397 -23.1953,-13.6465 -1.4248,-0.001 -3.4415,0.3774 -5.6719,1.0215 -2.9012,-1.6283 -5.9171,-2.3993 -9.207,-2.3946 z" />
    <path
       id="path1"
       style="display:inline;fill:#f4e3d7;stroke-width:3.42516"
       d="m 748.2197,185.03639 c -39.5858,1.7421 -50.8451,10.4034 -50.1547,67.9499 l 1.4343,30.8189 c 2.2246,6.3217 -0.4703,2.3389 3.1786,9.3161 5.5104,26.3816 7.2437,48.286 6.673,64.4918 -33.5447,0.3516 -84.7353,11.112 -91.9811,40.524 -12.7943,51.9343 -35.1083,121.3616 -51.8883,311.99121 -10.5734,64.9712 -16.7663,154.1311 -21.9394,248.9225 l -7.0597,43.4624 c 6.0047,11.4771 16.6581,14.5529 26.9433,18.2943 8.7428,-5.5697 13.5025,-8.0563 16.0905,-24.5286 l -8.7848,-37.3186 c 20.6934,-89.7629 35.9776,-169.7517 43.22,-235.2058 23.4071,-82.95141 38.1128,-164.15591 47.4984,-244.29181 11.3027,49.6432 15.2739,37.6443 29.5157,182.64691 -26.0776,164.3754 -52.4691,331.9992 -64.2373,496.3746 l -19.2244,309.0014 c -0.5617,22.5299 -17.8306,29.976 -10.9529,44.2538 l 51.0289,0.057 c 4.1906,-15.5124 -8.8644,-26.5388 -8.0871,-42.7927 l 55.246,-300.5344 c 25.5832,-129.7607 51.6779,-259.522 63.2817,-389.2827 2.4814,119.7883 18.3148,247.6206 34.8964,375.903 l 46.6293,299.1209 c 1.9455,18.851 -13.7776,34.0712 -6.425,57.7895 l 135.4777,-0.032 c 4.41429,-4.0502 6.91909,-7.4257 6.91879,-11.4759 -51.54449,-5.2481 -71.18739,-15.4471 -99.75379,-54.6211 l -9.3976,-285.0729 C 855.8089,997.3745 830.1137,829.9165 799.5075,660.7416 c 4.6777,-154.17511 12.9975,-130.89221 19.2014,-186.00591 11.9469,55.0575 15.6257,91.3857 54.3699,233.18041 5.8036,67.0064 26.4688,157.8852 45.186,245.6361 l -4.3939,42.7233 c 4.5459,13.2076 12.0768,16.3427 20.6103,20.1303 11.1307,-2.7081 20.2763,-7.9076 26.9047,-16.2661 L 947.4751,955.9134 C 936.9963,851.9109 926.5178,760.7073 916.0391,696.4614 884.9795,462.57269 863.0687,406.35319 857.896,396.18189 c -19.7327,-38.8016 -69.244,-43.5361 -95.4365,-39.9894 -1.1085,-8.0055 -3.6244,-14.5979 -1.6622,-25.6863 12.5029,-10.8331 21.897,-24.9789 29.4804,-41.6234 1.3052,-15.8494 3.4266,-29.5153 3.0171,-49.9554 -3.2245,-23.9211 -7.8244,-53.6953 -45.0751,-53.891 z"
       sodipodi:nodetypes="cccccsccccccccccccccccccccccccccccccccsccccc" />
    <path
       style="display:inline;fill:#ffffff;stroke-width:4.14303"
       d="m 739.6115,263.20839 c -5.0651,-6.7019 -8.2265,-7.7622 -15.8208,-8.9864 -7.0934,0.4939 -12.1246,0.1863 -18.4053,2.9696 3.1917,5.4129 0.4357,14.0748 14.3896,14.6981 8.7565,-0.099 1.6427,0.1107 10.5243,-0.4412 3.5757,-2.2659 7.3775,-6.3607 9.3122,-8.2401 z"
       id="path8"
       sodipodi:nodetypes="cccccc" />
    <path
       style="display:inline;fill:#00c49f;fill-opacity:1;stroke-width:4.23239"
       d="m 734.6525,257.94359 c -4.8519,-4.3986 -16.6476,-4.0632 -22.9486,-2.5435 -0.5134,8.2494 4.3109,14.3128 11.017,16.4785 1.5505,-0.095 4.3747,-0.01 5.9181,-0.281 4.8475,-0.999 11.4848,-9.2593 6.0135,-13.654 z"
       id="path9"
       sodipodi:nodetypes="ccccc" />
    <path
       style="display:inline;fill:#00c49f;fill-opacity:1;stroke-width:4.14303"
       d="m 704.7755,257.40229 c 12.5019,-3.3093 24.2683,-5.1548 34.6264,3.8563 -10.4174,-12.1955 -25.8163,-8.2141 -34.6264,-3.8563 z"
       id="path10"
       sodipodi:nodetypes="ccc" />
    <path
       style="display:inline;fill:#00c49f;fill-opacity:1;stroke-width:3.06566"
       d="m 764.5876,251.70829 c 9.8283,-4.3187 16.8566,-4.124 25.3578,1.4624 -8.2604,-8.1385 -15.7531,-8.0726 -25.3578,-1.4624 z"
       id="path10-8-6"
       sodipodi:nodetypes="ccc" />
    <path
       style="display:inline;fill:#00c49f;fill-opacity:1;stroke-width:3.01349"
       d="m 735.368,251.74239 c -9.4476,-4.4617 -19.9203,-4.2203 -28.198,1.2408 8.0739,-8.0164 18.9926,-7.9904 28.198,-1.2408 z"
       id="path10-8-6-6"
       sodipodi:nodetypes="ccc" />
    <path
       style="display:inline;fill:#ffffff;stroke-width:3.94212"
       d="m 759.9523,263.29249 c 4.5858,-6.7019 6.9244,-8.1478 13.8,-9.372 6.4221,0.4939 10.9772,0.1863 16.6635,2.9697 -2.8896,5.4128 0.014,13.7152 -12.6191,14.3386 -7.9278,-0.099 -1.4872,0.1107 -9.5283,-0.4412 -3.2373,-2.2659 -6.5644,-5.6157 -8.3161,-7.4951 z"
       id="path8-9"
       sodipodi:nodetypes="cccccc" />
    <path
       style="display:inline;fill:#00c49f;fill-opacity:1;stroke-width:3.92566"
       d="m 790.7086,256.97059 c -11.2244,-3.3092 -21.5648,-4.9078 -30.8645,4.1033 9.3529,-12.1954 22.9546,-8.461 30.8645,-4.1033 z"
       id="path10-5"
       sodipodi:nodetypes="ccc" />
    <path
       style="display:inline;fill:#00c49f;fill-opacity:1;stroke-width:4.13743"
       d="m 766.9076,256.10819 c 9.2359,-3.8758 15.9915,-1.2231 22.0129,0.2966 0.4907,8.2494 -4.1195,12.7375 -10.5281,14.9031 -1.4817,-0.095 -4.1806,-0.01 -5.6555,-0.281 -4.6324,-0.999 -11.0578,-10.524 -5.8293,-14.9187 z"
       id="path9-5"
       sodipodi:nodetypes="ccccc" />
    <path
       style="display:inline;fill:#000000;fill-opacity:0.1;stroke-width:3.42516"
       d="m 704.0799,300.13269 c 6.9172,14.1575 26.441,28.7187 43.249,38.9722 6.2594,-2.597 9.7957,-5.5305 13.4299,-8.7132 l -0.4251,5.018 -13.6362,11.9837 c -12.2791,-11.4811 -32.5393,-22.3993 -40.8809,-37.0576 -0.4933,-3.401 -1.1577,-6.802 -1.7367,-10.2031 z"
       id="path15"
       sodipodi:nodetypes="ccccccc" />
    <path
       style="display:inline;fill:#000000;fill-opacity:0.1;stroke-width:3.42516"
       d="m 711.8627,259.74609 c 12.9265,-3.1398 16.9136,-1.3059 24.1281,-0.1143 -4.4317,-6.7647 -19.2612,-5.0584 -24.2555,-3.819 -0.076,0.2508 0.2052,3.6121 0.1274,3.9333 z"
       id="path2"
       sodipodi:nodetypes="cccc" />
    <path
       id="path7"
       style="display:inline;fill:#00c49f;fill-opacity:1;stroke-width:3.77953"
       d="m 747.2012,164.20399 c -1.0916,-0.015 -2.2,-0.012 -3.3262,0.014 -37.8543,0.8512 -56.2524,10.9599 -62.0977,44.7382 -2.2007,34.7139 -8.7064,47.0862 1.8985,85.6934 4.5344,16.5077 9.192,33.1223 16.8926,48.4863 2.95,-16.4206 5.3104,-24.9877 4.1367,-37.3769 4.1553,5.7041 5.9474,5.3322 11.6234,9.3474 -10.0441,-13.1082 -13.7404,-24.8004 -15.0141,-30.4705 -1.2123,-13.2884 -0.6014,-33.2596 6.8282,-41.6386 l 14.916,-15.627 c -1.6985,5.8041 -3.2462,11.4395 -6.5957,16.5781 12.1528,-3.3415 13.2298,-5.3849 22.7734,-15.207 -1.6932,5.9856 -3.2743,11.8809 -6.3711,17.3457 8.7966,-3.4061 13.3428,-5.8555 19.4571,-13.7168 -1.244,8.4918 -3.2124,15.7218 -8.0411,23.1309 19.7712,-9.2207 24.2087,-5.5196 26.9707,-24.8477 6.045,3.0527 7.9934,9.8448 11.3672,15.8477 1.5475,-3.4735 1.5538,-6.4923 1.3028,-10.1465 l 3.4726,5.0527 2.9981,8.6817 1.5488,7.7441 c 0.5915,14.6147 -0.3341,28.1419 -7.9629,43.5059 -6.8918,13.8795 -7.185,29.8564 -6.8535,45.5449 0,-1.6835 9.5747,-19.1274 13.3789,-25.711 4.902,-7.416 8.8595,-20.7713 10.5527,-31.9765 1.521,16.3132 5.526,26.8467 12.1953,31.8808 -15.7621,-88.8523 0.1039,-105.3423 -16.455,-132.955 l -0.1641,-0.3614 -0.019,0.062 c -7.32,-11.6421 -23.4566,-23.2552 -49.4121,-23.6191 z"
       sodipodi:nodetypes="sccscccccccccccccccccscccccccss" />
    <path
       style="display:inline;fill:#000000;fill-opacity:0.1;stroke-width:3.38771"
       d="m 765.0164,259.74429 c 10.2476,-4.0712 16.603,-1.5084 23.9107,-0.043 -0.062,-0.6519 0.097,-2.8121 -0.019,-3.2802 -7.015,-2.3961 -23.6961,-4.5749 -23.8919,3.5755 z"
       id="path2-2"
       sodipodi:nodetypes="ccccc" />
    <path
       style="display:inline;fill:#ffffff;fill-opacity:0.5;stroke-width:3.42516"
       d="m 767.0247,266.23979 c 6.8504,4.1621 12.8547,3.2276 18.581,0.6188 -1.5042,1.7136 -3.6614,3.2524 -7.2737,4.4017 l -4.3953,-0.095 c -3.5404,-0.062 -5.9745,-3.103 -6.912,-4.9259 z"
       id="path36"
       sodipodi:nodetypes="ccccc" />
    <path
       style="display:inline;fill:#ffffff;fill-opacity:0.5;stroke-width:3.42516"
       d="m 715.6066,267.13139 c 6.8504,4.1621 13.257,2.9705 18.9834,0.3617 -1.5043,1.7136 -2.9299,3.3259 -6.2495,4.1814 l -5.5293,0.1625 c -3.9061,-1.2002 -5.9745,-3.1031 -7.2046,-4.7056 z"
       id="path36-0"
       sodipodi:nodetypes="ccccc" />
    <path
       style="display:inline;fill:#000000;fill-opacity:0.1;stroke-width:3.77953"
       d="m 718.362,166.91169 c -47.9561,63.9764 -36.0267,90.1339 -18.288,175.0769 -20.3194,-49.602 -26.7412,-82.6943 -19.6106,-116.2601 1.342,-28.0327 7.3664,-52.1753 37.8986,-58.8168 z"
       id="path24"
       sodipodi:nodetypes="cccc"
       inkscape:label="path24" />
    <path
       style="display:inline;fill:#ffffff;fill-opacity:0.5;stroke-width:2.76958"
       d="m 693.6881,206.42359 c 3.1618,7.2991 6.7598,11.6887 11.4705,-1.7727 1.3479,13.4691 3.9624,2.967 7.7599,1.7266 6.1585,10.7821 7.7916,1.9089 10.5605,-0.042 -0.213,13.1042 7.167,3.8385 11.353,-2.3188 2.9506,3.3008 3.5865,16.9738 9.6551,2.4225 3.3209,10.473 7.4723,6.7141 10.7932,-0.6167 3.8641,13.3575 12.5737,4.1797 12.3858,-1.192 2.425,8.4864 4.307,10.4682 8.6787,0.5043 0.043,13.9277 9.3999,4.3439 13.0349,-0.086 2.8001,6.8845 3.9735,5.2269 6.7736,2.0903 2.146,3.6057 5.2317,2.2658 7.3777,0.5863 1.2779,6.3272 1.1746,10.4843 1.3868,14.5537 -2.6109,-8.3991 -6.1614,-15.8174 -8.7723,-0.7584 -2.1498,-18.8525 -7.1352,-2.5136 -9.7249,-0.3715 0.5376,-4.9654 -0.082,-14.2293 -7.2919,-2.0504 -3.1645,-13.3298 -7.0466,-0.9941 -10.211,3.7609 -1.5493,-14.6871 -7.873,-6.0743 -12.3073,-2.2259 -1.0196,-7.3111 -1.6613,-10.5029 -7.3973,0.9167 -1.5665,-5.6621 -7.9714,-7.8589 -13.2985,-1.6126 0.039,-11.1744 -3.5581,-10.841 -10.3645,-0.3484 -6.6924,-8.1149 -7.1056,-4.7465 -8.9158,1.579 -0.9611,-12.4666 -9.0986,-6.0228 -14.3458,1.8977 -0.067,-7.263 -5.7547,-7.5541 -13.6513,-3.4401 1.5904,-4.5174 2.8869,-9.4021 5.0509,-13.2025 z"
       id="path43"
       sodipodi:nodetypes="ccccccccccccccccccccccccc" />
    <path
       style="display:inline;fill:#ffffff;stroke-width:2.458"
       d="m 742.4638,313.44909 c -0.4064,0.1046 0.4426,-2.1128 2.9873,-2.0079 13.861,-0.2054 14.3595,-0.073 17.6241,-0.1995 0.9419,0.3147 0.513,1.7379 0.2301,1.9004 -11.2243,0.2572 -16.7699,-0.097 -20.8414,0.307 z"
       id="path14"
       sodipodi:nodetypes="cccccc" />
    <path
       style="display:inline;fill:#333333;stroke-width:3.42516"
       d="m 709.2819,357.28569 c 5.8858,16.0223 25.3306,16.5486 41.427,20.9017 16.7578,-9.4332 12.4833,-16.0961 11.4428,-23.7081 3.2944,-0.2946 15.7466,0.2673 19.3295,0.6699 31.3875,48.9532 32.3568,92.7144 37.4811,120.7336 -5.6209,36.4673 -23.1227,130.3826 -16.4326,202.42801 36.0677,143.3606 61.4814,425.1077 64.1545,450.4859 2.8589,54.4687 11.4161,229.2955 11.5169,319.112 -10.7211,1.1028 -13.8781,4.0732 -40.0557,1.1714 -13.0202,-94.4958 -51.4619,-263.155 -52.2104,-311.6018 -10.6398,-84.3454 -31.1012,-266.4115 -28.4053,-341.2917 -23.265,213.3055 -73.4671,437.4173 -111.6398,655.4493 -12.3468,-0.8588 -21.2295,3.4669 -38.2721,-0.8861 2.0572,-328.8018 50.6037,-550.0581 79.3052,-780.7917 3.1885,-61.18411 -16.3736,-150.17091 -25.4909,-190.32621 16.5136,-118.9181 18.0178,-100.621 31.8929,-121.7631 2.6759,-0.2218 12.8174,-0.439 15.9569,-0.5831 z"
       id="path6"
       inkscape:label="path6"
       sodipodi:nodetypes="ccccccccccccccccc" />
    <path
       style="display:inline;fill:#000000;fill-opacity:0.1;stroke-width:6.51894"
       d="m 753,270.62159 1.6155,11.2967 -1.0116,8.8922 2.2823,-8.6167 z"
       id="path32"
       sodipodi:nodetypes="ccccc" />
  </g>
</svg>
