<?xml version="1.0" encoding="UTF-8" standalone="no"?>
<!-- Created with Inkscape (http://www.inkscape.org/) -->

<svg
   version="1.1"
   id="svg1"
   width="1512"
   height="1512"
   viewBox="0 0 1512 1512"
   sodipodi:docname="Ally3Attack.svg"
   inkscape:version="1.3.2 (091e20e, 2023-11-25)"
   inkscape:export-filename="../../Utopia/Assets/Sprites/Nehustar.png"
   inkscape:export-xdpi="96"
   inkscape:export-ydpi="96"
   xmlns:inkscape="http://www.inkscape.org/namespaces/inkscape"
   xmlns:sodipodi="http://sodipodi.sourceforge.net/DTD/sodipodi-0.dtd"
   xmlns="http://www.w3.org/2000/svg"
   xmlns:svg="http://www.w3.org/2000/svg">
  <defs
     id="defs1" />
  <sodipodi:namedview
     id="namedview1"
     pagecolor="#505050"
     bordercolor="#eeeeee"
     borderopacity="1"
     inkscape:showpageshadow="0"
     inkscape:pageopacity="0"
     inkscape:pagecheckerboard="0"
     inkscape:deskcolor="#505050"
     inkscape:zoom="0.23488132"
     inkscape:cx="606.68938"
     inkscape:cy="1089.9121"
     inkscape:window-width="1512"
     inkscape:window-height="831"
     inkscape:window-x="0"
     inkscape:window-y="38"
     inkscape:window-maximized="0"
     inkscape:current-layer="layer1"
     showguides="true"
     showgrid="false" />
  <g
     inkscape:groupmode="layer"
     id="layer1"
     inkscape:label="Layer1"
     style="display:inline">
    <path
       id="path5"
       style="display:inline;fill:#00c49f;fill-opacity:1;stroke-width:3.77953"
       d="m 717.107,147.44002 c -5.9246,0.01 -12.7382,2.5031 -21.3789,6.9023 6.7896,-0.5443 13.3696,-0.3266 19.9082,0.3575 -4.2313,2.7156 -7.7792,6.2108 -8.6211,10.3378 -7.4863,36.6994 -18.2246,123.541 -18.2246,123.541 37.6278,106.3751 -31.0443,440.7392 -9.5537,689.3416 5.945,60.60008 23.0914,134.26848 40.4128,208.14108 13.38,-76.39 28.2294,-145.4331 47.3952,-192.89388 35.6494,-146.8647 -5.0769,-569.8187 -5.7914,-643.3368 0.6988,10.2124 9.128,22.2026 13.3008,31.3731 -1.9117,-47.1186 5.7506,-27.8051 10.2578,-103.2579 l -29.6309,-115.4863 c -1.8503,-8.7781 -14.3289,-13.6396 -23.1953,-13.6465 -1.4248,-0.001 -3.4415,0.3775 -5.6719,1.0215 -2.9012,-1.6282 -5.9171,-2.3992 -9.207,-2.3945 z"
       sodipodi:nodetypes="sccsccccccccscs" />
    <path
       d="m 748.21875,185.00781 c -39.58576,1.7422 -50.8447,10.40483 -50.1543,67.95117 l 1.4336,30.81836 c 2.22459,6.3217 -0.46921,2.33912 3.17968,9.31641 5.5104,26.38157 7.24258,48.2865 6.67188,64.49219 -33.54467,0.3517 -84.73468,11.11146 -91.98047,40.52343 -12.70111,51.55593 -34.77081,120.65237 -51.50781,308.14649 2.06142,10.96386 -0.11479,24.85433 14.86474,29.35913 l 35.2544,-19.7478 c 22.13242,-80.21125 36.3811,-158.83981 45.46875,-236.43164 11.30269,49.64305 15.27384,37.64403 29.51562,182.64648 -26.07757,164.37534 -52.46814,331.99979 -64.23632,496.37497 l -19.22461,309 c -0.5617,22.5299 -17.83082,29.9762 -10.95313,44.2539 l 51.0293,0.059 c 4.19059,-15.5124 -8.86519,-26.5391 -8.08789,-42.7929 l 55.24609,-300.5352 c 25.58318,-129.7606 51.67746,-259.52273 63.28125,-389.2832 2.4814,119.78818 18.3149,247.622 34.89649,375.9043 l 46.6289,299.1211 c 1.9455,18.851 -13.77642,34.0708 -6.42383,57.7891 l 135.47657,-0.033 c 4.41429,-4.0502 6.92022,-7.4245 6.91992,-11.4747 -51.54433,-5.2481 -71.18754,-15.4471 -99.75391,-54.621 l -9.39844,-285.0743 C 855.80794,997.34611 830.11398,829.88947 799.50781,660.71484 c 4.6777,-154.17494 12.99728,-130.89211 19.20117,-186.00586 11.94689,55.05755 34.14613,91.16878 91.77735,226.39258 41.98077,80.40004 171.72787,38.04254 258.78317,33.31446 l 41.3243,11.69531 c 13.7935,-2.20029 18.1804,-9.07755 23.3828,-16.83008 -0.7482,-11.43093 -4.2926,-21.33621 -11.3828,-29.30664 l -45.9629,6.07617 C 1072.7464,698.23461 1048.48,702.88203 951.49414,683.92187 888.97663,456.41357 863.06918,406.32559 857.89648,396.1543 c -19.73268,-38.80156 -69.24502,-43.53683 -95.4375,-39.99024 -1.10849,-8.00539 -3.6243,-14.59716 -1.66211,-25.68554 12.50289,-10.83299 21.89708,-24.97857 29.48047,-41.62305 1.3052,-15.84949 3.42708,-29.5149 3.01758,-49.95508 -3.22449,-23.92108 -7.82551,-53.69678 -45.07617,-53.89258 z"
       style="display:inline;fill:#6c5353;stroke-width:3.42516"
       id="path4"
       sodipodi:nodetypes="cccccsccccccccccccccccccccccccccccsccccc" />
    <path
       style="display:inline;fill:#ffffff;stroke-width:4.14303"
       d="m 739.6111,263.18072 c -5.0651,-6.7018 -8.2265,-7.7621 -15.8208,-8.9863 -7.0934,0.4938 -12.1246,0.1862 -18.4053,2.9696 3.1917,5.4128 0.4357,14.0747 14.3896,14.698 8.7565,-0.099 1.6427,0.1108 10.5243,-0.4411 3.5757,-2.266 7.3775,-6.3607 9.3122,-8.2402 z"
       id="path8"
       sodipodi:nodetypes="cccccc" />
    <path
       style="display:inline;fill:#00c49f;fill-opacity:1;stroke-width:4.23239"
       d="m 734.6521,257.91592 c -4.8519,-4.3985 -16.6476,-4.0632 -22.9486,-2.5435 -0.5134,8.2494 4.3109,14.3129 11.017,16.4785 1.5505,-0.095 4.3747,-0.01 5.9181,-0.281 4.8475,-0.999 11.4848,-9.2593 6.0135,-13.654 z"
       id="path9"
       sodipodi:nodetypes="ccccc" />
    <path
       style="display:inline;fill:#00c49f;fill-opacity:1;stroke-width:4.14303"
       d="m 704.7751,257.37472 c 12.5019,-3.3093 24.2683,-5.1548 34.6264,3.8562 -10.4174,-12.1954 -25.8163,-8.214 -34.6264,-3.8562 z"
       id="path10"
       sodipodi:nodetypes="ccc" />
    <path
       style="display:inline;fill:#00c49f;fill-opacity:1;stroke-width:3.06566"
       d="m 764.5872,251.68072 c 9.8283,-4.3187 16.8566,-4.124 25.3578,1.4624 -8.2604,-8.1386 -15.7531,-8.0726 -25.3578,-1.4624 z"
       id="path10-8-6"
       sodipodi:nodetypes="ccc" />
    <path
       style="display:inline;fill:#00c49f;fill-opacity:1;stroke-width:3.01349"
       d="m 735.3676,251.71482 c -9.4475,-4.4617 -19.9203,-4.2204 -28.198,1.2408 8.0739,-8.0165 18.9926,-7.9904 28.198,-1.2408 z"
       id="path10-8-6-6"
       sodipodi:nodetypes="ccc" />
    <path
       style="display:inline;fill:#ffffff;stroke-width:3.94212"
       d="m 759.9519,263.26482 c 4.5858,-6.7018 6.9244,-8.1477 13.8,-9.3719 6.4221,0.4939 10.9772,0.1863 16.6635,2.9696 -2.8896,5.4129 0.014,13.7153 -12.6191,14.3386 -7.9278,-0.099 -1.4872,0.1108 -9.5282,-0.4411 -3.2374,-2.266 -6.5645,-5.6158 -8.3162,-7.4952 z"
       id="path8-9"
       sodipodi:nodetypes="cccccc" />
    <path
       style="display:inline;fill:#00c49f;fill-opacity:1;stroke-width:3.92566"
       d="m 790.7082,256.94302 c -11.2244,-3.3093 -21.5648,-4.9078 -30.8645,4.1033 9.3529,-12.1955 22.9546,-8.4611 30.8645,-4.1033 z"
       id="path10-5"
       sodipodi:nodetypes="ccc" />
    <path
       style="display:inline;fill:#00c49f;fill-opacity:1;stroke-width:4.13743"
       d="m 766.9072,256.08052 c 9.2359,-3.8758 15.9915,-1.223 22.0129,0.2967 0.4907,8.2494 -4.1195,12.7374 -10.5281,14.9031 -1.4817,-0.095 -4.1806,-0.01 -5.6555,-0.281 -4.6324,-0.999 -11.0578,-10.5241 -5.8293,-14.9188 z"
       id="path9-5"
       sodipodi:nodetypes="ccccc" />
    <path
       style="display:inline;fill:#000000;fill-opacity:0.1;stroke-width:3.42516"
       d="m 704.0795,300.10512 c 6.9172,14.1574 26.441,28.7187 43.249,38.9722 6.2594,-2.597 9.7957,-5.5305 13.4299,-8.7133 l -0.4251,5.0181 -13.6362,11.9837 c -12.2791,-11.4811 -32.5393,-22.3994 -40.8809,-37.0576 -0.4933,-3.401 -1.1577,-6.8021 -1.7367,-10.2031 z"
       id="path15"
       sodipodi:nodetypes="ccccccc" />
    <path
       style="display:inline;fill:#000000;fill-opacity:0.1;stroke-width:3.42516"
       d="m 711.8623,259.71842 c 12.9265,-3.1397 16.9136,-1.3059 24.1281,-0.1142 -4.4317,-6.7647 -19.2612,-5.0585 -24.2555,-3.8191 -0.076,0.2509 0.2052,3.6121 0.1274,3.9333 z"
       id="path2"
       sodipodi:nodetypes="cccc" />
    <path
       id="path7"
       style="display:inline;fill:#00c49f;fill-opacity:1;stroke-width:3.77953"
       d="m 747.2008,164.17632 c -1.0916,-0.015 -2.2,-0.012 -3.3262,0.014 -37.8543,0.8512 -56.2524,10.96 -62.0977,44.7383 -2.2007,34.7138 -8.7064,47.0861 1.8985,85.6934 4.5344,16.5077 9.192,33.1222 16.8926,48.4863 2.9501,-16.4206 5.3104,-24.9877 4.1367,-37.377 4.1553,5.7042 5.9474,5.3322 11.6235,9.3475 -10.0442,-13.1083 -13.7405,-24.8005 -15.0142,-30.4705 -1.2123,-13.2884 -0.6014,-33.2596 6.8282,-41.6387 l 14.916,-15.6269 c -1.6985,5.8041 -3.2462,11.4395 -6.5957,16.5781 12.1528,-3.3415 13.2299,-5.3849 22.7734,-15.207 -1.6932,5.9856 -3.2743,11.8809 -6.3711,17.3457 8.7966,-3.4062 13.3428,-5.8556 19.4571,-13.7168 -1.244,8.4917 -3.2124,15.7217 -8.0411,23.1308 19.7712,-9.2206 24.2087,-5.5196 26.9707,-24.8476 6.045,3.0527 7.9934,9.8448 11.3672,15.8476 1.5475,-3.4735 1.5538,-6.4922 1.3028,-10.1465 l 3.4726,5.0528 2.9981,8.6816 1.5488,7.7442 c 0.5915,14.6147 -0.3341,28.1419 -7.9629,43.5058 -6.8918,13.8796 -7.185,29.8565 -6.8535,45.5449 0,-1.6835 9.5747,-19.1274 13.3789,-25.7109 4.902,-7.416 8.8595,-20.7713 10.5527,-31.9766 1.521,16.3133 5.526,26.8467 12.1953,31.8809 -15.7621,-88.8523 0.1039,-105.3423 -16.455,-132.9551 l -0.1641,-0.3613 -0.02,0.062 c -7.32,-11.6421 -23.4566,-23.2553 -49.4121,-23.6192 z"
       sodipodi:nodetypes="sccscccccccccccccccccscccccccss" />
    <path
       style="display:inline;fill:#000000;fill-opacity:0.1;stroke-width:3.38771"
       d="m 765.016,259.71672 c 10.2476,-4.0713 16.603,-1.5084 23.9107,-0.043 -0.062,-0.6519 0.097,-2.8121 -0.019,-3.2802 -7.015,-2.3962 -23.6961,-4.575 -23.8919,3.5755 z"
       id="path2-2"
       sodipodi:nodetypes="ccccc" />
    <path
       style="display:inline;fill:#ffffff;fill-opacity:0.5;stroke-width:3.42516"
       d="m 767.0244,266.21222 c 6.8503,4.1621 12.8546,3.2276 18.581,0.6187 -1.5043,1.7137 -3.6615,3.2525 -7.2738,4.4018 l -4.3953,-0.095 c -3.5404,-0.062 -5.9745,-3.1031 -6.9119,-4.926 z"
       id="path36"
       sodipodi:nodetypes="ccccc" />
    <path
       style="display:inline;fill:#ffffff;fill-opacity:0.5;stroke-width:3.42516"
       d="m 715.6062,267.10382 c 6.8504,4.1621 13.257,2.9705 18.9834,0.3617 -1.5043,1.7136 -2.9299,3.3259 -6.2495,4.1813 l -5.5293,0.1625 c -3.9061,-1.2001 -5.9745,-3.103 -7.2046,-4.7055 z"
       id="path36-0"
       sodipodi:nodetypes="ccccc" />
    <path
       style="display:inline;fill:#000000;fill-opacity:0.1;stroke-width:3.77953"
       d="m 718.3616,166.88402 c -47.9561,63.9765 -36.0267,90.134 -18.288,175.077 -20.3194,-49.602 -26.7412,-82.6943 -19.6106,-116.2601 1.342,-28.0327 7.3664,-52.1754 37.8986,-58.8169 z"
       id="path24"
       sodipodi:nodetypes="cccc"
       inkscape:label="path24" />
    <path
       style="display:inline;fill:#ffffff;fill-opacity:0.5;stroke-width:2.76958"
       d="m 693.6877,206.39592 c 3.1618,7.2992 6.7598,11.6887 11.4705,-1.7727 1.3479,13.4692 3.9624,2.9671 7.7599,1.7266 6.1585,10.7822 7.7916,1.909 10.5605,-0.042 -0.213,13.1042 7.167,3.8385 11.353,-2.3187 2.9506,3.3008 3.5865,16.9738 9.6551,2.4224 3.3209,10.473 7.4723,6.7142 10.7932,-0.6167 3.8641,13.3575 12.5737,4.1798 12.3858,-1.1919 2.425,8.4864 4.307,10.4681 8.6787,0.5043 0.043,13.9277 9.3999,4.3439 13.0349,-0.086 2.8001,6.8845 3.9735,5.2269 6.7736,2.0903 2.146,3.6057 5.2317,2.2658 7.3777,0.5863 1.2779,6.3271 1.1746,10.4842 1.3868,14.5537 -2.6108,-8.3991 -6.1614,-15.8174 -8.7723,-0.7584 -2.1498,-18.8525 -7.1352,-2.5136 -9.7249,-0.3715 0.5376,-4.9654 -0.082,-14.2293 -7.2919,-2.0505 -3.1645,-13.3297 -7.0466,-0.994 -10.211,3.761 -1.5493,-14.6872 -7.873,-6.0744 -12.3073,-2.226 -1.0196,-7.3111 -1.6613,-10.5028 -7.3973,0.9167 -1.5665,-5.6621 -7.9714,-7.8588 -13.2985,-1.6125 0.039,-11.1745 -3.5581,-10.841 -10.3645,-0.3485 -6.6923,-8.1149 -7.1056,-4.7464 -8.9158,1.579 -0.9611,-12.4665 -9.0986,-6.0227 -14.3458,1.8977 -0.067,-7.2629 -5.7547,-7.554 -13.6513,-3.44 1.5904,-4.5175 2.8869,-9.4021 5.0509,-13.2025 z"
       id="path43"
       sodipodi:nodetypes="ccccccccccccccccccccccccc" />
    <path
       style="display:inline;fill:#ffffff;stroke-width:2.458"
       d="m 742.4634,313.42152 c -0.4064,0.1045 0.4426,-2.1129 2.9873,-2.0079 13.861,-0.2054 14.3595,-0.073 17.6241,-0.1995 0.9419,0.3146 0.513,1.7379 0.2301,1.9004 -11.2243,0.2572 -16.7699,-0.098 -20.8414,0.307 z"
       id="path14"
       sodipodi:nodetypes="cccccc" />
    <path
       style="display:inline;fill:#333333;stroke-width:3.42516"
       d="m 709.2815,357.25802 c 5.8858,16.0224 25.3306,16.5487 41.427,20.9018 16.7578,-9.4333 12.4833,-16.0962 11.4428,-23.7082 3.2944,-0.2945 15.7466,0.2673 19.3295,0.67 31.3875,48.9531 32.3568,92.7144 37.4811,120.7335 -5.6209,36.4674 -23.1227,130.3826 -16.4326,202.4281 36.0677,143.3606 61.4814,425.10768 64.1545,450.48588 2.8589,54.4687 11.4161,229.2955 11.5169,319.112 -10.7211,1.1028 -13.8781,4.0732 -40.0557,1.1714 -13.0202,-94.4958 -51.4619,-263.155 -52.2104,-311.6018 -10.6398,-84.3454 -31.1012,-266.41158 -28.4053,-341.29168 -23.265,213.30548 -73.4671,437.41728 -111.6398,655.44928 -12.3468,-0.8588 -21.2295,3.4669 -38.2721,-0.8861 2.0572,-328.8018 50.6037,-550.05808 79.3052,-780.79178 3.1885,-61.184 -16.3736,-150.1709 -25.4909,-190.3262 16.5136,-118.9181 18.0178,-100.6209 31.8929,-121.7631 2.6759,-0.2217 12.8174,-0.4389 15.9569,-0.5831 z"
       id="path6"
       inkscape:label="path6"
       sodipodi:nodetypes="ccccccccccccccccc" />
    <path
       style="display:inline;fill:#00c49f;fill-opacity:1;stroke-width:3.77953"
       d="m 694.4381,378.49702 c -9.4669,-10.5866 -88.0933,30.6948 -55.5946,-54.2545 -86.0261,96.036 40.9229,57.2801 54.7026,87.6806 -47.4046,-25.3152 -92.1612,10.6603 -96.6673,-35.9101 -31.2208,85.6527 44.2567,21.8176 76.1407,60.354 7.5287,5.4134 34.9961,30.2375 91.876,34.2132 7.4093,-53.3823 -21.2479,-78.1488 -70.4574,-92.0832 z"
       id="path46"
       sodipodi:nodetypes="ccccccc" />
    <path
       style="display:inline;fill:#000000;fill-opacity:0.1;stroke-width:6.51894"
       d="m 752.9996,270.59402 1.6155,11.2966 -1.0116,8.8923 2.2823,-8.6167 z"
       id="path32"
       sodipodi:nodetypes="ccccc" />
    <path
       id="path33"
       style="display:inline;fill:#e6e6e6;fill-opacity:1;stroke-width:3.77953"
       d="m 778.7984,352.27592 -34.7656,94.2676 -101.8711,38.5234 78.4063,-3.6093 -16.7403,162.4824 43.4571,-151.3828 99.6601,-60.4922 -75.5312,20.957 z"
       sodipodi:nodetypes="ccccccccc" />
    <path
       style="display:inline;fill:#e6e6e6;fill-opacity:1;stroke-width:3.77953"
       d="m 759.8581,392.00172 -46.4242,28.0839 -28.0483,47.5718 9.2911,-61.3527 z"
       id="path34"
       sodipodi:nodetypes="ccccc" />
    <path
       style="display:inline;fill:#00c49f;fill-opacity:1;stroke-width:3.77953"
       d="m 817.4471,480.39732 c -5.6084,63.8952 -16.7889,126.8618 -13.3448,192.2658 9.3677,59.5365 13.2708,40.9782 62.6096,373.97668 C 778.7582,902.57542 765.5286,769.72342 761.973,605.13772 c 17.4312,-42.2548 18.4241,-94.9703 55.4741,-124.7404 z"
       id="path57"
       sodipodi:nodetypes="ccccc" />
    <path
       style="display:inline;fill:#e6e6e6;fill-opacity:1;stroke-width:3.77953"
       d="m 761.0065,384.34572 -77.7085,9.1872 -12.2496,75.0288 -8.4216,-93.7861 z"
       id="path35" />
    <path
       style="display:inline;fill:#e6e6e6;fill-opacity:1;stroke-width:3.77953"
       d="m 753.4782,493.54602 c 26.4092,-10.7478 48.9644,-22.8142 65.0835,-34.2941 l -0.3405,20.7218 c -64.9878,83.1797 -52.1432,177.5179 -41.5124,274.2363 41.6794,227.8338 45.4847,456.76298 28.9456,686.65598 -182.2893,0 -198.8766,-12.0256 -262.1192,-69.1481 40.1999,-248.8847 92.5315,-495.83938 142.3452,-742.79978 -4.597,-50.2745 -14.0764,-97.9656 -22.6409,-141.0207 18.1479,-0.2944 36.4473,2.9109 52.5495,2.3684 l -17.9155,151.607 2.1375,18.0594 8.141,-13.2291 z"
       id="path40"
       sodipodi:nodetypes="ccccccccccccc" />
    <path
       style="display:inline;fill:#e6e6e6;fill-opacity:1;stroke-width:3.77953"
       d="m 672.4974,411.60982 34.487,12.7452 60.7273,56.229 -70.6662,-42.626 z"
       id="path47" />
    <path
       style="display:inline;fill:#e6e6e6;fill-opacity:1;stroke-width:3.77953"
       d="m 696.464,386.77732 16.8663,26.7535 55.7009,66.4494 -43.4873,-75.4642 z"
       id="path48"
       sodipodi:nodetypes="ccccc" />
    <path
       id="path55-2"
       style="display:inline;fill:#e6e6e6;fill-opacity:1;stroke-width:3.74773"
       d="m 929.39601,674.38253 54.10369,1.17189 -15.36591,-9.42086 35.04151,-5.33137 151.9148,8.04257 2.6785,19.18691 -65.5875,3.14314 72.6375,15.83158 -0.1404,2.69718 -11.7679,0.98576 12.1042,8.05872 0.2613,4.46008 -13.1107,8.75214 13.3451,0.85203 0.5835,2.90178 -53.7913,7.15415 54.8612,5.39854 2.5713,20.40151 -176.51029,3.30228 -26.4488,-8.17541 7.07482,-12.223 -46.70337,-2.78804 52.58265,-41.24094 z"
       sodipodi:nodetypes="cccccccccccccccccccccccc" />
    <path
       id="path58"
       style="display:inline;fill:#e6e6e6;fill-opacity:1;stroke-width:3.77953"
       d="m 866.9114,1097.1765 -28.9919,100.0799 c 8.3242,74.7776 13.5406,145.0661 41.8633,248.7305 2e-4,0 -2e-4,0 0,-0.01 0.041,0.2363 0.074,0.4587 0.1152,0.6953 26.5112,-128.578 22.9875,-303.8676 13.2832,-323.7168 l -20.2441,40.2422 c 0.6095,-28.412 -1.3176,-54.1219 -6.0257,-66.0211 z"
       sodipodi:nodetypes="cccccccc" />
    <path
       style="display:inline;fill:#00c49f;fill-opacity:1;stroke-width:3.78141"
       d="m 1155.6001,672.15478 -140.5754,4.3766 141.9291,6.3128 z"
       id="path59-1"
       sodipodi:nodetypes="cccc" />
    <path
       style="display:inline;fill:#00c49f;fill-opacity:1;stroke-width:3.78141"
       d="m 1167.7798,753.37334 -150.0707,4.94355 151.4266,5.79444 z"
       id="path59-2-8"
       sodipodi:nodetypes="cccc" />
    <path
       style="display:inline;fill:#333333;fill-opacity:1;stroke-width:3.77953"
       d="m 960.81231,742.04466 34.30315,-32.66831 -34.66463,-23.31935 118.10447,7.39366 47.4094,21.10455 -46.2395,28.1028 z"
       id="path61"
       sodipodi:nodetypes="ccccccc" />
    <path
       style="display:inline;fill:#00c49f;fill-opacity:1;stroke-width:3.78607"
       d="m 1125.7006,714.53151 -23.3403,-10.81771 c -38.8887,-7.16276 -73.676,-3.92002 -112.55051,-10.42362 -49.4795,-30.22069 -64.57494,14.69707 -122.97328,-44.5327 44.7744,85.12001 75.1801,25.74661 132.71856,62.88328 -95.71754,22.36969 -135.94361,-61.7902 -192.89667,4.5396 86.30607,-32.08907 84.91734,30.76216 182.46514,14.97987 43.40896,-8.13014 72.58206,7.76978 112.33426,-1.3595 z"
       id="path67-3"
       sodipodi:nodetypes="ccccccccc" />
    <path
       style="display:inline;fill:#e6e6e6;fill-opacity:1;stroke-width:3.98928"
       d="m 1006.6172,755.45127 26.4622,-40.74248 -32.273,-33.67288 48.7504,32.52372 z"
       id="path64"
       sodipodi:nodetypes="ccccc" />
    <path
       style="display:inline;fill:#e6e6e6;fill-opacity:1;stroke-width:3.77953"
       d="m 1047.8299,750.59013 26.111,-36.95212 -28.9488,-31.42406 47.6004,31.3622 z"
       id="path65"
       sodipodi:nodetypes="ccccc" />
    <path
       style="display:inline;fill:#333333;fill-opacity:1;stroke-width:3.77953"
       d="m 769.9009,685.42552 33.7367,-14.5125 -0.5145,-23.6667 c 10.3013,26.7374 9.4161,45.5556 9.7753,73.5725 l -4.6304,-19.5507 -35.8536,13.9757 z"
       id="path66"
       sodipodi:nodetypes="ccccccc" />
    <path
       style="display:inline;fill:#333333;fill-opacity:1;stroke-width:3.77953"
       d="m 692.3539,675.54502 c -35.9257,242.1795 -79.9934,461.96848 -105.8688,731.78608 3.7393,2.4436 7.7237,5.0021 11.9366,7.3277 22.5629,-278.8656 67.3111,-495.61228 102.4514,-739.26128 l -3.3592,-5.4587 z"
       id="path68"
       sodipodi:nodetypes="cccccc" />
    <path
       style="display:inline;fill:#333333;fill-opacity:1;stroke-width:3.77953"
       d="m 1169.7292,768.7755 2.0765,-4.52025 -1.0935,-11.48003 -3.5644,-4.59942 z"
       id="path71"
       sodipodi:nodetypes="ccccc" />
    <path
       style="display:inline;fill:#333333;fill-opacity:1;stroke-width:3.77953"
       d="m 1157.6409,688.05126 1.7509,-5.71933 -1.4737,-10.30912 -2.8965,-3.12647 z"
       id="path72"
       sodipodi:nodetypes="ccccc" />
    <path
       d="M 580.94793,758.48299 C 646.60998,755.6772 762.01244,744.13585 855.41162,730.191 l 43.99398,-1.83693 c 10.03305,-8.19257 10.89958,-19.2469 12.49349,-30.07476 -7.21597,-7.44241 -10.60855,-11.60352 -27.26464,-10.8219 l -34.78526,16.11904 c -92.09111,-2.19639 -173.52056,-1.0628 -239.09236,5.02189 z"
       style="display:inline;fill:#6c5353;stroke-width:3.42516"
       id="path13"
       sodipodi:nodetypes="cccccccc" />
    <path
       id="path55"
       style="display:inline;fill:#e6e6e6;fill-opacity:1;stroke-width:3.77953"
       d="m 607.49342,756.76965 54.13782,0.42424 -15.59625,9.11491 34.91548,6.46384 157.73862,-2.87467 3.08271,-19.46433 -67.12494,-5.68048 73.02948,-13.91978 -0.0756,-2.74502 -11.74518,-1.35306 12.30122,-7.82808 0.36968,-4.52462 -12.89965,-9.28537 13.36718,-0.46746 0.65399,-2.93143 -53.62304,-8.87599 55.64328,-3.58031 3.0134,-19.55432 -180.98362,-10.18287 -26.65016,7.51831 6.77878,12.63242 -46.77588,1.43897 51.58645,43.47945 z"
       sodipodi:nodetypes="cccccccccccccccccccccccc" />
    <path
       style="display:inline;fill:#00c49f;fill-opacity:1;stroke-width:3.77953"
       d="m 839.36096,765.94945 -144.1308,-7.78904 145.77252,-2.8501 z"
       id="path59"
       sodipodi:nodetypes="cccc" />
    <path
       style="display:inline;fill:#00c49f;fill-opacity:1;stroke-width:3.77953"
       d="M 852.37718,684.65724 706.72195,673.6111 854.01882,674.01821 Z"
       id="path59-2"
       sodipodi:nodetypes="cccc" />
    <path
       style="display:inline;fill:#333333;fill-opacity:1;stroke-width:3.77953"
       d="m 671.95497,724.54104 -30.15162,-32.97387 107.20491,1.31179 49.62218,25.70564 -52.04949,23.58413 -104.28523,5.00092 z"
       id="path60"
       sodipodi:nodetypes="ccccccc" />
    <path
       style="display:inline;fill:#00c49f;fill-opacity:1;stroke-width:3.77953"
       d="m 798.76836,718.49272 -27.24584,12.25269 c -39.06691,6.11637 -74.33174,1.56244 -113.36651,7.02215 -51.27286,22.39312 -109.64353,-13.17346 -147.74945,44.58135 28.90803,-90.17141 96.22879,-26.7745 157.99242,-62.60802 -66.43583,41.73873 -86.06729,-65.11462 -217.78191,20.37193 79.38123,-97.50507 181.84585,-12.72643 206.73363,-39.27354 43.16673,9.2385 75.84046,-6.10913 115.32476,4.02893 z"
       id="path67"
       sodipodi:nodetypes="ccccccccc" />
    <path
       style="display:inline;fill:#e6e6e6;fill-opacity:1;stroke-width:3.77953"
       d="m 677.62553,755.00811 30.76661,-33.95994 -33.72806,-42.80268 49.99829,43.42544 z"
       id="path62" />
    <path
       style="display:inline;fill:#e6e6e6;fill-opacity:1;stroke-width:3.77953"
       d="m 710.63544,752.52914 38.09891,-30.39434 -37.05986,-40.72379 56.15236,39.3464 z"
       id="path63" />
    <path
       style="display:inline;fill:#333333;fill-opacity:1;stroke-width:3.77953"
       d="m 838.58557,770.04101 3.87586,-3.445 1.6641,-10.38498 -2.28646,-5.7742 z"
       id="path69"
       sodipodi:nodetypes="ccccc" />
    <path
       style="display:inline;fill:#333333;fill-opacity:1;stroke-width:3.77953"
       d="m 851.66893,689.1884 3.7652,-4.02977 1.57755,-10.45937 -2.33886,-4.94179 z"
       id="path70"
       sodipodi:nodetypes="ccccc" />
  </g>
</svg>
