<?xml version="1.0" encoding="UTF-8" standalone="no"?>
<!-- Created with Inkscape (http://www.inkscape.org/) -->

<svg
   version="1.1"
   id="svg1"
   width="1512"
   height="1512"
   viewBox="0 0 1512 1512"
   sodipodi:docname="Ally3.svg"
   inkscape:version="1.3.2 (091e20e, 2023-11-25)"
   inkscape:export-filename="../../Utopia/Assets/Sprites/Nehustar.png"
   inkscape:export-xdpi="96"
   inkscape:export-ydpi="96"
   xmlns:inkscape="http://www.inkscape.org/namespaces/inkscape"
   xmlns:sodipodi="http://sodipodi.sourceforge.net/DTD/sodipodi-0.dtd"
   xmlns="http://www.w3.org/2000/svg"
   xmlns:svg="http://www.w3.org/2000/svg">
  <defs
     id="defs1" />
  <sodipodi:namedview
     id="namedview1"
     pagecolor="#505050"
     bordercolor="#eeeeee"
     borderopacity="1"
     inkscape:showpageshadow="0"
     inkscape:pageopacity="0"
     inkscape:pagecheckerboard="0"
     inkscape:deskcolor="#505050"
     inkscape:zoom="4.068413"
     inkscape:cx="775.60955"
     inkscape:cy="298.88804"
     inkscape:window-width="1512"
     inkscape:window-height="917"
     inkscape:window-x="0"
     inkscape:window-y="65"
     inkscape:window-maximized="0"
     inkscape:current-layer="layer1"
     showguides="true"
     showgrid="false" />
  <g
     inkscape:groupmode="layer"
     id="layer1"
     inkscape:label="Layer1"
     style="display:inline">
    <path
       style="display:inline;fill:#93ac93;fill-opacity:1;stroke-width:3.88371"
       d="m 768.10189,287.0682 c 0,0 -5.33795,-88.65423 -12.91978,-124.62213 -1.85037,-8.7781 -14.32963,-13.64093 -23.19601,-13.64753 -6.21215,-0.005 -22.98595,6.49847 -24.96989,16.22411 -7.48634,36.69939 -18.22495,123.5418 -18.22495,123.5418 37.62785,106.37524 -14.382,99.6186 7.10864,348.22144 l 25.71768,153.87819 32.69933,-157.84949 C 799.45043,446.87825 742.38102,396.05449 768.10189,287.0682 Z"
       id="path4"
       sodipodi:nodetypes="csssccccc"
       inkscape:transform-center-x="2.9287861"
       inkscape:transform-center-y="309.24677" />
    <path
       id="path1"
       style="display:inline;fill:#6c5353;stroke-width:3.42516"
       d="m 748.2197,184.99452 c -39.58579,1.74213 -50.84509,10.40345 -50.15474,67.94991 l 1.43436,30.8189 c 2.22462,6.32169 -0.47034,2.33888 3.17861,9.31616 5.51038,26.38158 7.24368,48.28598 6.67295,64.49172 -33.54464,0.35168 -84.73529,11.11207 -91.98108,40.52404 -12.79429,51.93427 -35.10827,121.36156 -51.8883,311.99123 -10.57339,64.9712 -16.76625,154.13108 -21.93944,248.92248 l -7.05965,43.46244 c 6.00474,11.4771 16.65813,14.5529 26.94325,18.2943 8.74289,-5.5697 13.50258,-8.0563 16.09053,-24.52869 l -8.78477,-37.31851 c 20.69339,-89.76299 35.97759,-169.75176 43.21999,-235.20587 23.40705,-82.95133 38.11276,-164.15592 47.49836,-244.29173 11.30269,49.64314 15.27392,37.64421 29.51578,182.64683 -26.07768,164.37544 -52.46913,331.99922 -64.23733,496.37467 l -19.22439,309.0014 c -0.56176,22.5299 -17.83059,29.976 -10.95289,44.2538 l 51.02889,0.057 c 4.19062,-15.5124 -8.86439,-26.5388 -8.08717,-42.7927 l 55.24605,-300.5344 c 25.5832,-129.7607 51.67793,-259.52209 63.28168,-389.2827 2.48141,119.7883 18.31478,247.6206 34.89643,375.903 l 46.62925,299.1209 c 1.94551,18.851 -13.7776,34.0712 -6.42494,57.7895 l 135.47765,-0.032 c 4.4143,-4.0502 6.9191,-7.4257 6.9188,-11.4759 -51.54443,-5.2481 -71.18741,-15.4471 -99.75377,-54.6211 l -9.39757,-285.0729 c -10.5573,-163.42364 -36.25257,-330.88167 -66.85876,-500.05655 4.6777,-154.17509 12.99751,-130.89217 19.20143,-186.00593 11.94692,55.05755 15.62569,91.38569 54.36988,233.18048 5.80366,67.00638 26.46879,157.88512 45.18606,245.63608 l -4.3939,42.7233 c 4.54589,13.20762 12.07671,16.34272 20.61023,20.13032 11.1307,-2.7081 20.2763,-7.9076 26.9047,-16.2661 l -13.9108,-44.22635 C 936.99632,851.8691 926.51782,760.66548 916.03911,696.41954 884.97947,462.53086 863.0687,406.3114 857.89603,396.1401 c -19.73277,-38.80162 -69.24407,-43.53615 -95.43652,-39.98949 -1.10853,-8.00541 -3.62439,-14.59789 -1.66224,-25.68627 12.50292,-10.83304 21.89708,-24.97889 29.48045,-41.62334 1.30522,-15.84948 3.42655,-29.5153 3.01712,-49.95546 -3.22449,-23.9211 -7.8244,-53.69524 -45.07514,-53.89102 z"
       sodipodi:nodetypes="cccccsccccccccccccccccccccccccccccccccsccccc" />
    <path
       style="fill:#ffffff;stroke-width:4.14303"
       d="m 739.61154,263.16652 c -5.06514,-6.70182 -8.22655,-7.76217 -15.82085,-8.98637 -7.09337,0.49386 -12.12463,0.18627 -18.40528,2.96962 3.19166,5.41286 0.43566,14.07475 14.38963,14.69807 8.7565,-0.0988 1.64266,0.11073 10.52422,-0.44114 3.57573,-2.26597 7.37751,-6.36074 9.31228,-8.24018 z"
       id="path8"
       sodipodi:nodetypes="cccccc" />
    <path
       style="fill:#93ac93;stroke-width:4.23239"
       d="m 734.65255,257.90173 c -4.85199,-4.39854 -16.6476,-4.06322 -22.94862,-2.5435 -0.51342,8.2494 4.31083,14.31284 11.01697,16.47848 1.55046,-0.095 4.37469,-0.009 5.91813,-0.28097 4.84743,-0.99901 11.48474,-9.2593 6.01352,-13.65401 z"
       id="path9"
       sodipodi:nodetypes="ccccc" />
    <path
       style="fill:#93ac93;stroke-width:4.14303"
       d="m 704.77547,257.36046 c 12.50189,-3.30927 24.2683,-5.1548 34.62646,3.85626 -10.41742,-12.19542 -25.81634,-8.21402 -34.62646,-3.85626 z"
       id="path10"
       sodipodi:nodetypes="ccc" />
    <path
       style="fill:#93ac93;stroke-width:3.06566"
       d="m 764.58763,251.66648 c 9.8283,-4.31868 16.85656,-4.124 25.35777,1.46242 -8.26038,-8.13857 -15.75312,-8.07263 -25.35777,-1.46242 z"
       id="path10-8-6"
       sodipodi:nodetypes="ccc" />
    <path
       style="fill:#93ac93;stroke-width:3.01349"
       d="m 735.36796,251.70059 c -9.44751,-4.46173 -19.9203,-4.22037 -28.19796,1.24081 8.07393,-8.01646 18.99258,-7.99045 28.19796,-1.24081 z"
       id="path10-8-6-6"
       sodipodi:nodetypes="ccc" />
    <path
       style="fill:#ffffff;stroke-width:3.94212"
       d="m 759.95232,263.25061 c 4.5858,-6.70183 6.92441,-8.14771 13.80001,-9.37193 6.42208,0.49388 10.97719,0.18627 16.66345,2.96964 -2.88962,5.41285 0.0143,13.71528 -12.6191,14.3386 -7.92781,-0.0988 -1.48719,0.11074 -9.52823,-0.44114 -3.23733,-2.26596 -6.56446,-5.61575 -8.31613,-7.49517 z"
       id="path8-9"
       sodipodi:nodetypes="cccccc" />
    <path
       style="display:inline;fill:#93ac93;stroke-width:3.92566"
       d="m 790.70863,256.9288 c -11.22443,-3.30928 -21.5648,-4.90782 -30.86455,4.10326 9.35295,-12.19543 22.95467,-8.46103 30.86455,-4.10326 z"
       id="path10-5"
       sodipodi:nodetypes="ccc" />
    <path
       style="display:inline;fill:#93ac93;stroke-width:4.13743"
       d="m 766.90759,256.06631 c 9.23589,-3.87579 15.9915,-1.22304 22.01293,0.29669 0.49064,8.24939 -4.11955,12.73743 -10.52813,14.90307 -1.48166,-0.095 -4.18058,-0.009 -5.65553,-0.28097 -4.63234,-0.99901 -11.05772,-10.52409 -5.82927,-14.91879 z"
       id="path9-5"
       sodipodi:nodetypes="ccccc" />
    <path
       style="display:inline;fill:#000000;fill-opacity:0.1;stroke-width:3.42516"
       d="m 704.07994,300.09088 c 6.9172,14.15745 26.44095,28.7187 43.24894,38.97221 6.25939,-2.59704 9.79572,-5.53049 13.42993,-8.71325 l -0.42513,5.01802 -13.63613,11.98373 c -12.27913,-11.48112 -32.53934,-22.39935 -40.88098,-37.05759 -0.49325,-3.40104 -1.15771,-6.80208 -1.73663,-10.20312 z"
       id="path15"
       sodipodi:nodetypes="ccccccc" />
    <path
       style="display:inline;fill:#000000;fill-opacity:0.1;stroke-width:3.42516"
       d="m 711.86269,259.70423 c 12.92654,-3.13974 16.91365,-1.30589 24.12813,-0.11427 -4.43169,-6.76467 -19.26124,-5.05843 -24.25556,-3.81904 -0.076,0.25084 0.20522,3.61211 0.12743,3.93331 z"
       id="path2"
       sodipodi:nodetypes="cccc" />
    <path
       style="display:inline;fill:#000000;fill-opacity:0.1;stroke-width:3.38771"
       d="m 765.01643,259.70245 c 10.24757,-4.07124 16.60296,-1.50839 23.91068,-0.0433 -0.0621,-0.65186 0.0974,-2.8121 -0.0187,-3.28015 -7.01502,-2.39617 -23.69613,-4.57496 -23.89195,3.57548 z"
       id="path2-2"
       sodipodi:nodetypes="ccccc" />
    <path
       style="fill:#ffffff;fill-opacity:0.5;stroke-width:3.42516"
       d="m 767.02475,266.19795 c 6.85034,4.16214 12.85463,3.2276 18.581,0.61878 -1.50429,1.71364 -3.66145,3.25247 -7.2737,4.40173 l -4.39533,-0.0946 c -3.54039,-0.0617 -5.97453,-3.10304 -6.91197,-4.92594 z"
       id="path36"
       sodipodi:nodetypes="ccccc" />
    <path
       style="fill:#ffffff;fill-opacity:0.5;stroke-width:3.42516"
       d="m 715.60665,267.08956 c 6.85034,4.16213 13.25699,2.97051 18.98336,0.36169 -1.50429,1.71364 -2.92988,3.32593 -6.2495,4.18139 l -5.52926,0.16249 c -3.90618,-1.20014 -5.97453,-3.10304 -7.2046,-4.70557 z"
       id="path36-0"
       sodipodi:nodetypes="ccccc" />
    <path
       style="fill:#93ac93;fill-opacity:1;stroke-width:3.77953"
       d="m 771.13132,229.50322 c -8.07805,20.72493 -6.99058,16.69355 -26.85101,25.95581 4.82868,-7.40913 6.79889,-14.63817 8.04288,-23.12995 -6.11425,7.86128 -10.66111,10.31027 -19.45766,13.71644 3.09677,-5.46483 4.67764,-11.36035 6.37083,-17.34598 -9.54361,9.82213 -10.621,11.86493 -22.77386,15.20645 3.34948,-5.13862 4.89809,-10.77298 6.59661,-16.5771 l -14.91699,15.6262 c -8.71817,9.83234 -8.07392,35.70865 -6.07636,47.90806 5.40512,22.23777 2.48145,30.08202 -1.49787,52.2315 -7.70063,-15.36413 -12.35716,-31.97981 -16.8916,-48.48754 -10.60489,-38.60734 -4.10049,-50.97861 -1.89977,-85.69252 5.84524,-33.77846 24.24392,-43.88669 62.09837,-44.73792 36.03962,-0.81042 54.30571,19.60841 57.02636,33.90686 l 3.49145,41.39711 c 1.90949,22.64026 -0.35717,26.71183 -4.2088,56.00054 -1.70748,10.76151 -5.26912,20.07372 -9.68023,25.65016 -3.80423,6.58355 -13.37847,24.02777 -13.37847,25.71129 -0.33151,-15.68848 -0.32256,-31.3821 6.56927,-45.26175 10.1673,-20.47622 8.93484,-38.1946 7.23008,-58.7332 -2.39961,-7.35596 -9.13558,-10.41356 -19.79323,-13.34446 z"
       id="path3"
       sodipodi:nodetypes="ccccccccccscscscccscc" />
    <path
       style="display:inline;fill:#000000;fill-opacity:0.1;stroke-width:3.77953"
       d="m 718.36202,166.86981 c -47.95613,63.97648 -36.02674,90.13395 -18.28801,175.07699 -20.31944,-49.602 -26.7412,-82.69435 -19.61062,-116.26014 1.34202,-28.03266 7.36642,-52.17533 37.89863,-58.81685 z"
       id="path24"
       sodipodi:nodetypes="cccc"
       inkscape:label="path24" />
    <path
       style="display:inline;fill:#ffffff;fill-opacity:0.5;stroke-width:2.76958"
       d="m 693.68812,206.38173 c 3.16183,7.29915 6.75976,11.68869 11.47049,-1.77271 1.3479,13.46917 3.96235,2.96708 7.75992,1.7266 6.15843,10.78213 7.79159,1.90896 10.56049,-0.0418 -0.21305,13.10421 7.16694,3.83851 11.35299,-2.31873 2.95055,3.30079 3.58649,16.97378 9.65513,2.42245 3.32086,10.47299 7.47226,6.71414 10.79313,-0.61671 3.86412,13.3575 12.57377,4.17974 12.3858,-1.19195 2.42502,8.48638 4.307,10.46816 8.67878,0.50428 0.0433,13.9277 8.19453,4.74569 11.82952,0.3155 2.80014,6.88451 3.9735,5.22689 6.77364,2.09031 2.14602,3.60568 4.29204,1.77076 6.43806,0.0913 1.27794,6.32712 1.17463,10.48424 1.38685,14.55368 -2.6109,-8.39908 -5.22181,-15.32237 -7.83272,-0.26335 -2.14975,-18.85251 -7.13518,-2.51362 -9.72487,-0.37154 0.53759,-4.96538 1.12288,-14.63102 -6.08665,-2.4522 -3.16443,-13.32973 -7.04658,-0.99406 -10.21102,3.76097 -1.54929,-14.68715 -7.87298,-6.07436 -12.3073,-2.22596 -1.01958,-7.31109 -1.66128,-10.50285 -7.39724,0.91671 -1.56651,-5.66213 -7.9714,-7.85885 -13.29856,-1.61254 0.0394,-11.17449 -3.55809,-10.84103 -10.3645,-0.34848 -6.6923,-8.11489 -7.10553,-4.74646 -8.91571,1.57899 -0.96112,-12.46651 -9.09869,-6.02271 -14.34585,1.89772 -0.0666,-7.26294 -5.75472,-7.55404 -13.65127,-3.44005 1.59034,-4.51744 2.8869,-9.40212 5.05089,-13.20249 z"
       id="path43"
       sodipodi:nodetypes="ccccccccccccccccccccccccc" />
    <path
       style="fill:#000000;fill-opacity:0.1;stroke-width:3.77953"
       d="m 750.39887,234.66929 c -2.41654,14.08496 -3.43434,13.86805 -6.23313,20.88527 0.22969,-0.79515 5.48364,-6.15741 8.10444,-23.1097 z"
       id="path25"
       sodipodi:nodetypes="cccc" />
    <path
       style="fill:#000000;fill-opacity:0.1;stroke-width:3.77953"
       d="m 788.71378,238.61425 c 4.16078,27.38693 0.82577,43.04729 -3.2321,59.13835 8.38129,-17.23884 6.43945,-42.19229 5.43229,-54.92315 -0.67037,-1.67818 -1.34823,-3.32393 -2.20019,-4.2152 z"
       id="path26"
       sodipodi:nodetypes="cccc" />
    <path
       style="display:inline;fill:#ffffff;stroke-width:2.458"
       d="m 742.46381,313.40725 c -0.40642,0.10459 0.44258,-2.11283 2.9873,-2.00785 13.86099,-0.20543 14.35951,-0.0731 17.62407,-0.19953 0.94191,0.31466 0.51302,1.73789 0.23016,1.90038 -11.22433,0.25724 -16.76992,-0.0974 -20.84143,0.307 z"
       id="path14"
       sodipodi:nodetypes="cccccc" />
    <path
       style="display:inline;fill:#333333;stroke-width:3.42516"
       d="m 709.28191,357.24382 c 5.8858,16.02236 25.3306,16.54865 41.427,20.90176 16.7578,-9.43325 12.4833,-16.09615 11.4428,-23.70815 3.2944,-0.29453 15.7466,0.26729 19.3295,0.66995 31.3875,48.95313 32.3568,92.71437 37.4811,120.73354 -5.6209,36.46735 -23.1227,130.38262 -16.4326,202.42809 36.0677,143.36059 61.4814,425.10769 64.1545,450.48589 2.8589,54.4687 11.4161,229.2955 11.5169,319.112 -10.7211,1.1028 -13.8781,4.0732 -40.0557,1.1714 -13.0202,-94.4958 -51.4619,-263.155 -52.2104,-311.6018 -10.6398,-84.3454 -31.1012,-266.41158 -28.4053,-341.2917 -23.265,213.3055 -73.4671,437.4173 -111.6398,655.4493 -12.3468,-0.8588 -21.2295,3.4669 -38.2721,-0.8861 2.0572,-328.8018 50.6037,-550.0581 79.3052,-780.79177 3.1885,-61.18406 -16.3736,-150.17088 -25.4909,-190.3262 16.5136,-118.91811 18.0178,-100.62097 31.8929,-121.76312 2.6759,-0.22172 12.8174,-0.43895 15.9569,-0.58309 z"
       id="path6"
       inkscape:label="path6"
       sodipodi:nodetypes="ccccccccccccccccc" />
    <path
       style="display:inline;fill:#000000;fill-opacity:0.1;stroke-width:6.51894"
       d="m 753,270.57979 1.61552,11.29665 -1.01162,8.89221 2.28229,-8.61665 z"
       id="path32"
       sodipodi:nodetypes="ccccc" />
  </g>
</svg>
