<?xml version="1.0" encoding="UTF-8" standalone="no"?>
<!-- Created with Inkscape (http://www.inkscape.org/) -->

<svg
   version="1.1"
   id="svg1"
   width="1512"
   height="1512"
   viewBox="0 0 1512 1512"
   sodipodi:docname="Ally2Attack.svg"
   inkscape:version="1.3.2 (091e20e, 2023-11-25)"
   inkscape:export-filename="../../Utopia/Assets/Sprites/Dusty.png"
   inkscape:export-xdpi="96"
   inkscape:export-ydpi="96"
   xmlns:inkscape="http://www.inkscape.org/namespaces/inkscape"
   xmlns:sodipodi="http://sodipodi.sourceforge.net/DTD/sodipodi-0.dtd"
   xmlns="http://www.w3.org/2000/svg"
   xmlns:svg="http://www.w3.org/2000/svg">
  <defs
     id="defs1" />
  <sodipodi:namedview
     id="namedview1"
     pagecolor="#505050"
     bordercolor="#eeeeee"
     borderopacity="1"
     inkscape:showpageshadow="0"
     inkscape:pageopacity="0"
     inkscape:pagecheckerboard="0"
     inkscape:deskcolor="#505050"
     inkscape:zoom="0.73698835"
     inkscape:cx="654.69149"
     inkscape:cy="219.81351"
     inkscape:window-width="1512"
     inkscape:window-height="831"
     inkscape:window-x="0"
     inkscape:window-y="38"
     inkscape:window-maximized="0"
     inkscape:current-layer="layer1"
     showguides="true"
     showgrid="false" />
  <g
     inkscape:groupmode="layer"
     id="layer2"
     inkscape:label="Layer2"
     style="display:none">
    <path
       style="display:inline;fill:#241c1c;fill-opacity:1;stroke-width:3.77953"
       d="m 741.00348,449.36886 c 61.8587,29.93771 108.04963,15.51181 248.24655,-9.02889 27.26457,-9.20483 205.77417,-44.39056 246.35467,-69.26218 l 33.6316,-3.07051 17.0549,-27.99385 -18.1638,-19.68062 -37.5116,28.56104 c -26.5878,-0.0758 -219.5191,12.79657 -246.64254,41.56791 -91.10698,-15.41318 -208.07601,-24.96368 -267.9755,-0.2978 -16.77714,26.9691 -12.74315,42.95363 25.00572,59.2049 z"
       id="path24-0"
       sodipodi:nodetypes="cccccccccc" />
    <path
       id="path12"
       style="display:inline;fill:#241c1c;fill-opacity:1;stroke-width:3.77953"
       d="m 706.32552,188.33844 c -14.6226,31.26263 -11.66873,32.30006 -10.32179,65.94857 6.12101,27.50217 11.95398,42.01873 29.46929,61.17538 -0.67083,12.19652 -3.40141,22.3333 -6.22884,32.37323 -13.77646,19.6624 -16.46679,41.78189 -22.11901,64.75251 l -5.96303,77.68632 10.58477,181.07794 -4.9039,88.12394 11.70262,132.00057 3.88242,267.5321 13.0246,302.7257 c -0.2564,8.2204 0.13126,8.9741 -2.00475,31.5075 -0.0842,8.5297 -3.3907,16.3734 5.87847,18.9844 l 122.99294,0.8917 c 0.23925,-2.9866 15.21703,-13.5966 7.9776,-18.6554 -7.04259,-4.9212 -48.28644,-9.7592 -52.77098,-13.0341 -8.6056,-6.2844 -43.22169,-14.8044 -42.82936,-23.8968 l 24.28558,-282.335 9.42015,-356.652 8.15529,-79.99837 -1.35041,-68.29466 -2.66676,-186.49656 -14.43654,-79.65239 c -7.78144,-24.28211 -12.15413,-31.93697 -23.94761,-49.70222 -1.02455,-12.61328 -0.70367,-20.77349 -0.44616,-27.83116 4.78438,2.73047 22.65782,12.13413 25.58191,9.99517 8.14513,-20.24517 11.65259,-30.53013 19.14869,-52.99557 -14.05906,-26.86945 -0.95622,-74.42685 -28.32879,-95.61252 -22.61461,-17.50313 -69.6714,-8.416 -73.7864,0.38172 z"
       sodipodi:nodetypes="sccccccccccccccccccccccccccss" />
    <path
       style="display:inline;fill:#333333;fill-opacity:1;stroke-width:3.77953"
       d="m 714.5083,355.7985 49.75114,-1.21002 c 34.56987,50.61987 35.46946,62.0834 40.41563,111.82594 l 1.33052,84.15335 2.13892,128.64834 2.65699,207.06878 -11.1802,303.88621 -34.90193,266.6431 -41.06925,3.0495 -15.85414,-270.0534 -16.98236,-298.97278 5.07718,-217.73369 -8.08859,-141.91125 -3.60893,-64.96077 c 5.71208,-47.87198 0.82736,-83.23624 30.31502,-110.43331 z"
       id="path30"
       sodipodi:nodetypes="ccccccccccccccc" />
    <path
       style="display:inline;fill:#241c1c;fill-opacity:1;stroke-width:3.77953"
       d="m 708.45875,463.59481 c -98.2519,-4.34853 -125.8899,-39.70676 -190.87253,-28.59438 -71.6961,43.60669 -197.52485,71.5541 -234.44084,77.13444 -12.80023,18.33266 -19.30045,17.85248 -60.55468,27.63873 -12.84453,-7.98894 -14.98273,-35.12242 -14.01735,-43.26041 20.32771,-13.8071 40.40739,-14.16854 58.85274,-7.88111 58.72642,-34.11833 131.84851,-66.32856 232.26729,-102.09017 92.21667,-45.28307 84.25027,-14.39727 213.39747,6.54018 20.144,-19.04329 46.0649,-5.37777 55.8042,6.59635 17.421,21.41856 28.274,41.93476 5.1035,70.47727 -9.6742,11.91724 -25.0652,18.20976 -65.5397,-6.56081 z"
       id="path17-2"
       sodipodi:nodetypes="ccccccccsscc"
       inkscape:label="path17" />
    <path
       style="display:inline;fill:#ffffff;fill-opacity:1;stroke-width:4.86886"
       d="m 785.68059,251.66447 c -1.1979,0.23771 -3.12394,-1.12766 -12.4486,4.06107 2.35076,3.24397 2.20935,14.32157 12.60562,13.7675 2.39744,-4.1465 4.10913,-13.06088 -0.15702,-17.82857 z"
       id="path33"
       sodipodi:nodetypes="cccc" />
    <path
       style="display:inline;fill:#0071ff;fill-opacity:1;stroke-width:4.86886"
       d="m 785.79181,251.69372 c -0.59495,-0.0478 -4.1549,-0.19257 -4.30957,0.25413 -0.85084,9.70747 1.45707,17.75 4.34976,17.57642 1.82066,-0.95767 2.27141,-4.92873 2.62102,-9.2645 -0.48073,-7.19272 -1.52833,-6.99537 -2.66121,-8.56605 z"
       id="path34"
       sodipodi:nodetypes="ccccc" />
    <path
       style="display:inline;fill:#0071ff;fill-opacity:1;stroke-width:3.77953"
       d="m 772.7423,249.5723 c 5.05783,-3.48288 10.50503,-3.9423 15.42946,-3.08589 -4.42144,-3.04926 -7.16209,-3.14643 -15.42946,3.08589 z"
       id="path52"
       sodipodi:nodetypes="ccc" />
    <path
       style="display:inline;fill:#ffffff;fill-opacity:1;stroke-width:3.47488"
       d="m 794.41296,310.58127 -11.38371,0.0931 -1.86094,1.88414 12.85395,0.13369 0.49748,-1.04335 z"
       id="path35"
       sodipodi:nodetypes="cccccc" />
    <path
       style="display:inline;fill:#0071ff;fill-opacity:1;stroke-width:3.74238"
       d="m 773.2503,255.71057 c 8.74377,-5.17284 11.95115,-3.8573 12.67043,-4.0248 -1.97408,-1.00424 -6.25672,-0.25754 -12.67043,4.0248 z"
       id="path37"
       sodipodi:nodetypes="ccc" />
    <path
       style="display:inline;fill:#ffffff;fill-opacity:0.5;stroke-width:3.74238"
       d="m 782.51302,265.56683 c 1.66398,1.0512 2.88459,2.42825 4.88875,1.56441 -0.2569,0.92787 -0.72588,1.9341 -1.5571,2.40116 -1.8786,-0.004 -2.80221,-2.66233 -3.33165,-3.96557 z"
       id="path50"
       sodipodi:nodetypes="cccc" />
    <path
       style="display:inline;fill:#000000;fill-opacity:0.1;stroke-width:3.74238"
       d="m 781.29396,255.34973 c 2.23186,-0.55509 4.90478,-0.51539 6.49608,-0.0526 -0.1691,-1.20387 -1.18947,-2.74004 -1.81455,-3.56072 -2.00766,-0.0636 -2.76364,0.0288 -4.55482,0.27056 z"
       id="path51"
       sodipodi:nodetypes="ccccc" />
  </g>
  <g
     inkscape:groupmode="layer"
     id="layer1"
     inkscape:label="Layer1"
     style="display:inline">
    <path
       style="display:inline;fill:#0071ff;fill-opacity:1;stroke-width:3.77953"
       d="m 681.11035,660.2053 c -65.3687,245.0718 -114.7765,388.3833 -281.38253,683.0285 122.2417,-50.2471 274.14229,7.5939 389.05089,42.3205 37.6412,-246.3088 53.06554,-544.9571 -1.88156,-706.4021 z"
       id="path11"
       sodipodi:nodetypes="ccccc" />
    <path
       style="display:inline;fill:#0071ff;fill-opacity:1;stroke-width:3.93684"
       d="m 749.17775,341.263 c 1.3564,7.3457 -0.1461,13.2262 -0.2388,19.8292 5.1472,-7.2199 7.7233,-18.0635 9.7925,-29.6214 l 0.4776,11.7506 c 5.7674,-13.8417 14.4175,-31.2515 17.8315,-52.5975 l -44.9023,-68.3005 -55.2326,66.3727 7.6051,48.6813 3.1136,-8.5352 c 1.2349,10.9229 1.5268,24.7451 5.2975,27.8707 1.0571,-5.4468 -1.1957,-11.4187 3.1572,-17.6161 l 28.4384,10.3912 z"
       id="path4"
       sodipodi:nodetypes="ccccccccccccc" />
    <path
       d="m 734.61133,185.03711 c -39.58576,1.7422 -50.8447,10.40288 -50.1543,67.94922 1.804,12.95849 -2.37211,19.15478 4.61328,40.13476 5.5104,26.38158 7.24258,48.28651 6.67188,64.49219 -33.54467,0.3517 -44.64567,15.71712 -73.70284,24.27552 -53.04928,15.62495 -117.15829,24.5539 -142.5433,68.20842 l 10.40303,36.32264 c 13.90927,0.5729 75.18992,16.25776 157.94272,-6.95697 11.30269,49.64315 15.27374,37.64403 29.51562,182.64648 -26.07767,164.37534 -52.47009,331.99977 -64.23828,496.37503 l -19.22461,309.0019 c -0.5617,22.5299 -17.83082,29.9761 -10.95312,44.2539 l 51.02929,0.057 c 4.1907,-15.5124 -8.86323,-26.5391 -8.08593,-42.793 l 55.24609,-300.5351 c 25.58317,-129.7606 51.67746,-259.52083 63.28125,-389.2813 2.4814,119.78818 18.3149,247.6201 34.89648,375.9023 l 46.62891,299.1211 c 1.9455,18.851 -13.77837,34.0708 -6.42578,57.7891 l 135.47851,-0.031 c 4.4143,-4.0502 6.91827,-7.4264 6.91797,-11.4766 -51.54435,-5.2481 -71.18753,-15.4471 -99.7539,-54.6211 l -9.39649,-285.0723 c -10.55729,-163.42341 -36.2532,-330.88198 -66.85937,-500.05661 4.67769,-154.17495 12.99728,-130.89212 19.20117,-186.00586 72.18652,-33.18482 124.89181,-32.28094 267.55469,-41.27344 66.9215,6.71086 160.0544,3.23939 249.7539,1.10352 l 41.1699,12.23437 c 13.8211,-2.02016 18.2966,-8.84135 23.5996,-16.52539 -0.5991,-11.43972 -4.0143,-21.38897 -11,-29.45117 l -46.0371,5.47656 c -104.1433,-8.97136 -195.7101,-15.57286 -260.7851,-17.17823 -235.59378,-12.81001 -226.28748,-11.6357 -237.50009,-13.7545 -47.665,-9.00709 -56.81137,-22.72179 -83.00385,-19.17519 -1.1085,-8.00539 -3.6243,-14.59921 -1.66211,-25.6875 12.50289,-10.83309 21.89708,-24.97856 29.48047,-41.62305 1.3052,-15.84948 3.42513,-29.515 3.01563,-49.95508 -3.2244,-23.92107 -7.82356,-53.69482 -45.07422,-53.89062 z"
       style="display:inline;fill:#ffe6d5;stroke-width:3.42516"
       id="path20"
       sodipodi:nodetypes="ccccscccccccccccccccccccccccccccsccccc" />
    <path
       style="display:inline;fill:#ffffff;stroke-width:4.14303"
       d="m 726.00295,263.2083 c -5.0651,-6.7018 -8.2265,-7.7621 -15.8208,-8.9863 -7.0934,0.4938 -12.1246,0.1862 -18.4053,2.9696 3.1917,5.4128 0.4357,14.0747 14.3896,14.6981 8.7565,-0.099 1.6427,0.1107 10.5243,-0.4412 3.5757,-2.266 7.3775,-6.3607 9.3122,-8.2402 z"
       id="path8"
       sodipodi:nodetypes="cccccc" />
    <path
       style="display:inline;fill:#0071ff;fill-opacity:1;stroke-width:4.23239"
       d="m 721.04405,257.9435 c -4.852,-4.3985 -16.6476,-4.0632 -22.9487,-2.5435 -0.5134,8.2494 4.3109,14.3129 11.017,16.4785 1.5505,-0.095 4.3747,-0.01 5.9181,-0.2809 4.8475,-0.9991 11.4848,-9.2594 6.0136,-13.6541 z"
       id="path9"
       sodipodi:nodetypes="ccccc" />
    <path
       style="display:inline;fill:#0071ff;fill-opacity:1;stroke-width:4.14303"
       d="m 691.16695,257.4023 c 12.5019,-3.3093 24.2683,-5.1548 34.6264,3.8562 -10.4174,-12.1954 -25.8163,-8.214 -34.6264,-3.8562 z"
       id="path10"
       sodipodi:nodetypes="ccc" />
    <path
       style="display:inline;fill:#0071ff;fill-opacity:1;stroke-width:3.06566"
       d="m 750.97905,251.7083 c 9.8283,-4.3187 16.8566,-4.124 25.3578,1.4624 -8.2604,-8.1386 -15.7531,-8.0726 -25.3578,-1.4624 z"
       id="path10-8-6"
       sodipodi:nodetypes="ccc" />
    <path
       style="display:inline;fill:#0071ff;fill-opacity:1;stroke-width:3.01349"
       d="m 721.75945,251.7424 c -9.4475,-4.4617 -19.9203,-4.2204 -28.198,1.2408 8.0739,-8.0164 18.9926,-7.9904 28.198,-1.2408 z"
       id="path10-8-6-6"
       sodipodi:nodetypes="ccc" />
    <path
       style="display:inline;fill:#ffffff;stroke-width:3.94212"
       d="m 746.34375,263.2924 c 4.5858,-6.7018 6.9244,-8.1477 13.8,-9.3719 6.4221,0.4939 10.9772,0.1863 16.6635,2.9696 -2.8896,5.4129 0.014,13.7153 -12.6191,14.3386 -7.9278,-0.099 -1.4872,0.1108 -9.5282,-0.4411 -3.2374,-2.266 -6.5645,-5.6158 -8.3162,-7.4952 z"
       id="path8-9"
       sodipodi:nodetypes="cccccc" />
    <path
       style="display:inline;fill:#0071ff;fill-opacity:1;stroke-width:3.92566"
       d="m 777.10005,256.9706 c -11.2244,-3.3093 -21.5648,-4.9078 -30.8645,4.1033 9.3529,-12.1955 22.9547,-8.4611 30.8645,-4.1033 z"
       id="path10-5"
       sodipodi:nodetypes="ccc" />
    <path
       style="display:inline;fill:#0071ff;fill-opacity:1;stroke-width:4.13743"
       d="m 753.29905,256.1081 c 9.2359,-3.8758 15.9915,-1.223 22.0129,0.2967 0.4907,8.2494 -4.1195,12.7374 -10.5281,14.9031 -1.4817,-0.095 -4.1806,-0.01 -5.6555,-0.281 -4.6324,-0.999 -11.0578,-10.5241 -5.8293,-14.9188 z"
       id="path9-5"
       sodipodi:nodetypes="ccccc" />
    <path
       style="display:inline;fill:#000000;fill-opacity:0.1;stroke-width:3.42516"
       d="m 690.47135,300.1327 c 6.9172,14.1574 26.441,28.7187 43.249,38.9722 6.2594,-2.597 9.7957,-5.5305 13.4299,-8.7132 l -0.4251,5.018 -13.6362,11.9837 c -12.2791,-11.4811 -32.5393,-22.3994 -40.8809,-37.0576 -0.4933,-3.401 -1.1577,-6.8021 -1.7367,-10.2031 z"
       id="path15"
       sodipodi:nodetypes="ccccccc" />
    <path
       style="display:inline;fill:#000000;fill-opacity:0.1;stroke-width:3.42516"
       d="m 698.25415,259.746 c 12.9265,-3.1397 16.9136,-1.3058 24.1281,-0.1142 -4.4317,-6.7647 -19.2612,-5.0585 -24.2555,-3.8191 -0.076,0.2509 0.2052,3.6121 0.1274,3.9333 z"
       id="path2"
       sodipodi:nodetypes="cccc" />
    <path
       style="display:inline;fill:#000000;fill-opacity:0.1;stroke-width:3.38771"
       d="m 751.40785,259.7443 c 10.2476,-4.0713 16.603,-1.5084 23.9107,-0.043 -0.062,-0.6519 0.097,-2.8121 -0.019,-3.2802 -7.015,-2.3962 -23.6961,-4.5749 -23.8919,3.5755 z"
       id="path2-2"
       sodipodi:nodetypes="ccccc" />
    <path
       style="display:inline;fill:#ffffff;fill-opacity:0.5;stroke-width:3.42516"
       d="m 753.41625,266.2398 c 6.8503,4.1621 12.8546,3.2276 18.581,0.6187 -1.5043,1.7137 -3.6615,3.2525 -7.2737,4.4018 l -4.3954,-0.095 c -3.5404,-0.062 -5.9745,-3.1031 -6.9119,-4.926 z"
       id="path36"
       sodipodi:nodetypes="ccccc" />
    <path
       style="display:inline;fill:#ffffff;fill-opacity:0.5;stroke-width:3.42516"
       d="m 701.99815,267.1314 c 6.8503,4.1621 13.2569,2.9705 18.9833,0.3617 -1.5043,1.7136 -2.9299,3.3259 -6.2495,4.1814 l -5.5293,0.1624 c -3.9061,-1.2001 -5.9745,-3.103 -7.2045,-4.7055 z"
       id="path36-0"
       sodipodi:nodetypes="ccccc" />
    <path
       id="path3"
       style="display:inline;fill:#0071ff;fill-opacity:1;stroke-width:3.93684"
       d="m 733.29565,165.2237 c -26.7214,-0.1573 -58.3684,12.7445 -64.7441,32.416 -11.0041,33.9521 -9.2497,69.7898 -5.0057,99.2503 -0.3362,-9 1.9101,-19.307 4.2963,-27.8548 -0.6294,24.2313 -9.68017,49.04574 -22.22536,73.1255 20.10367,-19.74746 25.6432,-39.49493 35.93646,-59.2424 l 0.5385,2.0906 0.5245,4.8299 0.3034,-1.6251 4.6058,17.8511 c -1.1442,-13.253 -1.824,-22.6544 -2.2888,-30.2832 l 5.2417,-27.2193 3.177,5.2109 6.8323,-11.7235 7.624,8.7927 2.2245,-7.8165 3.9728,8.3046 3.177,-8.7927 7.624,14.9799 1.8849,-5.7979 c 1.425,10.3392 -13.25046,21.42612 -12.81076,31.92612 3.617,-9.6634 20.08416,-19.96912 21.54196,-30.13422 2.1161,10.6369 -7.81725,23.62168 -9.2697,32.43214 6.10075,-9.8951 18.1159,-25.76444 17.3398,-37.32184 l 1.9794,5.0215 1.4589,-11.7092 2.9158,4.9823 2.9177,-7.4724 4.6178,4.4839 4.6179,-3.9855 7.5335,8.2201 2.6646,-5.2253 c 1.3436,0.9618 2.6478,2.1081 3.9366,3.4293 l 1.2932,16.5503 c -1.58527,27.74441 -9.40216,57.54989 -17.78488,85.30742 10.10963,-17.38694 24.62755,-27.46822 26.17638,-56.46842 1.8865,9.301 2.3937,24.2573 3.5829,36.4169 6.2172,-38.3307 2.8132,-61.937 2.8665,-72.0416 l 6.5902,21.1 c -4.553,-35.662 -9.2588,-77.5918 -20.6896,-93.2276 -9.2419,-12.8581 -26.8943,-18.6724 -45.1774,-18.78 z"
       sodipodi:nodetypes="ssccccccccccccccccccccccccccccccccccccccs" />
    <path
       style="display:inline;fill:#ffffff;fill-opacity:0.5;stroke-width:2.77923"
       d="m 695.91945,209.7531 c 1.2871,14.2038 3.7836,3.1289 7.4099,1.8207 5.8806,11.3703 7.4401,2.0131 10.0841,-0.044 -0.2034,13.819 6.8437,4.0479 10.8409,-2.4452 2.8175,3.4809 3.4247,17.8996 9.2196,2.5546 3.1711,11.0442 7.1352,7.0804 10.3063,-0.6503 3.6898,14.0861 12.0066,4.4077 11.8271,-1.257 2.3156,8.9493 4.1127,11.0391 8.2873,0.5318 0.041,14.6874 7.8249,5.0045 11.2959,0.3327 2.6738,7.26 3.7943,5.512 6.4681,2.2043 2.0492,3.8024 5.523,1.7827 7.5722,0.012 1.2203,6.2405 2.3177,10.1047 2.9621,15.5099 -2.4931,-8.8572 -8.0486,-16.2359 -10.5418,-0.3555 -2.0527,-19.8808 -6.8133,-2.6507 -9.2862,-0.3918 0.5134,-5.2362 1.0723,-15.429 -5.8121,-2.5859 -3.0217,-14.0568 -6.7287,-1.0483 -9.7504,3.9661 -1.4794,-15.4883 -7.5178,-6.4057 -11.7521,-2.3474 -0.9736,-7.7099 -1.5864,-11.0757 -7.0636,0.9667 -1.4958,-5.9709 -7.6118,-8.2875 -12.6987,-1.7005 0.038,-11.784 -3.3976,-11.4323 -9.897,-0.3674 -6.3904,-8.5576 -6.785,-5.0054 -8.5135,1.6651 -0.9178,-13.1465 -8.6883,-6.3513 -13.6987,2.0012 -0.064,-7.6591 -7.924,-8.2748 -15.4643,-3.9364 0.6239,-5.1616 1.8657,-9.1058 3.0063,-13.8962 9.6576,13.9715 13.0585,2.9627 15.1986,-1.5871 z"
       id="path43"
       sodipodi:nodetypes="cccccccccccccccccccccccccc"
       inkscape:label="path43" />
    <path
       style="display:inline;fill:#000000;fill-opacity:0.1;stroke-width:3.93684"
       d="m 689.91775,175.6892 c -7.33175,26.38866 -16.41296,50.82504 -18.19188,92.81707 -0.42491,10.03012 -2.46922,21.43445 -9.48433,33.83038 4.99242,-19.02446 5.20821,-24.28172 5.58851,-33.09115 -2.0092,7.925 -4.4767,16.6587 -4.3301,27.1748 -8.4096,-56.9537 1.5309,-91.4796 6.8912,-103.0911 4.1625,-7.2437 11.1612,-13.2409 19.5266,-17.64 z"
       id="path6"
       sodipodi:nodetypes="ccccccc" />
    <path
       style="display:inline;fill:#ffffff;stroke-width:2.458"
       d="m 728.69015,312.5676 c -0.4064,0.1046 0.4426,-2.1128 2.9873,-2.0078 13.861,-0.2054 14.3595,-0.073 17.6241,-0.1995 0.9419,0.3146 0.513,1.7378 0.2301,1.9003 -11.2243,0.2573 -16.7699,-0.097 -20.8414,0.307 z"
       id="path14"
       sodipodi:nodetypes="cccccc" />
    <path
       style="display:inline;fill:#333333;stroke-width:3.42516"
       d="m 695.83355,357.592 c 5.8859,16.0224 25.3307,16.887 41.4271,21.2401 16.7578,-9.4332 12.4833,-16.0962 11.4428,-23.7081 3.2944,-0.2946 15.7466,-0.2683 19.3295,0.1343 31.3875,48.9532 32.3568,93.25 37.4811,121.2691 -5.6209,36.4674 -23.1227,130.3827 -16.4326,202.4281 36.0677,143.3606 61.4814,425.1076 64.1545,450.4858 2.8589,54.4687 11.4161,229.2955 11.5169,319.112 -10.7211,1.1028 -13.8781,4.0732 -40.0557,1.1714 -13.0202,-94.4958 -51.4619,-263.155 -52.2104,-311.6018 -10.6398,-84.3454 -31.1012,-266.4115 -28.4053,-341.2916 -23.265,213.3054 -73.4671,437.4172 -111.6398,655.4492 -12.3468,-0.8588 -21.2295,3.4669 -38.2721,-0.8861 2.0572,-328.8018 50.6037,-550.058 79.3052,-780.7916 3.1885,-61.1841 -16.3736,-150.1709 -25.4909,-190.3262 16.5136,-118.9182 18.0178,-100.621 31.8929,-121.7632 2.9853,-0.6195 13.2901,-1.385 15.9568,-0.9214 z"
       id="path6-6"
       inkscape:label="path6"
       sodipodi:nodetypes="ccccccccccccccccc" />
    <path
       style="display:inline;fill:#000000;fill-opacity:0.1;stroke-width:6.51894"
       d="m 740.39145,272.2395 1.6155,11.2967 -1.0116,8.8922 2.2823,-8.6166 z"
       id="path32"
       sodipodi:nodetypes="ccccc" />
    <path
       style="display:inline;fill:#e6e6e6;fill-opacity:1;stroke-width:3.77953"
       d="m 695.53635,357.3985 c 43.5328,102.6918 88.3602,115.6562 111.1208,122.2511 -14.9046,69.0085 -16.0606,132.4921 -16.901,202.2496 L 673.68955,663.337 c 1.6068,-64.0169 -14.2546,-122.4248 -26.3226,-183.7352 6.7465,-33.5939 6.3275,-65.4815 18.5356,-99.9548 3.8436,-10.1926 8.7104,-18.3799 13.8752,-21.0852 4.9373,-0.8714 10.3733,-1.188 15.7586,-1.1633 z"
       id="path5"
       sodipodi:nodetypes="cccccccc" />
    <path
       style="display:inline;fill:#0071ff;fill-opacity:1;stroke-width:3.77953"
       d="m 673.72945,658.1879 c -33.8611,152.9863 -77.19518,203.07714 -197.13822,375.7926 -48.66897,70.0824 -86.35681,159.5983 -64.95471,265.2354 l 28.2883,-40.2977 c 143.30596,-191.5169 264.50803,-279.5198 277.91723,-491.3465 20.3124,-9.37 40.106,-8.4874 52.8703,1.4686 -2.7516,208.7418 18.3351,367.2685 51.3242,577.9071 l 23.498,35.2469 c 20.5853,-82.7077 32.8297,-186.011 26.4351,-283.4438 -16.2192,-247.1298 -55.9481,-314.7848 -81.9342,-418.5022 -34.363,-1.7061 -73.1426,-8.8461 -116.306,-22.0604 z"
       id="path7"
       sodipodi:nodetypes="csccccccscc" />
    <path
       id="path16"
       style="display:inline;fill:#e6e6e6;fill-opacity:1;stroke-width:3.77953"
       d="m 760.05955,348.7129 -4.7306,5.6657 c 9.2591,16.2122 13.5086,28.2547 15.6211,51.4355 l -8.627,6.8711 2.3418,-11.9063 -11.1269,-17.1777 7.8086,17.959 -2.5371,17.7637 12.6562,-9.5703 4.3145,32.9277 2.2871,-32.6797 9.9258,8.4883 -0.9785,-16.8125 4.9785,-15.9297 -8.2969,14.9531 1.3574,11.5039 -6.7734,-5.2519 c 0.1646,-31.2968 -4.5132,-32.8581 -13.2735,-52.2012 z"
       sodipodi:nodetypes="ccccccccccccccccccc" />
    <path
       style="display:inline;fill:#0071ff;fill-opacity:1;stroke-width:3.77953"
       d="m 1064.6941,434.48841 26.8481,-26.7541 -26.0277,-19.52102 c 93.5021,3.72029 187.3308,5.70828 283.57,-5.08917 l -27.3832,32.64657 24.0219,40.80579 c -89.0295,-17.45971 -183.4035,-23.30653 -281.0291,-22.08807 z"
       id="path18"
       sodipodi:nodetypes="ccccccc" />
    <path
       style="display:inline;fill:#333333;fill-opacity:1;stroke-width:3.77953"
       d="m 689.03784,814.73718 -112.65793,244.91712 -77.02808,71.8077 16.49478,-101.6999 142.35703,-233.08726 31.14838,-21.69972 z"
       id="path24"
       sodipodi:nodetypes="ccccccc" />
    <path
       style="display:inline;fill:#e6e6e6;fill-opacity:1;stroke-width:3.77953"
       d="m 524.26543,1026.5967 25.27544,-13.0339 -25.05262,21.5291 -14.93014,71.3167 58.54518,-48.1651 6.19067,-30.5444 0.80724,26.9403 108.73137,-245.24111 1.64931,-26.11314 -23.57696,17.57002 z"
       id="path25"
       sodipodi:nodetypes="ccccccccccc" />
    <path
       style="display:inline;fill:#333333;fill-opacity:1;stroke-width:3.77874"
       d="m 786.10085,800.3075 16.8465,269.058 45.9651,94.7371 21.2444,-100.8129 -48.7997,-268.7226 -21.2297,-31.4645 z"
       id="path24-6"
       sodipodi:nodetypes="ccccccc" />
    <path
       style="display:inline;fill:#e6e6e6;fill-opacity:1;stroke-width:3.77874"
       d="m 863.44665,1057.3037 -18.8742,-21.2648 15.6071,29.1092 -11.7615,71.9064 -37.245,-66.0232 5.2273,-30.7235 -10.4547,24.8403 -13.0684,-267.9456 7.8662,-24.9537 15.6569,24.8845 z"
       id="path25-0"
       sodipodi:nodetypes="ccccccccccc" />
    <path
       style="display:inline;fill:#333333;fill-opacity:1;stroke-width:3.77953"
       d="m 673.80645,652.3232 18.7103,-44.5225 -13.278,46.7109 c 39.6344,13.4084 72.9579,17.0655 102.9336,20.131 l -8.1608,-112.7055 15.8312,114.4137 -0.062,3.8661 c -5.2749,0.6457 -72.8891,-4.5046 -115.997,-21.9601 z"
       id="path26"
       sodipodi:nodetypes="ccccccccc" />
    <path
       style="display:inline;fill:#0071ff;fill-opacity:1;stroke-width:3.77953"
       d="m 647.12705,479.5447 c 60.9137,35.426 91.7066,-13.5089 160.3839,0.4727 -0.5947,5.7678 -11.5206,68.6397 -12.1153,73.7283 -44.0145,-68.3681 -93.3784,-27.4489 -143.8388,-52.8622 z"
       id="path27"
       sodipodi:nodetypes="ccccc" />
    <path
       style="display:inline;fill:#333333;fill-opacity:1;stroke-width:3.77953"
       d="m 1269.1628,379.04057 64.9529,13.95986 141.2239,14.86154 2.0605,19.05314 -141.0247,22.03148 -58.8251,14.89781 -41.943,-18.36027 -111.5589,-3.33922 -5.1386,-27.30321 114.8179,-17.03762 z"
       id="path21"
       sodipodi:nodetypes="ccccccccccc" />
    <path
       id="path19"
       style="display:inline;fill:#e6e6e6;fill-opacity:1;stroke-width:4.38374"
       d="m 1442.3746,420.07033 -130.7566,-7.18485 -42.4208,-33.90615 65.7741,13.44121 60.6913,-72.94821 -65.5231,57.60721 -96.3915,-15.69157 59.5788,50.61236 -999.17147,3.89024 2.30722,15.9595 997.11675,-1.6794 -48.1571,52.71839 89.5572,-20.42518 67.1974,30.07437 -66.9687,-43.76579 -57.2058,14.70146 36.0125,-34.65719 z" />
    <path
       style="display:inline;fill:#0071ff;fill-opacity:1;stroke-width:3.77953"
       d="m 1233.4148,397.70513 46.1542,9.32547 -23.1409,-21.5471 z"
       id="path22"
       sodipodi:nodetypes="cccc" />
    <path
       style="display:inline;fill:#0071ff;fill-opacity:1;stroke-width:3.77953"
       d="m 1235.9304,445.51737 42.4186,-12.28455 -13.7991,24.94619 z"
       id="path23"
       sodipodi:nodetypes="cccc" />
    <path
       d="m 506.9721,445.16472 6.19276,44.74994 c 1.35926,-0.26153 2.45492,-0.44394 3.82566,-0.70891 65.37258,-7.71174 146.00248,-20.06 238.55831,-41.16854 l 43.728,-5.17093 c 9.38187,-8.93097 9.40628,-20.01906 10.17328,-30.93671 -7.76035,-6.87289 -11.4596,-10.76622 -28.00828,-8.7219 l -33.46063,18.71431 c -91.99194,4.80389 -173.10005,12.1184 -238.02044,23.16547 -1.00774,0.004 -1.98202,0.0714 -2.98864,0.0773 z"
       style="display:inline;fill:#ffe6d5;stroke-width:3.42516"
       id="path31" />
    <path
       style="display:inline;fill:#0071ff;fill-opacity:1;stroke-width:3.77953"
       d="m 513.9498,490.91142 c 98.11163,-13.18876 204.38846,-30.73105 272.70559,-28.0339 l -37.7473,-29.59111 27.10946,-39.25613 c -73.30607,24.55685 -178.08835,34.68276 -270.0773,50.67413 l 32.17305,20.05502 z"
       id="path17"
       sodipodi:nodetypes="ccccccc" />
  </g>
</svg>
