<?xml version="1.0" encoding="UTF-8" standalone="no"?>
<!-- Created with Inkscape (http://www.inkscape.org/) -->

<svg
   version="1.1"
   id="svg1"
   width="1512"
   height="1512"
   viewBox="0 0 1512 1512"
   sodipodi:docname="Ally3.svg"
   inkscape:version="1.3.2 (091e20e, 2023-11-25)"
   inkscape:export-filename="../../Utopia/Assets/Sprites/Nehustar.png"
   inkscape:export-xdpi="96"
   inkscape:export-ydpi="96"
   xmlns:inkscape="http://www.inkscape.org/namespaces/inkscape"
   xmlns:sodipodi="http://sodipodi.sourceforge.net/DTD/sodipodi-0.dtd"
   xmlns="http://www.w3.org/2000/svg"
   xmlns:svg="http://www.w3.org/2000/svg">
  <defs
     id="defs1" />
  <sodipodi:namedview
     id="namedview1"
     pagecolor="#505050"
     bordercolor="#eeeeee"
     borderopacity="1"
     inkscape:showpageshadow="0"
     inkscape:pageopacity="0"
     inkscape:pagecheckerboard="0"
     inkscape:deskcolor="#505050"
     inkscape:zoom="0.31648989"
     inkscape:cx="1315.9978"
     inkscape:cy="970.0152"
     inkscape:window-width="1512"
     inkscape:window-height="831"
     inkscape:window-x="0"
     inkscape:window-y="38"
     inkscape:window-maximized="0"
     inkscape:current-layer="layer1"
     showguides="true"
     showgrid="false" />
  <g
     inkscape:groupmode="layer"
     id="layer1"
     inkscape:label="Layer1"
     style="display:inline">
    <path
       id="path5"
       style="display:inline;fill:#00c49f;fill-opacity:1;stroke-width:3.77953"
       d="m 717.10742,147.42578 c -5.92462,0.008 -12.73823,2.50311 -21.3789,6.90234 6.78955,-0.54431 13.36957,-0.32664 19.9082,0.35743 -4.23134,2.7156 -7.77921,6.21082 -8.6211,10.33789 -7.48632,36.69931 -18.2246,123.54101 -18.2246,123.54101 37.62777,106.37504 -31.04432,440.7392 -9.55372,689.34155 5.94502,60.6001 23.09141,134.2685 40.41281,208.1411 13.38,-76.39 28.2294,-145.4331 47.39523,-192.89394 35.6494,-146.86469 -5.07698,-569.81862 -5.79143,-643.33675 0.69876,10.2124 9.12803,22.20261 13.30078,31.37304 -1.91168,-47.11855 5.75063,-27.80506 10.25781,-103.25781 L 755.18164,162.44531 c -1.85037,-8.77808 -14.32895,-13.63966 -23.19531,-13.64648 -1.42487,-0.001 -3.44157,0.37743 -5.67188,1.02148 -2.90123,-1.62823 -5.91711,-2.39925 -9.20703,-2.39453 z"
       sodipodi:nodetypes="sccsccccccccscs" />
    <path
       id="path1"
       style="display:inline;fill:#6c5353;stroke-width:3.42516"
       d="m 748.2197,184.99452 c -39.58579,1.74213 -50.84509,10.40345 -50.15474,67.94991 l 1.43436,30.8189 c 2.22462,6.32169 -0.47034,2.33888 3.17861,9.31616 5.51038,26.38158 7.24368,48.28598 6.67295,64.49172 -33.54464,0.35168 -84.73529,11.11207 -91.98108,40.52404 -12.79429,51.93427 -35.10827,121.36156 -51.8883,311.99123 -10.57339,64.9712 -16.76625,154.13108 -21.93944,248.92248 l -7.05965,43.46244 c 6.00474,11.4771 16.65813,14.5529 26.94325,18.2943 8.74289,-5.5697 13.50258,-8.0563 16.09053,-24.52869 l -8.78477,-37.31851 c 20.69339,-89.76299 35.97759,-169.75176 43.21999,-235.20587 23.40705,-82.95133 38.11276,-164.15592 47.49836,-244.29173 11.30269,49.64314 15.27392,37.64421 29.51578,182.64683 -26.07768,164.37544 -52.46913,331.99922 -64.23733,496.37467 l -19.22439,309.0014 c -0.56176,22.5299 -17.83059,29.976 -10.95289,44.2538 l 51.02889,0.057 c 4.19062,-15.5124 -8.86439,-26.5388 -8.08717,-42.7927 l 55.24605,-300.5344 c 25.5832,-129.7607 51.67793,-259.52209 63.28168,-389.2827 2.48141,119.7883 18.31478,247.6206 34.89643,375.903 l 46.62925,299.1209 c 1.94551,18.851 -13.7776,34.0712 -6.42494,57.7895 l 135.47765,-0.032 c 4.4143,-4.0502 6.9191,-7.4257 6.9188,-11.4759 -51.54443,-5.2481 -71.18741,-15.4471 -99.75377,-54.6211 l -9.39757,-285.0729 c -10.5573,-163.42364 -36.25257,-330.88167 -66.85876,-500.05655 4.6777,-154.17509 12.99751,-130.89217 19.20143,-186.00593 11.94692,55.05755 15.62569,91.38569 54.36988,233.18048 5.80366,67.00638 26.46879,157.88512 45.18606,245.63608 l -4.3939,42.7233 c 4.54589,13.20762 12.07671,16.34272 20.61023,20.13032 11.1307,-2.7081 20.2763,-7.9076 26.9047,-16.2661 l -13.9108,-44.22635 C 936.99632,851.8691 926.51782,760.66548 916.03911,696.41954 884.97947,462.53086 863.0687,406.3114 857.89603,396.1401 c -19.73277,-38.80162 -69.24407,-43.53615 -95.43652,-39.98949 -1.10853,-8.00541 -3.62439,-14.59789 -1.66224,-25.68627 12.50292,-10.83304 21.89708,-24.97889 29.48045,-41.62334 1.30522,-15.84948 3.42655,-29.5153 3.01712,-49.95546 -3.22449,-23.9211 -7.8244,-53.69524 -45.07514,-53.89102 z"
       sodipodi:nodetypes="cccccsccccccccccccccccccccccccccccccccsccccc" />
    <path
       style="fill:#ffffff;stroke-width:4.14303"
       d="m 739.61154,263.16652 c -5.06514,-6.70182 -8.22655,-7.76217 -15.82085,-8.98637 -7.09337,0.49386 -12.12463,0.18627 -18.40528,2.96962 3.19166,5.41286 0.43566,14.07475 14.38963,14.69807 8.7565,-0.0988 1.64266,0.11073 10.52422,-0.44114 3.57573,-2.26597 7.37751,-6.36074 9.31228,-8.24018 z"
       id="path8"
       sodipodi:nodetypes="cccccc" />
    <path
       style="fill:#00c49f;stroke-width:4.23239;fill-opacity:1"
       d="m 734.65255,257.90173 c -4.85199,-4.39854 -16.6476,-4.06322 -22.94862,-2.5435 -0.51342,8.2494 4.31083,14.31284 11.01697,16.47848 1.55046,-0.095 4.37469,-0.009 5.91813,-0.28097 4.84743,-0.99901 11.48474,-9.2593 6.01352,-13.65401 z"
       id="path9"
       sodipodi:nodetypes="ccccc" />
    <path
       style="fill:#00c49f;stroke-width:4.14303;fill-opacity:1"
       d="m 704.77547,257.36046 c 12.50189,-3.30927 24.2683,-5.1548 34.62646,3.85626 -10.41742,-12.19542 -25.81634,-8.21402 -34.62646,-3.85626 z"
       id="path10"
       sodipodi:nodetypes="ccc" />
    <path
       style="fill:#00c49f;stroke-width:3.06566;fill-opacity:1"
       d="m 764.58763,251.66648 c 9.8283,-4.31868 16.85656,-4.124 25.35777,1.46242 -8.26038,-8.13857 -15.75312,-8.07263 -25.35777,-1.46242 z"
       id="path10-8-6"
       sodipodi:nodetypes="ccc" />
    <path
       style="fill:#00c49f;stroke-width:3.01349;fill-opacity:1"
       d="m 735.36796,251.70059 c -9.44751,-4.46173 -19.9203,-4.22037 -28.19796,1.24081 8.07393,-8.01646 18.99258,-7.99045 28.19796,-1.24081 z"
       id="path10-8-6-6"
       sodipodi:nodetypes="ccc" />
    <path
       style="fill:#ffffff;stroke-width:3.94212"
       d="m 759.95232,263.25061 c 4.5858,-6.70183 6.92441,-8.14771 13.80001,-9.37193 6.42208,0.49388 10.97719,0.18627 16.66345,2.96964 -2.88962,5.41285 0.0143,13.71528 -12.6191,14.3386 -7.92781,-0.0988 -1.48719,0.11074 -9.52823,-0.44114 -3.23733,-2.26596 -6.56446,-5.61575 -8.31613,-7.49517 z"
       id="path8-9"
       sodipodi:nodetypes="cccccc" />
    <path
       style="display:inline;fill:#00c49f;stroke-width:3.92566;fill-opacity:1"
       d="m 790.70863,256.9288 c -11.22443,-3.30928 -21.5648,-4.90782 -30.86455,4.10326 9.35295,-12.19543 22.95467,-8.46103 30.86455,-4.10326 z"
       id="path10-5"
       sodipodi:nodetypes="ccc" />
    <path
       style="display:inline;fill:#00c49f;stroke-width:4.13743;fill-opacity:1"
       d="m 766.90759,256.06631 c 9.23589,-3.87579 15.9915,-1.22304 22.01293,0.29669 0.49064,8.24939 -4.11955,12.73743 -10.52813,14.90307 -1.48166,-0.095 -4.18058,-0.009 -5.65553,-0.28097 -4.63234,-0.99901 -11.05772,-10.52409 -5.82927,-14.91879 z"
       id="path9-5"
       sodipodi:nodetypes="ccccc" />
    <path
       style="display:inline;fill:#000000;fill-opacity:0.1;stroke-width:3.42516"
       d="m 704.07994,300.09088 c 6.9172,14.15745 26.44095,28.7187 43.24894,38.97221 6.25939,-2.59704 9.79572,-5.53049 13.42993,-8.71325 l -0.42513,5.01802 -13.63613,11.98373 c -12.27913,-11.48112 -32.53934,-22.39935 -40.88098,-37.05759 -0.49325,-3.40104 -1.15771,-6.80208 -1.73663,-10.20312 z"
       id="path15"
       sodipodi:nodetypes="ccccccc" />
    <path
       style="display:inline;fill:#000000;fill-opacity:0.1;stroke-width:3.42516"
       d="m 711.86269,259.70423 c 12.92654,-3.13974 16.91365,-1.30589 24.12813,-0.11427 -4.43169,-6.76467 -19.26124,-5.05843 -24.25556,-3.81904 -0.076,0.25084 0.20522,3.61211 0.12743,3.93331 z"
       id="path2"
       sodipodi:nodetypes="cccc" />
    <path
       id="path7"
       style="display:inline;fill:#00c49f;fill-opacity:1;stroke-width:3.77953"
       d="m 747.20117,164.16211 c -1.09159,-0.0153 -2.19993,-0.0117 -3.32617,0.0137 -37.85433,0.85123 -56.25242,10.95994 -62.09766,44.73828 -2.20069,34.71382 -8.70642,47.08614 1.89844,85.69336 4.53444,16.5077 9.19198,33.12226 16.89258,48.48633 2.95009,-16.4206 5.31044,-24.9877 4.13672,-37.37695 4.15535,5.70413 5.94739,5.3322 11.62347,9.34746 -10.04416,-13.10826 -13.74045,-24.80046 -15.0141,-30.47051 -1.21232,-13.28841 -0.60144,-33.25962 6.82813,-41.63867 l 14.91601,-15.62696 c -1.69849,5.80412 -3.24622,11.43954 -6.5957,16.57813 12.15283,-3.34152 13.22986,-5.38493 22.77344,-15.20703 -1.69319,5.9856 -3.27433,11.8809 -6.3711,17.3457 8.79655,-3.40614 13.34279,-5.85552 19.45704,-13.7168 -1.24399,8.49178 -3.21234,15.72176 -8.04102,23.13086 19.77114,-9.22061 24.20866,-5.51957 26.9707,-24.84765 6.045,3.05271 7.99334,9.8448 11.36719,15.84765 1.54748,-3.47348 1.55372,-6.49226 1.30274,-10.14648 l 3.47265,5.05273 2.99805,8.68165 1.54883,7.74414 c 0.59152,14.61475 -0.33407,28.14195 -7.96289,43.50586 -6.89181,13.87959 -7.18503,29.85647 -6.85352,45.54492 0,-1.68352 9.57468,-19.12742 13.37891,-25.71094 4.90197,-7.416 8.85952,-20.7713 10.55273,-31.97656 1.52094,16.31325 5.52595,26.84668 12.19531,31.88086 -15.76216,-88.85232 0.10382,-105.34232 -16.45507,-132.95508 l -0.16407,-0.36133 -0.0195,0.0625 c -7.31999,-11.64211 -23.45664,-23.25527 -49.41211,-23.61914 z"
       sodipodi:nodetypes="sccscccccccccccccccccscccccccss" />
    <path
       style="display:inline;fill:#000000;fill-opacity:0.1;stroke-width:3.38771"
       d="m 765.01643,259.70245 c 10.24757,-4.07124 16.60296,-1.50839 23.91068,-0.0433 -0.0621,-0.65186 0.0974,-2.8121 -0.0187,-3.28015 -7.01502,-2.39617 -23.69613,-4.57496 -23.89195,3.57548 z"
       id="path2-2"
       sodipodi:nodetypes="ccccc" />
    <path
       style="fill:#ffffff;fill-opacity:0.5;stroke-width:3.42516"
       d="m 767.02475,266.19795 c 6.85034,4.16214 12.85463,3.2276 18.581,0.61878 -1.50429,1.71364 -3.66145,3.25247 -7.2737,4.40173 l -4.39533,-0.0946 c -3.54039,-0.0617 -5.97453,-3.10304 -6.91197,-4.92594 z"
       id="path36"
       sodipodi:nodetypes="ccccc" />
    <path
       style="fill:#ffffff;fill-opacity:0.5;stroke-width:3.42516"
       d="m 715.60665,267.08956 c 6.85034,4.16213 13.25699,2.97051 18.98336,0.36169 -1.50429,1.71364 -2.92988,3.32593 -6.2495,4.18139 l -5.52926,0.16249 c -3.90618,-1.20014 -5.97453,-3.10304 -7.2046,-4.70557 z"
       id="path36-0"
       sodipodi:nodetypes="ccccc" />
    <path
       style="display:inline;fill:#000000;fill-opacity:0.1;stroke-width:3.77953"
       d="m 718.36202,166.86981 c -47.95613,63.97648 -36.02674,90.13395 -18.28801,175.07699 -20.31944,-49.602 -26.7412,-82.69435 -19.61062,-116.26014 1.34202,-28.03266 7.36642,-52.17533 37.89863,-58.81685 z"
       id="path24"
       sodipodi:nodetypes="cccc"
       inkscape:label="path24" />
    <path
       style="display:inline;fill:#ffffff;fill-opacity:0.5;stroke-width:2.76958"
       d="m 693.68812,206.38173 c 3.16183,7.29915 6.75976,11.68869 11.47049,-1.77271 1.3479,13.46917 3.96235,2.96708 7.75992,1.7266 6.15843,10.78213 7.79159,1.90896 10.56049,-0.0418 -0.21305,13.10421 7.16694,3.83851 11.35299,-2.31873 2.95055,3.30079 3.58649,16.97378 9.65513,2.42245 3.32086,10.47299 7.47226,6.71414 10.79313,-0.61671 3.86412,13.3575 12.57377,4.17974 12.3858,-1.19195 2.42502,8.48638 4.307,10.46816 8.67878,0.50428 0.0433,13.9277 9.39982,4.34393 13.03481,-0.0863 2.80014,6.88451 3.9735,5.22689 6.77364,2.09031 2.14602,3.60568 5.23168,2.26578 7.3777,0.58632 1.27794,6.32712 1.17463,10.48424 1.38685,14.55368 -2.6109,-8.39908 -6.16145,-15.81739 -8.77236,-0.75837 -2.14975,-18.85251 -7.13518,-2.51362 -9.72487,-0.37154 0.53759,-4.96538 -0.0824,-14.22926 -7.29194,-2.05044 -3.16443,-13.32973 -7.04658,-0.99406 -10.21102,3.76097 -1.54929,-14.68715 -7.87298,-6.07436 -12.3073,-2.22596 -1.01958,-7.31109 -1.66128,-10.50285 -7.39724,0.91671 -1.56651,-5.66213 -7.9714,-7.85885 -13.29856,-1.61254 0.0394,-11.17449 -3.55809,-10.84103 -10.3645,-0.34848 -6.6923,-8.11489 -7.10553,-4.74646 -8.91571,1.57899 -0.96112,-12.46651 -9.09869,-6.02271 -14.34585,1.89772 -0.0666,-7.26294 -5.75472,-7.55404 -13.65127,-3.44005 1.59034,-4.51744 2.8869,-9.40212 5.05089,-13.20249 z"
       id="path43"
       sodipodi:nodetypes="ccccccccccccccccccccccccc" />
    <path
       style="display:inline;fill:#ffffff;stroke-width:2.458"
       d="m 742.46381,313.40725 c -0.40642,0.10459 0.44258,-2.11283 2.9873,-2.00785 13.86099,-0.20543 14.35951,-0.0731 17.62407,-0.19953 0.94191,0.31466 0.51302,1.73789 0.23016,1.90038 -11.22433,0.25724 -16.76992,-0.0974 -20.84143,0.307 z"
       id="path14"
       sodipodi:nodetypes="cccccc" />
    <path
       style="display:inline;fill:#333333;stroke-width:3.42516"
       d="m 709.28191,357.24382 c 5.8858,16.02236 25.3306,16.54865 41.427,20.90176 16.7578,-9.43325 12.4833,-16.09615 11.4428,-23.70815 3.2944,-0.29453 15.7466,0.26729 19.3295,0.66995 31.3875,48.95313 32.3568,92.71437 37.4811,120.73354 -5.6209,36.46735 -23.1227,130.38262 -16.4326,202.42809 36.0677,143.36059 61.4814,425.10769 64.1545,450.48589 2.8589,54.4687 11.4161,229.2955 11.5169,319.112 -10.7211,1.1028 -13.8781,4.0732 -40.0557,1.1714 -13.0202,-94.4958 -51.4619,-263.155 -52.2104,-311.6018 -10.6398,-84.3454 -31.1012,-266.41158 -28.4053,-341.2917 -23.265,213.3055 -73.4671,437.4173 -111.6398,655.4493 -12.3468,-0.8588 -21.2295,3.4669 -38.2721,-0.8861 2.0572,-328.8018 50.6037,-550.0581 79.3052,-780.79177 3.1885,-61.18406 -16.3736,-150.17088 -25.4909,-190.3262 16.5136,-118.91811 18.0178,-100.62097 31.8929,-121.76312 2.6759,-0.22172 12.8174,-0.43895 15.9569,-0.58309 z"
       id="path6"
       inkscape:label="path6"
       sodipodi:nodetypes="ccccccccccccccccc" />
    <path
       style="display:inline;fill:#00c49f;fill-opacity:1;stroke-width:3.77953"
       d="m 694.43848,378.48277 c -9.46691,-10.58653 -88.09328,30.69482 -55.59454,-54.25452 -86.02616,96.03606 40.92286,57.2801 54.70259,87.68064 -47.40465,-25.31522 -92.16127,10.66035 -96.66736,-35.91009 -31.2208,85.65271 44.25678,21.81763 76.14075,60.35396 7.52873,5.41345 34.99612,30.23755 91.87597,34.21325 7.40931,-53.38235 -21.24792,-78.1488 -70.45741,-92.08324 z"
       id="path46"
       sodipodi:nodetypes="ccccccc" />
    <path
       style="display:inline;fill:#000000;fill-opacity:0.1;stroke-width:6.51894"
       d="m 753,270.57979 1.61552,11.29665 -1.01162,8.89221 2.28229,-8.61665 z"
       id="path32"
       sodipodi:nodetypes="ccccc" />
    <path
       id="path33"
       style="fill:#e6e6e6;fill-opacity:1;stroke-width:3.77953"
       d="m 778.79883,352.26172 -34.76563,94.26758 -101.87109,38.52343 78.40625,-3.60937 -16.74024,162.48242 43.45704,-151.38281 99.66015,-60.49219 -75.53125,20.95703 z"
       sodipodi:nodetypes="ccccccccc" />
    <path
       style="fill:#e6e6e6;fill-opacity:1;stroke-width:3.77953"
       d="m 759.85849,391.98745 -46.42421,28.0839 -28.04825,47.57184 9.29104,-61.35265 z"
       id="path34"
       sodipodi:nodetypes="ccccc" />
    <path
       style="display:inline;fill:#00c49f;fill-opacity:1;stroke-width:3.77953"
       d="m 817.44747,480.38309 c -5.60837,63.89523 -16.78885,126.86178 -13.34473,192.26576 9.36766,59.5365 13.2708,40.97825 62.60954,373.97675 C 778.75863,902.5612 765.52902,769.70922 761.97336,605.12346 779.40463,562.86873 780.3975,510.15319 817.44747,480.38309 Z"
       id="path57"
       sodipodi:nodetypes="ccccc" />
    <path
       style="fill:#e6e6e6;fill-opacity:1;stroke-width:3.77953"
       d="m 761.00689,384.33145 -77.70845,9.18721 -12.2496,75.02884 -8.42161,-93.78606 z"
       id="path35" />
    <path
       style="fill:#e6e6e6;fill-opacity:1;stroke-width:3.77953"
       d="m 753.47861,493.53175 c 26.40922,-10.74779 48.96439,-22.81419 65.08352,-34.29406 l -0.34056,20.72181 c -64.98775,83.17967 -52.14316,177.51793 -41.51242,274.23634 41.6794,227.8338 45.48475,456.76296 28.94568,686.65596 -182.28929,0 -198.87661,-12.0256 -262.11923,-69.1481 40.19992,-248.8847 92.53147,-495.83942 142.34519,-742.79985 -4.59694,-50.27443 -14.0764,-97.96557 -22.64088,-141.02068 18.14788,-0.29437 36.44732,2.91096 52.5495,2.36847 l -17.91552,151.60693 2.13752,18.05945 8.14103,-13.2291 z"
       id="path40"
       sodipodi:nodetypes="ccccccccccccc" />
    <path
       style="fill:#e6e6e6;fill-opacity:1;stroke-width:3.77953"
       d="m 672.49776,411.59562 34.48706,12.74522 60.72723,56.22891 -70.6661,-42.62599 z"
       id="path47" />
    <path
       style="fill:#e6e6e6;fill-opacity:1;stroke-width:3.77953"
       d="m 696.46435,386.76308 16.86636,26.75354 55.70093,66.44942 -43.48736,-75.4642 z"
       id="path48"
       sodipodi:nodetypes="ccccc" />
    <path
       id="path55"
       style="fill:#e6e6e6;fill-opacity:1;stroke-width:3.77953"
       d="m 554.51172,707.00391 -8.66602,53.4414 -6.63281,-16.80273 -11.70703,33.52344 -21.18682,156.33564 18.76758,6.01172 15.83916,-65.47627 2.63292,74.29759 2.72454,0.34343 3.12634,-11.40206 5.86288,13.35008 4.41552,1.05463 11.14205,-11.33464 -1.57421,13.28237 2.79753,1.09293 16.94079,-51.64527 -4.9375,55.53934 18.86705,5.95688 37.63295,-177.32044 -3.37109,-27.48437 -13.51758,4.77539 5.70312,-46.44922 -50.83007,44.36133 z"
       sodipodi:nodetypes="cccccccccccccccccccccccc" />
    <path
       id="path55-2"
       style="display:inline;fill:#e6e6e6;fill-opacity:1;stroke-width:3.74773"
       d="m 934.45516,699.27502 8.5208,53.4414 6.5216,-16.80273 11.5109,33.52344 19.24968,150.90478 -18.39885,6.06597 -14.8196,-63.96852 -2.5888,74.29759 -2.6789,0.34343 -3.074,-11.40206 -5.7646,13.35008 -4.3415,1.05463 -10.9553,-11.33464 1.5478,13.28237 -2.7507,1.09293 -16.6568,-51.64527 4.49775,54.94233 -19.613,6.17774 -34.80938,-173.07543 3.3146,-27.48437 13.291,4.77539 -5.6075,-46.44922 49.9782,44.36133 z"
       sodipodi:nodetypes="cccccccccccccccccccccccc" />
    <path
       id="path58"
       style="fill:#e6e6e6;fill-opacity:1;stroke-width:3.77953"
       d="m 866.91184,1097.1623 -28.99192,100.0799 c 8.32417,74.7776 13.54057,145.0661 41.86328,248.7305 2.2e-4,0 -2.1e-4,0 0,-0.01 0.0407,0.2363 0.0744,0.4587 0.11524,0.6953 26.51112,-128.578 22.98743,-303.8676 13.2832,-323.7168 l -20.24414,40.2422 c 0.60949,-28.412 -1.3176,-54.1219 -6.02566,-66.0211 z"
       sodipodi:nodetypes="cccccccc" />
    <path
       style="fill:#00c49f;fill-opacity:1;stroke-width:3.77953"
       d="m 510.11911,934.76722 29.65327,-141.26233 -19.38842,144.5055 z"
       id="path59"
       sodipodi:nodetypes="cccc" />
    <path
       style="display:inline;fill:#00c49f;fill-opacity:1;stroke-width:3.77953"
       d="M 588.47989,960.01456 621.58452,817.74175 598.74474,963.25773 Z"
       id="path59-2"
       sodipodi:nodetypes="cccc" />
    <path
       style="display:inline;fill:#00c49f;fill-opacity:1;stroke-width:3.78141"
       d="m 977.09257,921.43557 -29.44106,-137.5275 19.16598,140.77067 z"
       id="path59-1"
       sodipodi:nodetypes="cccc" />
    <path
       style="display:inline;fill:#00c49f;fill-opacity:1;stroke-width:3.78141"
       d="M 899.36059,947.94086 867.66391,801.1725 889.0381,951.19502 Z"
       id="path59-2-8"
       sodipodi:nodetypes="cccc" />
    <path
       style="fill:#333333;fill-opacity:1;stroke-width:3.77953"
       d="m 576.54495,775.62253 37.18192,-24.77694 -17.62679,105.75404 -32.96448,45.12735 -15.38028,-55.03455 10.94302,-103.83008 z"
       id="path60"
       sodipodi:nodetypes="ccccccc" />
    <path
       style="fill:#333333;fill-opacity:1;stroke-width:3.77953"
       d="m 873.50066,742.28307 38.27537,27.90912 16.74547,-38.27537 13.84266,117.5232 -12.28759,50.419 -35.91759,-40.46951 z"
       id="path61"
       sodipodi:nodetypes="ccccccc" />
    <path
       style="display:inline;fill:#00c49f;fill-opacity:1;stroke-width:3.78607"
       d="m 930.05271,899.59489 6.47006,-24.89849 c 0.0941,-39.54267 -9.31648,-73.18958 -9.86847,-112.60051 20.88672,-54.08561 -26.00631,-60.90636 21.82728,-128.95413 -75.74254,59.27239 -11.88938,78.57226 -38.13964,141.8235 -39.12362,-90.17525 36.48752,-144.80103 -38.95663,-188.97645 47.00363,79.17771 -15.08309,89.04925 17.88651,182.2031 15.76065,41.25579 5.33316,72.80175 21.42305,110.28095 z"
       id="path67-3"
       sodipodi:nodetypes="ccccccccc" />
    <path
       style="display:inline;fill:#00c49f;fill-opacity:1;stroke-width:3.77953"
       d="m 563.20535,901.8773 -7.95936,-28.79434 c -0.0938,-39.54267 9.77861,-73.70222 10.32869,-113.11315 C 551.25319,705.8842 595.29615,653.61252 544.02,607.15364 c 84.71563,42.30627 11.80368,99.18429 37.81072,165.68554 -31.1316,-72.01845 77.46516,-75.14408 13.04007,-218.34363 84.27517,93.30762 -15.12227,181.66235 7.32392,210.3035 -15.70624,41.25579 -5.51476,75.88607 -21.5491,113.36527 z"
       id="path67"
       sodipodi:nodetypes="ccccccccc" />
    <path
       style="fill:#e6e6e6;fill-opacity:1;stroke-width:3.77953"
       d="m 545.56961,776.58585 28.87703,35.58062 47.44083,-26.81438 -50.5348,42.79988 z"
       id="path62" />
    <path
       style="fill:#e6e6e6;fill-opacity:1;stroke-width:3.77953"
       d="m 542.9913,809.58817 24.23608,42.28422 45.89385,-30.42401 -47.44084,49.50348 z"
       id="path63" />
    <path
       style="fill:#e6e6e6;fill-opacity:1;stroke-width:3.98928"
       d="m 868.50009,789.74699 44.81742,18.75102 27.35982,-37.77371 -23.28299,53.78 z"
       id="path64"
       sodipodi:nodetypes="ccccc" />
    <path
       style="fill:#e6e6e6;fill-opacity:1;stroke-width:3.77953"
       d="m 880.65178,829.42639 41.02537,19.08308 25.7416,-34.10088 -22.34587,52.44088 z"
       id="path65"
       sodipodi:nodetypes="ccccc" />
    <path
       style="fill:#333333;fill-opacity:1;stroke-width:3.77953"
       d="m 769.90126,685.41126 33.73671,-14.51247 -0.51449,-23.66667 c 10.30132,26.73737 9.41617,45.55562 9.77536,73.57249 l -4.63043,-19.55074 -35.85365,13.97573 z"
       id="path66"
       sodipodi:nodetypes="ccccccc" />
    <path
       style="fill:#333333;fill-opacity:1;stroke-width:3.77953"
       d="m 692.35427,675.53084 c -35.92566,242.17949 -79.99334,461.96846 -105.86877,731.78606 3.73926,2.4436 7.72371,5.0021 11.93655,7.3277 22.56294,-278.8656 67.31116,-495.61232 102.45147,-739.26126 l -3.35921,-5.45871 z"
       id="path68"
       sodipodi:nodetypes="cccccc" />
    <path
       style="fill:#333333;fill-opacity:1;stroke-width:3.77953"
       d="m 506.1934,933.37763 2.81445,4.35541 10.01022,3.22661 6.05509,-1.38025 z"
       id="path69"
       sodipodi:nodetypes="ccccc" />
    <path
       style="fill:#333333;fill-opacity:1;stroke-width:3.77953"
       d="m 584.10953,958.62435 3.4092,4.33511 10.09696,3.15243 5.24045,-1.55876 z"
       id="path70"
       sodipodi:nodetypes="ccccc" />
    <path
       style="fill:#333333;fill-opacity:1;stroke-width:3.77953"
       d="m 884.55517,952.61286 4.81873,1.23484 11.09948,-3.12852 3.88799,-4.32928 z"
       id="path71"
       sodipodi:nodetypes="ccccc" />
    <path
       style="fill:#333333;fill-opacity:1;stroke-width:3.77953"
       d="m 961.81716,926.28581 5.94021,0.69993 9.87949,-3.29317 2.55828,-3.40882 z"
       id="path72"
       sodipodi:nodetypes="ccccc" />
  </g>
</svg>
