<?xml version="1.0" encoding="UTF-8" standalone="no"?>
<!-- Created with Inkscape (http://www.inkscape.org/) -->

<svg
   version="1.1"
   id="svg1"
   width="1512"
   height="1512"
   viewBox="0 0 1512 1512"
   sodipodi:docname="Ally3Attack.svg"
   inkscape:version="1.3.2 (091e20e, 2023-11-25)"
   inkscape:export-filename="../../Utopia/Assets/Sprites/Nehustar.png"
   inkscape:export-xdpi="96"
   inkscape:export-ydpi="96"
   xmlns:inkscape="http://www.inkscape.org/namespaces/inkscape"
   xmlns:sodipodi="http://sodipodi.sourceforge.net/DTD/sodipodi-0.dtd"
   xmlns="http://www.w3.org/2000/svg"
   xmlns:svg="http://www.w3.org/2000/svg">
  <defs
     id="defs1" />
  <sodipodi:namedview
     id="namedview1"
     pagecolor="#505050"
     bordercolor="#eeeeee"
     borderopacity="1"
     inkscape:showpageshadow="0"
     inkscape:pageopacity="0"
     inkscape:pagecheckerboard="0"
     inkscape:deskcolor="#505050"
     inkscape:zoom="0.13523553"
     inkscape:cx="395.6061"
     inkscape:cy="1730.3145"
     inkscape:window-width="1512"
     inkscape:window-height="831"
     inkscape:window-x="188"
     inkscape:window-y="179"
     inkscape:window-maximized="0"
     inkscape:current-layer="layer1"
     showguides="true"
     showgrid="false" />
  <g
     inkscape:groupmode="layer"
     id="layer1"
     inkscape:label="Layer1"
     style="display:inline">
    <path
       id="path5"
       style="display:inline;fill:#00c49f;fill-opacity:1;stroke-width:3.77953"
       d="m 717.107,147.44002 c -5.9246,0.01 -12.7382,2.5031 -21.3789,6.9023 6.7896,-0.5443 13.3696,-0.3266 19.9082,0.3575 -4.2313,2.7156 -7.7792,6.2108 -8.6211,10.3378 -7.4863,36.6994 -18.2246,123.541 -18.2246,123.541 37.6278,106.3751 -31.0443,440.7392 -9.5537,689.3416 5.945,60.60008 23.0914,134.26848 40.4128,208.14108 13.38,-76.39 28.2294,-145.4331 47.3952,-192.89388 35.6494,-146.8647 -5.0769,-569.8187 -5.7914,-643.3368 0.6988,10.2124 9.128,22.2026 13.3008,31.3731 -1.9117,-47.1186 5.7506,-27.8051 10.2578,-103.2579 l -29.6309,-115.4863 c -1.8503,-8.7781 -14.3289,-13.6396 -23.1953,-13.6465 -1.4248,-0.001 -3.4415,0.3775 -5.6719,1.0215 -2.9012,-1.6282 -5.9171,-2.3992 -9.207,-2.3945 z"
       sodipodi:nodetypes="sccsccccccccscs" />
    <path
       id="path1"
       style="display:inline;fill:#6c5353;stroke-width:3.42516"
       d="m 748.2193,185.00872 c -39.5858,1.7422 -50.8451,10.4035 -50.1547,67.9499 l 1.4343,30.8189 c 2.2246,6.3217 -0.4703,2.3389 3.1786,9.3162 5.5104,26.3816 7.2437,48.286 6.673,64.4917 -33.5447,0.3517 -84.7353,11.1121 -91.9811,40.5241 -12.7943,51.9342 -35.1083,121.3615 -51.8883,311.9912 -10.5734,64.9712 -16.7662,154.1311 -21.9394,248.9225 l -7.0597,43.46238 c 6.0047,11.4771 16.6581,14.5529 26.9433,18.2943 8.7429,-5.5697 13.5025,-8.0563 16.0905,-24.52868 l -8.7848,-37.3185 c 20.6934,-89.763 35.9776,-169.7518 43.22,-235.2059 23.4071,-82.9513 38.1128,-164.1559 47.4984,-244.2917 11.3027,49.6431 15.2739,37.6442 29.5157,182.6468 -26.0776,164.3755 -52.4691,331.9993 -64.2373,496.37468 l -19.2244,309.0014 c -0.5617,22.5299 -17.8306,29.976 -10.9529,44.2538 l 51.0289,0.057 c 4.1906,-15.5124 -8.8644,-26.5388 -8.0871,-42.7927 l 55.246,-300.5344 c 25.5832,-129.7607 51.6779,-259.52208 63.2817,-389.28268 2.4814,119.7883 18.3148,247.62058 34.8964,375.90298 l 46.6293,299.1209 c 1.9455,18.851 -13.7776,34.0712 -6.425,57.7895 l 135.47768,-0.032 c 4.4143,-4.0502 6.9191,-7.4257 6.9188,-11.4759 -51.54438,-5.2481 -71.18738,-15.4471 -99.75378,-54.6211 l -9.3976,-285.0729 C 855.8085,997.34692 830.1133,829.88882 799.5071,660.71402 c 4.6777,-154.1751 12.9975,-130.8922 19.2014,-186.006 11.9469,55.0576 15.6257,91.3857 54.3699,233.1805 5.8037,67.0064 26.4688,157.8851 45.1861,245.6361 l -4.394,42.7233 c 4.5459,13.20758 12.0768,16.34268 20.6103,20.13028 11.1307,-2.7081 20.27628,-7.9076 26.90468,-16.2661 L 947.4747,955.88582 c -10.4788,-104.0025 -20.9573,-195.2061 -31.436,-259.4521 -31.0596,-233.8886 -52.9704,-290.1081 -58.1431,-300.2794 -19.7327,-38.8016 -69.244,-43.5361 -95.4365,-39.9895 -1.1085,-8.0054 -3.6244,-14.5979 -1.6622,-25.6863 12.5029,-10.833 21.897,-24.9788 29.4804,-41.6233 1.3052,-15.8495 3.4266,-29.5153 3.0171,-49.9555 -3.2245,-23.9211 -7.8244,-53.6952 -45.0751,-53.891 z"
       sodipodi:nodetypes="cccccsccccccccccccccccccccccccccccccccsccccc" />
    <path
       style="display:inline;fill:#ffffff;stroke-width:4.14303"
       d="m 739.6111,263.18072 c -5.0651,-6.7018 -8.2265,-7.7621 -15.8208,-8.9863 -7.0934,0.4938 -12.1246,0.1862 -18.4053,2.9696 3.1917,5.4128 0.4357,14.0747 14.3896,14.698 8.7565,-0.099 1.6427,0.1108 10.5243,-0.4411 3.5757,-2.266 7.3775,-6.3607 9.3122,-8.2402 z"
       id="path8"
       sodipodi:nodetypes="cccccc" />
    <path
       style="display:inline;fill:#00c49f;fill-opacity:1;stroke-width:4.23239"
       d="m 734.6521,257.91592 c -4.8519,-4.3985 -16.6476,-4.0632 -22.9486,-2.5435 -0.5134,8.2494 4.3109,14.3129 11.017,16.4785 1.5505,-0.095 4.3747,-0.01 5.9181,-0.281 4.8475,-0.999 11.4848,-9.2593 6.0135,-13.654 z"
       id="path9"
       sodipodi:nodetypes="ccccc" />
    <path
       style="display:inline;fill:#00c49f;fill-opacity:1;stroke-width:4.14303"
       d="m 704.7751,257.37472 c 12.5019,-3.3093 24.2683,-5.1548 34.6264,3.8562 -10.4174,-12.1954 -25.8163,-8.214 -34.6264,-3.8562 z"
       id="path10"
       sodipodi:nodetypes="ccc" />
    <path
       style="display:inline;fill:#00c49f;fill-opacity:1;stroke-width:3.06566"
       d="m 764.5872,251.68072 c 9.8283,-4.3187 16.8566,-4.124 25.3578,1.4624 -8.2604,-8.1386 -15.7531,-8.0726 -25.3578,-1.4624 z"
       id="path10-8-6"
       sodipodi:nodetypes="ccc" />
    <path
       style="display:inline;fill:#00c49f;fill-opacity:1;stroke-width:3.01349"
       d="m 735.3676,251.71482 c -9.4475,-4.4617 -19.9203,-4.2204 -28.198,1.2408 8.0739,-8.0165 18.9926,-7.9904 28.198,-1.2408 z"
       id="path10-8-6-6"
       sodipodi:nodetypes="ccc" />
    <path
       style="display:inline;fill:#ffffff;stroke-width:3.94212"
       d="m 759.9519,263.26482 c 4.5858,-6.7018 6.9244,-8.1477 13.8,-9.3719 6.4221,0.4939 10.9772,0.1863 16.6635,2.9696 -2.8896,5.4129 0.014,13.7153 -12.6191,14.3386 -7.9278,-0.099 -1.4872,0.1108 -9.5282,-0.4411 -3.2374,-2.266 -6.5645,-5.6158 -8.3162,-7.4952 z"
       id="path8-9"
       sodipodi:nodetypes="cccccc" />
    <path
       style="display:inline;fill:#00c49f;fill-opacity:1;stroke-width:3.92566"
       d="m 790.7082,256.94302 c -11.2244,-3.3093 -21.5648,-4.9078 -30.8645,4.1033 9.3529,-12.1955 22.9546,-8.4611 30.8645,-4.1033 z"
       id="path10-5"
       sodipodi:nodetypes="ccc" />
    <path
       style="display:inline;fill:#00c49f;fill-opacity:1;stroke-width:4.13743"
       d="m 766.9072,256.08052 c 9.2359,-3.8758 15.9915,-1.223 22.0129,0.2967 0.4907,8.2494 -4.1195,12.7374 -10.5281,14.9031 -1.4817,-0.095 -4.1806,-0.01 -5.6555,-0.281 -4.6324,-0.999 -11.0578,-10.5241 -5.8293,-14.9188 z"
       id="path9-5"
       sodipodi:nodetypes="ccccc" />
    <path
       style="display:inline;fill:#000000;fill-opacity:0.1;stroke-width:3.42516"
       d="m 704.0795,300.10512 c 6.9172,14.1574 26.441,28.7187 43.249,38.9722 6.2594,-2.597 9.7957,-5.5305 13.4299,-8.7133 l -0.4251,5.0181 -13.6362,11.9837 c -12.2791,-11.4811 -32.5393,-22.3994 -40.8809,-37.0576 -0.4933,-3.401 -1.1577,-6.8021 -1.7367,-10.2031 z"
       id="path15"
       sodipodi:nodetypes="ccccccc" />
    <path
       style="display:inline;fill:#000000;fill-opacity:0.1;stroke-width:3.42516"
       d="m 711.8623,259.71842 c 12.9265,-3.1397 16.9136,-1.3059 24.1281,-0.1142 -4.4317,-6.7647 -19.2612,-5.0585 -24.2555,-3.8191 -0.076,0.2509 0.2052,3.6121 0.1274,3.9333 z"
       id="path2"
       sodipodi:nodetypes="cccc" />
    <path
       id="path7"
       style="display:inline;fill:#00c49f;fill-opacity:1;stroke-width:3.77953"
       d="m 747.2008,164.17632 c -1.0916,-0.015 -2.2,-0.012 -3.3262,0.014 -37.8543,0.8512 -56.2524,10.96 -62.0977,44.7383 -2.2007,34.7138 -8.7064,47.0861 1.8985,85.6934 4.5344,16.5077 9.192,33.1222 16.8926,48.4863 2.9501,-16.4206 5.3104,-24.9877 4.1367,-37.377 4.1553,5.7042 5.9474,5.3322 11.6235,9.3475 -10.0442,-13.1083 -13.7405,-24.8005 -15.0142,-30.4705 -1.2123,-13.2884 -0.6014,-33.2596 6.8282,-41.6387 l 14.916,-15.6269 c -1.6985,5.8041 -3.2462,11.4395 -6.5957,16.5781 12.1528,-3.3415 13.2299,-5.3849 22.7734,-15.207 -1.6932,5.9856 -3.2743,11.8809 -6.3711,17.3457 8.7966,-3.4062 13.3428,-5.8556 19.4571,-13.7168 -1.244,8.4917 -3.2124,15.7217 -8.0411,23.1308 19.7712,-9.2206 24.2087,-5.5196 26.9707,-24.8476 6.045,3.0527 7.9934,9.8448 11.3672,15.8476 1.5475,-3.4735 1.5538,-6.4922 1.3028,-10.1465 l 3.4726,5.0528 2.9981,8.6816 1.5488,7.7442 c 0.5915,14.6147 -0.3341,28.1419 -7.9629,43.5058 -6.8918,13.8796 -7.185,29.8565 -6.8535,45.5449 0,-1.6835 9.5747,-19.1274 13.3789,-25.7109 4.902,-7.416 8.8595,-20.7713 10.5527,-31.9766 1.521,16.3133 5.526,26.8467 12.1953,31.8809 -15.7621,-88.8523 0.1039,-105.3423 -16.455,-132.9551 l -0.1641,-0.3613 -0.02,0.062 c -7.32,-11.6421 -23.4566,-23.2553 -49.4121,-23.6192 z"
       sodipodi:nodetypes="sccscccccccccccccccccscccccccss" />
    <path
       style="display:inline;fill:#000000;fill-opacity:0.1;stroke-width:3.38771"
       d="m 765.016,259.71672 c 10.2476,-4.0713 16.603,-1.5084 23.9107,-0.043 -0.062,-0.6519 0.097,-2.8121 -0.019,-3.2802 -7.015,-2.3962 -23.6961,-4.575 -23.8919,3.5755 z"
       id="path2-2"
       sodipodi:nodetypes="ccccc" />
    <path
       style="display:inline;fill:#ffffff;fill-opacity:0.5;stroke-width:3.42516"
       d="m 767.0244,266.21222 c 6.8503,4.1621 12.8546,3.2276 18.581,0.6187 -1.5043,1.7137 -3.6615,3.2525 -7.2738,4.4018 l -4.3953,-0.095 c -3.5404,-0.062 -5.9745,-3.1031 -6.9119,-4.926 z"
       id="path36"
       sodipodi:nodetypes="ccccc" />
    <path
       style="display:inline;fill:#ffffff;fill-opacity:0.5;stroke-width:3.42516"
       d="m 715.6062,267.10382 c 6.8504,4.1621 13.257,2.9705 18.9834,0.3617 -1.5043,1.7136 -2.9299,3.3259 -6.2495,4.1813 l -5.5293,0.1625 c -3.9061,-1.2001 -5.9745,-3.103 -7.2046,-4.7055 z"
       id="path36-0"
       sodipodi:nodetypes="ccccc" />
    <path
       style="display:inline;fill:#000000;fill-opacity:0.1;stroke-width:3.77953"
       d="m 718.3616,166.88402 c -47.9561,63.9765 -36.0267,90.134 -18.288,175.077 -20.3194,-49.602 -26.7412,-82.6943 -19.6106,-116.2601 1.342,-28.0327 7.3664,-52.1754 37.8986,-58.8169 z"
       id="path24"
       sodipodi:nodetypes="cccc"
       inkscape:label="path24" />
    <path
       style="display:inline;fill:#ffffff;fill-opacity:0.5;stroke-width:2.76958"
       d="m 693.6877,206.39592 c 3.1618,7.2992 6.7598,11.6887 11.4705,-1.7727 1.3479,13.4692 3.9624,2.9671 7.7599,1.7266 6.1585,10.7822 7.7916,1.909 10.5605,-0.042 -0.213,13.1042 7.167,3.8385 11.353,-2.3187 2.9506,3.3008 3.5865,16.9738 9.6551,2.4224 3.3209,10.473 7.4723,6.7142 10.7932,-0.6167 3.8641,13.3575 12.5737,4.1798 12.3858,-1.1919 2.425,8.4864 4.307,10.4681 8.6787,0.5043 0.043,13.9277 9.3999,4.3439 13.0349,-0.086 2.8001,6.8845 3.9735,5.2269 6.7736,2.0903 2.146,3.6057 5.2317,2.2658 7.3777,0.5863 1.2779,6.3271 1.1746,10.4842 1.3868,14.5537 -2.6108,-8.3991 -6.1614,-15.8174 -8.7723,-0.7584 -2.1498,-18.8525 -7.1352,-2.5136 -9.7249,-0.3715 0.5376,-4.9654 -0.082,-14.2293 -7.2919,-2.0505 -3.1645,-13.3297 -7.0466,-0.994 -10.211,3.761 -1.5493,-14.6872 -7.873,-6.0744 -12.3073,-2.226 -1.0196,-7.3111 -1.6613,-10.5028 -7.3973,0.9167 -1.5665,-5.6621 -7.9714,-7.8588 -13.2985,-1.6125 0.039,-11.1745 -3.5581,-10.841 -10.3645,-0.3485 -6.6923,-8.1149 -7.1056,-4.7464 -8.9158,1.579 -0.9611,-12.4665 -9.0986,-6.0227 -14.3458,1.8977 -0.067,-7.2629 -5.7547,-7.554 -13.6513,-3.44 1.5904,-4.5175 2.8869,-9.4021 5.0509,-13.2025 z"
       id="path43"
       sodipodi:nodetypes="ccccccccccccccccccccccccc" />
    <path
       style="display:inline;fill:#ffffff;stroke-width:2.458"
       d="m 742.4634,313.42152 c -0.4064,0.1045 0.4426,-2.1129 2.9873,-2.0079 13.861,-0.2054 14.3595,-0.073 17.6241,-0.1995 0.9419,0.3146 0.513,1.7379 0.2301,1.9004 -11.2243,0.2572 -16.7699,-0.098 -20.8414,0.307 z"
       id="path14"
       sodipodi:nodetypes="cccccc" />
    <path
       style="display:inline;fill:#333333;stroke-width:3.42516"
       d="m 709.2815,357.25802 c 5.8858,16.0224 25.3306,16.5487 41.427,20.9018 16.7578,-9.4333 12.4833,-16.0962 11.4428,-23.7082 3.2944,-0.2945 15.7466,0.2673 19.3295,0.67 31.3875,48.9531 32.3568,92.7144 37.4811,120.7335 -5.6209,36.4674 -23.1227,130.3826 -16.4326,202.4281 36.0677,143.3606 61.4814,425.10768 64.1545,450.48588 2.8589,54.4687 11.4161,229.2955 11.5169,319.112 -10.7211,1.1028 -13.8781,4.0732 -40.0557,1.1714 -13.0202,-94.4958 -51.4619,-263.155 -52.2104,-311.6018 -10.6398,-84.3454 -31.1012,-266.41158 -28.4053,-341.29168 -23.265,213.30548 -73.4671,437.41728 -111.6398,655.44928 -12.3468,-0.8588 -21.2295,3.4669 -38.2721,-0.8861 2.0572,-328.8018 50.6037,-550.05808 79.3052,-780.79178 3.1885,-61.184 -16.3736,-150.1709 -25.4909,-190.3262 16.5136,-118.9181 18.0178,-100.6209 31.8929,-121.7631 2.6759,-0.2217 12.8174,-0.4389 15.9569,-0.5831 z"
       id="path6"
       inkscape:label="path6"
       sodipodi:nodetypes="ccccccccccccccccc" />
    <path
       style="display:inline;fill:#00c49f;fill-opacity:1;stroke-width:3.77953"
       d="m 694.4381,378.49702 c -9.4669,-10.5866 -88.0933,30.6948 -55.5946,-54.2545 -86.0261,96.036 40.9229,57.2801 54.7026,87.6806 -47.4046,-25.3152 -92.1612,10.6603 -96.6673,-35.9101 -31.2208,85.6527 44.2567,21.8176 76.1407,60.354 7.5287,5.4134 34.9961,30.2375 91.876,34.2132 7.4093,-53.3823 -21.2479,-78.1488 -70.4574,-92.0832 z"
       id="path46"
       sodipodi:nodetypes="ccccccc" />
    <path
       style="display:inline;fill:#000000;fill-opacity:0.1;stroke-width:6.51894"
       d="m 752.9996,270.59402 1.6155,11.2966 -1.0116,8.8923 2.2823,-8.6167 z"
       id="path32"
       sodipodi:nodetypes="ccccc" />
    <path
       id="path33"
       style="display:inline;fill:#e6e6e6;fill-opacity:1;stroke-width:3.77953"
       d="m 778.7984,352.27592 -34.7656,94.2676 -101.8711,38.5234 78.4063,-3.6093 -16.7403,162.4824 43.4571,-151.3828 99.6601,-60.4922 -75.5312,20.957 z"
       sodipodi:nodetypes="ccccccccc" />
    <path
       style="display:inline;fill:#e6e6e6;fill-opacity:1;stroke-width:3.77953"
       d="m 759.8581,392.00172 -46.4242,28.0839 -28.0483,47.5718 9.2911,-61.3527 z"
       id="path34"
       sodipodi:nodetypes="ccccc" />
    <path
       style="display:inline;fill:#00c49f;fill-opacity:1;stroke-width:3.77953"
       d="m 817.4471,480.39732 c -5.6084,63.8952 -16.7889,126.8618 -13.3448,192.2658 9.3677,59.5365 13.2708,40.9782 62.6096,373.97668 C 778.7582,902.57542 765.5286,769.72342 761.973,605.13772 c 17.4312,-42.2548 18.4241,-94.9703 55.4741,-124.7404 z"
       id="path57"
       sodipodi:nodetypes="ccccc" />
    <path
       style="display:inline;fill:#e6e6e6;fill-opacity:1;stroke-width:3.77953"
       d="m 761.0065,384.34572 -77.7085,9.1872 -12.2496,75.0288 -8.4216,-93.7861 z"
       id="path35" />
    <path
       style="display:inline;fill:#e6e6e6;fill-opacity:1;stroke-width:3.77953"
       d="m 753.4782,493.54602 c 26.4092,-10.7478 48.9644,-22.8142 65.0835,-34.2941 l -0.3405,20.7218 c -64.9878,83.1797 -52.1432,177.5179 -41.5124,274.2363 41.6794,227.8338 45.4847,456.76298 28.9456,686.65598 -182.2893,0 -198.8766,-12.0256 -262.1192,-69.1481 40.1999,-248.8847 92.5315,-495.83938 142.3452,-742.79978 -4.597,-50.2745 -14.0764,-97.9656 -22.6409,-141.0207 18.1479,-0.2944 36.4473,2.9109 52.5495,2.3684 l -17.9155,151.607 2.1375,18.0594 8.141,-13.2291 z"
       id="path40"
       sodipodi:nodetypes="ccccccccccccc" />
    <path
       style="display:inline;fill:#e6e6e6;fill-opacity:1;stroke-width:3.77953"
       d="m 672.4974,411.60982 34.487,12.7452 60.7273,56.229 -70.6662,-42.626 z"
       id="path47" />
    <path
       style="display:inline;fill:#e6e6e6;fill-opacity:1;stroke-width:3.77953"
       d="m 696.464,386.77732 16.8663,26.7535 55.7009,66.4494 -43.4873,-75.4642 z"
       id="path48"
       sodipodi:nodetypes="ccccc" />
    <path
       id="path55"
       style="display:inline;fill:#e6e6e6;fill-opacity:1;stroke-width:3.77953"
       d="m 554.5113,707.01812 -8.666,53.4414 -6.6328,-16.8027 -11.707,33.5234 -21.1869,156.3357 18.7676,6.0117 15.8392,-65.4763 2.6329,74.2976 2.7245,0.3434 3.1264,-11.402 5.8629,13.3501 4.4155,1.0546 11.142,-11.3347 -1.5742,13.2824 2.7976,1.0929 16.9407,-51.6452 -4.9375,55.5393 18.8671,5.9569 37.6329,-177.3204 -3.371,-27.4844 -13.5176,4.7754 5.7031,-46.4492 -50.8301,44.3613 z"
       sodipodi:nodetypes="cccccccccccccccccccccccc" />
    <path
       id="path55-2"
       style="display:inline;fill:#e6e6e6;fill-opacity:1;stroke-width:3.74773"
       d="m 934.4548,699.28922 8.5208,53.4414 6.5216,-16.8027 11.51088,33.5234 19.2496,150.9048 -18.3988,6.066 -14.81958,-63.9685 -2.5888,74.2976 -2.6789,0.3434 -3.074,-11.4021 -5.7646,13.3501 -4.3415,1.0546 -10.9553,-11.3346 1.5478,13.2824 -2.7507,1.0929 -16.6568,-51.6453 4.4977,54.9424 -19.613,6.1777 -34.8093,-173.0754 3.3146,-27.4844 13.291,4.7754 -5.6075,-46.4492 49.9782,44.3613 z"
       sodipodi:nodetypes="cccccccccccccccccccccccc" />
    <path
       id="path58"
       style="display:inline;fill:#e6e6e6;fill-opacity:1;stroke-width:3.77953"
       d="m 866.9114,1097.1765 -28.9919,100.0799 c 8.3242,74.7776 13.5406,145.0661 41.8633,248.7305 2e-4,0 -2e-4,0 0,-0.01 0.041,0.2363 0.074,0.4587 0.1152,0.6953 26.5112,-128.578 22.9875,-303.8676 13.2832,-323.7168 l -20.2441,40.2422 c 0.6095,-28.412 -1.3176,-54.1219 -6.0257,-66.0211 z"
       sodipodi:nodetypes="cccccccc" />
    <path
       style="display:inline;fill:#00c49f;fill-opacity:1;stroke-width:3.77953"
       d="m 510.1187,934.78142 29.6533,-141.2623 -19.3884,144.5055 z"
       id="path59"
       sodipodi:nodetypes="cccc" />
    <path
       style="display:inline;fill:#00c49f;fill-opacity:1;stroke-width:3.77953"
       d="m 588.4795,960.02882 33.1046,-142.2728 -22.8398,145.5159 z"
       id="path59-2"
       sodipodi:nodetypes="cccc" />
    <path
       style="display:inline;fill:#00c49f;fill-opacity:1;stroke-width:3.78141"
       d="m 977.09218,921.44982 -29.44108,-137.5275 19.16598,140.7706 z"
       id="path59-1"
       sodipodi:nodetypes="cccc" />
    <path
       style="display:inline;fill:#00c49f;fill-opacity:1;stroke-width:3.78141"
       d="m 899.3602,947.95512 -31.6967,-146.7684 21.3742,150.0225 z"
       id="path59-2-8"
       sodipodi:nodetypes="cccc" />
    <path
       style="display:inline;fill:#333333;fill-opacity:1;stroke-width:3.77953"
       d="m 576.5445,775.63672 37.182,-24.7769 -17.6268,105.754 -32.9645,45.1274 -15.3803,-55.0346 10.943,-103.83 z"
       id="path60"
       sodipodi:nodetypes="ccccccc" />
    <path
       style="display:inline;fill:#333333;fill-opacity:1;stroke-width:3.77953"
       d="m 873.5003,742.29732 38.2753,27.9091 16.7455,-38.2754 13.8427,117.5232 -12.2876,50.419 -35.9176,-40.4695 z"
       id="path61"
       sodipodi:nodetypes="ccccccc" />
    <path
       style="display:inline;fill:#00c49f;fill-opacity:1;stroke-width:3.78607"
       d="m 930.0523,899.60912 6.4701,-24.8985 c 0.094,-39.5427 -9.3165,-73.1896 -9.8685,-112.6005 20.8867,-54.0856 -26.0063,-60.9064 21.8273,-128.9541 -75.7426,59.2724 -11.8894,78.5722 -38.1397,141.8235 -39.1236,-90.1753 36.4876,-144.8011 -38.9566,-188.9765 47.0036,79.1777 -15.0831,89.0493 17.8865,182.2031 15.7607,41.2558 5.3332,72.8018 21.4231,110.281 z"
       id="path67-3"
       sodipodi:nodetypes="ccccccccc" />
    <path
       style="display:inline;fill:#00c49f;fill-opacity:1;stroke-width:3.77953"
       d="m 563.205,901.89152 -7.9594,-28.7943 c -0.094,-39.5427 9.7786,-73.7023 10.3287,-113.1132 -14.3215,-54.0856 29.7215,-106.3573 -21.5547,-152.8162 84.7156,42.3063 11.8037,99.1843 37.8107,165.6856 -31.1316,-72.0185 77.4652,-75.1441 13.0401,-218.3436 84.2752,93.3076 -15.1223,181.6623 7.3239,210.3035 -15.7062,41.2557 -5.5148,75.886 -21.5491,113.3652 z"
       id="path67"
       sodipodi:nodetypes="ccccccccc" />
    <path
       style="display:inline;fill:#e6e6e6;fill-opacity:1;stroke-width:3.77953"
       d="m 545.5692,776.60012 28.877,35.5806 47.4409,-26.8144 -50.5348,42.7999 z"
       id="path62" />
    <path
       style="display:inline;fill:#e6e6e6;fill-opacity:1;stroke-width:3.77953"
       d="m 542.9909,809.60242 24.2361,42.2842 45.8938,-30.424 -47.4408,49.5035 z"
       id="path63" />
    <path
       style="display:inline;fill:#e6e6e6;fill-opacity:1;stroke-width:3.98928"
       d="m 868.4997,789.76122 44.8174,18.751 27.3598,-37.7737 -23.283,53.78 z"
       id="path64"
       sodipodi:nodetypes="ccccc" />
    <path
       style="display:inline;fill:#e6e6e6;fill-opacity:1;stroke-width:3.77953"
       d="m 880.6514,829.44062 41.0253,19.0831 25.7416,-34.1009 -22.3458,52.4409 z"
       id="path65"
       sodipodi:nodetypes="ccccc" />
    <path
       style="display:inline;fill:#333333;fill-opacity:1;stroke-width:3.77953"
       d="m 769.9009,685.42552 33.7367,-14.5125 -0.5145,-23.6667 c 10.3013,26.7374 9.4161,45.5556 9.7753,73.5725 l -4.6304,-19.5507 -35.8536,13.9757 z"
       id="path66"
       sodipodi:nodetypes="ccccccc" />
    <path
       style="display:inline;fill:#333333;fill-opacity:1;stroke-width:3.77953"
       d="m 692.3539,675.54502 c -35.9257,242.1795 -79.9934,461.96848 -105.8688,731.78608 3.7393,2.4436 7.7237,5.0021 11.9366,7.3277 22.5629,-278.8656 67.3111,-495.61228 102.4514,-739.26128 l -3.3592,-5.4587 z"
       id="path68"
       sodipodi:nodetypes="cccccc" />
    <path
       style="display:inline;fill:#333333;fill-opacity:1;stroke-width:3.77953"
       d="m 506.193,933.39182 2.8144,4.3554 10.0103,3.2266 6.0551,-1.3802 z"
       id="path69"
       sodipodi:nodetypes="ccccc" />
    <path
       style="display:inline;fill:#333333;fill-opacity:1;stroke-width:3.77953"
       d="m 584.1091,958.63862 3.4092,4.3351 10.097,3.1524 5.2404,-1.5588 z"
       id="path70"
       sodipodi:nodetypes="ccccc" />
    <path
       style="display:inline;fill:#333333;fill-opacity:1;stroke-width:3.77953"
       d="m 884.5548,952.62712 4.8187,1.2348 11.0995,-3.1285 3.888,-4.3293 z"
       id="path71"
       sodipodi:nodetypes="ccccc" />
    <path
       style="display:inline;fill:#333333;fill-opacity:1;stroke-width:3.77953"
       d="m 961.81678,926.30002 5.9402,0.6999 9.8795,-3.2931 2.5582,-3.4088 z"
       id="path72"
       sodipodi:nodetypes="ccccc" />
  </g>
</svg>
