<?xml version="1.0" encoding="UTF-8" standalone="no"?>
<!-- Created with Inkscape (http://www.inkscape.org/) -->

<svg
   width="1240mm"
   height="700mm"
   viewBox="0 0 1240 700"
   version="1.1"
   id="svg1"
   inkscape:version="1.3.2 (091e20e, 2023-11-25)"
   sodipodi:docname="Banner1.svg"
   inkscape:export-filename="../../Utopia/Assets/Sprites/BattleBG1.png"
   inkscape:export-xdpi="96"
   inkscape:export-ydpi="96"
   xmlns:inkscape="http://www.inkscape.org/namespaces/inkscape"
   xmlns:sodipodi="http://sodipodi.sourceforge.net/DTD/sodipodi-0.dtd"
   xmlns="http://www.w3.org/2000/svg"
   xmlns:svg="http://www.w3.org/2000/svg">
  <sodipodi:namedview
     id="namedview1"
     pagecolor="#505050"
     bordercolor="#eeeeee"
     borderopacity="1"
     inkscape:showpageshadow="0"
     inkscape:pageopacity="0"
     inkscape:pagecheckerboard="0"
     inkscape:deskcolor="#505050"
     inkscape:document-units="mm"
     inkscape:zoom="0.14476453"
     inkscape:cx="2110.3235"
     inkscape:cy="1043.0732"
     inkscape:window-width="1512"
     inkscape:window-height="917"
     inkscape:window-x="0"
     inkscape:window-y="65"
     inkscape:window-maximized="0"
     inkscape:current-layer="layer1"
     showguides="true" />
  <defs
     id="defs1" />
  <g
     inkscape:label="Layer 1"
     inkscape:groupmode="layer"
     id="layer1">
    <path
       style="fill:#00d8ff;stroke-width:1.00085;fill-opacity:1"
       d="M -0.0418061,-0.00868811 1240.2766,-0.13824198 1240.1825,699.97036 -0.0565822,700.3086 Z"
       id="path2"
       sodipodi:nodetypes="ccccc" />
    <path
       style="fill:#00c400;stroke-width:1.00755;fill-opacity:1"
       d="M -0.2356227,507.49414 H 1239.516 l 0.6701,192.51937 -1240.21202667,0.19624 z"
       id="path1"
       sodipodi:nodetypes="ccccc" />
    <path
       id="path5"
       style="display:inline;fill:#00c49f;fill-opacity:1;stroke-width:1"
       d="m 159.69957,169.48372 c -1.56756,0.002 -3.37032,0.66228 -5.6565,1.82625 1.7964,-0.14402 3.53736,-0.0864 5.26738,0.0946 -1.11955,0.7185 -2.05825,1.64328 -2.281,2.73523 -1.98076,9.71003 -4.82193,32.68689 -4.82193,32.68689 9.95568,28.14507 -8.21381,116.61225 -2.52775,182.3883 1.57295,16.03377 6.1096,35.52519 10.69255,55.07065 3.54013,-20.21152 7.46903,-38.47917 12.53999,-51.03652 9.43224,-38.85795 -1.34328,-150.7645 -1.53232,-170.21618 0.18488,2.70203 2.41513,5.87444 3.51917,8.30078 -0.5058,-12.46678 1.52152,-7.35675 2.71404,-27.32029 l -7.83983,-30.55576 c -0.48957,-2.32253 -3.7912,-3.60883 -6.13709,-3.61063 -0.377,-2.6e-4 -0.91058,0.0999 -1.50068,0.27027 -0.76762,-0.43081 -1.56557,-0.63481 -2.43603,-0.63356 z"
       sodipodi:nodetypes="sccsccccccccscs"
       inkscape:transform-center-x="-1.494969"
       inkscape:transform-center-y="500.81463" />
    <path
       id="path1-7"
       style="display:inline;fill:#6c5353;stroke-width:0.90624"
       d="m 167.93136,179.42379 c -10.47374,0.46093 -13.45276,2.75258 -13.27011,17.97841 l 0.37951,8.15417 c 0.5886,1.67262 -0.12444,0.61883 0.84101,2.4649 1.45795,6.98012 1.91655,12.77567 1.76555,17.06343 -8.87535,0.093 -22.41955,2.94007 -24.33666,10.72199 -3.38516,13.74095 -9.28907,32.11024 -13.72878,82.54768 -2.79754,17.19029 -4.43607,40.78051 -5.80481,65.86073 l -1.86787,11.49944 c 1.58876,3.03665 4.40747,3.85046 7.12874,4.84037 2.31322,-1.47365 3.57255,-2.13155 4.25728,-6.48988 l -2.3243,-9.87386 c 5.47513,-23.74979 9.51907,-44.91349 11.43529,-62.23154 6.19311,-21.94754 10.084,-43.43293 12.56727,-64.63552 2.99051,13.13475 4.04123,9.96003 7.80939,48.3253 -6.89972,43.49101 -13.88246,87.84146 -16.99613,131.33247 l -5.08645,81.75662 c -0.14864,5.96103 -4.71768,7.93115 -2.89796,11.70881 l 13.5014,0.0151 c 1.10877,-4.10433 -2.34537,-7.02173 -2.13973,-11.32223 l 14.61718,-79.5164 c 6.76889,-34.33252 13.67312,-68.66522 16.74328,-102.99771 0.65654,31.69398 4.84578,65.51628 9.23301,99.45767 l 12.33732,79.14241 c 0.51475,4.98766 -3.64532,9.01467 -1.69993,15.29014 l 35.84513,-0.008 c 1.16795,-1.07163 1.83068,-1.96473 1.8306,-3.03634 -13.6378,-1.38855 -18.835,-4.08704 -26.39318,-14.45183 l -2.48645,-75.42553 c -2.79328,-43.23917 -9.59182,-87.54578 -17.68971,-132.30664 1.23764,-40.79216 3.43893,-34.63189 5.08038,-49.21407 3.16096,14.56731 4.1343,24.17913 14.38536,61.69567 1.53556,17.72877 7.0032,41.77377 11.95548,64.99121 l -1.16255,11.30387 c 1.20277,3.49452 3.1953,4.32402 5.45312,5.32615 2.945,-0.71652 5.36477,-2.09222 7.11854,-4.30374 l -3.68057,-11.70155 c -2.7725,-27.51732 -5.54494,-51.64827 -8.31743,-68.64668 -8.21786,-61.88304 -14.01509,-76.75778 -15.38369,-79.44893 -5.22096,-10.26627 -18.32083,-11.51894 -25.25091,-10.58056 -0.2933,-2.11809 -0.95896,-3.86235 -0.4398,-6.79615 3.30806,-2.86625 5.7936,-6.609 7.80003,-11.01285 0.34534,-4.1935 0.90661,-7.80925 0.79828,-13.21738 -0.85315,-6.32912 -2.07021,-14.20686 -11.92613,-14.25866 z"
       sodipodi:nodetypes="cccccsccccccccccccccccccccccccccccccccsccccc" />
    <path
       style="display:inline;fill:#ffffff;stroke-width:1.09618"
       d="m 165.65378,200.10679 c -1.34015,-1.77319 -2.1766,-2.05374 -4.18593,-2.37764 -1.87679,0.13067 -3.20797,0.0493 -4.86973,0.78571 0.84446,1.43215 0.11527,3.72395 3.80726,3.88887 2.31682,-0.0261 0.43462,0.0293 2.78453,-0.11672 0.94608,-0.59954 1.95197,-1.68295 2.46387,-2.18022 z"
       id="path8"
       sodipodi:nodetypes="cccccc" />
    <path
       style="display:inline;fill:#00c49f;fill-opacity:1;stroke-width:1.11982"
       d="m 164.34172,198.71382 c -1.28376,-1.16378 -4.40468,-1.07506 -6.07182,-0.67297 -0.13585,2.18265 1.14057,3.78694 2.9149,4.35993 0.41023,-0.0251 1.15747,-0.002 1.56584,-0.0743 1.28255,-0.26432 3.03867,-2.44985 1.59108,-3.61262 z"
       id="path9"
       sodipodi:nodetypes="ccccc" />
    <path
       style="display:inline;fill:#00c49f;fill-opacity:1;stroke-width:1.09618"
       d="m 156.43674,198.57061 c 3.30779,-0.87558 6.42099,-1.36388 9.16158,1.0203 -2.75627,-3.22671 -6.83057,-2.17329 -9.16158,-1.0203 z"
       id="path10"
       sodipodi:nodetypes="ccc" />
    <path
       style="display:inline;fill:#00c49f;fill-opacity:1;stroke-width:0.811123"
       d="m 172.26204,197.06408 c 2.60041,-1.14266 4.45997,-1.09115 6.70924,0.38693 -2.18555,-2.15333 -4.16801,-2.13588 -6.70924,-0.38693 z"
       id="path10-8-6"
       sodipodi:nodetypes="ccc" />
    <path
       style="display:inline;fill:#00c49f;fill-opacity:1;stroke-width:0.797319"
       d="m 164.531,197.0731 c -2.49965,-1.1805 -5.27058,-1.11664 -7.46071,0.3283 2.13623,-2.12101 5.02512,-2.11413 7.46071,-0.3283 z"
       id="path10-8-6-6"
       sodipodi:nodetypes="ccc" />
    <path
       style="display:inline;fill:#ffffff;stroke-width:1.04302"
       d="m 171.03562,200.12905 c 1.21332,-1.77319 1.83208,-2.15576 3.65125,-2.47965 1.69917,0.13067 2.90438,0.0493 4.40887,0.78571 -0.76455,1.43214 0.004,3.62884 -3.3388,3.79376 -2.09757,-0.0261 -0.39349,0.0293 -2.52102,-0.11672 -0.85654,-0.59954 -1.73684,-1.48583 -2.2003,-1.9831 z"
       id="path8-9"
       sodipodi:nodetypes="cccccc" />
    <path
       style="display:inline;fill:#00c49f;fill-opacity:1;stroke-width:1.03866"
       d="m 179.17322,198.45641 c -2.96979,-0.87559 -5.70568,-1.29853 -8.16624,1.08564 2.47463,-3.22671 6.07342,-2.23865 8.16624,-1.08564 z"
       id="path10-5"
       sodipodi:nodetypes="ccc" />
    <path
       style="display:inline;fill:#00c49f;fill-opacity:1;stroke-width:1.0947"
       d="m 172.87586,198.2282 c 2.44367,-1.02547 4.23109,-0.3236 5.82426,0.0785 0.12981,2.18265 -1.08997,3.37011 -2.78557,3.9431 -0.39202,-0.0251 -1.10611,-0.002 -1.49636,-0.0743 -1.22564,-0.26432 -2.92569,-2.7845 -1.54233,-3.94726 z"
       id="path9-5"
       sodipodi:nodetypes="ccccc" />
    <path
       style="display:inline;fill:#000000;fill-opacity:0.1;stroke-width:0.90624"
       d="m 156.25272,209.87637 c 1.83017,3.74583 6.99583,7.59849 11.44294,10.3114 1.65613,-0.68714 2.59179,-1.46328 3.55334,-2.30539 l -0.11248,1.3277 -3.6079,3.17068 c -3.24885,-3.03771 -8.60936,-5.92649 -10.81642,-9.80482 -0.13051,-0.89986 -0.30631,-1.79972 -0.45948,-2.69957 z"
       id="path15"
       sodipodi:nodetypes="ccccccc" />
    <path
       style="display:inline;fill:#000000;fill-opacity:0.1;stroke-width:0.90624"
       d="m 158.3119,199.19074 c 3.42015,-0.83072 4.47507,-0.34553 6.3839,-0.0302 -1.17255,-1.78982 -5.0962,-1.33838 -6.41761,-1.01046 -0.0201,0.0664 0.0543,0.95571 0.0337,1.04068 z"
       id="path2-3"
       sodipodi:nodetypes="cccc" />
    <path
       id="path7"
       style="display:inline;fill:#00c49f;fill-opacity:1;stroke-width:1"
       d="m 167.66187,173.91188 c -0.28881,-0.004 -0.58206,-0.003 -0.88005,0.004 -10.01562,0.22522 -14.88345,2.89982 -16.43,11.83701 -0.58227,9.18469 -2.30357,12.4582 0.50229,22.67303 1.19974,4.36766 2.43205,8.7636 4.4695,12.82867 0.78054,-4.34461 1.40505,-6.61132 1.09451,-9.88931 1.09943,1.50921 1.57358,1.41081 3.07537,2.47318 -2.65751,-3.46823 -3.63549,-6.56179 -3.97248,-8.06199 -0.32076,-3.51589 -0.15913,-8.79994 1.80661,-11.0169 l 3.94653,-4.13463 c -0.44939,1.53567 -0.8589,3.02671 -1.74511,4.3863 3.21543,-0.88411 3.5004,-1.42477 6.02547,-4.02353 -0.44799,1.58369 -0.86633,3.14349 -1.68569,4.58938 2.32742,-0.90121 3.53028,-1.54927 5.14801,-3.62923 -0.32914,2.24678 -0.84993,4.15971 -2.12752,6.12004 5.23112,-2.43962 6.40521,-1.46039 7.136,-6.57428 1.59941,0.80771 2.1149,2.60477 3.00757,4.19303 0.40944,-0.91903 0.41109,-1.71775 0.34468,-2.68458 l 0.91881,1.33686 0.79323,2.29702 0.4098,2.04897 c 0.1565,3.86682 -0.0884,7.4459 -2.10685,11.51093 -1.82346,3.6723 -1.90104,7.89952 -1.81333,12.05043 0,-0.44543 2.5333,-5.0608 3.53984,-6.80269 1.29698,-1.96215 2.34408,-5.49574 2.79207,-8.46046 0.40242,4.31621 1.46208,7.10318 3.22668,8.43514 -4.17041,-23.50884 0.0275,-27.87183 -4.35374,-35.17771 l -0.0434,-0.0956 -0.005,0.0165 c -1.93675,-3.08031 -6.20623,-6.15296 -13.07362,-6.24924 z"
       sodipodi:nodetypes="sccscccccccccccccccccscccccccss" />
    <path
       style="display:inline;fill:#000000;fill-opacity:0.1;stroke-width:0.896332"
       d="m 172.37549,199.19026 c 2.71134,-1.07718 4.39287,-0.39909 6.32637,-0.0115 -0.0164,-0.17246 0.0258,-0.74403 -0.005,-0.86786 -1.85605,-0.634 -6.2696,-1.21047 -6.32141,0.94601 z"
       id="path2-2"
       sodipodi:nodetypes="ccccc" />
    <path
       style="display:inline;fill:#ffffff;fill-opacity:0.5;stroke-width:0.90624"
       d="m 172.90686,200.90886 c 1.81249,1.10123 3.40112,0.85397 4.91623,0.16372 -0.39801,0.4534 -0.96876,0.86055 -1.9245,1.16463 l -1.16294,-0.025 c -0.93672,-0.0163 -1.58076,-0.82101 -1.82879,-1.30332 z"
       id="path36"
       sodipodi:nodetypes="ccccc" />
    <path
       style="display:inline;fill:#ffffff;fill-opacity:0.5;stroke-width:0.90624"
       d="m 159.30249,201.14477 c 1.81249,1.10123 3.50758,0.78594 5.02268,0.0957 -0.39801,0.4534 -0.7752,0.88 -1.65351,1.10634 l -1.46295,0.043 c -1.03351,-0.31754 -1.58076,-0.82101 -1.90622,-1.24501 z"
       id="path36-0"
       sodipodi:nodetypes="ccccc" />
    <path
       style="display:inline;fill:#000000;fill-opacity:0.1;stroke-width:1"
       d="m 160.03152,174.62829 c -12.6884,16.92711 -9.53208,23.84795 -4.83871,46.32246 -5.37618,-13.12386 -7.07527,-21.87954 -5.18864,-30.76049 0.35508,-7.41698 1.94903,-13.80472 10.02735,-15.56197 z"
       id="path24"
       sodipodi:nodetypes="cccc"
       inkscape:label="path24" />
    <path
       style="display:inline;fill:#ffffff;fill-opacity:0.5;stroke-width:0.732785"
       d="m 153.50321,185.08249 c 0.83657,1.93123 1.78852,3.09263 3.0349,-0.46903 0.35664,3.56371 1.04837,0.78504 2.05315,0.45683 1.62942,2.85277 2.06152,0.50507 2.79413,-0.0111 -0.0564,3.46715 1.89625,1.0156 3.00381,-0.6135 0.78067,0.87333 0.94893,4.49098 2.55459,0.64094 0.87864,2.77098 1.97703,1.77645 2.85568,-0.16317 1.02238,3.53417 3.32681,1.10589 3.27708,-0.31537 0.64161,2.24535 1.13956,2.7697 2.29626,0.13342 0.0115,3.68504 2.48703,1.14933 3.44879,-0.0228 0.74087,1.82152 1.05132,1.38295 1.79219,0.55306 0.5678,0.954 1.38422,0.59949 1.95202,0.15513 0.33812,1.67405 0.31079,2.77396 0.36694,3.85066 -0.69081,-2.22226 -1.63022,-4.18502 -2.32103,-0.20064 -0.56878,-4.98806 -1.88784,-0.66507 -2.57303,-0.0983 0.14223,-1.31376 -0.0218,-3.76483 -1.92933,-0.54252 -0.83725,-3.52682 -1.86441,-0.26301 -2.70167,0.99509 -0.40991,-3.88597 -2.08305,-1.60717 -3.2563,-0.58895 -0.26977,-1.9344 -0.43955,-2.77888 -1.95719,0.24254 -0.41447,-1.4981 -2.1091,-2.07931 -3.51858,-0.42664 0.0104,-2.9566 -0.94141,-2.86836 -2.74227,-0.0922 -1.77067,-2.14706 -1.88,-1.25583 -2.35895,0.41778 -0.25429,-3.29843 -2.40736,-1.59352 -3.79567,0.5021 -0.0176,-1.92165 -1.5226,-1.99867 -3.6119,-0.91018 0.42078,-1.19524 0.76383,-2.48764 1.33638,-3.49316 z"
       id="path43"
       sodipodi:nodetypes="ccccccccccccccccccccccccc" />
    <path
       style="display:inline;fill:#333333;stroke-width:0.90624"
       d="m 157.62907,224.99808 c 1.55728,4.23926 6.70205,4.3785 10.96089,5.53026 4.43384,-2.49588 3.30288,-4.25878 3.02758,-6.27278 0.87164,-0.0779 4.16629,0.0707 5.11426,0.17725 8.30461,12.95219 8.56107,24.53069 9.91688,31.9441 -1.4872,9.64864 -6.11789,34.49705 -4.3478,53.55908 9.54292,37.93083 16.26696,112.47641 16.97421,119.19106 0.75642,14.41151 3.02051,60.66777 3.04718,84.43173 -2.83662,0.29178 -3.67191,1.0777 -10.59807,0.30993 -3.44492,-25.00202 -13.61596,-69.62644 -13.814,-82.44464 -2.81511,-22.31639 -8.22886,-70.48807 -7.51557,-90.3001 -6.15553,56.43708 -19.43817,115.73333 -29.53803,173.42096 -3.26675,-0.22722 -5.61697,0.91728 -10.12616,-0.23445 0.5443,-86.99547 13.3889,-145.5362 20.98284,-206.58448 0.84362,-16.18829 -4.33218,-39.73271 -6.74447,-50.35714 4.36922,-31.46375 4.76721,-26.62263 8.43833,-32.21649 0.708,-0.0587 3.39127,-0.11614 4.22193,-0.15429 z"
       id="path6"
       inkscape:label="path6"
       sodipodi:nodetypes="ccccccccccccccccc" />
    <path
       style="display:inline;fill:#00c49f;fill-opacity:1;stroke-width:1"
       d="m 153.70175,230.61755 c -2.50479,-2.80102 -23.30802,8.12134 -14.70939,-14.35484 -22.76109,25.40954 10.8275,15.15536 14.47339,23.19884 -12.54248,-6.69799 -24.38434,2.82055 -25.57657,-9.50122 -8.2605,22.66228 11.7096,5.77259 20.14557,15.96866 1.99198,1.4323 9.25939,8.00035 24.30885,9.05225 1.96038,-14.12408 -5.62184,-20.67687 -18.64185,-24.36369 z"
       id="path46"
       sodipodi:nodetypes="ccccccc" />
    <path
       style="display:inline;fill:#000000;fill-opacity:0.1;stroke-width:1.7248"
       d="m 169.19615,202.06822 0.42744,2.98891 -0.26766,2.35273 0.60386,-2.27982 z"
       id="path32"
       sodipodi:nodetypes="ccccc" />
    <path
       id="path33"
       style="display:inline;fill:#e6e6e6;fill-opacity:1;stroke-width:1"
       d="m 176.02209,223.67991 -9.19841,24.94162 -26.95339,10.19266 20.74499,-0.95498 -4.42919,42.99014 11.49801,-40.05336 26.36841,-16.00523 -19.98431,5.54488 z"
       sodipodi:nodetypes="ccccccccc" />
    <path
       style="display:inline;fill:#e6e6e6;fill-opacity:1;stroke-width:1"
       d="m 171.01079,234.19066 -12.28307,7.43054 -7.4211,12.58671 2.45825,-16.23289 z"
       id="path34"
       sodipodi:nodetypes="ccccc" />
    <path
       style="display:inline;fill:#00c49f;fill-opacity:1;stroke-width:1"
       d="m 186.24787,257.57868 c -1.48388,16.90562 -4.44205,33.56552 -3.53079,50.87032 2.47853,15.75236 3.51123,10.84215 16.56544,98.94801 -23.27107,-38.11704 -26.7714,-73.26745 -27.71217,-116.8141 4.61202,-11.1799 4.87472,-25.12755 14.67752,-33.00423 z"
       id="path57"
       sodipodi:nodetypes="ccccc" />
    <path
       style="display:inline;fill:#e6e6e6;fill-opacity:1;stroke-width:1"
       d="m 171.31464,232.16501 -20.56036,2.43079 -3.24104,19.85138 -2.22822,-24.81423 z"
       id="path35" />
    <path
       style="display:inline;fill:#e6e6e6;fill-opacity:1;stroke-width:1"
       d="m 169.32278,261.05759 c 6.98744,-2.84368 12.95516,-6.03625 17.22001,-9.07363 l -0.0901,5.48265 c -17.19468,22.00796 -13.79621,46.96829 -10.9835,72.55836 11.02768,60.28102 12.03451,120.85186 7.65855,181.67772 -48.23071,0 -52.61944,-3.18178 -69.35238,-18.29543 10.63623,-65.85074 24.48228,-131.19084 37.66216,-196.53247 -1.21627,-13.30176 -3.72438,-25.92005 -5.9904,-37.31171 4.80163,-0.0779 9.64336,0.7702 13.90373,0.62666 l -4.74015,40.11267 0.56555,4.77823 2.15398,-3.5002 z"
       id="path40"
       sodipodi:nodetypes="ccccccccccccc" />
    <path
       style="display:inline;fill:#e6e6e6;fill-opacity:1;stroke-width:1"
       d="m 147.8966,239.37866 9.1247,3.37217 16.06741,14.87723 -18.69707,-11.27812 z"
       id="path47" />
    <path
       style="display:inline;fill:#e6e6e6;fill-opacity:1;stroke-width:1"
       d="m 154.23776,232.80838 4.46255,7.07854 14.73754,17.58141 -11.50603,-19.96657 z"
       id="path48"
       sodipodi:nodetypes="ccccc" />
    <path
       id="path55"
       style="display:inline;fill:#e6e6e6;fill-opacity:1;stroke-width:1"
       d="m 116.67946,317.53877 -2.29289,14.1397 -1.75493,-4.44572 -3.09748,8.86974 -5.96164,42.28931 4.96559,1.5906 4.54673,-18.24943 0.69663,19.6579 0.72087,0.0909 0.82718,-3.0168 1.55122,3.53221 1.16827,0.27904 2.948,-2.99896 -0.41651,3.5143 0.74018,0.28917 4.48225,-13.66448 -1.30638,14.69478 4.99191,1.57609 9.95705,-46.91603 -0.89194,-7.2719 -3.57652,1.26348 1.50895,-12.28968 -13.44879,11.73726 z"
       sodipodi:nodetypes="cccccccccccccccccccccccc" />
    <path
       id="path55-2"
       style="display:inline;fill:#e6e6e6;fill-opacity:1;stroke-width:0.991587"
       d="m 217.20616,315.49383 2.25446,14.13971 1.72551,-4.44573 3.04559,8.86975 5.19918,40.51008 -4.86803,1.60496 -4.02706,-17.5082 -0.68495,19.6579 -0.70879,0.0909 -0.81333,-3.0168 -1.52522,3.53221 -1.14869,0.27904 -2.89859,-2.99896 0.40953,3.5143 -0.72779,0.28917 -4.40711,-13.66448 1.19003,14.53682 -5.18928,1.63453 -9.20998,-45.79287 0.87699,-7.27191 3.51658,1.26349 -1.48366,-12.28969 13.2234,11.73727 z"
       sodipodi:nodetypes="cccccccccccccccccccccccc" />
    <path
       id="path58"
       style="display:inline;fill:#e6e6e6;fill-opacity:1;stroke-width:1"
       d="m 199.33532,420.76817 -7.67078,26.47948 c 2.20244,19.78491 3.58261,38.38207 11.07633,65.80995 6e-5,0 -6e-5,0 0,-0.003 0.0108,0.0625 0.0197,0.12136 0.0305,0.18396 7.0144,-34.0196 6.08209,-80.39831 3.51451,-85.65008 l -5.35626,10.64742 c 0.16126,-7.51734 -0.34861,-14.31976 -1.59429,-17.46809 z"
       sodipodi:nodetypes="cccccccc" />
    <path
       style="display:inline;fill:#00c49f;fill-opacity:1;stroke-width:1"
       d="m 104.57795,378.72665 8.20172,-38.30116 -5.48581,39.15925 z"
       id="path59"
       sodipodi:nodetypes="cccc" />
    <path
       style="display:inline;fill:#00c49f;fill-opacity:1;stroke-width:1"
       d="m 125.66687,384.48117 8.75893,-37.64301 -6.04302,38.5011 z"
       id="path59-2"
       sodipodi:nodetypes="cccc" />
    <path
       style="display:inline;fill:#00c49f;fill-opacity:1;stroke-width:1.0005"
       d="m 228.59334,374.85701 -7.89565,-36.97068 5.17704,37.82876 z"
       id="path59-1"
       sodipodi:nodetypes="cccc" />
    <path
       style="display:inline;fill:#00c49f;fill-opacity:1;stroke-width:1.0005"
       d="m 207.92072,381.28667 -8.38641,-38.83245 5.65525,39.69346 z"
       id="path59-2-8"
       sodipodi:nodetypes="cccc" />
    <path
       style="display:inline;fill:#333333;fill-opacity:1;stroke-width:1"
       d="m 122.50908,335.69411 9.83772,-6.55556 -4.66376,27.98075 -8.72185,11.93995 -4.06936,-14.56123 2.89534,-27.47171 z"
       id="path60"
       sodipodi:nodetypes="ccccccc" />
    <path
       style="display:inline;fill:#333333;fill-opacity:1;stroke-width:1"
       d="m 201.07861,326.87306 10.12703,7.38427 4.43057,-10.12702 3.66254,31.09468 -3.25109,13.34003 -9.5032,-10.70756 z"
       id="path61"
       sodipodi:nodetypes="ccccccc" />
    <path
       style="display:inline;fill:#00c49f;fill-opacity:1;stroke-width:1.00173"
       d="m 216.04134,368.49513 1.71187,-6.58771 c 0.0249,-10.46234 -2.46498,-19.36476 -2.61103,-29.79222 5.52628,-14.31016 -6.88084,-16.11481 5.77513,-34.11911 -20.04021,15.68248 -3.14573,20.78891 -10.09111,37.52413 -10.35146,-23.85887 9.65399,-38.31194 -10.30727,-50.00002 12.43637,20.9491 -3.99074,23.56095 4.73247,48.2079 4.17,10.9156 1.41106,19.26213 5.66818,29.1785 z"
       id="path67-3"
       sodipodi:nodetypes="ccccccccc" />
    <path
       style="display:inline;fill:#00c49f;fill-opacity:1;stroke-width:1"
       d="m 118.97965,369.09902 -2.10592,-7.6185 c -0.0248,-10.46233 2.58726,-19.50038 2.7328,-29.92786 -3.78923,-14.31015 7.86381,-28.14036 -5.70301,-40.43261 22.41435,11.19354 3.12306,26.24251 10.00409,43.83763 -8.2369,-19.05488 20.49599,-19.88187 3.45018,-57.77008 22.29781,24.68764 -4.0011,48.06483 1.93779,55.6428 -4.15561,10.91559 -1.45911,20.07819 -5.70153,29.99456 z"
       id="path67"
       sodipodi:nodetypes="ccccccccc" />
    <path
       style="display:inline;fill:#e6e6e6;fill-opacity:1;stroke-width:1"
       d="m 114.31352,335.94899 7.64038,9.41404 12.55206,-7.09464 -13.37067,11.32414 z"
       id="path62" />
    <path
       style="display:inline;fill:#e6e6e6;fill-opacity:1;stroke-width:1"
       d="m 113.63135,344.68085 6.41246,11.18771 12.14275,-8.04969 -12.55206,13.09779 z"
       id="path63" />
    <path
       style="display:inline;fill:#e6e6e6;fill-opacity:1;stroke-width:1.0555"
       d="m 199.75555,339.43121 11.85794,4.96121 7.23895,-9.9943 -6.16029,14.22929 z"
       id="path64"
       sodipodi:nodetypes="ccccc" />
    <path
       style="display:inline;fill:#e6e6e6;fill-opacity:1;stroke-width:1"
       d="m 202.97068,349.92973 10.85463,5.04906 6.8108,-9.02252 -5.91235,13.87498 z"
       id="path65"
       sodipodi:nodetypes="ccccc" />
    <path
       style="display:inline;fill:#333333;fill-opacity:1;stroke-width:1"
       d="m 173.66794,311.82571 8.92617,-3.83974 -0.13613,-6.26182 c 2.72556,7.07426 2.49137,12.05327 2.5864,19.46605 l -1.22513,-5.1728 -9.48628,3.69775 z"
       id="path66"
       sodipodi:nodetypes="ccccccc" />
    <path
       style="display:inline;fill:#333333;fill-opacity:1;stroke-width:1"
       d="m 153.1503,309.21152 c -9.50533,64.07666 -21.16491,122.22915 -28.01111,193.61839 0.98934,0.64654 2.04356,1.32348 3.15821,1.93879 5.96978,-73.78318 17.80941,-131.13076 27.10695,-195.59621 l -0.88879,-1.44428 z"
       id="path68"
       sodipodi:nodetypes="cccccc" />
    <path
       style="display:inline;fill:#333333;fill-opacity:1;stroke-width:1"
       d="m 103.53928,378.35899 0.74465,1.15237 2.64854,0.85371 1.60208,-0.36519 z"
       id="path69"
       sodipodi:nodetypes="ccccc" />
    <path
       style="display:inline;fill:#333333;fill-opacity:1;stroke-width:1"
       d="m 124.51054,384.11334 0.90202,1.147 2.67149,0.83408 1.38654,-0.41242 z"
       id="path70"
       sodipodi:nodetypes="ccccc" />
    <path
       style="display:inline;fill:#333333;fill-opacity:1;stroke-width:1"
       d="m 204.00345,382.5228 1.27496,0.32673 2.93674,-0.82775 1.02869,-1.14546 z"
       id="path71"
       sodipodi:nodetypes="ccccc" />
    <path
       style="display:inline;fill:#333333;fill-opacity:1;stroke-width:1"
       d="m 224.55172,376.1403 1.30635,0.25153 2.87928,-0.93765 0.67688,-0.90193 z"
       id="path72"
       sodipodi:nodetypes="ccccc" />
    <path
       style="display:inline;fill:#e6e6e6;fill-opacity:1;stroke-width:1"
       d="m 153.61648,225.23964 c 1.1293,-2.74143 2.36369,-5.27267 3.80954,-7.38099 5.68821,4.37435 7.78098,6.80064 11.13358,12.68814 -6.27173,-0.75835 -10.96727,-0.55822 -14.94312,-5.30715 z"
       id="path3"
       sodipodi:nodetypes="cccc" />
    <path
       style="display:inline;fill:#e6e6e6;fill-opacity:1;stroke-width:1"
       d="m 168.53767,230.56295 c 1.18617,-4.96166 2.48277,-7.34411 2.50779,-8.65646 0.0266,-2.52246 0.0191,-3.12544 0.21888,-4.01425 2.22878,2.53999 3.48067,4.64818 4.2292,6.44805 -2.27902,4.94346 -2.1089,4.11527 -6.95588,6.22266 z"
       id="path4"
       sodipodi:nodetypes="cccccc" />
    <path
       style="display:inline;fill:#ffffff;fill-opacity:1;stroke-width:1"
       d="m 169.06034,213.34281 c 0.96685,0.0711 1.83547,-0.10564 2.57211,0.21019 -1.12576,0.32073 -1.56014,0.32863 -2.77315,0.32431 -1.28924,-0.0726 -2.19531,-0.16552 -3.34086,-0.84998 z"
       id="path11-3"
       sodipodi:nodetypes="ccccc" />
    <path
       style="display:inline;fill:#007100;fill-opacity:1;stroke-width:0.90624"
       d="m 599.87404,208.38184 c 0.88863,3.48483 2.56984,16.68116 5.06806,21.55119 l 0.68947,-13.50968 c 0.0184,4.04752 0.85896,9.8552 2.26162,13.90272 l 1.3984,-12.94411 c 0.73566,3.86533 1.95252,9.57731 3.37555,13.90272 0.64161,-3.52004 0.89337,-8.76231 1.08014,-11.82571 0.23317,3.10748 0.95508,8.00947 2.10249,11.34639 0.9477,-3.24863 2.20921,-9.5636 2.25134,-12.81226 l 2.36475,13.98743 c 5.56085,-19.24529 5.24232,-21.51655 6.17107,-25.94221 l -12.094,-18.53329 c -4.85486,9.04465 -9.95591,8.99419 -14.66889,20.87681 z"
       id="path5-2"
       inkscape:label="path5"
       sodipodi:nodetypes="ccccccccccccc" />
    <path
       id="path1-3"
       style="display:inline;fill:#ffe6d5;stroke-width:0.90624"
       d="m 615.23279,177.92873 c -10.47374,0.46093 -13.45276,2.75256 -13.27011,17.97841 l 0.37951,8.15416 c 0.5886,1.67262 -0.12444,0.61881 0.84101,2.46489 1.45795,6.98013 1.91655,12.77567 1.76555,17.06345 -8.87535,0.093 -22.41955,2.94005 -24.33666,10.72198 -3.38516,13.74095 -9.28907,32.11023 -13.72878,82.54767 -2.79754,17.1903 -4.43607,40.78052 -5.80481,65.86074 l -1.86787,11.49943 c 1.58876,3.03665 4.40747,3.85045 7.12874,4.84037 2.31322,-1.47365 3.57255,-2.13157 4.25728,-6.48986 l -2.3243,-9.87388 c 5.47513,-23.7498 9.51907,-44.91347 11.43529,-62.23154 6.19311,-21.94755 10.084,-43.43291 12.56727,-64.63553 2.99051,13.13476 4.04123,9.96002 7.80939,48.32532 -6.89972,43.49099 -13.88246,87.84146 -16.99613,131.33245 l -5.08645,81.75662 c -0.14864,5.96103 -4.71768,7.93115 -2.89796,11.70881 l 13.5014,0.0151 c 1.10877,-4.10432 -2.34537,-7.02172 -2.13973,-11.32223 l 14.61718,-79.51639 c 6.76889,-34.33252 13.67312,-68.6652 16.74328,-102.99772 0.65654,31.69399 4.84578,65.51629 9.23301,99.45767 l 12.33732,79.14241 c 0.51475,4.98766 -3.64532,9.01467 -1.69993,15.29013 l 35.84513,-0.008 c 1.16795,-1.07162 1.83068,-1.96472 1.8306,-3.03633 -13.6378,-1.38856 -18.835,-4.08705 -26.39318,-14.45184 l -2.48645,-75.42553 c -2.79328,-43.23916 -9.59182,-87.54576 -17.68971,-132.30662 1.23764,-40.79216 3.43893,-34.63189 5.08038,-49.21406 3.16096,14.5673 4.1343,24.17913 14.38536,61.69565 1.53556,17.72877 7.0032,41.77379 11.95548,64.99122 l -1.16255,11.30387 c 1.20277,3.49451 3.1953,4.324 5.45312,5.32614 2.945,-0.71652 5.36477,-2.09222 7.11854,-4.30374 l -3.68057,-11.70154 c -2.7725,-27.51733 -5.54494,-51.64828 -8.31743,-68.64667 -8.21786,-61.88306 -14.01509,-76.7578 -15.38369,-79.44895 -5.22096,-10.26626 -18.32083,-11.51893 -25.25091,-10.58053 -0.2933,-2.11813 -0.95896,-3.86236 -0.4398,-6.79617 3.30806,-2.86626 5.7936,-6.609 7.80003,-11.01286 0.34534,-4.19349 0.90661,-7.80925 0.79828,-13.21736 -0.85315,-6.32913 -2.07021,-14.20689 -11.92613,-14.25866 z"
       sodipodi:nodetypes="cccccsccccccccccccccccccccccccccccccccsccccc" />
    <path
       style="display:inline;fill:#333333;stroke-width:0.90624"
       d="m 604.97289,223.58881 c 1.55729,4.23923 6.70208,4.46327 10.96092,5.61503 4.43382,-2.49587 3.30286,-4.25876 3.02755,-6.27277 0.87167,-0.0779 4.14573,0.009 5.11427,0.0538 8.3046,12.9522 8.56107,24.6541 9.91688,32.06751 -2.76624,17.65197 -5.85614,35.58541 -4.32233,53.50816 9.54291,37.9308 16.2415,112.52733 16.94876,119.24198 0.75641,14.41151 3.02051,60.66776 3.04717,84.43171 -2.83662,0.29178 -3.67192,1.0777 -10.59807,0.30993 -3.44492,-25.00201 -13.61596,-69.62642 -13.814,-82.44464 -2.81513,-22.31638 -8.22885,-70.48804 -7.51556,-90.30007 -6.15555,56.43706 -19.43817,115.7333 -29.53804,173.42094 -3.26675,-0.22723 -5.61698,0.91728 -10.12616,-0.23445 0.5443,-86.99548 13.38889,-145.53618 20.98282,-206.58447 0.84364,-16.18829 -4.56997,-40.05701 -6.98227,-50.68143 4.36923,-31.46375 5.00502,-26.41705 8.67614,-32.0109 0.70801,-0.0587 3.39128,-0.0822 4.22192,-0.12036 z"
       id="path6-9"
       inkscape:label="path6"
       sodipodi:nodetypes="ccccccccccccccccc" />
    <path
       style="display:inline;fill:#ffffff;stroke-width:1.09618"
       d="m 612.95521,198.61173 c -1.34015,-1.77321 -2.1766,-2.05375 -4.18593,-2.37765 -1.87679,0.13068 -3.20797,0.0493 -4.86973,0.78571 0.84446,1.43216 0.11527,3.72396 3.80726,3.88887 2.31682,-0.0262 0.43462,0.0293 2.78453,-0.11673 0.94608,-0.59952 1.95197,-1.68294 2.46387,-2.1802 z"
       id="path8-97"
       sodipodi:nodetypes="cccccc" />
    <path
       style="display:inline;fill:#007100;fill-opacity:1;stroke-width:1.11982"
       d="m 611.64315,197.21876 c -1.28376,-1.1638 -4.40468,-1.07506 -6.07182,-0.67297 -0.13585,2.18265 1.14057,3.78693 2.9149,4.35993 0.41023,-0.0251 1.15747,-0.003 1.56584,-0.0743 1.28255,-0.26432 3.03867,-2.44986 1.59108,-3.61262 z"
       id="path9-0"
       sodipodi:nodetypes="ccccc" />
    <path
       style="display:inline;fill:#007100;fill-opacity:1;stroke-width:1.09618"
       d="m 603.73817,197.07554 c 3.30779,-0.87559 6.42099,-1.36388 9.16158,1.02031 -2.75627,-3.22673 -6.83057,-2.17331 -9.16158,-1.02031 z"
       id="path10-3"
       sodipodi:nodetypes="ccc" />
    <path
       style="display:inline;fill:#007100;fill-opacity:1;stroke-width:0.811123"
       d="m 619.56347,195.569 c 2.60041,-1.14266 4.45997,-1.09114 6.70924,0.38693 -2.18555,-2.15332 -4.16801,-2.13588 -6.70924,-0.38693 z"
       id="path10-8-6-9"
       sodipodi:nodetypes="ccc" />
    <path
       style="display:inline;fill:#007100;fill-opacity:1;stroke-width:0.797319"
       d="m 611.83243,195.57802 c -2.49965,-1.18049 -5.27058,-1.11662 -7.46071,0.3283 2.13623,-2.12101 5.02512,-2.11413 7.46071,-0.3283 z"
       id="path10-8-6-6-8"
       sodipodi:nodetypes="ccc" />
    <path
       style="display:inline;fill:#ffffff;stroke-width:1.04302"
       d="m 618.33705,198.63399 c 1.21332,-1.77322 1.83208,-2.15578 3.65125,-2.47968 1.69917,0.13068 2.90438,0.0493 4.40887,0.78573 -0.76455,1.43214 0.004,3.62882 -3.3388,3.79376 -2.09757,-0.0262 -0.39349,0.0293 -2.52102,-0.11674 -0.85654,-0.59952 -1.73684,-1.48582 -2.2003,-1.98307 z"
       id="path8-9-6"
       sodipodi:nodetypes="cccccc" />
    <path
       style="display:inline;fill:#007100;fill-opacity:1;stroke-width:1.03866"
       d="m 626.47465,196.96132 c -2.96979,-0.87556 -5.70568,-1.29853 -8.16624,1.08566 2.47463,-3.2267 6.07342,-2.23864 8.16624,-1.08566 z"
       id="path10-5-5"
       sodipodi:nodetypes="ccc" />
    <path
       style="display:inline;fill:#007100;fill-opacity:1;stroke-width:1.0947"
       d="m 620.17729,196.73314 c 2.44367,-1.02547 4.23109,-0.32361 5.82426,0.0785 0.12981,2.18266 -1.08997,3.37013 -2.78557,3.94312 -0.39202,-0.0251 -1.10611,-0.003 -1.49636,-0.0744 -1.22564,-0.26432 -2.92569,-2.7845 -1.54233,-3.94724 z"
       id="path9-5-7"
       sodipodi:nodetypes="ccccc" />
    <path
       style="display:inline;fill:#000000;fill-opacity:0.1;stroke-width:0.90624"
       d="m 603.55415,208.38129 c 1.83017,3.74584 6.99583,7.59849 11.44294,10.31139 1.65613,-0.68712 2.59179,-1.46328 3.55334,-2.30537 l -0.11248,1.32768 -3.6079,3.17069 c -3.24885,-3.03771 -8.60936,-5.92648 -10.81642,-9.80482 -0.13051,-0.89985 -0.30631,-1.7997 -0.45948,-2.69957 z"
       id="path15-6"
       sodipodi:nodetypes="ccccccc" />
    <path
       style="display:inline;fill:#000000;fill-opacity:0.1;stroke-width:0.90624"
       d="m 605.61333,197.69567 c 3.42015,-0.83074 4.47507,-0.34552 6.3839,-0.0302 -1.17255,-1.78982 -5.0962,-1.33836 -6.41761,-1.01044 -0.0201,0.0664 0.0543,0.9557 0.0337,1.04069 z"
       id="path2-27"
       sodipodi:nodetypes="cccc" />
    <path
       style="display:inline;fill:#000000;fill-opacity:0.1;stroke-width:0.896332"
       d="m 619.67692,197.69519 c 2.71134,-1.0772 4.39287,-0.3991 6.32637,-0.0114 -0.0164,-0.17248 0.0258,-0.74403 -0.005,-0.86788 -1.85605,-0.63397 -6.2696,-1.21045 -6.32141,0.94601 z"
       id="path2-2-0"
       sodipodi:nodetypes="ccccc" />
    <path
       style="display:inline;fill:#ffffff;fill-opacity:0.5;stroke-width:0.90624"
       d="m 620.20829,199.41379 c 1.81249,1.10122 3.40112,0.85397 4.91623,0.16373 -0.39801,0.45339 -0.96876,0.86053 -1.9245,1.16461 l -1.16294,-0.0251 c -0.93672,-0.0164 -1.58076,-0.82101 -1.82879,-1.30331 z"
       id="path36-3"
       sodipodi:nodetypes="ccccc" />
    <path
       style="display:inline;fill:#ffffff;fill-opacity:0.5;stroke-width:0.90624"
       d="m 606.60392,199.64969 c 1.81249,1.10123 3.50758,0.78595 5.02268,0.0957 -0.39801,0.45339 -0.7752,0.87998 -1.65351,1.10633 l -1.46295,0.043 c -1.03351,-0.31756 -1.58076,-0.82103 -1.90622,-1.24503 z"
       id="path36-0-9"
       sodipodi:nodetypes="ccccc" />
    <path
       style="display:inline;fill:#ffffff;stroke-width:0.650346"
       d="m 613.15601,212.19385 c -0.10753,0.0277 0.1171,-0.55901 0.79039,-0.53123 3.66739,-0.0543 3.79929,-0.0193 4.66304,-0.0528 0.24921,0.0832 0.13573,0.45979 0.0609,0.50279 -2.96977,0.0681 -4.43704,-0.0257 -5.51429,0.0812 z"
       id="path14"
       sodipodi:nodetypes="cccccc" />
    <path
       style="display:inline;fill:#e6e6e6;stroke-width:1"
       d="m 575.69685,504.98619 2.05058,4.99356 5.83568,-4.90199 4.55183,4.78525 3.85155,-5.36882 2.33427,-19.72458 -9.9416,10.47224 -7.7562,-9.85478 z"
       id="path22"
       sodipodi:nodetypes="ccccccccc" />
    <path
       style="display:inline;fill:#333333;fill-opacity:1;stroke-width:1"
       d="m 560.16316,372.91134 4.79884,-42.06853 -7.89011,-1.02897 -0.53554,6.67776 -1.42783,0.94499 2.32981,-26.12213 c -4.44606,-3.65812 -7.47633,-3.77163 -12.32748,-1.48396 l -8.64133,71.42614 -9.98622,54.56103 3.22797,10.42337 15.33791,2.2266 5.35054,-9.81419 1.1247,-56.56947 2.88368,-32.4033 0.92053,1.87014 -1.11489,13.90177 z"
       id="path3-9"
       sodipodi:nodetypes="ccccccccccccccccc" />
    <path
       style="display:inline;fill:#e6e6e6;stroke-width:1"
       d="m 576.51437,483.44262 7.89087,9.3494 10.20324,-10.25639 5.58111,-26.62693 -8.87603,-28.44543 -14.7434,29.59066 z"
       id="path23"
       sodipodi:nodetypes="ccccccc" />
    <path
       style="display:inline;fill:#000000;fill-opacity:0.1;stroke-width:1.7248"
       d="m 616.59783,201.5282 0.42744,2.98891 -0.26765,2.35273 0.60385,-2.27982 z"
       id="path32-9"
       sodipodi:nodetypes="ccccc" />
    <path
       style="display:inline;fill:#007100;fill-opacity:1;stroke-width:1"
       d="m 599.10136,301.10022 c 13.48836,15.80108 28.50747,11.41284 30.51975,6.98731 18.3468,66.97327 -16.90639,114.94479 -60.84214,180.45366 13.76836,-87.14586 -1.32889,-56.58839 30.32239,-187.44097 z"
       id="path19"
       sodipodi:nodetypes="cccc" />
    <path
       style="display:inline;fill:#007100;fill-opacity:1;stroke-width:1"
       d="m 600.86482,223.34989 c -18.59758,-1.32701 -40.15384,20.07948 -44.73466,86.36274 9.73393,-13.54149 26.30232,-15.80763 36.03626,-53.1224 z"
       id="path20"
       sodipodi:nodetypes="cccc" />
    <path
       id="path28"
       style="display:inline;fill:#e6e6e6;stroke-width:1"
       d="m 618.94962,222.84955 5.16117,9.99733 -6.23284,10.74643 -13.33712,-10.2852 0.46132,-9.74491 -7.23573,10.25415 20.63182,16.59589 10.61692,-18.08417 z"
       sodipodi:nodetypes="ccccccccc" />
    <path
       style="display:inline;fill:#e6e6e6;stroke-width:1"
       d="m 558.46739,384.0514 1.1452,-1.2199 1.21002,-1.28893 5.15374,-5.48985 5.58749,7.97559 0.12584,-7.87282 -5.06753,-7.12201 -3.42085,3.75448 0.72384,-17.24993 -4.31508,8.43506 -4.58217,-7.64258 -1.67131,21.39287 z"
       id="path26"
       sodipodi:nodetypes="ccccccccccccc" />
    <path
       style="display:inline;fill:#e6e6e6;stroke-width:1"
       d="m 565.06781,368.707 1.5241,-1.67855 5.33906,7.85852 5.47205,-25.60531 -12.73258,-30.03584 -7.74964,10.40306 4.15952,7.68048 -2.81589,9.18988 0.94391,13.57005 4.60885,-6.8251 2.3224,3.68966 z"
       id="path27"
       sodipodi:nodetypes="cccccccccccc" />
    <path
       style="display:inline;fill:#e6e6e6;stroke-width:1"
       d="m 609.02927,271.54437 2.86829,21.63383 8.70323,14.31482 5.5964,-15.73692 1.68967,-22.02277 -9.12158,-9.36785 z"
       id="path47-1"
       sodipodi:nodetypes="ccccccc"
       inkscape:label="path47" />
    <path
       style="display:inline;fill:#e6e6e6;stroke-width:1"
       d="m 597.61112,235.77618 21.3312,18.45587 10.87322,-19.63889 c 2.15949,5.44264 3.00901,10.55095 4.17809,20.46019 -3.1486,19.0676 -8.6853,15.10361 -13.46699,19.56499 -3.42247,-2.78284 -22.16542,-0.73424 -28.33564,-18.22486 1.84026,-9.23371 3.57986,-15.12154 5.42012,-20.6173 z"
       id="path29"
       sodipodi:nodetypes="ccccccc" />
    <path
       id="path4-7"
       style="display:inline;fill:#007100;fill-opacity:1;stroke-width:0.90624"
       inkscape:label="path4"
       d="m 614.17517,170.97881 c -12.14612,0 -17.25898,3.41638 -18.42793,17.75965 -1.45138,15.39005 2.22534,30.59189 7.03384,45.13675 0.45875,-14.14441 0.84732,-28.86998 0.4735,-40.46095 1.55493,0.12007 2.40817,-0.14499 3.37913,-0.75409 0.33921,0.3923 0.45283,1.2486 0.56544,1.64089 l 1.41811,-2.72954 c 0.5333,0.85605 0.76753,2.14735 0.89147,2.82723 l 0.79996,-2.58088 c 0.78096,1.09868 0.63705,1.99255 0.94756,2.75384 l 1.20845,-3.08044 c 1.02269,6.56783 0.60009,10.89332 0.87679,16.30365 0.51963,-2.72575 1.40146,-5.19507 2.16724,-8.05522 0.49725,-1.85722 0.94556,-3.87922 1.21401,-6.24324 -0.0912,0.98428 0.6984,4.80484 0.84014,5.70556 l 1.77832,-7.18802 c 0.48894,1.07487 0.73348,1.41529 0.89035,2.09005 l 1.10136,-2.57262 c 0.5519,0.8659 0.55876,1.83748 0.79294,2.65779 l 0.95959,-1.91643 c 1.25962,1.00002 2.46445,1.88855 3.83847,1.4953 -1.11549,8.36839 -1.42798,17.08863 -1.30968,25.71363 0.0679,4.95035 0.27771,9.86934 0.55907,14.67242 5.29769,-18.48943 7.06993,-33.75996 6.10907,-47.64585 -1.40251,-11.28244 -7.11422,-15.40055 -18.10719,-15.52948 z"
       sodipodi:nodetypes="scccccccccccsccccccccsccss" />
    <path
       style="display:inline;fill:#000000;fill-opacity:0.1;stroke-width:0.90624"
       d="m 609.27596,171.20924 c -5.78588,7.32035 -13.47051,7.46479 -10.93769,33.92635 l 1.68069,19.64312 c -2.54419,-8.57621 -5.80622,-23.72993 -4.28961,-36.01892 0.84368,-10.15759 3.41555,-16.57321 13.54661,-17.55055 z"
       id="path31"
       sodipodi:nodetypes="ccccc" />
    <path
       style="display:inline;fill:#333333;stroke-width:1.14542"
       d="m 572.62213,412.13688 2.51378,17.65478 11.15344,-17.40517 2.33217,-12.7695 z"
       id="path11"
       sodipodi:nodetypes="ccccc" />
    <path
       style="display:inline;fill:#ffffff;fill-opacity:0.5;stroke-width:0.777722"
       d="m 599.29717,184.34088 c 0.94232,1.93122 2.66924,3.21349 4.07317,-0.34817 0.40172,3.56373 1.1809,0.78505 2.31268,0.45683 1.83539,2.85276 2.32211,0.50509 3.14732,-0.0111 -0.0635,3.46715 2.13595,1.0156 3.38351,-0.61349 0.87935,0.87334 1.06888,4.49098 2.87751,0.64093 0.98971,2.77098 2.22694,1.77646 3.21665,-0.16317 1.15162,3.53417 3.74734,1.1059 3.69132,-0.31536 0.72273,2.24536 1.28361,2.76968 2.58653,0.13343 0.0129,3.68504 2.44219,1.25561 3.52553,0.0835 0.83452,1.82152 1.18421,1.38292 2.01873,0.55305 0.63958,0.95399 1.27915,0.4685 1.91873,0.0241 0.38086,1.67405 0.35007,2.77395 0.41332,3.85064 -0.77813,-2.22223 -1.55625,-4.05402 -2.33438,-0.0697 -0.64068,-4.98806 -2.12648,-0.66506 -2.89828,-0.0983 0.16021,-1.31376 0.33465,-3.87114 -1.814,-0.64883 -0.94309,-3.52682 -2.10008,-0.263 -3.04317,0.99509 -0.46173,-3.88596 -2.34637,-1.60715 -3.66792,-0.58893 -0.30387,-1.9344 -0.49511,-2.77889 -2.20459,0.24254 -0.46686,-1.49812 -2.3757,-2.07933 -3.96335,-0.42667 0.0118,-2.95658 -1.06041,-2.86834 -3.08891,-0.0922 -1.99449,-2.14706 -2.11765,-1.25584 -2.65713,0.41775 -0.28644,-3.29842 -2.71167,-1.5935 -4.27547,0.50213 -0.0198,-1.92167 -1.7191,-2.2211 -4.07249,-1.13263 0.25262,-1.23756 0.48647,-2.28745 0.85469,-3.39159 z"
       id="path43-2"
       sodipodi:nodetypes="cccccccccccccccccccccccccc" />
    <path
       style="display:inline;fill:#007100;fill-opacity:1;stroke-width:1"
       d="m 548.39425,308.61241 -8.00927,70.18409 3.0145,9.99545 -3.33182,33.47686 -12.21827,6.01491 -0.33308,2.0651 14.65559,-7.26118 3.33081,-34.17415 -3.2642,-10.09672 7.34918,-70.42301 c -0.2715,0.0466 -0.8495,0.10469 -1.19344,0.21865 z"
       id="path13"
       sodipodi:nodetypes="ccccccccccc" />
    <path
       style="display:inline;fill:#e6e6e6;fill-opacity:1;stroke-width:1"
       d="m 528.2991,425.08321 9.77809,-5.01769 3.21648,-31.77879 -4.15673,-12.40406 c -2.87339,14.26248 -5.96445,30.84729 -8.83784,49.20054 z"
       id="path16"
       sodipodi:nodetypes="ccccc" />
    <path
       style="display:inline;fill:#e6e6e6;fill-opacity:0.986842;stroke-width:1"
       d="m 597.559,324.97889 -5.79513,72.45288 -23.94629,17.90075 21.65595,-102.48183 z"
       id="path18"
       sodipodi:nodetypes="ccccc" />
    <path
       style="display:inline;fill:#333333;stroke-width:0.907074"
       d="m 558.73154,265.19017 1.27852,15.00562 7.93376,-8.83791 4.2246,-8.99825 z"
       id="path7-3"
       sodipodi:nodetypes="ccccc" />
    <path
       style="display:inline;fill:#e6e6e6;fill-opacity:0.986842;stroke-width:0.907074"
       d="m 590.57135,225.14387 -18.48148,37.37299 -17.04672,3.72089 33.10406,-52.80718 z"
       id="path21"
       sodipodi:nodetypes="ccccc" />
    <path
       id="path12"
       style="display:inline;fill:#333333;stroke-width:1"
       d="m 634.09805,231.00099 -0.10748,2.88457 c -1.67298,-0.36704 -3.33578,-0.8086 -4.99246,-1.30379 l 0.58187,1.53789 c 3.005,1.1437 6.11919,1.64038 9.26921,1.96163 l 1.50016,2.73266 -0.70848,-2.65566 c 1.9195,0.17942 3.84977,0.30939 5.77536,0.49248 0.0166,0.0474 0.0329,0.0944 0.0501,0.14211 l 1.07125,1.02009 -1.28674,-1.6247 c -0.14196,-0.39393 -0.28729,-0.79046 -0.46354,-1.21182 -0.50392,0.017 -1.00567,0.0201 -1.50636,0.0165 l 0.13229,-3.27629 -0.87024,3.2644 c -2.62633,-0.0696 -5.21117,-0.40575 -7.77006,-0.92914 z" />
    <path
       id="path33-6"
       style="display:inline;fill:#333333;stroke-width:1"
       d="m 630.06161,235.29581 0.72605,2.11254 c 0.88008,0.73376 1.72288,1.43577 2.5492,2.11149 l -1.01544,3.14245 1.65209,-2.6231 c 2.26098,1.82478 4.41373,3.41432 6.80527,4.72271 l 1.13637,2.98225 -0.39533,-2.59002 c 2.06966,1.05871 4.33594,1.91279 7.01353,2.53214 l 1.17874,1.26762 -1.37511,-2.12286 c -0.041,-0.18903 -0.0747,-0.3368 -0.1602,-0.64079 -0.55344,-0.11955 -1.10965,-0.26712 -1.66863,-0.43925 l 0.75086,-2.60088 -1.45521,2.37092 c -2.59244,-0.89173 -5.22686,-2.30451 -7.81968,-4.02663 l 1.53272,-3.11505 -2.26859,2.61431 c -2.46524,-1.69726 -4.88568,-3.65412 -7.18664,-5.69785 z" />
    <path
       id="path40-5"
       style="display:inline;fill:#333333;stroke-width:1"
       d="m 637.70403,224.79361 -0.89451,1.42059 0.009,0.005 c -1.30994,2.25099 -3.67924,2.9609 -6.71018,4.00493 l -0.67283,-3.79305 -0.0574,4.04781 c -0.38486,0.13625 -0.77732,0.27806 -1.18081,0.43253 l 0.61805,1.27951 c 2.46959,-1.04782 4.59372,-1.84509 6.3283,-2.93625 l 3.96926,1.94561 -3.26026,-2.4262 c 0.76557,-0.55856 1.44394,-1.19875 2.02881,-1.97921 -0.23658,-0.13449 -0.48211,-0.27688 -0.7245,-0.40928 z" />
    <path
       style="display:inline;fill:#333333;fill-opacity:1;stroke-width:1"
       d="m 986.86031,227.65915 -4.66446,-16.94771 -13.77657,-34.95494 4.21893,-2.81262 22.40916,30.39821 10.68683,11.98215 0.8191,12.08638 12.8539,26.58547 -5.7786,4.54345 -18.03369,-24.85927 z"
       id="path21-7"
       sodipodi:nodetypes="ccccccccccc" />
    <path
       id="path19-1"
       style="display:inline;fill:#e6e6e6;fill-opacity:1;stroke-width:1.15986"
       d="m 975.31374,181.99935 14.29835,31.56034 -2.77037,14.09888 -4.88652,-17.07699 -24.53649,-5.32371 21.52737,8.33283 8.10131,24.53649 4.59301,-20.16725 123.056,233.98003 3.4629,-2.49235 -122.28609,-233.76816 18.25729,4.85552 -15.74065,-18.51774 -1.15755,-19.44429 -2.08307,21.06435 10.44277,11.62617 -12.53464,-4.2137 z" />
    <path
       style="display:inline;fill:#0071ff;fill-opacity:1;stroke-width:1"
       d="m 1030.5843,302.79677 c -17.2955,64.84191 -31.11999,127.57743 -30.0782,194.25487 32.3432,-13.29455 55.2364,-10.02358 85.6393,-0.8355 9.9592,-65.16921 -13.0336,-145.69068 -27.5717,-188.40634 z"
       id="path11-38"
       sodipodi:nodetypes="ccccc" />
    <path
       style="display:inline;fill:#0071ff;fill-opacity:1;stroke-width:1.04162"
       d="m 1048.5938,218.40996 c 0.3589,1.94354 -0.039,3.49942 -0.063,5.24646 1.3619,-1.91025 2.0435,-4.77928 2.5909,-7.83731 l 0.1264,3.10902 c 1.526,-3.66228 3.8146,-8.26863 4.7179,-13.91644 l -11.8804,-18.07116 -14.6136,17.56109 2.0122,12.88027 0.8238,-2.25828 c 0.3267,2.89004 0.404,6.54716 1.4016,7.37414 0.2797,-1.44113 -0.3163,-3.02119 0.8354,-4.66094 l 7.5243,2.74934 z"
       id="path4-4"
       sodipodi:nodetypes="ccccccccccccc" />
    <path
       id="path1-8"
       style="display:inline;fill:#ffe6d5;stroke-width:0.90624"
       d="m 1044.7397,177.07499 c -10.4737,0.46094 -13.4527,2.75258 -13.2701,17.97841 0.4773,3.4286 -0.6277,5.06812 1.2205,10.61907 1.458,6.98012 1.9166,12.77566 1.7656,17.06343 -8.8754,0.0931 -22.4196,2.94007 -24.3367,10.72199 -3.3851,13.74094 -8.1984,34.29152 -12.63812,84.72896 -2.79754,17.19029 -5.5267,38.59924 -6.89544,63.67946 l -1.86787,11.49943 c 1.58876,3.03665 4.40747,3.85046 7.12874,4.84037 2.31322,-1.47365 3.57255,-2.13156 4.25729,-6.48988 l -2.32431,-9.87385 c 5.47511,-23.7498 9.51911,-44.91349 11.43531,-62.23156 6.1931,-21.94754 10.084,-43.43292 12.5672,-64.63552 2.9906,13.13475 4.0413,9.96003 7.8094,48.32531 -6.8997,43.491 -13.8824,87.84146 -16.9961,131.33246 l -5.0864,81.75662 c -0.1487,5.96104 -4.7177,7.93115 -2.898,11.70882 l 13.5014,0.0151 c 1.1088,-4.10432 -2.3454,-7.02173 -2.1397,-11.32224 l 14.6171,-79.51639 c 6.7689,-34.33252 13.6732,-68.66521 16.7433,-102.99771 0.6566,31.69399 4.8458,65.51628 9.233,99.45767 l 12.3374,79.1424 c 0.5147,4.98766 -3.6454,9.01467 -1.7,15.29014 l 35.8452,-0.008 c 1.1679,-1.07161 1.8306,-1.96472 1.8306,-3.03633 -13.6378,-1.38856 -18.835,-4.08705 -26.3932,-14.45183 l -2.4865,-75.42554 c -2.7933,-43.23917 -9.5918,-87.54577 -17.6897,-132.30662 1.2377,-40.79216 3.4389,-34.63189 5.0804,-49.21407 3.161,14.56731 4.1343,24.17913 14.3854,61.69566 1.5355,17.72878 7.0032,41.77378 11.9554,64.99122 l -1.1625,11.30387 c 1.2028,3.49451 3.1953,4.32401 5.4531,5.32614 2.945,-0.71651 5.3648,-2.09221 7.1185,-4.30373 l -3.6805,-11.70156 c -2.7725,-27.5178 -5.545,-51.64876 -8.3175,-68.64716 -8.2178,-61.88305 -14.015,-76.75779 -15.3836,-79.44894 -5.221,-10.26626 -18.3209,-11.51894 -25.251,-10.58055 -0.2933,-2.1181 -0.9589,-3.86236 -0.4398,-6.79616 3.3081,-2.86625 5.7936,-6.609 7.8001,-11.01285 0.3453,-4.1935 0.9066,-7.80925 0.7983,-13.21738 -0.8532,-6.32912 -2.0703,-14.20686 -11.9262,-14.25866 z"
       sodipodi:nodetypes="ccccsccccccccccccccccccccccccccccccccsccccc" />
    <path
       style="display:inline;fill:#ffffff;stroke-width:1.09618"
       d="m 1042.4621,197.758 c -1.3401,-1.77319 -2.1766,-2.05375 -4.1859,-2.37765 -1.8768,0.13067 -3.208,0.0493 -4.8697,0.78571 0.8444,1.43216 0.1153,3.72395 3.8072,3.88887 2.3169,-0.0261 0.4347,0.0293 2.7846,-0.11672 0.9461,-0.59954 1.9519,-1.68295 2.4638,-2.18021 z"
       id="path8-0"
       sodipodi:nodetypes="cccccc" />
    <path
       style="display:inline;fill:#0071ff;fill-opacity:1;stroke-width:1.11982"
       d="m 1041.1501,196.36502 c -1.2838,-1.16378 -4.4047,-1.07506 -6.0718,-0.67297 -0.1359,2.18266 1.1405,3.78694 2.9149,4.35993 0.4102,-0.0251 1.1574,-0.002 1.5658,-0.0743 1.2826,-0.26432 3.0387,-2.44985 1.5911,-3.61262 z"
       id="path9-4"
       sodipodi:nodetypes="ccccc" />
    <path
       style="display:inline;fill:#0071ff;fill-opacity:1;stroke-width:1.09618"
       d="m 1033.2451,196.22181 c 3.3078,-0.87558 6.421,-1.36388 9.1616,1.0203 -2.7563,-3.2267 -6.8306,-2.17329 -9.1616,-1.0203 z"
       id="path10-6"
       sodipodi:nodetypes="ccc" />
    <path
       style="display:inline;fill:#0071ff;fill-opacity:1;stroke-width:0.811123"
       d="m 1049.0704,194.71528 c 2.6004,-1.14265 4.46,-1.09115 6.7092,0.38693 -2.1855,-2.15333 -4.168,-2.13589 -6.7092,-0.38693 z"
       id="path10-8-6-0"
       sodipodi:nodetypes="ccc" />
    <path
       style="display:inline;fill:#0071ff;fill-opacity:1;stroke-width:0.797319"
       d="m 1041.3394,194.7243 c -2.4997,-1.1805 -5.2706,-1.11664 -7.4607,0.3283 2.1362,-2.12102 5.0251,-2.11414 7.4607,-0.3283 z"
       id="path10-8-6-6-3"
       sodipodi:nodetypes="ccc" />
    <path
       style="display:inline;fill:#ffffff;stroke-width:1.04302"
       d="m 1047.844,197.78024 c 1.2133,-1.77319 1.8321,-2.15574 3.6512,-2.47965 1.6992,0.13067 2.9044,0.0493 4.4089,0.78571 -0.7645,1.43215 0,3.62884 -3.3388,3.79376 -2.0976,-0.0261 -0.3935,0.0293 -2.521,-0.11672 -0.8566,-0.59953 -1.7369,-1.48583 -2.2003,-1.9831 z"
       id="path8-9-2"
       sodipodi:nodetypes="cccccc" />
    <path
       style="display:inline;fill:#0071ff;fill-opacity:1;stroke-width:1.03866"
       d="m 1055.9816,196.1076 c -2.9698,-0.87558 -5.7057,-1.29853 -8.1663,1.08565 2.4747,-3.2267 6.0735,-2.23864 8.1663,-1.08565 z"
       id="path10-5-6"
       sodipodi:nodetypes="ccc" />
    <path
       style="display:inline;fill:#0071ff;fill-opacity:1;stroke-width:1.0947"
       d="m 1049.6842,195.8794 c 2.4437,-1.02547 4.2311,-0.3236 5.8243,0.0785 0.1298,2.18265 -1.09,3.37011 -2.7856,3.9431 -0.392,-0.0251 -1.1061,-0.002 -1.4963,-0.0743 -1.2257,-0.26432 -2.9257,-2.7845 -1.5424,-3.94726 z"
       id="path9-5-9"
       sodipodi:nodetypes="ccccc" />
    <path
       style="display:inline;fill:#000000;fill-opacity:0.1;stroke-width:0.90624"
       d="m 1033.0611,207.52757 c 1.8302,3.74582 6.9958,7.59848 11.4429,10.31139 1.6562,-0.68713 2.5918,-1.46327 3.5534,-2.30538 l -0.1125,1.32769 -3.6079,3.17069 c -3.2489,-3.03771 -8.6094,-5.92649 -10.8164,-9.80482 -0.1305,-0.89986 -0.3063,-1.79972 -0.4595,-2.69957 z"
       id="path15-4"
       sodipodi:nodetypes="ccccccc" />
    <path
       style="display:inline;fill:#000000;fill-opacity:0.1;stroke-width:0.90624"
       d="m 1035.1203,196.84193 c 3.4201,-0.83072 4.475,-0.34552 6.3839,-0.0302 -1.1726,-1.78982 -5.0962,-1.33838 -6.4176,-1.01045 -0.02,0.0664 0.054,0.9557 0.034,1.04068 z"
       id="path2-1"
       sodipodi:nodetypes="cccc" />
    <path
       style="display:inline;fill:#000000;fill-opacity:0.1;stroke-width:0.896332"
       d="m 1049.1839,196.84146 c 2.7113,-1.07718 4.3928,-0.39909 6.3263,-0.0115 -0.016,-0.17247 0.026,-0.74404 0,-0.86787 -1.856,-0.63399 -6.2696,-1.21046 -6.3214,0.94601 z"
       id="path2-2-3"
       sodipodi:nodetypes="ccccc" />
    <path
       style="display:inline;fill:#ffffff;fill-opacity:0.5;stroke-width:0.90624"
       d="m 1049.7152,198.56006 c 1.8125,1.10123 3.4011,0.85397 4.9163,0.16372 -0.3981,0.4534 -0.9688,0.86055 -1.9245,1.16462 l -1.163,-0.025 c -0.9367,-0.0163 -1.5807,-0.82101 -1.8288,-1.30332 z"
       id="path36-7"
       sodipodi:nodetypes="ccccc" />
    <path
       style="display:inline;fill:#ffffff;fill-opacity:0.5;stroke-width:0.90624"
       d="m 1036.1109,198.79597 c 1.8124,1.10123 3.5075,0.78594 5.0226,0.0957 -0.398,0.4534 -0.7752,0.87998 -1.6535,1.10632 l -1.4629,0.043 c -1.0335,-0.31753 -1.5808,-0.82101 -1.9062,-1.24501 z"
       id="path36-0-8"
       sodipodi:nodetypes="ccccc" />
    <path
       id="path3-8"
       style="display:inline;fill:#0071ff;fill-opacity:1;stroke-width:1.04162"
       d="m 1044.3917,171.8329 c -7.0701,-0.0416 -15.4434,3.37197 -17.1303,8.57673 -2.9115,8.98316 -2.4472,18.46522 -1.3244,26.25998 -0.089,-2.38125 0.5054,-5.10831 1.1368,-7.36992 -0.1666,6.41119 2.8171,14.50386 3.8802,20.80857 l -0.2525,-17.13533 0.1425,0.55312 0.1387,1.27791 0.08,-0.42996 1.2186,4.72309 c -0.3027,-3.50651 -0.4825,-5.99396 -0.6055,-8.01242 l 1.3868,-7.20177 0.8406,1.37873 1.8077,-3.10186 2.0172,2.32639 0.5886,-2.06809 1.0511,2.19724 0.8406,-2.32639 2.0172,3.96343 0.4987,-1.53404 c 0.377,2.73559 0.1588,5.84924 0.2751,8.62736 0.957,-2.55679 1.6493,-5.46373 2.035,-8.15325 0.5599,2.81436 1.8865,5.60123 3.1117,8.15325 -0.5634,-3.02834 -0.7711,-6.38909 -0.9764,-9.44697 l 0.5237,1.3286 0.386,-3.09805 0.7714,1.31824 0.772,-1.97709 1.2218,1.18636 1.2218,-1.05448 1.9933,2.1749 0.705,-1.38254 c 0.3555,0.25449 0.7005,0.55778 1.0415,0.90734 l 0.3422,4.37892 c -0.5589,7.39652 -1.1431,16.12013 -1.4209,22.68824 1.2601,-4.90346 2.5052,-7.54055 3.6411,-15.0579 0.4992,2.46088 0.6334,6.41808 0.948,9.63529 1.645,-10.14165 0.7443,-16.38749 0.7584,-19.061 l 1.7437,5.58271 c -1.2047,-9.43556 -2.4497,-20.5295 -5.4741,-24.66647 -2.4453,-3.40203 -7.1158,-4.94039 -11.9532,-4.96887 z"
       sodipodi:nodetypes="ssccccccccccccccccccccccccccccccccccccccs" />
    <path
       style="display:inline;fill:#ffffff;fill-opacity:0.5;stroke-width:0.735338"
       d="m 1034.5025,183.61462 c 0.3406,3.7581 1.0011,0.82786 1.9606,0.48175 1.5559,3.00838 1.9685,0.53263 2.6681,-0.0117 -0.054,3.65627 1.8107,1.071 2.8683,-0.64696 0.7454,0.92097 0.9061,4.73594 2.4393,0.6759 0.8391,2.92212 1.8879,1.87334 2.7269,-0.17207 0.9763,3.72694 3.1768,1.16621 3.1293,-0.33258 0.6126,2.36783 1.0881,2.92078 2.1927,0.14071 0.011,3.88603 2.0703,1.32411 2.9887,0.088 0.7074,1.92088 1.0039,1.45838 1.7113,0.58322 0.5422,1.00605 1.4613,0.47168 2.0035,0.003 0.3229,1.65112 0.6132,2.67354 0.7837,4.10367 -0.6596,-2.34347 -2.1295,-4.29575 -2.7892,-0.0941 -0.5431,-5.26014 -1.8027,-0.70134 -2.4569,-0.10366 0.1358,-1.38542 0.2837,-4.08228 -1.5378,-0.6842 -0.7995,-3.7192 -1.7803,-0.27736 -2.5798,1.04936 -0.3914,-4.09793 -1.9891,-1.69483 -3.1094,-0.62107 -0.2576,-2.03991 -0.4198,-2.93046 -1.8689,0.25577 -0.3958,-1.57982 -2.014,-2.19273 -3.3599,-0.44992 0.01,-3.11785 -0.899,-3.02481 -2.6186,-0.0972 -1.6908,-2.26418 -1.7952,-1.32434 -2.2525,0.44056 -0.2429,-3.47835 -2.2988,-1.68043 -3.6245,0.52949 -0.017,-2.02647 -2.0965,-2.18938 -4.0916,-1.04151 0.1651,-1.36567 0.4937,-2.40922 0.7955,-3.6767 2.5552,3.69662 3.455,0.78387 4.0212,-0.41992 z"
       id="path43-3"
       sodipodi:nodetypes="cccccccccccccccccccccccccc"
       inkscape:label="path43" />
    <path
       style="display:inline;fill:#000000;fill-opacity:0.1;stroke-width:1.04162"
       d="m 1032.9146,174.60189 c -2.4032,8.64969 -5.5168,16.50664 -4.7872,33.38462 -0.4447,-3.04256 -0.8467,-2.89698 -1.0568,-8.63119 -0.5316,2.09684 -1.1845,4.40763 -1.1457,7.19002 -2.2251,-15.06901 0.405,-24.204 1.8233,-27.2762 1.1013,-1.91657 2.9531,-3.50331 5.1664,-4.66725 z"
       id="path6-8"
       sodipodi:nodetypes="cccccc" />
    <path
       style="display:inline;fill:#ffffff;stroke-width:0.650346"
       d="m 1043.1731,210.81764 c -0.1075,0.0277 0.1171,-0.55902 0.7904,-0.53124 3.6674,-0.0543 3.7993,-0.0193 4.663,-0.0528 0.2493,0.0833 0.1358,0.45982 0.061,0.50281 -2.9697,0.0681 -4.437,-0.0258 -5.5143,0.0812 z"
       id="path14-1"
       sodipodi:nodetypes="cccccc" />
    <path
       style="display:inline;fill:#333333;stroke-width:0.90624"
       d="m 1034.4798,222.73034 c 1.5573,4.23925 6.7021,4.46802 10.9609,5.61978 4.4339,-2.49588 3.3029,-4.25878 3.0276,-6.27278 0.8717,-0.0779 4.1663,-0.071 5.1143,0.0356 8.3046,12.95218 8.561,24.67237 9.9168,32.08578 -1.4872,9.64865 -6.1178,34.49707 -4.3477,53.5591 9.5429,37.93082 16.2669,112.47637 16.9742,119.19102 0.7564,14.41151 3.0205,60.66777 3.0471,84.43172 -2.8366,0.29178 -3.6719,1.0777 -10.598,0.30993 -3.445,-25.00201 -13.616,-69.62642 -13.814,-82.44464 -2.8151,-22.31639 -8.2289,-70.48803 -7.5156,-90.30006 -6.1555,56.43704 -19.4382,115.73329 -29.538,173.42092 -3.2668,-0.22722 -5.617,0.91729 -10.1262,-0.23444 0.5443,-86.99548 13.3889,-145.53618 20.9828,-206.58446 0.8437,-16.18828 -4.3321,-39.73271 -6.7444,-50.35714 4.3692,-31.46375 4.7672,-26.62263 8.4383,-32.21649 0.7899,-0.16393 3.5163,-0.36646 4.2219,-0.2438 z"
       id="path6-6"
       inkscape:label="path6"
       sodipodi:nodetypes="ccccccccccccccccc" />
    <path
       style="display:inline;fill:#000000;fill-opacity:0.1;stroke-width:1.7248"
       d="m 1046.2691,200.14751 0.4274,2.9889 -0.2676,2.35273 0.6038,-2.27982 z"
       id="path32-5"
       sodipodi:nodetypes="ccccc" />
    <path
       style="display:inline;fill:#e6e6e6;fill-opacity:1;stroke-width:1"
       d="m 1034.4012,222.67913 c 11.518,27.17056 23.3786,30.60073 29.4007,32.34562 -3.9435,18.25849 -4.2494,35.05519 -4.4717,53.51187 l -30.7093,-4.91125 c 0.4251,-16.93781 -3.7715,-32.39155 -6.9645,-48.61325 1.785,-8.8884 1.6741,-17.32533 4.9042,-26.44639 1.0169,-2.69679 2.3046,-4.86303 3.6711,-5.57879 1.3064,-0.23057 2.7446,-0.31433 4.1695,-0.30781 z"
       id="path5-3"
       sodipodi:nodetypes="cccccccc" />
    <path
       style="display:inline;fill:#0071ff;fill-opacity:1;stroke-width:1"
       d="m 1028.6315,302.26302 c -8.9591,40.47762 -16.7509,72.10585 -21.7664,120.8398 -2.3111,22.45672 -2.4605,42.22705 3.2022,70.17687 l 7.4846,-10.6621 c 16.0549,-54.31576 19.2031,-95.36763 22.751,-151.41346 5.3743,-2.47914 10.6114,-2.24563 13.9886,0.38857 -0.728,55.22962 4.8512,97.17313 13.5795,152.90459 l 6.2172,9.32574 c 5.4465,-21.88307 8.6862,-49.21541 6.9943,-74.9945 -4.2913,-65.38643 -14.8029,-83.28682 -21.6784,-110.72871 -9.0919,-0.4514 -19.3523,-2.34054 -30.7726,-5.8368 z"
       id="path7-5"
       sodipodi:nodetypes="csccccccscc" />
    <path
       id="path16-4"
       style="display:inline;fill:#e6e6e6;fill-opacity:1;stroke-width:1"
       d="m 1051.4729,220.38107 -1.2516,1.49905 c 2.4498,4.28949 3.5742,7.47573 4.1331,13.60898 l -2.2826,1.81798 0.6196,-3.15019 -2.944,-4.54495 2.0661,4.75165 -0.6713,4.69997 3.3486,-2.53214 1.1415,8.71213 0.6052,-8.6465 2.6262,2.24585 -0.2589,-4.4483 1.3172,-4.21473 -2.1952,3.95635 0.3591,3.04374 -1.7921,-1.38958 c 0.043,-8.28062 -1.1941,-8.69371 -3.5119,-13.81156 z"
       sodipodi:nodetypes="ccccccccccccccccccc" />
    <path
       style="display:inline;fill:#0071ff;fill-opacity:1;stroke-width:1"
       d="m 997.26815,317.28936 c -3.78778,25.91687 -7.06258,54.22763 -12.72222,71.40917 l 10.27516,-7.44756 8.01201,9.75374 c -0.9098,-20.43468 4.1427,-47.82536 6.7718,-72.38883 l -7.4436,6.72385 z"
       id="path17"
       sodipodi:nodetypes="ccccccc" />
    <path
       style="display:inline;fill:#0071ff;fill-opacity:1;stroke-width:1"
       d="m 1077.1185,313.4011 8.2722,5.66911 3.7997,-7.72416 c 3.616,24.49318 7.6985,48.98636 15.2234,73.47954 l -9.8305,-5.51941 -9.4321,8.246 c 0.1754,-24.00376 -2.9304,-48.82787 -8.0327,-74.15108 z"
       id="path18-3"
       sodipodi:nodetypes="ccccccc" />
    <path
       style="display:inline;fill:#0071ff;fill-opacity:1;stroke-width:1"
       d="m 995.60993,233.76578 -3.45385,-11.97004 -2.22721,8.06402 z"
       id="path22-6"
       sodipodi:nodetypes="cccc" />
    <path
       style="display:inline;fill:#0071ff;fill-opacity:1;stroke-width:1"
       d="m 1006.5216,227.33074 -8.06805,-8.45183 7.54045,0.18844 z"
       id="path23-5"
       sodipodi:nodetypes="cccc" />
    <path
       style="display:inline;fill:#333333;fill-opacity:1;stroke-width:1"
       d="m 1034.6543,341.64882 -4.4591,71.18825 -12.1667,25.06585 -5.6233,-26.67341 12.917,-71.0995 5.6194,-8.325 z"
       id="path24-9"
       sodipodi:nodetypes="ccccccc" />
    <path
       style="display:inline;fill:#e6e6e6;fill-opacity:1;stroke-width:1"
       d="m 1014.1814,409.64571 4.9959,-5.62631 -4.1312,7.70181 3.1133,19.02524 9.8585,-17.46864 -1.3837,-8.12893 2.7673,6.57233 3.4592,-70.89392 -2.0822,-6.60234 -4.1443,6.58402 z"
       id="path25"
       sodipodi:nodetypes="ccccccccccc" />
    <path
       style="display:inline;fill:#333333;fill-opacity:1;stroke-width:0.999792"
       d="m 1058.363,339.86549 4.4573,71.18826 12.1616,25.06586 5.621,-26.67342 -12.9116,-71.09951 -5.6171,-8.325 z"
       id="path24-6"
       sodipodi:nodetypes="ccccccc" />
    <path
       style="display:inline;fill:#e6e6e6;fill-opacity:1;stroke-width:0.999792"
       d="m 1078.8275,407.8624 -4.9939,-5.62631 4.1294,7.7018 -3.1119,19.02524 -9.8544,-17.46864 1.3831,-8.12892 -2.7662,6.57232 -3.4576,-70.89393 2.0812,-6.60234 4.1426,6.58402 z"
       id="path25-0"
       sodipodi:nodetypes="ccccccccccc" />
    <path
       style="display:inline;fill:#333333;fill-opacity:1;stroke-width:1"
       d="m 1028.6518,300.71132 4.9505,-11.77992 -3.5132,12.35893 c 10.4866,3.54764 19.3034,4.51525 27.2345,5.32632 l -2.1592,-29.82 4.1887,30.27195 -0.016,1.02292 c -1.3957,0.17083 -19.2853,-1.19183 -30.6909,-5.81029 z"
       id="path26-5"
       sodipodi:nodetypes="ccccccccc" />
    <path
       style="display:inline;fill:#0071ff;fill-opacity:1;stroke-width:1"
       d="m 1021.5929,254.99701 c 16.1167,9.37312 24.264,-3.57425 42.4349,0.12507 -0.1573,1.52606 -3.0482,18.16091 -3.2055,19.50725 -11.6455,-18.08905 -24.7064,-7.26251 -38.0574,-13.98645 z"
       id="path27-4"
       sodipodi:nodetypes="ccccc" />
    <path
       style="display:inline;fill:#000000;fill-opacity:0.1;stroke-width:1"
       d="m 609.17604,272.54484 c 4.01731,1.05936 8.46774,1.33407 11.51268,3.27741 1.64552,-2.40604 4.69951,-2.85148 7.13948,-4.46307 l 0.0484,-1.04715 c -1.1958,1.05787 -5.42587,2.41907 -7.31866,4.26675 -1.68105,-1.36658 -6.0088,-1.44146 -11.53317,-3.06535 z"
       id="path48-2"
       sodipodi:nodetypes="ccccccc" />
  </g>
</svg>
