<?xml version="1.0" encoding="UTF-8" standalone="no"?>
<!-- Created with Inkscape (http://www.inkscape.org/) -->

<svg
   width="1400mm"
   height="700mm"
   viewBox="0 0 1400 700"
   version="1.1"
   id="svg1"
   inkscape:version="1.3.2 (091e20e, 2023-11-25)"
   sodipodi:docname="BG1.svg"
   inkscape:export-filename="../../Utopia/Assets/Sprites/BattleBG1.png"
   inkscape:export-xdpi="96"
   inkscape:export-ydpi="96"
   xmlns:inkscape="http://www.inkscape.org/namespaces/inkscape"
   xmlns:sodipodi="http://sodipodi.sourceforge.net/DTD/sodipodi-0.dtd"
   xmlns="http://www.w3.org/2000/svg"
   xmlns:svg="http://www.w3.org/2000/svg">
  <sodipodi:namedview
     id="namedview1"
     pagecolor="#505050"
     bordercolor="#eeeeee"
     borderopacity="1"
     inkscape:showpageshadow="0"
     inkscape:pageopacity="0"
     inkscape:pagecheckerboard="0"
     inkscape:deskcolor="#505050"
     inkscape:document-units="mm"
     inkscape:zoom="0.10085261"
     inkscape:cx="2900.272"
     inkscape:cy="1893.8529"
     inkscape:window-width="1512"
     inkscape:window-height="835"
     inkscape:window-x="0"
     inkscape:window-y="38"
     inkscape:window-maximized="0"
     inkscape:current-layer="layer1"
     showguides="true" />
  <defs
     id="defs1" />
  <g
     inkscape:label="Layer 1"
     inkscape:groupmode="layer"
     id="layer1">
    <rect
       style="fill:#e6e6e6;fill-opacity:1;stroke-width:0.876038"
       id="rect1"
       width="1400.3169"
       height="701.03284"
       x="-0.21840495"
       y="0.51256776" />
    <path
       style="fill:#999999;stroke-width:0.935011"
       d="M -0.50628905,149.38951 C 739.56323,95.290201 1266.4157,112.62989 1399.6989,137.40125 v 127.2435 C 1273.0284,226.75325 726.87476,214.05012 -0.26236251,290.23818 Z"
       id="path3"
       sodipodi:nodetypes="ccccc"
       inkscape:label="path3" />
    <path
       style="fill:#333333;stroke-width:1"
       d="M 625.7499,501.74605 C 927.42861,373.21173 937.17199,167.01142 632.94042,-2.2932624 L 1304.8663,0 c -282.9236,115.65698 -273.5494,335.32871 -17.7177,496.01241 -179.7482,3.68572 -388.04041,11.54014 -661.3987,5.73364 z"
       id="path2"
       sodipodi:nodetypes="ccccc" />
    <path
       style="fill:#000000;fill-opacity:0.1;stroke-width:1"
       d="m 637.8699,0.42053778 83.33266,0.22473218 C 793.08946,34.03178 913.4275,148.59881 908.10047,263.84708 900.51213,428.01797 786.89349,470.05388 739.94938,501.61478 L 628.0964,500.55773 C 716.11622,464.74749 860.99717,382.479 856.23315,266.87674 863.04845,148.9179 718.86779,41.389316 637.8699,0.42053778 Z"
       id="path7"
       sodipodi:nodetypes="ccscccc" />
    <path
       id="path6"
       style="fill:#999999;fill-opacity:1;stroke-width:1.15113"
       d="m 1399.9766,370.96819 c 0,0 -317.486,15.81282 -475.44078,18.82614 C 615.91347,395.68191 -0.58859456,371.33591 -0.58859456,371.33591 l 0.27698567,31.78044 c 0,0 27.31744689,0.78278 36.79051889,1.06753 L 59.485775,520.58431 85.729134,405.61367 c 19.297116,0.54706 39.067616,0.99553 64.200216,1.67081 l 20.96409,108.03059 24.20163,-106.89868 c 17.92717,0.46589 36.15427,0.91224 55.82398,1.39965 l 20.48506,105.56339 23.6492,-104.45682 c 20.2514,0.48026 33.43542,0.88195 54.76875,1.35651 l 20.28041,104.5075 23.48384,-103.72823 c 18.17798,0.38495 37.16046,0.62732 55.74854,0.9929 l 20.96513,108.03538 24.27707,-107.22942 c 19.69865,0.36045 38.65734,0.7182 58.44604,1.04084 l 21.0659,108.55512 24.39386,-107.74574 c 19.01554,0.27649 37.49031,0.74582 56.25238,0.97167 l 21.38887,110.22115 24.87032,-109.85 c 19.00401,0.18181 37.73042,0.33897 56.0958,0.44988 l 21.82968,112.49181 25.39845,-112.1864 c 20.17603,0.0488 37.30786,-0.15595 56.13714,-0.22324 l 20.96461,108.03334 24.49928,-108.21411 c 6.42561,-0.0629 14.41026,-8.5e-4 20.59358,-0.0822 9.55167,-0.12563 23.26535,-0.56842 33.81964,-0.76488 l 22.0865,113.81408 26.0139,-114.90217 c 16.8911,-0.40652 31.2098,-0.61051 49.0962,-1.11068 l 21.9755,113.23889 25.9632,-114.68031 c 16.6741,-0.51024 32.6986,-1.04156 49.2502,-1.58248 l 21.7579,112.12272 25.7297,-113.64768 c 21.3964,-0.73389 27.1518,-0.92962 46.5475,-1.62973 l 21.0225,108.33188 24.9153,-110.04926 c 19.8467,-0.75018 36.1267,-1.32803 48.2828,-1.80434 l 20.9936,108.18328 24.8812,-109.89862 c 0.6125,-0.0246 11.1833,-0.41769 11.1833,-0.41769 z" />
    <path
       style="fill:#aaffcc;stroke-width:0.763609"
       d="M -0.61842253,483.99217 C 512.41098,505.60636 1304.5354,513.09899 1401.209,483.06069 l -0.3864,217.4657 -1402.0352502,0.57488 z"
       id="path1"
       sodipodi:nodetypes="ccccc" />
  </g>
</svg>
