<?xml version="1.0" encoding="UTF-8" standalone="no"?>
<!-- Created with Inkscape (http://www.inkscape.org/) -->

<svg
   width="1240mm"
   height="700mm"
   viewBox="0 0 1240 700"
   version="1.1"
   id="svg1"
   inkscape:version="1.3.2 (091e20e, 2023-11-25)"
   sodipodi:docname="BG1.svg"
   inkscape:export-filename="../../Utopia/Assets/Sprites/BattleBG1.png"
   inkscape:export-xdpi="96"
   inkscape:export-ydpi="96"
   xmlns:inkscape="http://www.inkscape.org/namespaces/inkscape"
   xmlns:sodipodi="http://sodipodi.sourceforge.net/DTD/sodipodi-0.dtd"
   xmlns="http://www.w3.org/2000/svg"
   xmlns:svg="http://www.w3.org/2000/svg">
  <sodipodi:namedview
     id="namedview1"
     pagecolor="#505050"
     bordercolor="#eeeeee"
     borderopacity="1"
     inkscape:showpageshadow="0"
     inkscape:pageopacity="0"
     inkscape:pagecheckerboard="0"
     inkscape:deskcolor="#505050"
     inkscape:document-units="mm"
     inkscape:zoom="0.09174115"
     inkscape:cx="1422.4805"
     inkscape:cy="2060.1442"
     inkscape:window-width="1512"
     inkscape:window-height="831"
     inkscape:window-x="0"
     inkscape:window-y="38"
     inkscape:window-maximized="0"
     inkscape:current-layer="layer1"
     showguides="true" />
  <defs
     id="defs1" />
  <g
     inkscape:label="Layer 1"
     inkscape:groupmode="layer"
     id="layer1">
    <rect
       style="fill:#e6e6e6;fill-opacity:1;stroke-width:0.824411"
       id="rect1"
       width="1240.1324"
       height="701.03284"
       x="-0.36850277"
       y="0.51256776" />
    <path
       style="fill:#999999;stroke-width:0.879909"
       d="M -0.62345535,149.38951 C 654.78833,95.290201 1121.3733,112.62989 1239.41,137.40125 v 127.2435 C 1127.2296,226.75325 643.55131,214.05012 -0.40743196,290.23818 Z"
       id="path3"
       sodipodi:nodetypes="ccccc"
       inkscape:label="path3" />
    <path
       style="fill:#aaffcc;fill-opacity:1;stroke-width:0.941068"
       d="m 528.14551,243.88052 -0.0631,30.43283 41.39894,20.1573 c 253.94147,-15.15752 363.91002,-11.70666 498.11765,2.56408 l 58.4278,-9.17476 -2.1676,-43.52039 C 925.48106,228.68474 721.49601,233.74235 528.14551,243.88052 Z"
       id="path10"
       sodipodi:nodetypes="ccccccc"
       inkscape:label="path10" />
    <path
       style="fill:#333333;stroke-width:0.941068"
       d="M 553.99429,501.74605 C 821.16349,373.21173 829.7923,167.01142 560.36227,-2.2932624 L 1155.4255,0 c -250.55954,115.65698 -242.25767,335.32871 -15.691,496.01241 -159.18649,3.68572 -343.65182,11.54014 -585.74021,5.73364 z"
       id="path2"
       sodipodi:nodetypes="ccccc" />
    <path
       style="fill:#333333;stroke-width:0.941068"
       d="m 1138.4391,-0.64239844 -0.032,495.95474844 15.4511,0.90974 0.01,-497.2450246 z"
       id="path9"
       sodipodi:nodetypes="ccccc" />
    <path
       style="fill:#000000;fill-opacity:0.1;stroke-width:0.941068"
       d="m 564.72786,0.42053778 73.8001,0.22473218 C 702.19161,34.03178 808.76398,148.59881 804.04632,263.84708 797.32602,428.01797 696.7044,470.05388 655.1303,501.61478 l -99.05793,-1.05705 C 634.02346,464.74749 762.33124,382.479 758.11219,266.87674 764.14788,148.9179 636.46027,41.389316 564.72786,0.42053778 Z"
       id="path7"
       sodipodi:nodetypes="ccscccc" />
    <path
       style="fill:#aaffcc;stroke-width:0.718608"
       d="M -0.7227617,483.99217 C 453.62039,505.60636 1155.1324,513.09899 1240.7474,483.06069 l -0.3422,217.4657 -1241.6542147,0.57488 z"
       id="path1"
       sodipodi:nodetypes="ccccc" />
    <path
       style="fill:#333333;stroke-width:0.818048"
       d="M 79.476634,158.8817 27.613659,275.39175 C 101.51442,268.03899 166.48308,259.72429 256.38112,252.31922 L 169.78568,153.2168 c -30.10302,1.8883 -42.9451,1.93593 -90.309046,5.6649 z"
       id="path4"
       sodipodi:nodetypes="ccccc" />
    <path
       style="fill:#333333;stroke-width:0.818048"
       d="m 451.16516,134.49353 -55.36279,107.85005 c 73.90075,-7.35276 139.53916,-8.60527 229.4372,-12.81471 L 541.47421,128.82863 c -30.10303,1.8883 -42.94511,1.93593 -90.30905,5.6649 z"
       id="path4-3"
       sodipodi:nodetypes="ccccc" />
    <path
       style="fill:#333333;stroke-width:0.818048"
       d="m 373.84837,243.25727 51.88088,-107.17701 c -74.78619,1.60098 -134.90849,4.94975 -224.76159,13.02036 l 83.53622,101.53998 c 30.09141,-2.11118 51.30043,-5.40332 89.34449,-7.38333 z"
       id="path4-0"
       sodipodi:nodetypes="ccccc" />
    <path
       style="fill:#333333;stroke-width:0.941068"
       d="m -1.5305452,166.31925 48.7966942,-5.10182 -41.5675544,114.7909 -6.32549736,1.02036 z"
       id="path5" />
    <path
       style="fill:#e6e6e6;stroke-width:0.941068"
       d="m 1089.4018,77.23919 0.4818,230.41783 c 37.8444,11.61246 79.3934,10.49266 108.4446,1.30372 l -0.054,-232.201065 c -37.0751,-6.603759 -67.6801,-11.399084 -108.8724,0.479515 z"
       id="path8"
       sodipodi:nodetypes="ccccc" />
    <path
       style="fill:#333333;fill-opacity:1;stroke-width:0.941068"
       d="m 1091.9832,273.48465 -30.5002,-3.01337 20.1054,-1.24755 9.324,0.54914 z"
       id="path11"
       sodipodi:nodetypes="ccccc" />
    <path
       style="fill:#999999;fill-opacity:1;stroke-width:0.941068"
       d="m -1.2784706,417.21737 c 0,0 441.8746506,19.10846 664.8742106,17.61187 191.81838,-1.28733 575.12066,-22.48509 575.12066,-22.48509 l 1.3525,29.0168 c 0,0 -374.91623,17.17195 -569.26651,16.31586 C 450.70661,456.70731 -0.50194643,444.43495 -0.50194643,444.43495 Z"
       id="path12"
       sodipodi:nodetypes="csccscc" />
  </g>
</svg>
