<?xml version="1.0" encoding="UTF-8" standalone="no"?>
<!-- Created with Inkscape (http://www.inkscape.org/) -->

<svg
   width="1400mm"
   height="700mm"
   viewBox="0 0 1400 700"
   version="1.1"
   id="svg1"
   inkscape:version="1.3.2 (091e20e, 2023-11-25)"
   sodipodi:docname="BG1.svg"
   inkscape:export-filename="../../Utopia/Assets/Sprites/BattleBG1.png"
   inkscape:export-xdpi="96"
   inkscape:export-ydpi="96"
   xmlns:inkscape="http://www.inkscape.org/namespaces/inkscape"
   xmlns:sodipodi="http://sodipodi.sourceforge.net/DTD/sodipodi-0.dtd"
   xmlns="http://www.w3.org/2000/svg"
   xmlns:svg="http://www.w3.org/2000/svg">
  <sodipodi:namedview
     id="namedview1"
     pagecolor="#505050"
     bordercolor="#eeeeee"
     borderopacity="1"
     inkscape:showpageshadow="0"
     inkscape:pageopacity="0"
     inkscape:pagecheckerboard="0"
     inkscape:deskcolor="#505050"
     inkscape:document-units="mm"
     inkscape:zoom="0.086520574"
     inkscape:cx="3415.3726"
     inkscape:cy="658.80284"
     inkscape:window-width="1512"
     inkscape:window-height="835"
     inkscape:window-x="0"
     inkscape:window-y="38"
     inkscape:window-maximized="0"
     inkscape:current-layer="layer1"
     showguides="true" />
  <defs
     id="defs1" />
  <g
     inkscape:label="Layer 1"
     inkscape:groupmode="layer"
     id="layer1">
    <rect
       style="fill:#e6e6e6;fill-opacity:1;stroke-width:0.876038"
       id="rect1"
       width="1400.3169"
       height="701.03284"
       x="-0.21840495"
       y="0.51256776" />
    <path
       style="fill:#999999;stroke-width:0.935011"
       d="M -0.50628905,149.38951 C 739.56323,95.290201 1266.4157,112.62989 1399.6989,137.40125 v 127.2435 C 1273.0284,226.75325 726.87476,214.05012 -0.26236251,290.23818 Z"
       id="path3"
       sodipodi:nodetypes="ccccc"
       inkscape:label="path3" />
    <path
       style="fill:#aaffcc;fill-opacity:1;stroke-width:1"
       d="m 596.4495,243.381 0.0416,30.93235 46.74633,67.29746 c 286.74239,-15.15752 424.50807,-15.99527 550.77367,0.31054 l 66.1696,-38.79838 9.042,-58.78339 C 1045.2206,228.68474 814.77456,233.24283 596.4495,243.381 Z"
       id="path10"
       sodipodi:nodetypes="ccccccc"
       inkscape:label="path10" />
    <path
       style="fill:#333333;stroke-width:1"
       d="M 625.7499,501.74605 C 927.42861,373.21173 937.17199,167.01142 632.94042,-2.2932624 L 1304.8663,0 c -282.9236,115.65698 -273.5494,335.32871 -17.7177,496.01241 -179.7482,3.68572 -388.04041,11.54014 -661.3987,5.73364 z"
       id="path2"
       sodipodi:nodetypes="ccccc" />
    <path
       style="fill:#333333;stroke-width:1"
       d="m 1297.4058,-0.64239844 -11.7555,495.95474844 17.4468,0.90974 11.7273,-497.2450246 z"
       id="path9" />
    <path
       style="fill:#000000;fill-opacity:0.1;stroke-width:1"
       d="m 637.8699,0.42053778 83.33266,0.22473218 C 793.08946,34.03178 913.4275,148.59881 908.10047,263.84708 900.51213,428.01797 786.89349,470.05388 739.94938,501.61478 L 628.0964,500.55773 C 716.11622,464.74749 860.99717,382.479 856.23315,266.87674 863.04845,148.9179 718.86779,41.389316 637.8699,0.42053778 Z"
       id="path7"
       sodipodi:nodetypes="ccscccc" />
    <path
       style="fill:#aaffcc;stroke-width:0.763609"
       d="M -0.61842253,483.99217 C 512.41098,505.60636 1304.5354,513.09899 1401.209,483.06069 l -0.3864,217.4657 -1402.0352502,0.57488 z"
       id="path1"
       sodipodi:nodetypes="ccccc" />
    <path
       style="fill:#333333;stroke-width:0.869276"
       d="M 89.940109,158.8817 31.378136,275.39175 C 114.82445,268.03899 188.18494,259.72429 289.69486,252.31922 L 191.91413,153.2168 c -33.99135,1.8883 -48.49221,1.93593 -101.974021,5.6649 z"
       id="path4"
       sodipodi:nodetypes="ccccc" />
    <path
       style="fill:#333333;stroke-width:0.869276"
       d="m 509.63862,134.49353 -62.51385,107.85005 c 83.44631,-7.35276 157.56305,-8.60527 259.07297,-12.81471 l -94.5851,-100.70024 c -33.99135,1.8883 -48.49221,1.93593 -101.97402,5.6649 z"
       id="path4-3"
       sodipodi:nodetypes="ccccc" />
    <path
       style="fill:#333333;stroke-width:0.869276"
       d="m 422.33503,243.25727 58.58219,-107.17701 c -84.44611,1.60098 -152.33425,4.94975 -253.79342,13.02036 l 94.32636,101.53998 c 33.97824,-2.11118 57.92677,-5.40332 100.88487,-7.38333 z"
       id="path4-0"
       sodipodi:nodetypes="ccccc" />
    <path
       style="fill:#333333;stroke-width:1"
       d="m -1.5305452,166.31925 55.0996292,-5.10182 -46.9367213,114.7909 -7.14254445,1.02036 z"
       id="path5" />
    <path
       style="fill:#e6e6e6;stroke-width:1"
       d="m 1240.277,77.82738 -9.4184,229.82964 c 39.4119,11.61246 84.9991,13.43361 133.0786,11.30294 l 5.916,-233.96563 c -40.448,-13.178338 -83.8566,-14.715823 -129.5762,-7.16695 z"
       id="path8"
       sodipodi:nodetypes="ccccc" />
    <path
       style="fill:#333333;fill-opacity:1;stroke-width:1"
       d="m 1231.8369,285.40532 -34.4398,-3.01337 24.0948,-13.16822 10.5283,0.54914 z"
       id="path11"
       sodipodi:nodetypes="ccccc" />
    <path
       style="fill:#999999;fill-opacity:1;stroke-width:1"
       d="m -1.2459108,417.21737 c 0,0 498.9503808,19.10846 750.7541808,17.61187 216.59503,-1.28733 649.40743,-22.48509 649.40743,-22.48509 l 1.5272,29.0168 c 0,0 -423.34314,17.17195 -642.79711,16.31586 C 509.12084,456.70731 -0.36908516,444.43495 -0.36908516,444.43495 Z"
       id="path12"
       sodipodi:nodetypes="csccscc" />
  </g>
</svg>
