<?xml version="1.0" encoding="UTF-8" standalone="no"?>
<!-- Created with Inkscape (http://www.inkscape.org/) -->

<svg
   width="1000mm"
   height="1000mm"
   viewBox="0 0 1000 1000"
   version="1.1"
   id="svg1"
   inkscape:version="1.3.2 (091e20e, 2023-11-25)"
   sodipodi:docname="Enemy1Attack.svg"
   xmlns:inkscape="http://www.inkscape.org/namespaces/inkscape"
   xmlns:sodipodi="http://sodipodi.sourceforge.net/DTD/sodipodi-0.dtd"
   xmlns="http://www.w3.org/2000/svg"
   xmlns:svg="http://www.w3.org/2000/svg">
  <sodipodi:namedview
     id="namedview1"
     pagecolor="#505050"
     bordercolor="#eeeeee"
     borderopacity="1"
     inkscape:showpageshadow="0"
     inkscape:pageopacity="0"
     inkscape:pagecheckerboard="0"
     inkscape:deskcolor="#505050"
     inkscape:document-units="mm"
     inkscape:zoom="0.093439497"
     inkscape:cx="1396.6257"
     inkscape:cy="406.68027"
     inkscape:window-width="1512"
     inkscape:window-height="831"
     inkscape:window-x="70"
     inkscape:window-y="38"
     inkscape:window-maximized="0"
     inkscape:current-layer="layer1" />
  <defs
     id="defs1" />
  <g
     inkscape:label="Layer 1"
     inkscape:groupmode="layer"
     id="layer1"
     transform="translate(99.088212)">
    <path
       style="fill:#333333;stroke-width:0.825447"
       d="m 539.54209,87.823497 -18.35016,56.216093 55.42135,37.57324 7.85331,-64.23229 z"
       id="path1"
       sodipodi:nodetypes="ccccc" />
    <path
       style="fill:#333333;stroke-width:0.825447"
       d="m 646.42975,468.51148 -51.71824,37.74826 29.30878,68.79067 58.17333,-62.08092 z"
       id="path1-9"
       sodipodi:nodetypes="ccccc" />
    <path
       style="fill:#333333;stroke-width:0.825447"
       d="m 634.65355,273.16555 -17.65364,52.91182 39.53727,31.59842 23.73738,-47.20402 z"
       id="path1-7"
       sodipodi:nodetypes="ccccc" />
    <path
       style="fill:#333333;stroke-width:0.825447"
       d="m 528.04352,136.1346 c 11.00191,16.4546 -12.86823,10.32044 23.57017,66.70695 21.21825,52.74262 50.3241,99.68203 77.36733,127.45096 l 34.86444,-22.64119 C 651.9834,266.9803 638.49861,232.23567 598.26022,170.58529 c -1.08662,-16.8732 -9.09243,-36.9834 -22.76028,-56.17584 z"
       id="path2"
       sodipodi:nodetypes="ccccccc" />
    <path
       style="fill:#333333;stroke-width:0.825447"
       d="M 768.13354,182.91731 C 687.6913,236.62205 609.34615,286.5315 528.22915,348.0522 l 7.01377,16.57834 C 616.97235,318.75828 714.01684,311.50631 785.34467,239.4041 Z"
       id="path1-7-3"
       sodipodi:nodetypes="ccccc"
       inkscape:transform-center-x="115.07943"
       inkscape:transform-center-y="61.732865" />
    <path
       style="fill:#333333;stroke-width:0.825447"
       d="m 549.34819,111.09599 c 45.10164,66.435 190.5834,101.27888 221.53402,102.3065 l 12.75957,-15.33066 C 736.54971,132.34579 631.18198,103.23583 556.429,92.273667 Z"
       id="path2-8"
       sodipodi:nodetypes="ccccc" />
    <path
       style="fill:#333333;stroke-width:0.825447"
       d="m 638.5123,333.1444 c 12.20189,63.58905 -19.07741,106.97817 -26.30738,173.41922 l 45.72036,7.91395 c 8.2898,-71.23306 29.7376,-135.73817 10.93517,-188.50974 z"
       id="path2-0"
       sodipodi:nodetypes="ccccc" />
    <path
       style="fill:#333333;stroke-width:0.825447"
       d="M 638.96969,438.83594 C 496.67468,532.22443 498.05398,593.92228 487.79456,611.18608 l 16.19637,10.94165 c 52.98057,-36.41375 69.79432,-23.53319 154.4786,-178.24446 z"
       id="path2-0-9"
       sodipodi:nodetypes="ccccc" />
    <path
       style="fill:#333333;stroke-width:0.825447"
       d="M 809.84058,604.55633 C 757.69128,550.74464 746.60731,481.21069 648.15265,444.25979 l -14.02601,13.58933 c 54.51791,111.65812 122.75828,147.65652 167.48978,164.05872 z"
       id="path2-0-9-7"
       sodipodi:nodetypes="ccccc" />
    <path
       style="fill:#e6e6e6;stroke-width:0.825447"
       d="m 357.10255,280.77206 5.97166,-31.07726 -43.41092,-15.46494 -122.23863,31.99486 -89.89522,41.57174 -5.12455,14.18627 15.30864,11.14162 119.1157,-12.66337 84.17527,-13.97498 z"
       id="path24"
       sodipodi:nodetypes="cccccccccc"
       inkscape:transform-center-x="176.90334"
       inkscape:transform-center-y="31.123192"
       inkscape:label="path24" />
    <path
       style="fill:#333333;stroke-width:1"
       d="m 523.53025,602.96113 c 12.42539,30.90478 24.02593,86.68626 -26.02371,335.09374 l -21.41728,1.42783 c -8.71789,-149.44146 -1.00535,-297.71695 6.73548,-354.13485 z"
       id="path3"
       sodipodi:nodetypes="ccccc"
       inkscape:label="path3" />
    <path
       style="fill:#e6e6e6;stroke-width:0.825447"
       d="m 458.20661,596.10621 81.00244,9.89937 82.11673,-75.75715 -16.52905,-75.52941 C 532.9601,492.08248 492.70587,530.49747 458.20661,596.10621 Z"
       id="path9"
       sodipodi:nodetypes="ccccc" />
    <path
       style="fill:#333333;stroke-width:1"
       d="m 764.56601,613.61328 c -0.49527,66.58631 -18.23462,100.32113 22.67473,330.3954 l 24.95708,-1.90084 c 20.1053,-213.69562 18.31188,-247.67831 -1.16018,-338.75981 z"
       id="path4"
       sodipodi:nodetypes="ccccc" />
    <path
       style="fill:#e6e6e6;stroke-width:0.825447"
       d="m 638.1291,491.21405 -45.10639,26.3833 3.33203,57.258 22.41727,90.61714 40.29758,-85.67634 5.32397,-57.56561 z"
       id="path10"
       sodipodi:nodetypes="ccccccc" />
    <path
       style="fill:#e6e6e6;stroke-width:0.825447"
       d="m 669.41177,530.52886 10.73244,-70.25302 c 76.38949,30.79935 116.27541,73.28018 161.00266,134.78636 l -81.54882,20.5073 z"
       id="path11"
       sodipodi:nodetypes="ccccc" />
    <path
       style="display:inline;fill:#333333;stroke-width:0.825447"
       d="m 725.23158,231.26237 -183.76983,101.25035 -31.12323,9.22239 16.652,32.46036 27.59067,-14.3165 186.74231,-118.54284 z"
       id="path2-4"
       inkscape:transform-center-x="146.03533"
       inkscape:transform-center-y="90.68786"
       sodipodi:nodetypes="ccccccc" />
    <path
       style="fill:#333333;stroke-width:0.825447"
       d="M 515.96701,100.10677 C 474.48927,110.04065 399.27604,215.2765 399.80975,260.32829 l 23.7275,13.53268 C 510.74372,213.41415 565.04528,168.87368 534.57527,96.022587 Z"
       id="path2-4-5"
       sodipodi:nodetypes="ccccc" />
    <path
       style="fill:#333333;stroke-width:0.825447"
       d="m 139.63946,330.83091 -8.13273,-16.5231 -2.08254,-17.59293 -82.776432,22.90779 16.59925,31.47332 z"
       id="path1-7-5-9-7"
       sodipodi:nodetypes="cccccc"
       inkscape:transform-center-x="316.49929"
       inkscape:transform-center-y="71.351525" />
    <path
       style="fill:#333333;stroke-width:0.825447"
       d="m 393.15259,230.15088 c -77.85663,-1.01734 -185.25001,44.22214 -270.65874,69.17598 l 9.3157,33.48772 c 93.76236,-16.45941 216.24801,-24.87061 291.78343,-58.99996 z"
       id="path2-4-5-5"
       sodipodi:nodetypes="ccccc"
       inkscape:transform-center-x="129.38322"
       inkscape:transform-center-y="24.110466" />
    <path
       style="fill:#e6e6e6;stroke-width:0.825447"
       d="m 644.22541,486.25933 -22.00656,-18.5117 -18.00892,-44.37054 22.44145,26.35992 18.60264,13.11968 25.33267,-12.97346 26.72281,-27.0988 -26.07104,43.80348 z"
       id="path18"
       sodipodi:nodetypes="ccccccccc" />
    <path
       style="fill:#e6e6e6;stroke-width:0.844849"
       d="m 651.71687,397.40922 -27.48736,-20.46695 -19.70598,-40.23609 29.22304,25.11766 19.02096,9.92895 24.00656,-8.12412 33.53675,-30.8834 -29.27187,46.40407 z"
       id="path18-0"
       sodipodi:nodetypes="ccccccccc" />
    <path
       style="fill:#e6e6e6;stroke-width:0.825447"
       d="m 657.73309,363.0301 -24.26846,-7.8631 -38.26038,-38.37809 30.94909,-39.71824 56.67159,2.40332 -1.59179,57.57409 z"
       id="path28"
       sodipodi:nodetypes="ccccccc" />
    <path
       style="fill:#e6e6e6;stroke-width:0.825447"
       d="m 646.0592,456.0395 -22.8723,-21.31111 -14.99214,-44.23707 23.35672,29.99248 17.92034,8.56362 22.47984,-6.89682 34.05945,-30.4183 -28.28264,46.29573 z"
       id="path18-8"
       sodipodi:nodetypes="ccccccccc" />
    <path
       style="fill:#333333;fill-opacity:1;stroke-width:1.0982"
       d="m 492.32488,89.415217 17.3255,6.47238 5.60656,-21.195505 36.16448,-13.755408 18.27485,10.096947 9.25608,-16.569337 L 555.93079,42.814 502.14511,61.068208 Z"
       id="path42"
       sodipodi:nodetypes="ccccccccc" />
    <path
       style="fill:#e6e6e6;stroke-width:0.825447"
       d="m 532.07188,63.113953 43.36652,38.635607 c 4.77113,14.44964 4.38368,31.77706 5.68789,45.38329 2.2665,23.64523 6.21178,37.19062 2.60681,56.63951 -15.78205,-11.96634 -28.24694,-26.5257 -37.21625,-41.07481 -11.79184,-19.12753 -18.28424,-20.43259 -26.87289,-38.88298 z"
       id="path27"
       sodipodi:nodetypes="ccscscc"
       inkscape:label="path27" />
    <path
       style="fill:#e6e6e6;stroke-width:0.825447"
       d="m 651.44411,425.53009 -23.06166,-15.64094 -24.04477,-43.97435 25.81704,24.43798 21.5291,12.33137 22.89476,-8.41861 29.56146,-28.72804 -29.03951,50.08915 z"
       id="path18-8-2"
       sodipodi:nodetypes="ccccccccc" />
    <path
       style="fill:#00ffa6;fill-opacity:1;stroke-width:1.0982"
       d="m 501.16841,84.133143 5.57239,-16.589445 45.6238,-16.716108 18.5746,9.117845 -2.20572,4.179051 -16.13667,-7.97814 -43.41812,16.082895 -4.06318,13.67682 z"
       id="path43" />
    <path
       style="fill:#e6e6e6;stroke-width:0.825447"
       d="m 522.383,148.05574 -4.64224,42.79688 12.65995,74.42468 57.54352,47.12845 32.94703,-43.6613 50.48665,3.23501 5.10259,-91.16932 -63.57353,-55.11098 -29.59438,-5.74882 13.92676,48.5457 -7.54364,54.22261 -37.13803,-22.9234 z"
       id="path29"
       sodipodi:nodetypes="ccccccccccccc" />
    <path
       style="fill:#333333;fill-opacity:1;stroke-width:1.0982"
       d="m 661.77318,258.07163 1.00905,-70.9952 -44.39767,-45.12873 50.9564,42.377 z"
       id="path45" />
    <path
       style="fill:#333333;fill-opacity:1;stroke-width:1.0982"
       d="m 587.10438,301.54936 -50.95642,-41.2763 -10.59488,-74.29733 18.66718,73.74697 z"
       id="path46" />
    <path
       style="fill:#e6e6e6;stroke-width:0.825447"
       d="m 520.4708,92.743107 -16.56749,70.802753 46.77879,32.18305 29.72361,126.88577 10.2333,43.68447 -61.3972,-141.60547 -58.47351,-42.91076 c 2.00833,-34.1082 0.77875,-68.03048 17.54207,-102.985805 13.54644,-3.444284 23.24423,4.13181 32.16043,13.945992 z"
       id="path19"
       sodipodi:nodetypes="ccccccccc" />
    <path
       style="fill:#e6e6e6;stroke-width:0.825447"
       d="M 641.8954,117.86377 628.18947,190.43176 641.744,341.37994 595.80746,186.69361 608.33139,132.7464 561.55259,76.338002 c 0.003,-21.29831 9.79349,-24.295499 17.54204,-31.110293 31.06142,19.190273 48.6572,45.057298 62.80077,72.636061 z"
       id="path20"
       sodipodi:nodetypes="cccccccc" />
    <path
       style="fill:#e6e6e6;stroke-width:0.780573"
       d="m 474.81185,51.438344 -3.80493,114.124376 -72.09296,80.48273 -103.20053,-6.50564 C 336.49037,144.16703 393.44138,98.935784 474.81185,51.438344 Z"
       id="path21"
       sodipodi:nodetypes="ccccc" />
    <path
       style="fill:#e6e6e6;stroke-width:0.825447"
       d="m 658.01668,50.992431 2.49479,102.518739 66.43195,58.71617 107.41121,8.31111 C 785.25187,133.91828 741.62541,95.138267 658.01668,50.992431 Z"
       id="path22"
       sodipodi:nodetypes="ccccc" />
    <path
       style="display:inline;fill:#e6e6e6;stroke-width:0.825447"
       d="m 726.96361,301.54853 -117.99578,48.6199 -67.00362,13.22341 -17.45781,-6.34481 5.02167,-15.75357 103.94925,-77.60933 64.90108,-39.50877 32.34388,4.95028 27.34934,18.77252 z"
       id="path25"
       sodipodi:nodetypes="cccccccccc"
       inkscape:transform-center-x="130.57733"
       inkscape:transform-center-y="81.74254" />
    <path
       style="fill:#e6e6e6;stroke-width:1"
       d="m 470.68246,900.39361 15.02281,-0.8346 26.7072,-99.31741 25.0412,-133.53248 -34.88413,-58.20926 -27.76648,-1.38832 -16.65989,43.03805 1.38832,161.73979 z"
       id="path7"
       sodipodi:nodetypes="ccccccccc"
       inkscape:label="path7" />
    <path
       style="fill:#e6e6e6;stroke-width:0.753084"
       d="m 123.825,329.8127 -14.61672,3.87475 -6.56384,-7.71119 -1.45556,-10.3721 7.00361,-10.51766 12.17732,-4.77796 16.0333,-12.09079 -49.688506,18.74589 -18.907619,0.50656 -39.461557,-5.95655 -26.7486741,24.15541 19.2544951,-9.51124 11.10991,-6.39536 17.337102,2.54105 -23.303028,8.61968 -33.6800651,18.91215 -38.5767429,39.97557 19.671949,-10.08132 24.5079749,-24.07199 34.2445831,-18.02604 14.432599,-2.41906 -10.253484,5.71098 -34.0744171,17.66688 -39.3045969,43.05856 21.224169,-13.14923 22.8304459,-22.74663 34.2761871,-18.62567 12.488351,-2.18276 -8.353186,4.8524 -31.917993,19.85038 -35.384603,39.33681 19.8786969,-13.05908 21.4387471,-19.65611 33.076735,-18.56515 9.614908,-1.95224 -7.393262,5.62861 -32.02982,18.61787 -32.924649,39.99633 19.6419069,-14.08198 18.9569041,-20.257 32.548674,-17.13113 31.966646,-15.23349 43.106569,-7.26275 z"
       id="path26"
       sodipodi:nodetypes="cccccccccccccccccccccccccccccccccccccccccccc"
       inkscape:transform-center-x="19.17951"
       inkscape:transform-center-y="22.039938" />
    <path
       style="display:inline;fill:#e6e6e6;stroke-width:0.827137"
       d="m 545.63115,366.0281 -14.89844,5.15676 -9.37171,-7.94185 -4.53583,-11.16227 4.68144,-11.87093 11.97234,-5.97827 14.11792,-14.16609 -41.54786,19.01407 -31.80916,-0.20208 -27.35658,-3.93358 -16.07754,3.00866 -26.50866,15.85831 39.91205,-10.73881 19.55218,7.53046 -21.21335,14.53926 -31.8157,2.7766 -18.49668,-7.98565 -24.65577,-2.38843 44.2628,17.86375 33.61415,-1.52167 20.61758,-7.27828 -17.11849,11.3895 -26.87489,3.94213 -33.51243,-8.86975 -24.06018,-1.23653 60.45721,19.8596 28.57603,-5.82529 19.06725,-8.61934 -11.21868,14.48348 -30.20668,6.67142 -39.88917,-9.03187 -24.28994,-0.62744 67.7466,19.31752 37.31488,-9.12514 10.8418,-11.32106 -7.45517,16.62812 -35.04379,11.03466 -39.21451,-9.03201 -28.66685,-1.33388 69.86107,19.60902 37.72036,-10.68375 42.05594,-32.08067 40.86288,-12.05588 z"
       id="path26-80"
       sodipodi:nodetypes="cccccccccccccccccccccccccccccccccccccccccccc"
       inkscape:transform-center-x="309.02302"
       inkscape:transform-center-y="172.92409" />
    <path
       style="fill:#333333;stroke-width:0.989474"
       d="m 528.27965,134.33976 7.20605,-5.25031 -0.89077,-18.96576 8.15001,15.60568 2.39435,-5.23501 -2.65618,-4.59171 -2.28764,-26.327483 9.4489,23.804233 0.66119,5.2092 5.51306,1.25962 0.78704,-17.43764 7.14267,14.50424 8.7147,-0.5144 -7.37353,7.80354 5.27197,18.04629 -11.99207,-15.89606 -3.38721,3.76465 3.23855,5.32519 10.46925,29.24944 -17.09661,-25.90059 -2.54636,-6.39384 -4.38047,-0.14845 5.73961,18.37419 -12.37087,-15.49622 z"
       id="path30-5"
       sodipodi:nodetypes="ccccccccccccccccccccccccc" />
    <path
       style="fill:#00ffa6;fill-opacity:1;stroke-width:0.844661"
       d="m 530.27284,133.65914 8.14042,-2.67863 -3.0912,-17.9632 5.52626,15.70929 6.31772,-3.10701 -5.44156,-29.929303 8.87753,28.384663 7.84647,-2.89914 -0.86408,-13.30011 4.09129,12.9302 7.9083,-3.01582 -7.25616,5.32084 5.88948,14.80605 -9.50124,-14.56465 -7.10062,3.33751 13.47162,30.74911 -17.03649,-29.56893 -5.82683,3.21119 6.33647,15.95447 -9.00825,-14.49967 z"
       id="path30"
       sodipodi:nodetypes="ccccccccccccccccccccc" />
    <path
       style="fill:#333333;stroke-width:1.16871"
       d="m 645.11059,532.89106 33.92991,9.37094 c 5.8381,8.50256 6.72699,27.04516 -4.05489,40.57529 l -31.61968,-10.90067 c -5.75481,-7.58333 -9.33493,-25.62594 1.74466,-39.04556 z"
       id="path35"
       sodipodi:nodetypes="ccccc" />
    <path
       style="fill:#333333;stroke-width:1.20871"
       d="m 608.20709,525.7909 -35.46833,7.61117 c -10.2847,13.44121 -5.69325,37.19902 1.51573,42.46237 l 32.74001,-8.01177 c 6.05806,-7.53671 7.57991,-25.48458 1.21259,-42.06177 z"
       id="path36"
       sodipodi:nodetypes="ccccc" />
    <path
       style="fill:#00ffa6;fill-opacity:1;stroke-width:1.20871"
       d="m 573.67451,533.20934 c 5.95158,19.87445 4.772,29.67133 2.61159,42.17933 l 1.81401,-0.55128 c 3.44085,-20.80121 0.70925,-28.98838 -2.59643,-42.01639 z"
       id="path37"
       sodipodi:nodetypes="ccccc" />
    <path
       style="fill:#00ffa6;fill-opacity:1;stroke-width:1.19332"
       d="m 677.10209,541.6748 c -10.01775,12.75788 -8.6195,26.61307 -2.76285,40.89678 l -3.13042,-0.75599 c -5.45154,-14.51735 -5.96885,-28.32855 3.5336,-40.70582 z"
       id="path38"
       sodipodi:nodetypes="ccccc" />
    <path
       style="fill:#333333;stroke-width:1.0982"
       d="m 623.08685,522.69046 13.46438,-24.30354 -8.21939,24.74397 -9.66996,141.92579 z"
       id="path39"
       sodipodi:nodetypes="ccccc" />
    <path
       style="fill:#333333;fill-opacity:1;stroke-width:1.0982"
       d="m 527.22461,109.86094 3.72571,-18.796703 -11.1771,-33.529279 6.05426,34.799329 -4.65714,20.828793 z"
       id="path40" />
    <path
       style="fill:#333333;fill-opacity:1;stroke-width:1.0982"
       d="m 569.18419,96.114547 -15.74987,-14.038941 -17.8316,-30.400907 12.26734,32.561158 15.60661,14.23708 z"
       id="path41"
       sodipodi:nodetypes="cccccc" />
    <path
       style="fill:#333333;fill-opacity:0.986842;stroke-width:1.0982"
       d="m 275.74766,180.20377 52.1362,41.44232 c 13.27987,-11.64472 23.28389,-25.2958 28.29548,-42.00454 l -52.24941,-41.68617 c -14.6334,13.02642 -23.84136,27.14674 -28.18227,42.24839 z"
       id="path47"
       sodipodi:nodetypes="ccccc" />
    <path
       style="fill:#00ffa6;fill-opacity:1;stroke-width:1.0982"
       d="m 278.00444,182.30159 c 0,0 13.30339,-11.62746 18.13917,-19.11271 4.53091,-7.01335 9.7398,-23.47577 9.7398,-23.47577 l 2.37045,1.89127 c 0,0 -5.07089,16.5234 -9.61124,23.40647 -4.99045,7.56534 -18.79451,18.76173 -18.79451,18.76173 z"
       id="path48"
       sodipodi:nodetypes="csccscc" />
    <path
       style="fill:#333333;fill-opacity:0.986842;stroke-width:1.0982"
       d="m 368.39453,66.149374 39.23478,56.075776 c 16.09131,-6.50257 29.55329,-15.96902 39.00807,-29.952456 L 407.35967,35.931056 c -17.78491,7.347762 -30.60289,17.517356 -38.96514,30.218318 z"
       id="path47-9"
       sodipodi:nodetypes="ccccc" />
    <path
       style="fill:#00ffa6;fill-opacity:1;stroke-width:1.0982"
       d="m 370.00937,68.861244 c 0,0 16.10941,-6.47861 22.86019,-11.8846 6.32519,-5.065187 15.9039,-18.752613 15.9039,-18.752613 l 1.782,2.556124 c 0,0 -9.46148,13.790262 -15.76007,18.730329 -6.92294,5.42972 -23.40003,11.33887 -23.40003,11.33887 z"
       id="path48-0"
       sodipodi:nodetypes="csccscc" />
    <path
       style="fill:#333333;fill-opacity:0.986842;stroke-width:1.0982"
       d="m 826.17391,113.96948 -50.97442,45.96892 c 7.29138,16.1313 17.23982,29.25521 31.23775,37.79586 l 51.22563,-46.0381 c -8.21246,-17.81426 -18.78994,-30.20371 -31.48896,-37.72668 z"
       id="path47-9-9-8"
       sodipodi:nodetypes="ccccc" />
    <path
       style="fill:#00ffa6;fill-opacity:1;stroke-width:1.0982"
       d="m 823.68984,115.89875 c 0,0 7.26969,16.15233 12.88827,22.67282 5.26435,6.10941 18.98765,14.80616 18.98765,14.80616 l -2.32406,2.08867 c 0,0 -13.81368,-8.56539 -18.95671,-14.65867 -5.65279,-6.6973 -12.40275,-23.28447 -12.40275,-23.28447 z"
       id="path48-0-7-6"
       sodipodi:nodetypes="csccscc" />
    <path
       style="fill:#e6e6e6;stroke-width:1"
       d="m 473.57492,935.66735 -12.72669,36.52009 -112.92155,11.06671 -11.62005,16.47605 h 164.74903 l 2.39937,-100.02962 -16.04671,20.47338 h -9.40671 L 473.0216,904.6806 Z"
       id="path5"
       sodipodi:nodetypes="cccccccccc" />
    <path
       style="fill:#e6e6e6;stroke-width:1"
       d="m 786.93707,941.59084 -5.35006,-44.80687 12.03767,28.08791 12.03767,-0.66877 8.0251,-28.08787 v 43.46935 l 12.01849,29.57705 18.14849,13.19291 11.74768,17.62155 -78.73755,0.2532 4.21509,-19.82414 5.83859,-11.70061 z"
       id="path6"
       sodipodi:nodetypes="ccccccccccccc" />
    <path
       style="fill:#e6e6e6;stroke-width:1.01735"
       d="m 806.82363,908.81759 -15.54859,-0.8346 -20.44295,-101.71707 -15.40348,-125.18461 25.5909,-66.55713 28.73827,-1.38832 28.98726,59.92046 -7.30906,139.71925 z"
       id="path7-9"
       sodipodi:nodetypes="ccccccccc" />
    <path
       style="fill:#333333;fill-opacity:0.986842;stroke-width:1.0982"
       d="m 725.03467,31.789194 -41.40998,55.157478 c 10.50865,13.953878 23.05238,24.444688 38.69766,29.657648 l 41.64583,-55.277946 c -11.7645,-15.37528 -24.78546,-25.02457 -38.93351,-29.53718 z"
       id="path47-9-9"
       sodipodi:nodetypes="ccccc" />
    <path
       style="fill:#00ffa6;fill-opacity:1;stroke-width:1.0982"
       d="m 722.95389,34.178044 c 0,0 10.49132,13.97877 17.39562,19.04603 6.46899,4.74782 21.87272,10.16986 21.87272,10.16986 l -1.88946,2.50786 c 0,0 -15.46708,-5.27628 -21.81214,-10.03459 -6.97404,-5.23002 -17.0363,-19.7386 -17.0363,-19.7386 z"
       id="path48-0-7"
       sodipodi:nodetypes="csccscc" />
    <path
       style="fill:#333333;stroke-width:1"
       d="m 284.86776,159.37795 c -5.50591,6.10955 -22.88587,9.22022 -22.88587,9.22022 l -3.52597,-3.32288 6.95926,-7.70705 0.8806,-10.55192 5.79564,-5.0457 6.89124,0.57228 9.61397,-10.64702 3.68023,1.63255 c 0,0 -1.40846,19.191 -7.4091,25.84952 z"
       id="path8"
       sodipodi:nodetypes="sccccccccs" />
    <path
       style="fill:#333333;stroke-width:1.09867"
       d="m 293.94065,165.68001 c 5.77421,-6.93393 6.65072,-26.6033 6.65072,-26.6033 l -4.06353,-3.44817 -7.28207,8.76216 -11.1942,2.42213 -4.59202,7.10881 1.58937,7.55136 -10.05994,12.1046 2.27217,3.85078 c 0,0 20.38647,-4.19139 26.6795,-11.74837 z"
       id="path8-5"
       sodipodi:nodetypes="sccccccccs" />
    <path
       style="fill:#333333;stroke-width:1"
       d="m 386.67467,47.969217 c -6.25255,5.342965 -23.88928,6.170747 -23.88928,6.170747 l -3.06469,-3.752554 7.90101,-6.738245 2.24318,-10.348267 6.4017,-4.250503 6.7586,1.462172 10.91497,-9.30865 3.43711,2.09656 c 0,0 -3.88824,18.845685 -10.7026,24.66874 z"
       id="path8-3"
       sodipodi:nodetypes="sccccccccs" />
    <path
       style="fill:#333333;stroke-width:1.09867"
       d="m 394.85252,55.395927 c 6.62561,-6.125532 10.04851,-25.514605 10.04851,-25.514605 l -3.58143,-3.946578 -8.35808,7.742511 -11.41393,0.948209 -5.47614,6.452423 0.59548,7.6938 -11.54641,10.695989 1.75296,4.113196 c 0,0 20.7581,-1.508998 27.97904,-8.184945 z"
       id="path8-5-7"
       sodipodi:nodetypes="sccccccccs" />
    <path
       style="fill:#333333;stroke-width:1"
       d="m 746.85726,44.064218 c -7.099,-4.152809 -13.66893,-20.541081 -13.66893,-20.541081 l 2.53896,-4.126463 8.95799,5.252072 10.51129,-1.277138 6.116,4.652223 0.83684,6.864133 12.37515,7.255552 -0.85246,3.934793 c 0,0 -19.07796,2.511859 -26.81484,-2.014091 z"
       id="path8-3-3"
       sodipodi:nodetypes="sccccccccs" />
    <path
       style="fill:#333333;stroke-width:1.09867"
       d="m 742.52567,54.226431 c 7.96066,4.248386 27.3992,1.118633 27.3992,1.118633 l 2.55266,-4.678258 -10.05665,-5.354247 -4.64149,-10.470595 -7.89222,-3.055301 -7.07226,3.087441 -13.89288,-7.396725 -3.31011,3.005736 c 0,0 8.23779,19.113206 16.91375,23.743316 z"
       id="path8-5-7-9"
       sodipodi:nodetypes="sccccccccs" />
    <path
       style="fill:#333333;stroke-width:1"
       d="m 845.61107,132.06577 c -5.74245,-5.88777 -7.72789,-23.43193 -7.72789,-23.43193 l 3.54296,-3.30476 7.24308,7.44094 10.47335,1.55801 4.66216,6.10842 -1.01469,6.84012 10.00608,10.27939 -1.86608,3.5675 c 0,0 -19.06052,-2.64089 -25.31897,-9.05769 z"
       id="path8-3-3-3"
       sodipodi:nodetypes="sccccccccs" />
    <path
       style="fill:#333333;stroke-width:1.09867"
       d="m 838.73806,140.71416 c 6.54786,6.20859 26.12001,8.34942 26.12001,8.34942 l 3.70259,-3.83313 -8.27524,-7.83101 -1.69651,-11.32689 -6.79848,-5.0401 -7.63801,1.09999 -11.43192,-10.81827 -3.98906,2.01957 c 0,0 2.8704,20.61399 10.00662,27.38042 z"
       id="path8-5-7-9-9"
       sodipodi:nodetypes="sccccccccs" />
  </g>
</svg>
