<?xml version="1.0" encoding="UTF-8" standalone="no"?>
<!-- Created with Inkscape (http://www.inkscape.org/) -->

<svg
   width="1000mm"
   height="1000mm"
   viewBox="0 0 1000 1000"
   version="1.1"
   id="svg1"
   inkscape:version="1.3.2 (091e20e, 2023-11-25)"
   sodipodi:docname="Enemy1.svg"
   xmlns:inkscape="http://www.inkscape.org/namespaces/inkscape"
   xmlns:sodipodi="http://sodipodi.sourceforge.net/DTD/sodipodi-0.dtd"
   xmlns="http://www.w3.org/2000/svg"
   xmlns:svg="http://www.w3.org/2000/svg">
  <sodipodi:namedview
     id="namedview1"
     pagecolor="#505050"
     bordercolor="#eeeeee"
     borderopacity="1"
     inkscape:showpageshadow="0"
     inkscape:pageopacity="0"
     inkscape:pagecheckerboard="0"
     inkscape:deskcolor="#505050"
     inkscape:document-units="mm"
     inkscape:zoom="0.1006163"
     inkscape:cx="1098.2316"
     inkscape:cy="2057.3207"
     inkscape:window-width="1512"
     inkscape:window-height="831"
     inkscape:window-x="0"
     inkscape:window-y="38"
     inkscape:window-maximized="0"
     inkscape:current-layer="layer1" />
  <defs
     id="defs1" />
  <g
     inkscape:label="Layer 1"
     inkscape:groupmode="layer"
     id="layer1"
     transform="translate(99.088212)">
    <path
       style="fill:#333333;stroke-width:0.825447"
       d="m 347.02006,87.845568 -18.35016,56.216092 55.42135,37.57324 7.85331,-64.23229 z"
       id="path1"
       sodipodi:nodetypes="ccccc" />
    <path
       style="fill:#333333;stroke-width:0.825447"
       d="m 453.90772,468.53355 -51.71824,37.74826 29.30878,68.79067 58.17333,-62.08092 z"
       id="path1-9"
       sodipodi:nodetypes="ccccc" />
    <path
       style="fill:#333333;stroke-width:0.825447"
       d="m 442.13152,273.18762 -17.65364,52.91182 39.53727,31.59842 23.73738,-47.20402 z"
       id="path1-7"
       sodipodi:nodetypes="ccccc" />
    <path
       style="fill:#333333;stroke-width:0.825447"
       d="m 335.52149,136.15667 c 11.0468,16.49024 17.92088,34.77062 23.57017,66.70695 21.21825,52.74262 50.3241,99.68203 77.36733,127.45096 l 34.86444,-22.64119 C 459.46137,267.00237 445.97658,232.25774 405.73819,170.60736 394.99957,164.07559 381.82305,135.69225 368.1552,116.49981 Z"
       id="path2"
       sodipodi:nodetypes="ccccccc" />
    <path
       style="fill:#333333;stroke-width:0.825447"
       d="m 556.05718,217.46674 c 20.26944,94.57433 32.62226,173.13069 59.9085,271.21343 l 17.99631,-0.4086 c -12.51405,-92.8836 16.51799,-185.7672 -24.21314,-278.6508 z"
       id="path1-7-3"
       sodipodi:nodetypes="ccccc"
       inkscape:transform-center-x="-9.6962733"
       inkscape:transform-center-y="27.948133" />
    <path
       style="fill:#333333;stroke-width:0.825447"
       d="m 388.69398,107.6257 c 45.10164,66.435 140.24748,113.60381 171.1981,114.63143 l 12.75957,-15.33066 C 525.55958,141.20043 471.33073,111.00699 395.77479,88.803373 Z"
       id="path2-8"
       sodipodi:nodetypes="ccccc" />
    <path
       style="fill:#333333;stroke-width:0.825447"
       d="m 445.99027,333.16647 c 12.20189,63.58905 -19.07741,106.97817 -26.30738,173.41922 l 45.72036,7.91395 c 8.2898,-71.23306 29.7376,-135.73817 10.93517,-188.50974 z"
       id="path2-0"
       sodipodi:nodetypes="ccccc" />
    <path
       style="fill:#333333;stroke-width:0.825447"
       d="M 446.44766,438.85801 C 304.15265,532.2465 305.53195,593.94435 295.27253,611.20815 l 16.19637,10.94165 c 52.98057,-36.41375 69.79432,-23.53319 154.4786,-178.24446 z"
       id="path2-0-9"
       sodipodi:nodetypes="ccccc" />
    <path
       style="fill:#333333;stroke-width:0.825447"
       d="M 617.31855,604.5784 C 565.16925,550.76671 554.08528,481.23276 455.63062,444.28186 l -14.02601,13.58933 c 54.51791,111.65812 122.75828,147.65652 167.48978,164.05872 z"
       id="path2-0-9-7"
       sodipodi:nodetypes="ccccc" />
    <path
       style="fill:#333333;stroke-width:1"
       d="m 331.00822,602.9832 c 12.42539,30.90478 24.02593,86.68626 -26.02371,335.09374 l -21.41728,1.42783 c -8.71789,-149.44146 -1.00535,-297.71695 6.73548,-354.13485 z"
       id="path3"
       sodipodi:nodetypes="ccccc"
       inkscape:label="path3" />
    <path
       style="fill:#e6e6e6;stroke-width:0.825447"
       d="m 265.68458,596.12828 81.00244,9.89937 82.11673,-75.75715 -16.52905,-75.52941 c -71.83663,37.36346 -112.09086,75.77845 -146.59012,141.38719 z"
       id="path9"
       sodipodi:nodetypes="ccccc" />
    <path
       style="fill:#333333;stroke-width:1"
       d="m 572.04398,613.63535 c -0.49527,66.58631 -18.23462,100.32113 22.67473,330.3954 l 24.95708,-1.90084 C 639.78109,728.43429 637.98767,694.4516 618.51561,603.3701 Z"
       id="path4"
       sodipodi:nodetypes="ccccc" />
    <path
       style="fill:#e6e6e6;stroke-width:0.825447"
       d="m 445.60707,491.23612 -45.10639,26.3833 3.33203,57.258 22.41727,90.61714 40.29758,-85.67634 5.32397,-57.56561 z"
       id="path10"
       sodipodi:nodetypes="ccccccc" />
    <path
       style="fill:#e6e6e6;stroke-width:0.825447"
       d="m 476.88974,530.55093 10.73244,-70.25302 c 76.38949,30.79935 116.27541,73.28018 161.00266,134.78636 l -81.54882,20.5073 z"
       id="path11"
       sodipodi:nodetypes="ccccc" />
    <path
       style="display:inline;fill:#333333;stroke-width:0.825447"
       d="m 580.02113,262.49925 26.37731,208.15192 -2.89997,32.33107 36.3128,-3.51353 -6.47841,-25.9139 -38.01547,-222.30077 z"
       id="path2-4"
       inkscape:transform-center-x="-52.326805"
       inkscape:transform-center-y="141.85203"
       sodipodi:nodetypes="ccccccc" />
    <path
       style="fill:#333333;stroke-width:0.825447"
       d="m 323.44498,100.12884 c -41.47774,9.93388 -116.69097,115.16973 -116.15726,160.22152 l 29.75546,16.92341 C 326.88688,175.76147 372.52325,168.89575 342.05324,96.044661 Z"
       id="path2-4-5"
       sodipodi:nodetypes="ccccc" />
    <path
       style="fill:#333333;stroke-width:0.825447"
       d="m 252.52319,543.77373 -24.6297,-6.49225 -20.56172,21.55078 10.5424,62.88207 33.94367,-10.67388 z"
       id="path1-7-5-9-7"
       sodipodi:nodetypes="cccccc" />
    <path
       style="fill:#333333;stroke-width:0.825447"
       d="m 192.11943,264.77246 c -14.99026,76.4067 18.40249,177.00491 27.60374,265.50736 l 18.85122,-2.02529 c 0.65592,-95.19381 21.96923,-205.1429 1.96775,-285.58142 z"
       id="path2-4-5-5"
       sodipodi:nodetypes="ccccc" />
    <path
       style="fill:#e6e6e6;stroke-width:0.825447"
       d="m 451.70338,486.2814 -22.00656,-18.5117 -18.00892,-44.37054 22.44145,26.35992 18.60264,13.11968 25.33267,-12.97346 26.72281,-27.0988 -26.07104,43.80348 z"
       id="path18"
       sodipodi:nodetypes="ccccccccc" />
    <path
       style="fill:#e6e6e6;stroke-width:0.844849"
       d="m 459.19484,397.43129 -27.48736,-20.46695 -19.70598,-40.23609 29.22304,25.11766 19.02096,9.92895 24.00656,-8.12412 33.53675,-30.8834 -29.27187,46.40407 z"
       id="path18-0"
       sodipodi:nodetypes="ccccccccc" />
    <path
       style="fill:#e6e6e6;stroke-width:0.825447"
       d="m 465.21106,363.05217 -24.26846,-7.8631 -38.26038,-38.37809 30.94909,-39.71824 56.67159,2.40332 -1.59179,57.57409 z"
       id="path28"
       sodipodi:nodetypes="ccccccc" />
    <path
       style="fill:#e6e6e6;stroke-width:0.825447"
       d="m 453.53717,456.06157 -22.8723,-21.31111 -14.99214,-44.23707 23.35672,29.99248 17.92034,8.56362 22.47984,-6.89682 34.05945,-30.4183 -28.28264,46.29573 z"
       id="path18-8"
       sodipodi:nodetypes="ccccccccc" />
    <path
       style="fill:#333333;fill-opacity:1;stroke-width:1.0982"
       d="m 299.80285,89.437286 17.3255,6.472386 5.60656,-21.195507 36.16448,-13.755408 18.27485,10.096947 9.25608,-16.569337 -23.02156,-11.650294 -53.78568,18.254208 z"
       id="path42"
       sodipodi:nodetypes="ccccccccc" />
    <path
       style="fill:#e6e6e6;stroke-width:0.825447"
       d="m 339.54985,63.136026 43.36652,38.635604 c 4.77113,14.44964 4.38368,31.77706 5.68789,45.38329 2.2665,23.64523 6.21178,37.19062 2.60681,56.63951 -15.78205,-11.96634 -28.24694,-26.5257 -37.21625,-41.07481 -11.79184,-19.12753 -18.28424,-20.43259 -26.87289,-38.88298 z"
       id="path27"
       sodipodi:nodetypes="ccscscc"
       inkscape:label="path27" />
    <path
       style="fill:#e6e6e6;stroke-width:0.825447"
       d="m 458.92208,425.55216 -23.06166,-15.64094 -24.04477,-43.97435 25.81704,24.43798 21.5291,12.33137 22.89476,-8.41861 29.56146,-28.72804 -29.03951,50.08915 z"
       id="path18-8-2"
       sodipodi:nodetypes="ccccccccc" />
    <path
       style="fill:#e207b6;fill-opacity:1;stroke-width:1.0982"
       d="m 308.64638,84.155216 5.57239,-16.589445 45.6238,-16.716108 18.5746,9.117845 -2.20572,4.179051 -16.13667,-7.97814 -43.41812,16.082895 -4.06318,13.67682 z"
       id="path43" />
    <path
       style="fill:#e6e6e6;stroke-width:0.825447"
       d="m 329.86097,148.07781 -4.64224,42.79688 12.65995,74.42468 57.54352,47.12845 32.94703,-43.6613 50.48665,3.23501 5.10259,-91.16932 -63.57353,-55.11098 -29.59438,-5.74882 13.92676,48.5457 -7.54364,54.22261 -37.13803,-22.9234 z"
       id="path29"
       sodipodi:nodetypes="ccccccccccccc" />
    <path
       style="fill:#333333;fill-opacity:1;stroke-width:1.0982"
       d="m 469.25115,258.0937 1.00905,-70.9952 -44.39767,-45.12873 50.9564,42.377 z"
       id="path45" />
    <path
       style="fill:#333333;fill-opacity:1;stroke-width:1.0982"
       d="m 394.58235,301.57143 -50.95642,-41.2763 -10.59488,-74.29733 18.66718,73.74697 z"
       id="path46" />
    <path
       style="fill:#e6e6e6;stroke-width:0.825447"
       d="m 327.94877,92.765178 -16.56749,70.802752 46.77879,32.18305 29.72361,126.88577 10.2333,43.68447 -61.3972,-141.60547 -58.47351,-42.91076 c 2.00833,-34.1082 0.77875,-68.03048 17.54207,-102.985802 13.54644,-3.444284 23.24423,4.13181 32.16043,13.94599 z"
       id="path19"
       sodipodi:nodetypes="ccccccccc" />
    <path
       style="fill:#e6e6e6;stroke-width:0.825447"
       d="m 449.37337,117.88584 -13.70593,72.56799 13.55453,150.94818 -45.93654,-154.68633 12.52393,-53.94721 -46.7788,-56.408395 c 0.003,-21.29831 9.79349,-24.295499 17.54204,-31.110293 31.06142,19.190273 48.6572,45.057297 62.80077,72.636058 z"
       id="path20"
       sodipodi:nodetypes="cccccccc" />
    <path
       style="fill:#e6e6e6;stroke-width:0.825447"
       d="m 206.15255,67.87562 64.99466,75.76431 -12.98511,104.63575 -83.16234,64.41749 C 159.40323,214.29652 168.3938,151.10269 206.15255,67.87562 Z"
       id="path21"
       sodipodi:nodetypes="ccccc" />
    <path
       style="fill:#e6e6e6;stroke-width:0.825447"
       d="m 465.49465,51.014504 2.49479,102.518736 66.43195,58.71617 107.41121,8.31111 C 592.72984,133.94035 549.10338,95.160342 465.49465,51.014504 Z"
       id="path22"
       sodipodi:nodetypes="ccccc" />
    <path
       style="fill:#e6e6e6;stroke-width:0.825447"
       d="m 235.43917,309.33152 -29.49846,-11.4585 -23.01344,39.92561 9.50999,125.99807 24.40973,99.89569 25.74711,-7.46427 10.27702,-121.44936 1.3773,-85.31634 z"
       id="path24"
       sodipodi:nodetypes="ccccccccc" />
    <path
       style="display:inline;fill:#e6e6e6;stroke-width:0.825447"
       d="m 645.996,286.79863 1.69941,127.60882 -12.96403,72.17075 -21.50724,7.03348 -36.88767,-133.86821 -13.74497,-82.43752 18.41027,-32.01279 26.58936,-7.18884 z"
       id="path25"
       sodipodi:nodetypes="ccccccccc"
       inkscape:transform-center-x="-40.012144"
       inkscape:transform-center-y="134.67993" />
    <path
       style="fill:#e6e6e6;stroke-width:1"
       d="m 278.16043,900.41568 15.02281,-0.8346 26.7072,-99.31741 25.0412,-133.53248 -34.88413,-58.20926 -27.76648,-1.38832 -16.65989,43.03805 1.38832,161.73979 z"
       id="path7"
       sodipodi:nodetypes="ccccccccc"
       inkscape:label="path7" />
    <path
       style="fill:#e6e6e6;stroke-width:0.825447"
       d="m 213.96754,558.56859 1.07129,15.22917 11.21142,4.45363 12.32065,-1.19848 9.31998,-9.48289 0.86715,-13.07872 7.72655,-18.68384 -2.68655,53.17721 6.50125,18.56275 21.53164,36.97168 -17.41369,32.17612 3.59233,-21.1735 3.10292,-12.44616 -9.37359,-16.26236 -1.06487,24.8958 -8.86666,37.61096 -30.94819,47.70108 4.08341,-21.72438 18.1576,-29.97039 7.64931,-37.93772 -2.65509,-14.68228 -2.64643,11.43844 -7.30523,37.68118 -34.17605,49.1888 6.9855,-24.01207 17.28067,-28.00032 8.3183,-38.11987 -2.19574,-12.72701 -2.38288,9.36897 -10.59131,36.12973 -31.41769,44.42753 7.38671,-22.67748 14.29275,-25.86343 8.69846,-36.93515 -1.38201,-9.86721 -3.62341,8.62893 -9.15016,35.9277 -33.08713,42.19553 8.63668,-22.70475 15.90383,-23.59531 7.268,-36.05837 5.33138,-35.01197 -7.8874,-43.86178 z"
       id="path26"
       sodipodi:nodetypes="cccccccccccccccccccccccccccccccccccccccccccc" />
    <path
       style="display:inline;fill:#e6e6e6;stroke-width:0.827137"
       d="m 639.09052,479.13009 -0.69837,15.75017 -10.83724,5.78414 -12.04822,0.10168 -9.30924,-8.72771 -1.14392,-13.33297 -7.96421,-18.34571 2.35934,45.63105 -4.44715,28.4301 -23.85059,22.48684 -9.99217,34.96922 13.43496,-16.22039 5.21662,-11.87158 14.76138,-14.23682 -4.21288,23.36714 -1.55743,42.77536 29.22338,51.91947 -5.2278,-25.14326 -12.48108,-28.57969 0.34521,-40.01563 6.82142,-14.94172 -1.70986,13.20456 1.6426,39.02022 29.91071,45.79522 -6.46223,-24.0519 -12.66966,-25.9491 -1.09582,-35.87868 3.68536,-18.29749 0.92897,11.67935 4.40271,38.73348 26.01981,40.12156 -6.7691,-25.09437 -9.34083,-20.33364 -3.88566,-37.01396 3.54215,-15.31793 2.12246,10.78549 4.17473,37.13681 26.4151,39.19478 -7.43248,-25.76674 -8.92904,-18.44245 -2.51006,-35.83563 -4.46124,-45.87736 3.85633,-42.42933 z"
       id="path26-80"
       sodipodi:nodetypes="cccccccccccccccccccccccccccccccccccccccccccc"
       inkscape:transform-center-x="-56.127061"
       inkscape:transform-center-y="332.80682" />
    <path
       style="fill:#333333;stroke-width:0.989474"
       d="m 335.75762,134.36183 7.20605,-5.25031 -0.89077,-18.96576 8.15001,15.60568 2.39435,-5.23501 -2.65618,-4.59171 -2.28764,-26.327475 9.4489,23.804225 0.66119,5.2092 5.51306,1.25962 0.78704,-17.43764 7.14267,14.50424 8.7147,-0.5144 -7.37353,7.80354 5.27197,18.04629 -11.99207,-15.89606 -3.38721,3.76465 3.23855,5.32519 10.46925,29.24944 -17.09661,-25.90059 -2.54636,-6.39384 -4.38047,-0.14845 5.73961,18.37419 -12.37087,-15.49622 z"
       id="path30-5"
       sodipodi:nodetypes="ccccccccccccccccccccccccc" />
    <path
       style="fill:#ff00cc;stroke-width:0.844661"
       d="m 337.75081,133.68121 8.14042,-2.67863 -3.0912,-17.9632 5.52626,15.70929 6.31772,-3.10701 -5.44156,-29.929297 8.87753,28.384657 7.84647,-2.89914 -0.86408,-13.30011 4.09129,12.9302 7.9083,-3.01582 -7.25616,5.32084 5.88948,14.80605 -9.50124,-14.56465 -7.10062,3.33751 13.47162,30.74911 -17.03649,-29.56893 -5.82683,3.21119 6.33647,15.95447 -9.00825,-14.49967 z"
       id="path30"
       sodipodi:nodetypes="ccccccccccccccccccccc" />
    <path
       style="fill:#333333;stroke-width:1.16871"
       d="m 452.58856,532.91313 33.92991,9.37094 c 5.8381,8.50256 6.72699,27.04516 -4.05489,40.57529 L 450.8439,571.95869 c -5.75481,-7.58333 -9.33493,-25.62594 1.74466,-39.04556 z"
       id="path35"
       sodipodi:nodetypes="ccccc" />
    <path
       style="fill:#333333;stroke-width:1.20871"
       d="m 415.68506,525.81297 -35.46833,7.61117 c -10.2847,13.44121 -5.69325,37.19902 1.51573,42.46237 l 32.74001,-8.01177 c 6.05806,-7.53671 7.57991,-25.48458 1.21259,-42.06177 z"
       id="path36"
       sodipodi:nodetypes="ccccc" />
    <path
       style="fill:#d400aa;fill-opacity:1;stroke-width:1.20871"
       d="m 381.15248,533.23141 c 5.95158,19.87445 4.772,29.67133 2.61159,42.17933 l 1.81401,-0.55128 c 3.44085,-20.80121 0.70925,-28.98838 -2.59643,-42.01639 z"
       id="path37"
       sodipodi:nodetypes="ccccc" />
    <path
       style="fill:#d400aa;fill-opacity:1;stroke-width:1.19332"
       d="m 484.58006,541.69687 c -10.01775,12.75788 -8.6195,26.61307 -2.76285,40.89678 l -3.13042,-0.75599 c -5.45154,-14.51735 -5.96885,-28.32855 3.5336,-40.70582 z"
       id="path38"
       sodipodi:nodetypes="ccccc" />
    <path
       style="fill:#333333;stroke-width:1.0982"
       d="m 430.56482,522.71253 13.46438,-24.30354 -8.21939,24.74397 -9.66996,141.92579 z"
       id="path39"
       sodipodi:nodetypes="ccccc" />
    <path
       style="fill:#333333;fill-opacity:1;stroke-width:1.0982"
       d="m 334.70258,109.88301 3.72571,-18.796696 -11.1771,-33.529283 6.05426,34.799324 -4.65714,20.828795 z"
       id="path40" />
    <path
       style="fill:#333333;fill-opacity:1;stroke-width:1.0982"
       d="M 376.66216,96.136624 360.91229,82.097679 343.08069,51.696772 355.34803,84.25793 370.95464,98.495006 Z"
       id="path41"
       sodipodi:nodetypes="cccccc" />
    <path
       style="fill:#333333;fill-opacity:0.986842;stroke-width:1.0982"
       d="m 111.97706,261.87933 66.58652,1.37247 c 3.50724,-17.31051 3.19282,-34.2319 -2.94587,-50.56024 l -66.82435,-1.49783 c -3.74665,19.22984 -2.51462,36.0421 3.1837,50.6856 z"
       id="path47"
       sodipodi:nodetypes="ccccc" />
    <path
       style="fill:#d400aa;fill-opacity:1;stroke-width:1.0982"
       d="m 115.04352,262.18053 c 0,0 3.53642,-17.31103 2.84719,-26.19578 -0.64578,-8.32461 -6.47825,-24.57657 -6.47825,-24.57657 l 3.03172,0.068 c 0,0 5.9792,16.21684 6.53852,24.44353 0.61472,9.04219 -3.58118,26.31371 -3.58118,26.31371 z"
       id="path48"
       sodipodi:nodetypes="csccscc" />
    <path
       style="fill:#333333;fill-opacity:0.986842;stroke-width:1.0982"
       d="m 132.38499,130.94531 62.42004,28.06419 c 10.48936,-13.82705 17.20236,-28.85283 18.16008,-45.70549 L 150.372,85.033495 c -11.51099,15.420415 -17.31073,30.720225 -17.98701,45.911815 z"
       id="path47-9"
       sodipodi:nodetypes="ccccc" />
    <path
       style="fill:#d400aa;fill-opacity:1;stroke-width:1.0982"
       d="m 135.16097,132.44726 c 0,0 10.51718,-13.81572 13.54608,-21.91656 2.83793,-7.59013 4.0537,-24.252045 4.0537,-24.252045 l 2.83977,1.28257 c 0,0 -1.0624,16.690185 -3.94158,24.159225 -3.1646,8.2094 -14.28926,21.72437 -14.28926,21.72437 z"
       id="path48-0"
       sodipodi:nodetypes="csccscc" />
    <path
       style="fill:#333333;fill-opacity:0.986842;stroke-width:1.0982"
       d="m 529.07982,29.08576 -41.40998,55.157478 c 10.50865,13.953878 23.05238,24.444682 38.69766,29.657642 L 568.01333,58.622939 C 556.24883,43.247656 543.22787,33.598372 529.07982,29.08576 Z"
       id="path47-9-9"
       sodipodi:nodetypes="ccccc" />
    <path
       style="fill:#d400aa;fill-opacity:1;stroke-width:1.0982"
       d="m 526.99904,31.474612 c 0,0 10.49132,13.978769 17.39562,19.046027 6.46899,4.747816 21.87272,10.16986 21.87272,10.16986 l -1.88946,2.507866 c 0,0 -15.46708,-5.276289 -21.81214,-10.034598 -6.97404,-5.230012 -17.0363,-19.7386 -17.0363,-19.7386 z"
       id="path48-0-7"
       sodipodi:nodetypes="csccscc" />
    <path
       style="fill:#333333;fill-opacity:0.986842;stroke-width:1.0982"
       d="m 633.65188,113.99155 -50.97442,45.96892 c 7.29138,16.1313 17.23982,29.25521 31.23775,37.79586 l 51.22563,-46.0381 c -8.21246,-17.81426 -18.78994,-30.20371 -31.48896,-37.72668 z"
       id="path47-9-9-8"
       sodipodi:nodetypes="ccccc" />
    <path
       style="fill:#d400aa;fill-opacity:1;stroke-width:1.0982"
       d="m 631.16781,115.92082 c 0,0 7.26969,16.15233 12.88827,22.67282 5.26435,6.10941 18.98765,14.80616 18.98765,14.80616 l -2.32406,2.08867 c 0,0 -13.81368,-8.56539 -18.95671,-14.65867 -5.65279,-6.6973 -12.40275,-23.28447 -12.40275,-23.28447 z"
       id="path48-0-7-6"
       sodipodi:nodetypes="csccscc" />
    <path
       style="fill:#e6e6e6;stroke-width:1"
       d="m 281.05289,935.68942 -12.72669,36.52009 -112.92155,11.06671 -11.62005,16.47606 h 164.74903 l 2.39937,-100.02963 -16.04671,20.47338 h -9.40671 l -4.98001,-15.49336 z"
       id="path5"
       sodipodi:nodetypes="cccccccccc" />
    <path
       style="fill:#e6e6e6;stroke-width:1"
       d="m 594.41504,941.61291 -5.35006,-44.80687 12.03767,28.08791 12.03767,-0.66877 8.0251,-28.08787 v 43.46935 l 12.01849,29.57705 18.14849,13.19291 11.74768,17.62156 -78.73755,0.25322 4.21509,-19.82417 5.83859,-11.70061 z"
       id="path6"
       sodipodi:nodetypes="ccccccccccccc" />
    <path
       style="fill:#e6e6e6;stroke-width:1.01735"
       d="m 614.3016,908.83966 -15.54859,-0.8346 -20.44295,-101.71707 -15.40348,-125.18461 25.5909,-66.55713 28.73827,-1.38832 28.98726,59.92046 -7.30906,139.71925 z"
       id="path7-9"
       sodipodi:nodetypes="ccccccccc" />
  </g>
</svg>
