<?xml version="1.0" encoding="UTF-8" standalone="no"?>
<!-- Created with Inkscape (http://www.inkscape.org/) -->

<svg
   width="1000mm"
   height="1000mm"
   viewBox="0 0 1000 1000"
   version="1.1"
   id="svg1"
   inkscape:version="1.3.2 (091e20e, 2023-11-25)"
   sodipodi:docname="Enemy1Attack.svg"
   xmlns:inkscape="http://www.inkscape.org/namespaces/inkscape"
   xmlns:sodipodi="http://sodipodi.sourceforge.net/DTD/sodipodi-0.dtd"
   xmlns="http://www.w3.org/2000/svg"
   xmlns:svg="http://www.w3.org/2000/svg">
  <sodipodi:namedview
     id="namedview1"
     pagecolor="#505050"
     bordercolor="#eeeeee"
     borderopacity="1"
     inkscape:showpageshadow="0"
     inkscape:pageopacity="0"
     inkscape:pagecheckerboard="0"
     inkscape:deskcolor="#505050"
     inkscape:document-units="mm"
     inkscape:zoom="0.14911368"
     inkscape:cx="787.98941"
     inkscape:cy="1884.4683"
     inkscape:window-width="1512"
     inkscape:window-height="831"
     inkscape:window-x="0"
     inkscape:window-y="38"
     inkscape:window-maximized="0"
     inkscape:current-layer="layer1" />
  <defs
     id="defs1" />
  <g
     inkscape:label="Layer 1"
     inkscape:groupmode="layer"
     id="layer1"
     transform="translate(99.088212)">
    <path
       style="fill:#333333;stroke-width:0.825447"
       d="m 470.25431,87.823497 -18.35016,56.216093 55.42135,37.57324 7.85331,-64.23229 z"
       id="path1"
       sodipodi:nodetypes="ccccc" />
    <path
       style="fill:#333333;stroke-width:0.825447"
       d="m 577.14197,468.51148 -51.71824,37.74826 29.30878,68.79067 58.17333,-62.08092 z"
       id="path1-9"
       sodipodi:nodetypes="ccccc" />
    <path
       style="fill:#333333;stroke-width:0.825447"
       d="m 565.36577,273.16555 -17.65364,52.91182 39.53727,31.59842 23.73738,-47.20402 z"
       id="path1-7"
       sodipodi:nodetypes="ccccc" />
    <path
       style="fill:#333333;stroke-width:0.825447"
       d="m 458.75574,136.1346 c 11.00191,16.4546 -12.86823,10.32044 23.57017,66.70695 21.21825,52.74262 50.3241,99.68203 77.36733,127.45096 l 34.86444,-22.64119 c -11.86206,-40.67102 -25.34685,-75.41565 -65.58524,-137.06603 -1.08662,-16.8732 -9.09243,-36.9834 -22.76028,-56.17584 z"
       id="path2"
       sodipodi:nodetypes="ccccccc" />
    <path
       style="fill:#333333;stroke-width:0.825447"
       d="M 698.84576,182.91731 C 618.40352,236.62205 540.05837,286.5315 458.94137,348.0522 l 7.01377,16.57834 C 547.68457,318.75828 644.72906,311.50631 716.05689,239.4041 Z"
       id="path1-7-3"
       sodipodi:nodetypes="ccccc"
       inkscape:transform-center-x="115.07943"
       inkscape:transform-center-y="61.732865" />
    <path
       style="fill:#333333;stroke-width:0.825447"
       d="m 480.06041,111.09599 c 45.10164,66.435 190.5834,101.27888 221.53402,102.3065 L 714.354,198.07183 C 667.26193,132.34579 561.8942,103.23583 487.14122,92.273667 Z"
       id="path2-8"
       sodipodi:nodetypes="ccccc" />
    <path
       style="fill:#333333;stroke-width:0.825447"
       d="m 569.22452,333.1444 c 12.20189,63.58905 -19.07741,106.97817 -26.30738,173.41922 l 45.72036,7.91395 c 8.2898,-71.23306 29.7376,-135.73817 10.93517,-188.50974 z"
       id="path2-0"
       sodipodi:nodetypes="ccccc" />
    <path
       style="fill:#333333;stroke-width:0.825447"
       d="M 569.68191,438.83594 C 427.3869,532.22443 428.7662,593.92228 418.50678,611.18608 l 16.19637,10.94165 c 52.98057,-36.41375 69.79432,-23.53319 154.4786,-178.24446 z"
       id="path2-0-9"
       sodipodi:nodetypes="ccccc" />
    <path
       style="fill:#333333;stroke-width:0.825447"
       d="M 740.5528,604.55633 C 688.4035,550.74464 677.31953,481.21069 578.86487,444.25979 l -14.02601,13.58933 c 54.51791,111.65812 122.75828,147.65652 167.48978,164.05872 z"
       id="path2-0-9-7"
       sodipodi:nodetypes="ccccc" />
    <path
       style="fill:#e6e6e6;stroke-width:0.825447"
       d="m 287.81477,280.77206 5.97166,-31.07726 -43.41092,-15.46494 -122.23863,31.99486 -89.895218,41.57174 -5.12455,14.18627 15.30864,11.14162 119.115698,-12.66337 84.17527,-13.97498 z"
       id="path24"
       sodipodi:nodetypes="cccccccccc"
       inkscape:transform-center-x="176.90334"
       inkscape:transform-center-y="31.123192"
       inkscape:label="path24" />
    <path
       style="fill:#333333;stroke-width:1"
       d="m 454.24247,602.96113 c 12.42539,30.90478 24.02593,86.68626 -26.02371,335.09374 l -21.41728,1.42783 c -8.71789,-149.44146 -1.00535,-297.71695 6.73548,-354.13485 z"
       id="path3"
       sodipodi:nodetypes="ccccc"
       inkscape:label="path3" />
    <path
       style="fill:#e6e6e6;stroke-width:0.825447"
       d="m 388.91883,596.10621 81.00244,9.89937 82.11673,-75.75715 -16.52905,-75.52941 c -71.83663,37.36346 -112.09086,75.77845 -146.59012,141.38719 z"
       id="path9"
       sodipodi:nodetypes="ccccc" />
    <path
       style="fill:#333333;stroke-width:1"
       d="m 695.27823,613.61328 c -0.49527,66.58631 -18.23462,100.32113 22.67473,330.3954 l 24.95708,-1.90084 c 20.1053,-213.69562 18.31188,-247.67831 -1.16018,-338.75981 z"
       id="path4"
       sodipodi:nodetypes="ccccc" />
    <path
       style="fill:#e6e6e6;stroke-width:0.825447"
       d="m 568.84132,491.21405 -45.10639,26.3833 3.33203,57.258 22.41727,90.61714 40.29758,-85.67634 5.32397,-57.56561 z"
       id="path10"
       sodipodi:nodetypes="ccccccc" />
    <path
       style="fill:#e6e6e6;stroke-width:0.825447"
       d="m 600.12399,530.52886 10.73244,-70.25302 c 76.38949,30.79935 116.27541,73.28018 161.00266,134.78636 l -81.54882,20.5073 z"
       id="path11"
       sodipodi:nodetypes="ccccc" />
    <path
       style="display:inline;fill:#333333;stroke-width:0.825447"
       d="m 655.9438,231.26237 -183.76983,101.25035 -31.12323,9.22239 16.652,32.46036 27.59067,-14.3165 186.74231,-118.54284 z"
       id="path2-4"
       inkscape:transform-center-x="146.03533"
       inkscape:transform-center-y="90.68786"
       sodipodi:nodetypes="ccccccc" />
    <path
       style="fill:#333333;stroke-width:0.825447"
       d="m 446.67923,100.10677 c -41.47774,9.93388 -116.52872,91.25078 -129.62679,137.60083 l -21.37558,26.02213 46.76404,6.30887 C 429.64737,209.59178 495.7575,168.87368 465.28749,96.022587 Z"
       id="path2-4-5"
       sodipodi:nodetypes="cccccc" />
    <path
       style="fill:#333333;stroke-width:0.825447"
       d="m 70.351682,330.83091 -8.13273,-16.5231 -2.08254,-17.59293 -82.776433,22.90779 16.5992507,31.47332 z"
       id="path1-7-5-9-7"
       sodipodi:nodetypes="cccccc"
       inkscape:transform-center-x="316.49929"
       inkscape:transform-center-y="71.351525" />
    <path
       style="fill:#333333;stroke-width:0.825447"
       d="M 304.89533,247.72649 C 227.0387,246.70915 138.6148,274.37302 53.206072,299.32686 l 9.3157,33.48772 C 156.28413,316.35517 247.86199,315.40364 323.39741,281.27429 l 19.69869,-31.86723 z"
       id="path2-4-5-5"
       sodipodi:nodetypes="cccccc"
       inkscape:transform-center-x="129.38322"
       inkscape:transform-center-y="24.110466" />
    <path
       style="fill:#e6e6e6;stroke-width:0.825447"
       d="m 574.93763,486.25933 -22.00656,-18.5117 -18.00892,-44.37054 22.44145,26.35992 18.60264,13.11968 25.33267,-12.97346 26.72281,-27.0988 -26.07104,43.80348 z"
       id="path18"
       sodipodi:nodetypes="ccccccccc" />
    <path
       style="fill:#e6e6e6;stroke-width:0.844849"
       d="m 582.42909,397.40922 -27.48736,-20.46695 -19.70598,-40.23609 29.22304,25.11766 19.02096,9.92895 24.00656,-8.12412 33.53675,-30.8834 -29.27187,46.40407 z"
       id="path18-0"
       sodipodi:nodetypes="ccccccccc" />
    <path
       style="fill:#e6e6e6;stroke-width:0.825447"
       d="m 588.44531,363.0301 -24.26846,-7.8631 -38.26038,-38.37809 30.94909,-39.71824 56.67159,2.40332 -1.59179,57.57409 z"
       id="path28"
       sodipodi:nodetypes="ccccccc" />
    <path
       style="fill:#e6e6e6;stroke-width:0.825447"
       d="m 576.77142,456.0395 -22.8723,-21.31111 -14.99214,-44.23707 23.35672,29.99248 17.92034,8.56362 22.47984,-6.89682 34.05945,-30.4183 -28.28264,46.29573 z"
       id="path18-8"
       sodipodi:nodetypes="ccccccccc" />
    <path
       style="fill:#333333;fill-opacity:1;stroke-width:1.0982"
       d="m 423.0371,89.415217 17.3255,6.47238 5.60656,-21.195505 36.16448,-13.755408 18.27485,10.096947 9.25608,-16.569337 L 486.64301,42.814 432.85733,61.068208 Z"
       id="path42"
       sodipodi:nodetypes="ccccccccc" />
    <path
       style="fill:#e6e6e6;stroke-width:0.825447"
       d="m 462.7841,63.113953 43.36652,38.635607 c 4.77113,14.44964 4.38368,31.77706 5.68789,45.38329 2.2665,23.64523 6.21178,37.19062 2.60681,56.63951 -15.78205,-11.96634 -28.24694,-26.5257 -37.21625,-41.07481 -11.79184,-19.12753 -18.28424,-20.43259 -26.87289,-38.88298 z"
       id="path27"
       sodipodi:nodetypes="ccscscc"
       inkscape:label="path27" />
    <path
       style="fill:#e6e6e6;stroke-width:0.825447"
       d="m 582.15633,425.53009 -23.06166,-15.64094 -24.04477,-43.97435 25.81704,24.43798 21.5291,12.33137 22.89476,-8.41861 29.56146,-28.72804 -29.03951,50.08915 z"
       id="path18-8-2"
       sodipodi:nodetypes="ccccccccc" />
    <path
       style="fill:#00ffa6;fill-opacity:1;stroke-width:1.0982"
       d="m 431.88063,84.133143 5.57239,-16.589445 45.6238,-16.716108 18.5746,9.117845 -2.20572,4.179051 -16.13667,-7.97814 -43.41812,16.082895 -4.06318,13.67682 z"
       id="path43" />
    <path
       style="fill:#e6e6e6;stroke-width:0.825447"
       d="m 453.09522,148.05574 -4.64224,42.79688 12.65995,74.42468 57.54352,47.12845 32.94703,-43.6613 50.48665,3.23501 5.10259,-91.16932 -63.57353,-55.11098 -29.59438,-5.74882 13.92676,48.5457 -7.54364,54.22261 -37.13803,-22.9234 z"
       id="path29"
       sodipodi:nodetypes="ccccccccccccc" />
    <path
       style="fill:#333333;fill-opacity:1;stroke-width:1.0982"
       d="m 592.4854,258.07163 1.00905,-70.9952 -44.39767,-45.12873 50.9564,42.377 z"
       id="path45" />
    <path
       style="fill:#333333;fill-opacity:1;stroke-width:1.0982"
       d="m 517.8166,301.54936 -50.95642,-41.2763 -10.59488,-74.29733 18.66718,73.74697 z"
       id="path46" />
    <path
       style="fill:#e6e6e6;stroke-width:0.825447"
       d="m 451.18302,92.743107 -16.56749,70.802753 46.77879,32.18305 29.72361,126.88577 10.2333,43.68447 -61.3972,-141.60547 -58.47351,-42.91076 c 2.00833,-34.1082 0.77875,-68.03048 17.54207,-102.985805 13.54644,-3.444284 23.24423,4.13181 32.16043,13.945992 z"
       id="path19"
       sodipodi:nodetypes="ccccccccc" />
    <path
       style="fill:#e6e6e6;stroke-width:0.825447"
       d="m 572.60762,117.86377 -13.70593,72.56799 13.55453,150.94818 -45.93654,-154.68633 12.52393,-53.94721 -46.7788,-56.408398 c 0.003,-21.29831 9.79349,-24.295499 17.54204,-31.110293 31.06142,19.190273 48.6572,45.057298 62.80077,72.636061 z"
       id="path20"
       sodipodi:nodetypes="cccccccc" />
    <path
       style="fill:#333333;stroke-width:1"
       d="m 282.46873,251.76369 46.02454,-18.22767 17.15016,28.68087 -44.44666,25.29185 z"
       id="path12"
       sodipodi:nodetypes="ccccc"
       inkscape:label="path12" />
    <path
       style="fill:#e6e6e6;stroke-width:0.780573"
       d="m 405.52407,51.438344 -3.80493,114.124376 -72.09296,80.48273 -103.20053,-6.50564 C 267.20259,144.16703 324.1536,98.935784 405.52407,51.438344 Z"
       id="path21"
       sodipodi:nodetypes="ccccc" />
    <path
       style="fill:#e6e6e6;stroke-width:0.825447"
       d="m 588.7289,50.992431 2.49479,102.518739 66.43195,58.71617 107.41121,8.31111 C 715.96409,133.91828 672.33763,95.138267 588.7289,50.992431 Z"
       id="path22"
       sodipodi:nodetypes="ccccc" />
    <path
       style="display:inline;fill:#e6e6e6;stroke-width:0.825447"
       d="m 657.67583,301.54853 -117.99578,48.6199 -67.00362,13.22341 -17.45781,-6.34481 5.02167,-15.75357 103.94925,-77.60933 64.90108,-39.50877 32.34388,4.95028 27.34934,18.77252 z"
       id="path25"
       sodipodi:nodetypes="cccccccccc"
       inkscape:transform-center-x="130.57733"
       inkscape:transform-center-y="81.74254" />
    <path
       style="fill:#e6e6e6;stroke-width:1"
       d="m 401.39468,900.39361 15.02281,-0.8346 26.7072,-99.31741 25.0412,-133.53248 -34.88413,-58.20926 -27.76648,-1.38832 -16.65989,43.03805 1.38832,161.73979 z"
       id="path7"
       sodipodi:nodetypes="ccccccccc"
       inkscape:label="path7" />
    <path
       style="fill:#e6e6e6;stroke-width:0.753084"
       d="m 54.537222,331.7133 -14.61672,1.97415 -6.56384,-7.71119 -1.45556,-10.3721 7.00361,-10.51766 12.17732,-4.77796 16.0333,-12.09079 -49.688506,18.74589 -18.9076193,0.50656 -37.1598047,-4.42205 -19.066575,7.18124 -16.476079,15.99416 34.836905,-15.88402 19.356829,1.96398 -23.331451,6.32569 -34.316037,19.43442 -18.537077,36.55257 12.834437,-10.09054 11.970217,-18.86805 34.027349,-20.19838 14.649832,-0.24672 -13.077018,4.40758 -31.250882,18.97028 -20.122368,34.38911 13.26435,-8.75445 11.608036,-18.47196 31.766152,-19.32525 14.998385,-1.48318 -12.723256,4.188 -28.851327,19.21138 -18.56674,37.95502 14.500279,-11.76631 9.758382,-20.38714 28.476737,-18.76665 14.2089724,-0.95606 -10.0105554,4.66341 -28.079502,19.39122 -15.23785,34.26986 12.297039,-9.93692 10.135612,-19.97899 27.535363,-17.96507 35.676552,-11.57551 46.907761,-8.78323 z"
       id="path26"
       sodipodi:nodetypes="cccccccccccccccccccccccccccccccccccccccccccc"
       inkscape:transform-center-x="19.17951"
       inkscape:transform-center-y="22.039938" />
    <path
       style="display:inline;fill:#e6e6e6;stroke-width:0.827137"
       d="m 476.34337,366.0281 -14.89844,5.15676 -9.37171,-7.94185 -4.53583,-11.16227 4.68144,-11.87093 11.97234,-5.97827 14.11792,-14.16609 -41.54786,19.01407 -31.80916,-0.20208 -27.35658,-3.93358 -16.07754,3.00866 -21.31507,13.26152 34.71846,-8.14202 19.55218,7.53046 -18.80481,12.93357 -31.8157,2.7766 -15.46703,-3.96299 -21.77044,-0.0802 38.34782,11.53283 33.61415,-1.52167 18.20904,-5.67259 -17.11849,11.3895 -26.87489,3.94213 -28.07424,-6.45278 -19.44366,-0.37093 50.4025,16.57703 28.57603,-5.82529 19.06725,-8.61934 -11.21868,14.48348 -30.20668,6.67142 -34.45098,-6.6149 -20.25048,0.23816 58.26895,16.03495 37.31488,-9.12514 10.8418,-11.32106 -9.06086,15.42385 -35.04379,11.03466 -32.17063,-5.41077 -21.74207,0.39732 53.87268,14.25658 37.72036,-11.54935 45.68136,-30.0108 41.28548,-14.80276 z"
       id="path26-80"
       sodipodi:nodetypes="cccccccccccccccccccccccccccccccccccccccccccc"
       inkscape:transform-center-x="309.02302"
       inkscape:transform-center-y="172.92409" />
    <path
       style="fill:#333333;stroke-width:0.989474"
       d="m 458.99187,134.33976 7.20605,-5.25031 -0.89077,-18.96576 8.15001,15.60568 2.39435,-5.23501 -2.65618,-4.59171 -2.28764,-26.327483 9.4489,23.804233 0.66119,5.2092 5.51306,1.25962 0.78704,-17.43764 7.14267,14.50424 8.7147,-0.5144 -7.37353,7.80354 5.27197,18.04629 -11.99207,-15.89606 -3.38721,3.76465 3.23855,5.32519 10.46925,29.24944 -17.09661,-25.90059 -2.54636,-6.39384 -4.38047,-0.14845 5.73961,18.37419 -12.37087,-15.49622 z"
       id="path30-5"
       sodipodi:nodetypes="ccccccccccccccccccccccccc" />
    <path
       style="fill:#00ffa6;fill-opacity:1;stroke-width:0.844661"
       d="m 460.98506,133.65914 8.14042,-2.67863 -3.0912,-17.9632 5.52626,15.70929 6.31772,-3.10701 -5.44156,-29.929303 8.87753,28.384663 7.84647,-2.89914 -0.86408,-13.30011 4.09129,12.9302 7.9083,-3.01582 -7.25616,5.32084 5.88948,14.80605 -9.50124,-14.56465 -7.10062,3.33751 13.47162,30.74911 -17.03649,-29.56893 -5.82683,3.21119 6.33647,15.95447 -9.00825,-14.49967 z"
       id="path30"
       sodipodi:nodetypes="ccccccccccccccccccccc" />
    <path
       style="fill:#333333;stroke-width:1.16871"
       d="m 575.82281,532.89106 33.92991,9.37094 c 5.8381,8.50256 6.72699,27.04516 -4.05489,40.57529 l -31.61968,-10.90067 c -5.75481,-7.58333 -9.33493,-25.62594 1.74466,-39.04556 z"
       id="path35"
       sodipodi:nodetypes="ccccc" />
    <path
       style="fill:#333333;stroke-width:1.20871"
       d="m 538.91931,525.7909 -35.46833,7.61117 c -10.2847,13.44121 -5.69325,37.19902 1.51573,42.46237 l 32.74001,-8.01177 c 6.05806,-7.53671 7.57991,-25.48458 1.21259,-42.06177 z"
       id="path36"
       sodipodi:nodetypes="ccccc" />
    <path
       style="fill:#00ffa6;fill-opacity:1;stroke-width:1.20871"
       d="m 504.38673,533.20934 c 5.95158,19.87445 4.772,29.67133 2.61159,42.17933 l 1.81401,-0.55128 c 3.44085,-20.80121 0.70925,-28.98838 -2.59643,-42.01639 z"
       id="path37"
       sodipodi:nodetypes="ccccc" />
    <path
       style="fill:#00ffa6;fill-opacity:1;stroke-width:1.19332"
       d="m 607.81431,541.6748 c -10.01775,12.75788 -8.6195,26.61307 -2.76285,40.89678 l -3.13042,-0.75599 c -5.45154,-14.51735 -5.96885,-28.32855 3.5336,-40.70582 z"
       id="path38"
       sodipodi:nodetypes="ccccc" />
    <path
       style="fill:#333333;stroke-width:1.0982"
       d="m 553.79907,522.69046 13.46438,-24.30354 -8.21939,24.74397 -9.66996,141.92579 z"
       id="path39"
       sodipodi:nodetypes="ccccc" />
    <path
       style="fill:#333333;fill-opacity:1;stroke-width:1.0982"
       d="m 457.93683,109.86094 3.72571,-18.796703 -11.1771,-33.529279 6.05426,34.799329 -4.65714,20.828793 z"
       id="path40" />
    <path
       style="fill:#333333;fill-opacity:1;stroke-width:1.0982"
       d="m 499.89641,96.114547 -15.74987,-14.038941 -17.8316,-30.400907 12.26734,32.561158 15.60661,14.23708 z"
       id="path41"
       sodipodi:nodetypes="cccccc" />
    <path
       style="fill:#333333;fill-opacity:0.986842;stroke-width:1.0982"
       d="m 206.45988,180.20377 52.1362,41.44232 c 13.27987,-11.64472 23.28389,-25.2958 28.29548,-42.00454 l -52.24941,-41.68617 c -14.6334,13.02642 -23.84136,27.14674 -28.18227,42.24839 z"
       id="path47"
       sodipodi:nodetypes="ccccc" />
    <path
       style="fill:#00ffa6;fill-opacity:1;stroke-width:1.0982"
       d="m 208.71666,182.30159 c 0,0 13.30339,-11.62746 18.13917,-19.11271 4.53091,-7.01335 9.7398,-23.47577 9.7398,-23.47577 l 2.37045,1.89127 c 0,0 -5.07089,16.5234 -9.61124,23.40647 -4.99045,7.56534 -18.79451,18.76173 -18.79451,18.76173 z"
       id="path48"
       sodipodi:nodetypes="csccscc" />
    <path
       style="fill:#333333;fill-opacity:0.986842;stroke-width:1.0982"
       d="m 299.10675,66.149374 39.23478,56.075776 c 16.09131,-6.50257 29.55329,-15.96902 39.00807,-29.952456 L 338.07189,35.931056 C 320.28698,43.278818 307.469,53.448412 299.10675,66.149374 Z"
       id="path47-9"
       sodipodi:nodetypes="ccccc" />
    <path
       style="fill:#00ffa6;fill-opacity:1;stroke-width:1.0982"
       d="m 300.72159,68.861244 c 0,0 16.10941,-6.47861 22.86019,-11.8846 6.32519,-5.065187 15.9039,-18.752613 15.9039,-18.752613 l 1.782,2.556124 c 0,0 -9.46148,13.790262 -15.76007,18.730329 -6.92294,5.42972 -23.40003,11.33887 -23.40003,11.33887 z"
       id="path48-0"
       sodipodi:nodetypes="csccscc" />
    <path
       style="fill:#333333;fill-opacity:0.986842;stroke-width:1.0982"
       d="m 756.88613,113.96948 -50.97442,45.96892 c 7.29138,16.1313 17.23982,29.25521 31.23775,37.79586 l 51.22563,-46.0381 c -8.21246,-17.81426 -18.78994,-30.20371 -31.48896,-37.72668 z"
       id="path47-9-9-8"
       sodipodi:nodetypes="ccccc" />
    <path
       style="fill:#00ffa6;fill-opacity:1;stroke-width:1.0982"
       d="m 754.40206,115.89875 c 0,0 7.26969,16.15233 12.88827,22.67282 5.26435,6.10941 18.98765,14.80616 18.98765,14.80616 l -2.32406,2.08867 c 0,0 -13.81368,-8.56539 -18.95671,-14.65867 -5.65279,-6.6973 -12.40275,-23.28447 -12.40275,-23.28447 z"
       id="path48-0-7-6"
       sodipodi:nodetypes="csccscc" />
    <path
       style="fill:#e6e6e6;stroke-width:1"
       d="m 404.28714,935.66735 -12.72669,36.52009 -112.92155,11.06671 -11.62005,16.47605 h 164.74903 l 2.39937,-100.02962 -16.04671,20.47338 h -9.40671 l -4.98001,-15.49336 z"
       id="path5"
       sodipodi:nodetypes="cccccccccc" />
    <path
       style="fill:#e6e6e6;stroke-width:1"
       d="m 717.64929,941.59084 -5.35006,-44.80687 12.03767,28.08791 12.03767,-0.66877 8.0251,-28.08787 v 43.46935 l 12.01849,29.57705 18.14849,13.19291 11.74768,17.62155 -78.73755,0.2532 4.21509,-19.82414 5.83859,-11.70061 z"
       id="path6"
       sodipodi:nodetypes="ccccccccccccc" />
    <path
       style="fill:#e6e6e6;stroke-width:1.01735"
       d="m 737.53585,908.81759 -15.54859,-0.8346 -20.44295,-101.71707 -15.40348,-125.18461 25.5909,-66.55713 28.73827,-1.38832 28.98726,59.92046 -7.30906,139.71925 z"
       id="path7-9"
       sodipodi:nodetypes="ccccccccc" />
    <path
       style="fill:#333333;fill-opacity:0.986842;stroke-width:1.0982"
       d="m 655.74689,31.789194 -41.40998,55.157478 c 10.50865,13.953878 23.05238,24.444688 38.69766,29.657648 L 694.6804,61.326374 c -11.7645,-15.37528 -24.78546,-25.02457 -38.93351,-29.53718 z"
       id="path47-9-9"
       sodipodi:nodetypes="ccccc" />
    <path
       style="fill:#00ffa6;fill-opacity:1;stroke-width:1.0982"
       d="m 653.66611,34.178044 c 0,0 10.49132,13.97877 17.39562,19.04603 6.46899,4.74782 21.87272,10.16986 21.87272,10.16986 l -1.88946,2.50786 c 0,0 -15.46708,-5.27628 -21.81214,-10.03459 -6.97404,-5.23002 -17.0363,-19.7386 -17.0363,-19.7386 z"
       id="path48-0-7"
       sodipodi:nodetypes="csccscc" />
    <path
       style="fill:#333333;stroke-width:1"
       d="m 215.57998,159.37795 c -5.50591,6.10955 -22.88587,9.22022 -22.88587,9.22022 l -3.52597,-3.32288 6.95926,-7.70705 0.8806,-10.55192 5.79564,-5.0457 6.89124,0.57228 9.61397,-10.64702 3.68023,1.63255 c 0,0 -1.40846,19.191 -7.4091,25.84952 z"
       id="path8"
       sodipodi:nodetypes="sccccccccs" />
    <path
       style="fill:#333333;stroke-width:1.09867"
       d="m 224.65287,165.68001 c 5.77421,-6.93393 6.65072,-26.6033 6.65072,-26.6033 l -4.06353,-3.44817 -7.28207,8.76216 -11.1942,2.42213 -4.59202,7.10881 1.58937,7.55136 -10.05994,12.1046 2.27217,3.85078 c 0,0 20.38647,-4.19139 26.6795,-11.74837 z"
       id="path8-5"
       sodipodi:nodetypes="sccccccccs" />
    <path
       style="fill:#333333;stroke-width:1"
       d="m 317.38689,47.969217 c -6.25255,5.342965 -23.88928,6.170747 -23.88928,6.170747 l -3.06469,-3.752554 7.90101,-6.738245 2.24318,-10.348267 6.4017,-4.250503 6.7586,1.462172 10.91497,-9.30865 3.43711,2.09656 c 0,0 -3.88824,18.845685 -10.7026,24.66874 z"
       id="path8-3"
       sodipodi:nodetypes="sccccccccs" />
    <path
       style="fill:#333333;stroke-width:1.09867"
       d="m 325.56474,55.395927 c 6.62561,-6.125532 10.04851,-25.514605 10.04851,-25.514605 l -3.58143,-3.946578 -8.35808,7.742511 -11.41393,0.948209 -5.47614,6.452423 0.59548,7.6938 -11.54641,10.695989 1.75296,4.113196 c 0,0 20.7581,-1.508998 27.97904,-8.184945 z"
       id="path8-5-7"
       sodipodi:nodetypes="sccccccccs" />
    <path
       style="fill:#333333;stroke-width:1"
       d="m 677.56948,44.064218 c -7.099,-4.152809 -13.66893,-20.541081 -13.66893,-20.541081 l 2.53896,-4.126463 8.95799,5.252072 10.51129,-1.277138 6.116,4.652223 0.83684,6.864133 12.37515,7.255552 -0.85246,3.934793 c 0,0 -19.07796,2.511859 -26.81484,-2.014091 z"
       id="path8-3-3"
       sodipodi:nodetypes="sccccccccs" />
    <path
       style="fill:#333333;stroke-width:1.09867"
       d="m 673.23789,54.226431 c 7.96066,4.248386 27.3992,1.118633 27.3992,1.118633 l 2.55266,-4.678258 -10.05665,-5.354247 -4.64149,-10.470595 -7.89222,-3.055301 -7.07226,3.087441 -13.89288,-7.396725 -3.31011,3.005736 c 0,0 8.23779,19.113206 16.91375,23.743316 z"
       id="path8-5-7-9"
       sodipodi:nodetypes="sccccccccs" />
    <path
       style="fill:#333333;stroke-width:1"
       d="m 776.32329,132.06577 c -5.74245,-5.88777 -7.72789,-23.43193 -7.72789,-23.43193 l 3.54296,-3.30476 7.24308,7.44094 10.47335,1.55801 4.66216,6.10842 -1.01469,6.84012 10.00608,10.27939 -1.86608,3.5675 c 0,0 -19.06052,-2.64089 -25.31897,-9.05769 z"
       id="path8-3-3-3"
       sodipodi:nodetypes="sccccccccs" />
    <path
       style="fill:#333333;stroke-width:1.09867"
       d="m 769.45028,140.71416 c 6.54786,6.20859 26.12001,8.34942 26.12001,8.34942 l 3.70259,-3.83313 -8.27524,-7.83101 -1.69651,-11.32689 -6.79848,-5.0401 -7.63801,1.09999 -11.43192,-10.81827 -3.98906,2.01957 c 0,0 2.8704,20.61399 10.00662,27.38042 z"
       id="path8-5-7-9-9"
       sodipodi:nodetypes="sccccccccs" />
  </g>
</svg>
