<?xml version="1.0" encoding="UTF-8" standalone="no"?>
<!-- Created with Inkscape (http://www.inkscape.org/) -->

<svg
   width="1000mm"
   height="1000mm"
   viewBox="0 0 1000 1000"
   version="1.1"
   id="svg1"
   inkscape:version="1.3.2 (091e20e, 2023-11-25)"
   sodipodi:docname="Enemy1.svg"
   xmlns:inkscape="http://www.inkscape.org/namespaces/inkscape"
   xmlns:sodipodi="http://sodipodi.sourceforge.net/DTD/sodipodi-0.dtd"
   xmlns="http://www.w3.org/2000/svg"
   xmlns:svg="http://www.w3.org/2000/svg">
  <sodipodi:namedview
     id="namedview1"
     pagecolor="#505050"
     bordercolor="#eeeeee"
     borderopacity="1"
     inkscape:showpageshadow="0"
     inkscape:pageopacity="0"
     inkscape:pagecheckerboard="0"
     inkscape:deskcolor="#505050"
     inkscape:document-units="mm"
     inkscape:zoom="1.2046758"
     inkscape:cx="1591.7145"
     inkscape:cy="1503.309"
     inkscape:window-width="1512"
     inkscape:window-height="835"
     inkscape:window-x="0"
     inkscape:window-y="38"
     inkscape:window-maximized="0"
     inkscape:current-layer="layer1" />
  <defs
     id="defs1" />
  <g
     inkscape:label="Layer 1"
     inkscape:groupmode="layer"
     id="layer1"
     transform="translate(99.088212)">
    <path
       style="fill:#333333;stroke-width:0.751637"
       d="m 311.02615,368.33538 -17.45178,49.01157 52.70805,32.75795 7.46883,-56.00044 z"
       id="path1"
       sodipodi:nodetypes="ccccc" />
    <path
       style="fill:#333333;stroke-width:0.751637"
       d="m 225.52911,608.01796 -22.92134,44.58382 37.60161,27.54884 22.57527,-41.15447 z"
       id="path1-0"
       sodipodi:nodetypes="ccccc" />
    <path
       style="fill:#333333;stroke-width:0.751637"
       d="m 587.1767,615.71101 -22.92134,44.58382 37.60161,27.54884 22.57527,-41.15447 z"
       id="path1-0-9"
       sodipodi:nodetypes="ccccc" />
    <path
       style="fill:#333333;stroke-width:0.751637"
       d="m 412.68084,700.23529 -49.18623,32.91054 27.87389,59.97462 55.3253,-54.12478 z"
       id="path1-9"
       sodipodi:nodetypes="ccccc" />
    <path
       style="fill:#333333;stroke-width:0.751637"
       d="m 401.48118,529.92443 -16.78936,46.13078 37.60162,27.54883 22.57526,-41.15447 z"
       id="path1-7"
       sodipodi:nodetypes="ccccc" />
    <path
       style="fill:#333333;stroke-width:0.751637"
       d="m 300.09053,410.45504 c 10.50597,14.37689 17.04351,30.3145 22.41622,58.15796 20.17946,45.98325 47.86036,86.90701 73.5796,111.11714 l 33.15758,-19.73955 C 417.9626,524.53187 405.13799,494.24004 366.86958,440.49062 356.6567,434.79595 344.12526,410.05014 331.12656,393.31736 Z"
       id="path2"
       sodipodi:nodetypes="ccccccc" />
    <path
       style="fill:#333333;stroke-width:0.751637"
       d="m 511.73764,381.11104 40.44124,111.97429 21.67192,-39.67747 -4.19741,-59.21294 z"
       id="path1-7-3"
       sodipodi:nodetypes="ccccc" />
    <path
       style="fill:#333333;stroke-width:0.751637"
       d="m 340.45938,408.59325 c 71.63085,23.73021 183.86348,25.5976 208.27192,10.41877 l 1.31349,-17.38087 c -72.77013,-22.20684 -144.0619,-33.11457 -214.58471,-9.96594 z"
       id="path2-8"
       sodipodi:nodetypes="ccccc" />
    <path
       style="fill:#333333;stroke-width:0.751637"
       d="m 129.06324,797.80212 -16.13099,47.51576 41.22753,21.63056 16.29163,-44.07248 z"
       id="path1-04"
       sodipodi:nodetypes="ccccc" />
    <path
       style="fill:#333333;stroke-width:0.751637"
       d="m 341.53218,914.00806 -22.18952,44.4865 -0.75597,23.77332 37.65597,-0.84452 23.64841,-33.6864 z"
       id="path1-7-6"
       sodipodi:nodetypes="cccccc" />
    <path
       style="fill:#333333;stroke-width:0.751637"
       d="m 155.08978,848.49628 184.41482,104.99659 7.70282,-15.60234 C 283.76744,902.09199 237.86134,799.97755 165.24198,798.58429 Z"
       id="path2-03"
       sodipodi:nodetypes="ccccc" />
    <path
       style="fill:#333333;stroke-width:0.751637"
       d="m 405.15101,582.21654 c 11.60453,55.43962 -18.14342,93.2681 -25.01942,151.19422 l 43.482,6.89972 c 7.88394,-62.104 28.2817,-118.34229 10.39981,-164.35078 z"
       id="path2-0"
       sodipodi:nodetypes="ccccc" />
    <path
       style="fill:#333333;stroke-width:0.751637"
       d="M 234.32901,641.84333 129.217,827.32808 l 15.41684,7.86288 107.10818,-191.54509 z"
       id="path2-0-3" />
    <path
       style="fill:#333333;stroke-width:0.755267"
       d="m 598.8092,648.21366 106.12909,185.48475 -15.56602,7.86288 -108.14456,-191.5451 z"
       id="path2-0-3-8" />
    <path
       style="fill:#333333;stroke-width:0.751637"
       d="M 412.17005,749.48231 C 305.52535,635.40936 288.29311,670.62404 231.63131,637.83664 l -8.25591,15.31159 c 56.78099,36.81632 30.75985,57.92865 186.48111,113.84288 z"
       id="path2-0-9"
       sodipodi:nodetypes="ccccc" />
    <path
       style="fill:#333333;stroke-width:0.751637"
       d="m 581.10045,648.8522 c -62.83871,30.62785 -128.96697,22.88206 -188.88453,96.56722 l 8.58964,15.12349 C 516.82332,742.11836 567.7883,693.59485 594.66043,660.02233 Z"
       id="path2-0-9-7"
       sodipodi:nodetypes="ccccc" />
    <path
       style="fill:#333333;stroke-width:0.751637"
       d="m 451.07285,947.61255 31.7795,38.6562 25.37895,-0.42078 14.40175,-23.81205 -33.62285,-41.03271 z"
       id="path1-4"
       sodipodi:nodetypes="cccccc" />
    <path
       style="fill:#333333;stroke-width:0.751637"
       d="m 659.74664,829.07644 31.77951,38.65623 39.7807,-24.23285 -28.78364,-37.00003 z"
       id="path1-7-1"
       sodipodi:nodetypes="ccccc" />
    <path
       style="fill:#333333;stroke-width:0.751637"
       d="M 507.51179,951.61826 692.42456,847.51727 670.44887,806.75812 c -62.07574,4.80466 -62.09421,23.5799 -176.92825,134.24529 z"
       id="path2-3"
       sodipodi:nodetypes="ccccc" />
    <path
       style="fill:#e6e6e6;stroke-width:0.751637"
       d="M 355.80826,951.25759 330.307,980.66725 219.80152,983.11806 199.21632,999.81211 356.06969,999.51 Z"
       id="path3"
       sodipodi:nodetypes="cccccc" />
    <path
       style="fill:#e6e6e6;stroke-width:0.751637"
       d="m 341.87161,940.25799 -12.59086,34.14603 -28.32944,0.7941 7.08236,-30.17559 -7.8693,-13.49957 z"
       id="path4" />
    <path
       style="fill:#e6e6e6;stroke-width:0.751637"
       d="m 372.37067,951.53505 -5.15631,12.59083 25.44406,34.09166 2.47923,-47.57424 -43.94957,-94.20295 -36.88145,62.05287 24.29059,-1.70173 z"
       id="path5"
       sodipodi:nodetypes="cccccccc" />
    <path
       style="fill:#e6e6e6;stroke-width:0.751637"
       d="m 317.067,886.31034 -11.32554,31.64862 -13.06794,11.42867 -128.93703,-58.9016 59.24134,-15.82431 21.87197,7.35704 z"
       id="path6"
       sodipodi:nodetypes="ccccccc" />
    <path
       style="fill:#e6e6e6;stroke-width:0.751637"
       d="m 202.86254,842.02268 -53.24104,26.46197 -38.93748,-20.84882 -38.937475,-72.16898 42.910685,26.46196 8.74107,22.45258 18.27678,11.22628 z"
       id="path7" />
    <path
       style="fill:#e6e6e6;stroke-width:0.751637"
       d="m 123.94184,775.2107 4.24532,34.98581 17.68884,11.42393 35.37768,8.56796 51.65142,-109.24139 -10.6133,-142.08519 z"
       id="path8" />
    <path
       style="fill:#e6e6e6;stroke-width:0.751637"
       d="m 242.10665,610.42428 1.19769,80.97649 114.54069,45.61279 35.17175,-15.39769 C 349.02338,663.48934 307.9681,632.9089 242.10665,610.42428 Z"
       id="path9"
       sodipodi:nodetypes="ccccc" />
    <path
       style="fill:#e6e6e6;stroke-width:0.751637"
       d="m 404.78656,720.02836 -42.89808,23.00207 3.1689,49.91996 21.31978,79.00386 38.32471,-74.69627 5.06332,-50.18813 z"
       id="path10"
       sodipodi:nodetypes="ccccccc" />
    <path
       style="fill:#e6e6e6;stroke-width:0.751637"
       d="m 438.79999,747.57409 -23.47274,-25.11391 c 48.42364,-56.64863 99.06566,-94.74942 166.90705,-117.25093 l 0.95292,76.11004 z"
       id="path11"
       sodipodi:nodetypes="ccccc" />
    <path
       style="fill:#e6e6e6;stroke-width:0.751637"
       d="m 586.19056,580.91933 4.24283,117.89089 58.29383,123.96819 23.33011,6.72644 24.44107,-10.08966 18.8863,-28.02682 z"
       id="path12"
       sodipodi:nodetypes="ccccccc" />
    <path
       style="fill:#e6e6e6;stroke-width:0.751637"
       d="m 633.38716,837.56597 42.22564,4.95931 31.45313,-12.89417 16.24211,-34.52766 30.26212,-26.72044 -17.65291,77.61654 -42.87133,26.72043 z"
       id="path13"
       sodipodi:nodetypes="cccccccc" />
    <path
       style="fill:#e6e6e6;stroke-width:0.751637"
       d="m 676.8305,872.92651 -46.51551,-24.70476 -117.94317,42.9689 19.11644,37.9212 16.43694,7.15021 z"
       id="path14"
       sodipodi:nodetypes="cccccc" />
    <path
       style="fill:#e6e6e6;stroke-width:0.751637"
       d="m 475.36849,1000.3955 -0.18044,-46.9082 24.29489,30.48841 116.60959,0.26612 24.05911,17.42057 z"
       id="path15"
       sodipodi:nodetypes="cccccc" />
    <path
       style="fill:#e6e6e6;stroke-width:0.751637"
       d="m 503.39659,977.73497 28.724,1.59446 -3.32205,-29.67201 13.50077,-11.45829 -47.56599,4.81441 z"
       id="path16"
       sodipodi:nodetypes="cccccc" />
    <path
       style="fill:#e6e6e6;stroke-width:0.751637"
       d="m 463.58906,963.00509 -22.72599,35.42217 -3.15083,-49.54058 39.42365,-91.95613 38.13287,65.08619 -25.53446,0.67596 -31.8917,29.04163 z"
       id="path17"
       sodipodi:nodetypes="cccccccc" />
    <path
       style="fill:#333333;stroke-width:0.751637"
       d="m 614.47252,626.16986 -22.68469,-11.15747 -19.78678,15.00627 3.52751,49.76275 36.71304,-1.56266 z"
       id="path1-7-5"
       sodipodi:nodetypes="cccccc" />
    <path
       style="fill:#333333;stroke-width:0.751637"
       d="m 553.71285,440.18843 34.64727,210.791 16.87319,-3.73355 -36.8941,-216.76132 z"
       id="path2-4" />
    <path
       style="fill:#333333;stroke-width:0.751637"
       d="M 171.3604,546.5786 118.23209,471.85332 81.991234,496.38895 114.6482,540.12247 Z"
       id="path1-7-5-9"
       sodipodi:nodetypes="ccccc" />
    <path
       style="fill:#333333;stroke-width:0.751637"
       d="m 304.07831,399.05638 c -106.18185,8.04119 -175.76257,69.89794 -190.43872,93.47911 l 9.29157,14.69487 c 76.9808,-20.65818 148.13172,-43.06979 195.21744,-97.66615 z"
       id="path2-4-5"
       sodipodi:nodetypes="ccccc" />
    <path
       style="fill:#333333;stroke-width:0.751637"
       d="m 252.07676,656.06575 -23.05543,6.8239 -5.52336,25.52481 40.45215,41.26502 21.78977,-23.82931 z"
       id="path1-7-5-9-7"
       sodipodi:nodetypes="cccccc" />
    <path
       style="fill:#333333;stroke-width:0.751637"
       d="M 106.45464,525.59668 239.64369,691.70331 252.49543,680.05586 114.43323,509.87452 Z"
       id="path2-4-5-5" />
    <path
       style="fill:#e6e6e6;stroke-width:0.751637"
       d="m 410.58442,715.70862 -20.92916,-16.13929 -17.12725,-38.68412 21.34277,22.98171 17.6919,11.43829 24.09244,-11.31081 25.41452,-23.62589 -24.79466,38.18974 z"
       id="path18"
       sodipodi:nodetypes="ccccccccc" />
    <path
       style="fill:#e6e6e6;stroke-width:0.769305"
       d="m 417.70912,638.24534 -26.14164,-17.84397 -18.74123,-35.07952 27.79235,21.89864 18.08974,8.65648 22.83125,-7.08295 31.89488,-26.92546 -27.83879,40.45703 z"
       id="path18-0"
       sodipodi:nodetypes="ccccccccc" />
    <path
       style="fill:#e6e6e6;stroke-width:0.751637"
       d="m 423.4308,608.27216 -23.08032,-6.85538 -36.38726,-33.45965 29.43389,-34.62804 53.89709,2.09531 -1.51386,50.19553 z"
       id="path28"
       sodipodi:nodetypes="ccccccc" />
    <path
       style="fill:#e6e6e6;stroke-width:0.751637"
       d="m 412.32844,689.36169 -21.75253,-18.57992 -14.25817,-38.56776 22.21324,26.14872 17.043,7.46612 21.37929,-6.01294 32.39197,-26.51996 -26.89798,40.36258 z"
       id="path18-8"
       sodipodi:nodetypes="ccccccccc" />
    <path
       style="fill:#333333;fill-opacity:1;stroke-width:1"
       d="m 266.12058,369.72311 16.47727,5.6429 5.33209,-18.47914 34.39396,-11.99255 17.38016,8.80295 8.80292,-14.44585 -21.89448,-10.15722 -51.15247,15.91479 z"
       id="path42"
       sodipodi:nodetypes="ccccccccc" />
    <path
       style="fill:#e6e6e6;stroke-width:0.751637"
       d="m 303.92166,346.79256 41.24341,33.68415 c 4.53754,12.59781 4.16906,27.70459 5.40942,39.56708 2.15553,20.61491 5.90767,32.42436 2.47918,49.38072 -15.00939,-10.43276 -26.86403,-23.12623 -35.39423,-35.81076 -11.21454,-16.67619 -17.38908,-17.814 -25.55724,-33.89983 z"
       id="path27"
       sodipodi:nodetypes="ccscscc"
       inkscape:label="path27" />
    <path
       style="fill:#e6e6e6;stroke-width:0.751637"
       d="m 417.44971,662.7623 -21.93261,-13.63644 -22.8676,-38.3387 24.5531,21.30606 20.4751,10.75102 21.77388,-7.3397 28.1142,-25.04633 -27.61782,43.66984 z"
       id="path18-8-2"
       sodipodi:nodetypes="ccccccccc" />
    <path
       style="fill:#e207b6;fill-opacity:1;stroke-width:1"
       d="m 274.53115,365.11798 5.29958,-14.46339 43.39018,-14.57381 17.66523,7.94933 -2.09775,3.64347 -15.34665,-6.95568 -41.29247,14.02175 -3.86426,11.92403 z"
       id="path43" />
    <path
       style="fill:#e6e6e6;stroke-width:0.751637"
       d="m 294.70713,420.8484 -4.41498,37.31213 12.04016,64.88659 54.72633,41.08858 31.33402,-38.06577 48.01494,2.82042 4.85279,-79.48528 -60.46112,-48.04808 -28.14551,-5.01207 13.24494,42.3242 -7.17434,47.27357 -35.31984,-19.98559 z"
       id="path29"
       sodipodi:nodetypes="ccccccccccccc" />
    <path
       style="fill:#333333;fill-opacity:1;stroke-width:1"
       d="m 427.2731,516.76492 0.95964,-61.89662 -42.22406,-39.34515 48.46169,36.94607 z"
       id="path45" />
    <path
       style="fill:#333333;fill-opacity:1;stroke-width:1"
       d="m 356.25991,554.67064 -48.46172,-35.98643 -10.07618,-64.77555 17.75328,64.29573 z"
       id="path46" />
    <path
       style="fill:#e6e6e6;stroke-width:0.751637"
       d="m 292.88854,372.62451 -15.75638,61.72883 44.48861,28.05855 38.00071,148.71036 -58.39132,-123.45765 -55.61079,-37.41141 c 1.90999,-29.73697 0.74061,-59.31186 16.68325,-89.78739 12.88322,-3.00287 22.10624,3.60229 30.58592,12.15871 z"
       id="path19"
       sodipodi:nodetypes="cccccccc" />
    <path
       style="fill:#e6e6e6;stroke-width:0.751637"
       d="m 408.36849,394.52576 -13.03492,63.26785 12.89093,131.60302 -43.6876,-134.8621 11.91079,-47.03346 -44.48862,-49.17923 c 0.003,-18.56877 9.31402,-21.18184 16.68323,-27.12327 29.54072,16.73089 46.27505,39.28286 59.72619,63.32719 z"
       id="path20"
       sodipodi:nodetypes="cccccccc" />
    <path
       style="fill:#e6e6e6;stroke-width:0.751637"
       d="M 253.02694,367.18671 232.4127,460.6455 168.98148,487.69372 49.274159,469.84053 C 112.76632,405.6034 169.06627,386.66151 253.02694,367.18671 Z"
       id="path21"
       sodipodi:nodetypes="ccccc" />
    <path
       style="fill:#e6e6e6;stroke-width:0.751637"
       d="m 380.92939,346.61389 58.85443,71.10117 83.77258,7.31948 87.34222,-49.32667 C 524.97648,339.782 469.83977,334.8195 380.92939,346.61389 Z"
       id="path22"
       sodipodi:nodetypes="ccccc" />
    <path
       style="fill:#e6e6e6;stroke-width:0.751637"
       d="m 149.955,523.54844 -24.07103,-14.5741 -32.495886,5.46529 -9.026637,21.86118 -33.312777,-57.24763 67.14111,6.72767 27.27323,12.00525 z"
       id="path23"
       sodipodi:nodetypes="cccccccc" />
    <path
       style="fill:#e6e6e6;stroke-width:0.752035"
       d="m 538.46566,470.77459 14.75762,-24.20527 30.05225,-6.99958 21.97326,11.91138 0.3031,-64.00932 -64.82919,40.36006 -11.93751,23.30671 z"
       id="path23-7"
       sodipodi:nodetypes="cccccccc" />
    <path
       style="fill:#e6e6e6;stroke-width:0.751637"
       d="m 125.88397,515.04688 -29.48701,5.46529 -4.212432,22.46844 141.417292,144.52667 16.84972,-17.61041 -53.55804,-94.12449 -35.50476,-40.07883 z"
       id="path24" />
    <path
       style="fill:#e6e6e6;stroke-width:0.751637"
       d="m 601.01087,459.19631 3.15073,176.70552 -20.50337,5.99145 -34.13592,-116.94964 -6.47764,-51.12236 14.12709,-22.00079 25.33765,-6.0937 z"
       id="path25"
       sodipodi:nodetypes="cccccccc" />
    <path
       style="fill:#e6e6e6;stroke-width:0.751637"
       d="m 228.68538,685.09621 8.60851,10.69156 11.25727,-2.00467 9.2707,-6.68221 2.64878,-11.35979 -5.95973,-10.02333 -3.31097,-17.37376 24.90483,40.3591 14.65937,10.58564 36.08045,17.0423 2.40793,31.85399 -7.89329,-17.25749 -3.84487,-10.61101 -15.79229,-7.54206 11.81429,18.80398 12.38962,33.04364 -1.99528,41.09417 -7.7798,-17.89371 0.76015,-22.03675 -13.53215,-32.71068 -9.60035,-9.5438 3.69816,9.65522 13.67754,32.36007 -3.82685,43.70771 -6.61655,-20.94198 1.05937,-20.17551 -13.08834,-33.15958 -8.23704,-8.32263 2.85647,8.00973 10.2528,32.76673 -4.03756,38.90862 -5.6157,-20.14974 -0.24942,-17.1977 -12.18062,-32.46761 -6.12926,-6.60334 1.48505,8.04978 11.30573,31.93964 -6.51213,38.05377 -4.62714,-20.75833 2.1967,-16.28881 -12.88162,-31.14951 -13.54038,-28.24992 -28.64447,-28.532 z"
       id="path26"
       sodipodi:nodetypes="cccccccccccccccccccccccccccccccccccccccccccc" />
    <path
       style="fill:#e6e6e6;stroke-width:0.753175"
       d="m 608.35978,629.4369 -0.77532,13.72673 -10.34721,4.97194 -11.45877,0.01 -8.79164,-7.66978 -0.99379,-11.63139 -7.44458,-16.04614 1.92169,39.7974 -4.42998,24.75683 -22.84101,19.44867 -9.74952,30.42152 12.89134,-14.05347 5.04488,-10.31579 13.59516,-8.12839 -5.25871,18.7742 0.39148,36.23539 26.88181,43.88503 -4.79425,-21.9545 -11.66799,-24.99781 0.61073,-34.88409 6.59275,-12.98193 -1.7193,11.50083 1.28673,34.02926 28.12233,40.12044 -5.97592,-21.01108 -11.86591,-22.70564 -0.7889,-31.28685 3.63399,-15.92801 0.80102,10.18833 3.91366,33.7973 24.46208,35.14864 -6.2604,-21.92193 -8.73977,-17.78824 -3.43407,-32.29481 3.47675,-13.33133 1.94237,9.41686 3.70812,32.40379 24.84453,34.34324 -6.88653,-22.51244 -8.36149,-16.13678 -2.13418,-31.25854 -3.91891,-40.02585 3.96691,-36.96548 z"
       id="path26-80"
       sodipodi:nodetypes="cccccccccccccccccccccccccccccccccccccccccccc" />
    <path
       style="fill:#333333;stroke-width:0.900997"
       d="m 300.31508,408.89024 6.85327,-4.57745 -0.84716,-16.53516 7.75101,13.60569 2.27712,-4.5641 -2.52614,-4.00325 -2.17564,-22.9534 8.9863,20.75353 0.62882,4.5416 5.24315,1.09819 0.74852,-15.20287 6.79298,12.64541 8.28805,-0.44849 -7.01255,6.80347 5.01387,15.73352 -11.40497,-13.85886 -3.22137,3.28218 3.07999,4.64273 9.95671,25.5009 -16.25961,-22.58123 -2.42169,-5.57443 -4.16601,-0.12942 5.4586,16.0194 -11.76521,-13.51026 z"
       id="path30-5"
       sodipodi:nodetypes="ccccccccccccccccccccccccc" />
    <path
       style="fill:#ff00cc;stroke-width:0.769134"
       d="m 302.2107,408.29684 7.74188,-2.33535 -2.93985,-15.66107 5.2557,13.69602 6.00842,-2.70882 -5.17516,-26.09363 8.44291,24.74694 7.46232,-2.5276 -0.82178,-11.59559 3.891,11.2731 7.52114,-2.62932 -6.90093,4.63893 5.60115,12.90854 -9.03608,-12.69808 -6.75299,2.90978 12.81209,26.80838 -16.20243,-25.77944 -5.54157,2.79965 6.02625,13.90979 -8.56723,-12.64143 z"
       id="path30"
       sodipodi:nodetypes="ccccccccccccccccccccc" />
    <path
       style="fill:#333333;stroke-width:1.06421"
       d="m 411.42627,756.36414 32.26878,8.16998 c 5.55228,7.41289 6.39766,23.57911 -3.85638,35.37526 l -30.07164,-9.50367 c -5.47307,-6.61146 -8.87792,-22.34177 1.65924,-34.04157 z"
       id="path35"
       sodipodi:nodetypes="ccccc" />
    <path
       style="fill:#333333;stroke-width:1.10063"
       d="m 376.32947,750.17392 -33.73188,6.63574 c -9.78119,11.71862 -5.41452,32.43169 1.44152,37.0205 l 31.13714,-6.98501 c 5.76147,-6.57083 7.2088,-22.21854 1.15322,-36.67123 z"
       id="path36"
       sodipodi:nodetypes="ccccc" />
    <path
       style="fill:#d400aa;fill-opacity:1;stroke-width:1.10063"
       d="m 343.48753,756.64163 c 5.6602,17.32738 4.53837,25.86872 2.48374,36.77373 l 1.72518,-0.48063 c 3.27241,-18.13539 0.67454,-25.2733 -2.4693,-36.63167 z"
       id="path37"
       sodipodi:nodetypes="ccccc" />
    <path
       style="fill:#d400aa;fill-opacity:1;stroke-width:1.08662"
       d="m 441.85153,764.02218 c -9.52729,11.12286 -8.1975,23.2024 -2.62757,35.65555 l -2.97717,-0.65911 c -5.18465,-12.65684 -5.67662,-24.69803 3.3606,-35.48906 z"
       id="path38"
       sodipodi:nodetypes="ccccc" />
    <path
       style="fill:#333333;stroke-width:1"
       d="m 390.48075,747.47083 12.8052,-21.18886 -7.81698,21.57284 -9.19655,123.73692 z"
       id="path39"
       sodipodi:nodetypes="ccccc" />
    <path
       style="fill:#333333;fill-opacity:1;stroke-width:1"
       d="m 299.31171,387.54856 3.5433,-16.38776 -10.6299,-29.23225 5.75786,30.33953 -4.42912,18.15942 z"
       id="path40" />
    <path
       style="fill:#333333;fill-opacity:1;stroke-width:1"
       d="m 339.21705,375.56388 -14.9788,-12.23975 -16.95861,-26.5048 11.66676,28.3882 14.84256,12.41249 z"
       id="path41"
       sodipodi:nodetypes="cccccc" />
    <path
       style="fill:#333333;fill-opacity:0.986842;stroke-width:1"
       d="m 49.419906,399.05956 38.52737,46.3037 c 14.882094,-7.02418 27.206994,-16.45117 35.634664,-29.54011 L 85.006016,369.28847 c -16.44341,7.90525 -28.14269,17.90065 -35.58611,29.77109 z"
       id="path47"
       sodipodi:nodetypes="ccccc" />
    <path
       style="fill:#d400aa;fill-opacity:1;stroke-width:1"
       d="m 51.018206,401.3215 c 0,0 14.8998,-7.00448 21.05985,-12.31282 5.77169,-4.97369 14.32474,-17.81155 14.32474,-17.81155 l 1.75014,2.11122 c 0,0 -8.43994,12.91912 -14.19058,17.78033 -6.32071,5.34309 -21.58293,11.87488 -21.58293,11.87488 z"
       id="path48"
       sodipodi:nodetypes="csccscc" />
    <path
       style="fill:#333333;fill-opacity:0.986842;stroke-width:1"
       d="m 158.35121,341.74251 16.31737,57.98391 c 16.45274,-0.35084 31.54923,-3.93793 44.57877,-12.45716 l -16.2676,-58.21463 c -18.23757,0.51928 -32.99434,4.88038 -44.62854,12.68788 z"
       id="path47-9"
       sodipodi:nodetypes="ccccc" />
    <path
       style="fill:#d400aa;fill-opacity:1;stroke-width:1"
       d="m 158.88917,344.45941 c 0,0 16.46089,-0.32564 24.24932,-2.66339 7.29741,-2.19038 20.33914,-10.42923 20.33914,-10.42923 l 0.73804,2.64112 c 0,0 -12.97155,8.35915 -20.20391,10.45539 -7.9493,2.30402 -24.54856,2.05031 -24.54856,2.05031 z"
       id="path48-0"
       sodipodi:nodetypes="csccscc" />
    <path
       style="fill:#333333;fill-opacity:0.986842;stroke-width:1"
       d="m 417.72389,298.45705 -1.26215,60.2229 c 15.84281,4.4521 31.32981,5.41334 46.27457,1.0544 l 1.37691,-60.42915 c -17.59941,-4.81034 -32.98664,-4.9322 -46.38933,-0.84815 z"
       id="path47-9-9"
       sodipodi:nodetypes="ccccc" />
    <path
       style="fill:#d400aa;fill-opacity:1;stroke-width:1"
       d="m 417.44795,301.21292 c 0,0 15.84327,4.47858 23.97493,4.50844 7.619,0.028 22.49383,-4.05918 22.49383,-4.05918 l -0.0625,2.74159 c 0,0 -14.84269,4.22266 -22.37207,4.12356 -8.27574,-0.10894 -24.08281,-5.18207 -24.08281,-5.18207 z"
       id="path48-0-7"
       sodipodi:nodetypes="csccscc" />
    <path
       style="fill:#333333;fill-opacity:0.986842;stroke-width:1"
       d="M 545.4157,304.66884 531.68433,363.319 c 14.57413,7.64269 29.52456,11.79667 45.04854,10.63376 l 13.88643,-58.8281 c -16.21815,-8.35764 -31.24517,-11.66981 -45.2036,-10.45582 z"
       id="path47-9-9-8"
       sodipodi:nodetypes="ccccc" />
    <path
       style="fill:#d400aa;fill-opacity:1;stroke-width:1"
       d="m 544.57391,307.30747 c 0,0 14.56907,7.66869 22.51754,9.38528 7.44735,1.60839 22.84653,0.69681 22.84653,0.69681 l -0.63004,2.66894 c 0,0 -15.39585,1.05078 -22.74078,-0.60856 -8.073,-1.82385 -22.48329,-10.06663 -22.48329,-10.06663 z"
       id="path48-0-7-6"
       sodipodi:nodetypes="csccscc" />
  </g>
</svg>
