<?xml version="1.0" encoding="UTF-8" standalone="no"?>
<!-- Created with Inkscape (http://www.inkscape.org/) -->

<svg
   width="400mm"
   height="400mm"
   viewBox="0 0 400 400"
   version="1.1"
   id="svg1"
   inkscape:version="1.3.2 (091e20e, 2023-11-25)"
   sodipodi:docname="Enemy3.svg"
   xmlns:inkscape="http://www.inkscape.org/namespaces/inkscape"
   xmlns:sodipodi="http://sodipodi.sourceforge.net/DTD/sodipodi-0.dtd"
   xmlns="http://www.w3.org/2000/svg"
   xmlns:svg="http://www.w3.org/2000/svg">
  <sodipodi:namedview
     id="namedview1"
     pagecolor="#505050"
     bordercolor="#eeeeee"
     borderopacity="1"
     inkscape:showpageshadow="0"
     inkscape:pageopacity="0"
     inkscape:pagecheckerboard="0"
     inkscape:deskcolor="#505050"
     inkscape:document-units="mm"
     inkscape:zoom="0.36380784"
     inkscape:cx="735.27828"
     inkscape:cy="995.03079"
     inkscape:window-width="1512"
     inkscape:window-height="835"
     inkscape:window-x="0"
     inkscape:window-y="38"
     inkscape:window-maximized="0"
     inkscape:current-layer="layer1" />
  <defs
     id="defs1" />
  <g
     inkscape:label="Layer 1"
     inkscape:groupmode="layer"
     id="layer1">
    <path
       style="fill:#333333;stroke-width:0.764306"
       d="m 196.94082,380.08334 2.80003,-81.00805 8.39443,0.89422 -3.63948,80.11383 z"
       id="path35"
       sodipodi:nodetypes="ccccc" />
    <path
       style="fill:#333333;stroke-width:0.764306"
       d="m 200.58029,298.18106 -2.57541,-15.37153 3.75022,-71.79343 13.93517,-1.36411 -4.06303,75.69387 -2.65251,15.51788 z"
       id="path36"
       sodipodi:nodetypes="ccccccc" />
    <path
       style="fill:#333333;stroke-width:0.80416"
       d="m 208.14204,214.55372 -61.15967,32.36463 -6.30001,-7.84819 24.15145,-20.50632 35.65824,-12.31997 z"
       id="path37"
       sodipodi:nodetypes="cccccc" />
    <path
       style="fill:#333333;stroke-width:0.80416"
       d="m 202.9323,315.15843 -59.07614,-76.91847 -7.19999,7.38652 60.87613,78.76511 z"
       id="path38"
       sodipodi:nodetypes="ccccc" />
    <path
       style="fill:#e6e6e6;stroke-width:1"
       d="m 197.14778,399.86251 -2.30247,-32.42649 7.29115,-29.74025 4.2212,28.20527 -2.87809,33.7696 z"
       id="path53" />
    <path
       style="fill:#e6e6e6;stroke-width:1.05214"
       d="m 191.22772,319.81863 2.90935,-7.64143 -21.96859,-29.94888 -22.11345,-16.01378 16.69134,21.4923 z"
       id="path58"
       sodipodi:nodetypes="cccccc" />
    <path
       style="fill:#e6e6e6;stroke-width:1"
       d="m 134.79634,240.47744 -6.49083,-16.14793 4.9077,20.26407 17.57275,19.94743 z"
       id="path19" />
    <path
       style="fill:#e6e6e6;stroke-width:1.05214"
       d="m 152.90616,262.77703 18.46809,12.924 -19.88882,-36.07329 -21.81719,-16.89298 13.93917,17.58753 z"
       id="path59"
       sodipodi:nodetypes="cccccc" />
    <path
       style="fill:#e6e6e6;stroke-width:1.05214"
       d="m 147.85604,263.08147 -5.35071,-18.96445 22.45765,-22.52123 -31.66165,20.13495 0.41047,6.10258 z"
       id="path60"
       sodipodi:nodetypes="cccccc" />
    <path
       style="fill:#e6e6e6;stroke-width:1.05214"
       d="m 154.87218,238.07096 16.10645,-16.73539 -7.02252,-2.73641 9.40479,-6.49827 25.479,-9.56044 7.29555,6.76577 -25.61369,20.15051 z"
       id="path61"
       sodipodi:nodetypes="cccccccc" />
    <path
       style="fill:#333333;stroke-width:1"
       d="m 214.53745,210.56768 6.82001,-19.7496 -13.7821,-2.13125 -10.51417,26.85377 z"
       id="path1" />
    <path
       id="path41"
       style="fill:#00ffff;fill-opacity:0.76;stroke-width:1"
       inkscape:label="path41"
       d="m 201.89421,202.84599 c -41.44944,-1.01608 -72.03622,49.45622 -105.24674,87.41726 l 16.53217,80.31616 57.30563,-61.96876 26.69088,-90.5891 3.80297,-3.89118 c 5.8653,4.54489 9.98528,2.15977 11.76037,2.59874 l 2.66418,5.11374 -6.82442,87.77328 27.94951,67.47381 45.85876,-74.48064 c -20.36938,-30.07348 -27.78232,-86.92445 -65.34575,-99.29929 -6.47395,8.26118 -14.79985,4.23544 -15.14756,-0.46402 z"
       sodipodi:nodetypes="ccccccccccccc" />
    <path
       style="fill:#e6e6e6;stroke-width:1"
       d="m 194.09405,357.84464 6.59345,-22.47768 -4.49553,-11.38867 2.69732,-33.26696 -6.59345,35.66456 z"
       id="path54" />
    <path
       style="fill:#e6e6e6;stroke-width:1"
       d="m 207.88036,356.2349 -3.59643,-20.56822 4.79524,-15.58454 -0.89911,-27.5726 5.99405,32.06814 z"
       id="path55"
       sodipodi:nodetypes="cccccc" />
    <path
       style="fill:#e6e6e6;stroke-width:1"
       d="m 202.53812,331.32966 -3.27867,-10.458 4.72305,-59.92359 2.58504,58.67723 z"
       id="path56"
       sodipodi:nodetypes="ccccc" />
    <path
       style="fill:#e6e6e6;stroke-width:1"
       d="m 210.25867,289.93237 5.53306,-39.46917 -2.95097,-39.10029 -9.59064,0.36887 -7.74628,50.53528 3.31984,25.82095 2.58209,-31.72288 h 5.90193 z"
       id="path57" />
    <path
       style="fill:#333333;stroke-width:1"
       d="m 208.42538,188.94048 2.19983,-29.57542 11.48797,-1.22212 -1.46655,33.48621 z"
       id="path2" />
    <path
       style="fill:#333333;stroke-width:1"
       d="m 135.09979,98.703434 3.41603,5.973756 157.36906,48.30164 2.25722,2.31169 2.39343,0.9102 2.817,-6.36342 -2.38297,-0.88017 -3.30413,0.041 -143.91221,-45.42274 2.77679,-9.735498 -12.43238,-5.226402 z"
       id="path20-0"
       sodipodi:nodetypes="cccccccccccc" />
    <path
       style="fill:#333333;stroke-width:1"
       d="m 210.58042,158.2493 -5.41379,-25.81962 10.82759,-1.66578 5.83023,29.56763 z"
       id="path3" />
    <path
       style="fill:#333333;stroke-width:1"
       d="m 205.2589,134.04289 2.89795,-8.79002 2.53311,-26.453297 4.50635,1.206267 -0.68365,26.03776 2.28051,9.61915 z"
       id="path4"
       sodipodi:nodetypes="ccccccc" />
    <path
       style="fill:#333333;stroke-width:1"
       d="m 199.67976,128.74266 -35.78252,22.27216 6.10561,8.38226 32.46827,-22.52542 z"
       id="path5"
       sodipodi:nodetypes="ccccc" />
    <path
       style="fill:#333333;stroke-width:1"
       d="m 143.01229,95.7401 -10.97932,5.01496 30.22198,62.69496 6.31389,-3.9139 z"
       id="path6"
       sodipodi:nodetypes="ccccc" />
    <path
       style="fill:#333333;stroke-width:1"
       d="m 225.17354,124.3563 29.43172,39.78739 -7.54958,4.38023 -22.32478,-30.00327 z"
       id="path7"
       sodipodi:nodetypes="ccccc" />
    <path
       style="fill:#333333;stroke-width:1"
       d="m 244.92752,165.98858 -6.39488,63.7041 11.06591,1.77054 5.95223,-68.13045 z"
       id="path8"
       sodipodi:nodetypes="ccccc" />
    <path
       style="fill:#e6e6e6;stroke-width:1"
       d="m 210.08164,128.56466 -9.91235,-7.38492 -7.35486,13.88557 7.19687,23.03901 9.73466,10.74169 13.7628,-10.74169 7.56777,-23.56273 -6.83115,-11.95904 z"
       id="path9"
       sodipodi:nodetypes="ccccccccc" />
    <path
       style="fill:#e6e6e6;stroke-width:1"
       d="m 205.22476,167.81212 5.00209,4.84073 8.71332,-7.58381 -9.68146,23.71959 z"
       id="path10" />
    <path
       style="fill:#e6e6e6;stroke-width:1"
       d="m 209.58142,191.37036 6.13159,-4.35666 -8.3906,20.49244 -3.22715,-21.62195 z"
       id="path11"
       sodipodi:nodetypes="ccccc" />
    <path
       style="fill:#e6e6e6;stroke-width:1"
       d="m 210.84926,206.97112 6.55694,-17.10505 0.71271,-5.70168 2.42321,9.8354 z"
       id="path12" />
    <path
       style="fill:#e6e6e6;stroke-width:1"
       d="m 213.27248,184.16439 7.1271,-14.82438 0.14254,-5.55914 3.27847,8.1249 z"
       id="path13" />
    <path
       style="fill:#e6e6e6;stroke-width:1"
       d="m 207.82421,185.15925 -3.13331,-11.26034 v 6.85412 z"
       id="path14" />
    <path
       style="fill:#e6e6e6;stroke-width:1"
       d="m 205.56901,205.26743 -2.02474,-13.44601 -1.59076,6.9027 z"
       id="path15"
       sodipodi:nodetypes="cccc" />
    <path
       style="fill:#333333;stroke-width:1"
       d="m 240.39959,238.39669 -6.76358,1.26852 -97.22953,132.83255 -2.924,1.37448 -1.64464,1.96268 5.08802,4.74771 1.61284,-1.96265 1.04465,-3.13491 90.09756,-121.06352 8.28687,5.81535 9.0138,-10.03148 z"
       id="path20"
       sodipodi:nodetypes="cccccccccccc" />
    <path
       style="fill:#333333;stroke-width:1"
       d="m 240.99698,236.24626 -1.04121,7.8881 5.24775,0.3877 1.11801,-7.46683 z"
       id="path33"
       sodipodi:nodetypes="ccccc" />
    <path
       style="fill:#333333;stroke-width:1"
       d="m 141.14306,97.365138 -2.50312,-6.482029 -4.94602,1.751716 1.96726,6.64373 z"
       id="path34"
       inkscape:label="path34"
       sodipodi:nodetypes="ccccc" />
    <path
       style="fill:#e6e6e6;stroke-width:1"
       d="m 238.41358,236.17136 -1.00026,-43.37176 8.33292,-27.08199 -1.7033,30.46328 8.5482,0.78517 2.13388,-30.81789 4.64763,28.21558 -10.33969,44.18845 z"
       id="path16"
       sodipodi:nodetypes="ccccccccc" />
    <path
       style="fill:#e6e6e6;stroke-width:1"
       d="m 139.64807,96.769129 13.82438,29.762621 4.47164,27.40974 -18.29212,-25.23157 -7.92133,-29.041728 z"
       id="path16-4"
       sodipodi:nodetypes="cccccc" />
    <path
       style="fill:#e6e6e6;stroke-width:1"
       d="m 248.1453,161.92886 0.8119,31.35516 4.17288,-31.32269 -6.4364,-13.63958 -8.22778,-4.66115 -0.33009,7.38646 z"
       id="path17"
       sodipodi:nodetypes="ccccccc" />
    <path
       style="fill:#333333;stroke-width:1"
       d="m 206.50528,102.63059 -13.25169,-0.82435 -19.06291,-11.849916 31.18113,9.892107 5.81122,-12.056004 5.52349,11.334704 34.25102,-9.68602 -26.06982,13.601649 -9.93293,0.10304 -4.43084,-2.98824 z"
       id="path32"
       sodipodi:nodetypes="ccccccccccc" />
    <path
       style="fill:#e6e6e6;stroke-width:1"
       d="m 141.04434,123.31425 16.51027,39.41878 5.74644,3.96994 18.14407,-14.41115 -14.9707,3.86475 -4.2791,6.26706 z"
       id="path18"
       sodipodi:nodetypes="ccccccc" />
    <path
       style="fill:#e6e6e6;stroke-width:1"
       d="m 237.60493,141.552 -10.93246,-3.48824 -7.50003,-19.85943 16.65894,13.92565 z"
       id="path21"
       sodipodi:nodetypes="ccccc" />
    <path
       style="fill:#e6e6e6;stroke-width:1"
       d="m 181.46093,139.92199 3.72228,-11.96106 20.43553,-8.91128 -12.75532,17.39362 z"
       id="path22"
       sodipodi:nodetypes="ccccc" />
    <path
       style="fill:#e6e6e6;stroke-width:1"
       d="m 210.42151,112.10795 c -3.17101,-6.40716 -3.96058,-9.53983 -5.83686,-14.166744 l -0.53501,-10.667363 7.34256,-10.667362 5.46998,10.211337 -0.65375,11.199809 c -1.85663,4.913813 -3.43426,10.664623 -5.78692,14.090323 z"
       id="path23"
       sodipodi:nodetypes="ccccccc" />
    <path
       style="fill:#e6e6e6;stroke-width:1"
       d="m 210.31624,101.20484 c -15.3341,-0.35331 -27.17467,-3.162267 -35.93009,-10.916588 l 37.19016,-14.157513 39.58036,13.392358 c -8.62417,5.923541 -16.60119,12.639413 -40.84043,11.681743 z"
       id="path24"
       sodipodi:nodetypes="ccccc" />
    <path
       style="fill:#e6e6e6;stroke-width:1"
       d="m 204.24701,100.76027 2.87985,6.41422 -1.17812,5.367 2.61805,5.89061 -4.9743,-5.367 z"
       id="path25" />
    <path
       style="fill:#e6e6e6;stroke-width:1"
       d="m 216.22612,101.1979 -2.60573,6.90012 1.04722,5.2361 -1.70173,5.1052 4.58159,-4.31978 z"
       id="path26"
       sodipodi:nodetypes="cccccc" />
    <path
       style="fill:#e6e6e6;stroke-width:1"
       d="m 205.52577,123.78309 4.69638,3.35455 7.23625,-3.0191 1.34182,-2.77948 -4.313,-1.86897 0.14377,3.92962 -4.07339,2.06066 -2.39611,-1.34183 0.38338,-4.88806 -4.34375,2.35957 z"
       id="path27"
       sodipodi:nodetypes="ccccccccccc" />
    <path
       style="fill:#e6e6e6;stroke-width:1"
       d="m 177.25741,92.597737 -3.65542,32.751143 2.82136,15.71899 4.03051,-15.31594 -0.17241,-32.953827 z"
       id="path28"
       sodipodi:nodetypes="cccccc" />
    <path
       style="fill:#e6e6e6;stroke-width:1"
       d="m 246.71111,91.642922 -3.66819,1.687229 -1.72835,30.003469 4.03051,18.54035 3.22441,-19.7495 z"
       id="path29"
       sodipodi:nodetypes="cccccc" />
    <path
       style="fill:#333333;stroke-width:0.905288"
       d="m 190.97385,90.419074 13.37545,-3.899241 2.60189,1.928657 2.92654,-2.813533 2.46901,2.47181 2.30411,-2.082916 15.39102,3.882637 -14.31128,-0.599879 1.70139,8.18081 -3.67863,-7.131253 -1.40082,0.168442 -1.87755,2.133047 -0.0371,4.766728 -0.88306,2.071037 -0.67971,-2.014956 -0.005,-5.15095 -1.87935,-1.710306 -1.56276,-0.09592 -4.95546,6.878807 2.79309,-8.341985 z"
       id="path30"
       sodipodi:nodetypes="ccccccccccccccccccccc" />
    <path
       style="fill:#00ffff;stroke-width:0.905288"
       d="m 209.88307,86.442224 -2.81304,2.924073 2.29952,2.653543 -0.0933,4.544813 0.37493,1.826936 0.42277,-1.752064 -0.0295,-4.619685 2.17281,-2.61273 z"
       id="path31"
       sodipodi:nodetypes="ccccccccc" />
    <path
       style="fill:#e6e6e6;stroke-width:0.804085"
       d="m 134.63472,94.325706 5.599,5.373214 7.63497,0.87985 2.50117,-5.611589 -7.54847,-3.992713 -7.55242,-0.97815 z"
       id="path39" />
    <path
       style="fill:#e6e6e6;stroke-width:1"
       d="m 243.16966,240.28433 -7.18993,4.85884 -4.16489,6.5026 4.76206,3.64633 5.65216,-5.26394 3.86227,-6.91099 z"
       id="path40"
       sodipodi:nodetypes="ccccccc" />
  </g>
</svg>
