<?xml version="1.0" encoding="UTF-8" standalone="no"?>
<!-- Created with Inkscape (http://www.inkscape.org/) -->

<svg
   width="1000mm"
   height="1000mm"
   viewBox="0 0 1000 1000"
   version="1.1"
   id="svg1"
   inkscape:version="1.3.2 (091e20e, 2023-11-25)"
   sodipodi:docname="Enemy1.svg"
   xmlns:inkscape="http://www.inkscape.org/namespaces/inkscape"
   xmlns:sodipodi="http://sodipodi.sourceforge.net/DTD/sodipodi-0.dtd"
   xmlns="http://www.w3.org/2000/svg"
   xmlns:svg="http://www.w3.org/2000/svg">
  <sodipodi:namedview
     id="namedview1"
     pagecolor="#505050"
     bordercolor="#eeeeee"
     borderopacity="1"
     inkscape:showpageshadow="0"
     inkscape:pageopacity="0"
     inkscape:pagecheckerboard="0"
     inkscape:deskcolor="#505050"
     inkscape:document-units="mm"
     inkscape:zoom="0.049654257"
     inkscape:cx="3252.4905"
     inkscape:cy="1812.5334"
     inkscape:window-width="1512"
     inkscape:window-height="835"
     inkscape:window-x="0"
     inkscape:window-y="38"
     inkscape:window-maximized="0"
     inkscape:current-layer="layer1" />
  <defs
     id="defs1" />
  <g
     inkscape:label="Layer 1"
     inkscape:groupmode="layer"
     id="layer1"
     transform="translate(99.088212)">
    <path
       style="fill:#333333;stroke-width:1.01127"
       d="m 293.36059,133.24788 -23.03873,67.20439 69.58185,44.91752 9.85988,-76.78749 z"
       id="path1"
       sodipodi:nodetypes="ccccc" />
    <path
       style="fill:#333333;stroke-width:1.01127"
       d="m 180.4928,461.89931 -30.25932,61.13309 49.63928,37.77482 29.80246,-56.43079 z"
       id="path1-0"
       sodipodi:nodetypes="ccccc" />
    <path
       style="fill:#333333;stroke-width:1.01127"
       d="m 657.91717,472.44797 -30.25931,61.13309 49.63928,37.77482 29.80245,-56.43078 z"
       id="path1-0-9"
       sodipodi:nodetypes="ccccc" />
    <path
       style="fill:#333333;stroke-width:1.01127"
       d="m 427.55872,588.34721 -64.93256,45.12674 36.79736,82.23688 73.03697,-74.2156 z"
       id="path1-9"
       sodipodi:nodetypes="ccccc" />
    <path
       style="fill:#333333;stroke-width:1.01127"
       d="m 412.77363,354.81789 -22.16426,63.25427 49.6393,37.77481 29.80243,-56.43078 z"
       id="path1-7"
       sodipodi:nodetypes="ccccc" />
    <path
       style="fill:#333333;stroke-width:1.01127"
       d="m 278.92408,191.00213 c 13.86932,19.71351 22.49978,41.56707 29.59249,79.74586 26.63965,63.05198 63.18223,119.16642 97.13516,152.36322 l 43.77254,-27.06676 c -14.8929,-48.6208 -31.82314,-90.1568 -82.34269,-163.85771 -13.4824,-7.8085 -30.02561,-41.73981 -47.18568,-64.68371 z"
       id="path2"
       sodipodi:nodetypes="ccccccc" />
    <path
       style="fill:#333333;stroke-width:1.01127"
       d="m 558.32727,150.76579 53.38798,153.53853 28.6099,-54.40552 -5.54116,-81.19247 z"
       id="path1-7-3"
       sodipodi:nodetypes="ccccc" />
    <path
       style="fill:#333333;stroke-width:1.01127"
       d="m 332.21649,188.44924 c 94.56254,32.53874 242.72499,35.0993 274.94748,14.28617 l 1.73399,-23.83255 C 512.83141,148.45295 418.71651,133.49634 325.61674,165.23761 Z"
       id="path2-8"
       sodipodi:nodetypes="ccccc" />
    <path
       style="fill:#333333;stroke-width:1.01127"
       d="m 53.14462,722.13031 -21.295115,65.15335 54.425996,29.6597 21.507179,-60.43194 z"
       id="path1-04"
       sodipodi:nodetypes="ccccc" />
    <path
       style="fill:#333333;stroke-width:1.01127"
       d="m 333.63274,881.47125 -29.29321,60.99964 -0.99799,32.59785 49.71105,-1.158 31.21915,-46.19061 z"
       id="path1-7-6"
       sodipodi:nodetypes="cccccc" />
    <path
       style="fill:#333333;stroke-width:1.01127"
       d="m 87.50323,791.64186 243.45282,143.97075 10.16879,-21.39385 C 257.37538,865.132 196.77303,725.11325 100.90552,723.20281 Z"
       id="path2-03"
       sodipodi:nodetypes="ccccc" />
    <path
       style="fill:#333333;stroke-width:1.01127"
       d="m 417.61831,426.52054 c 15.31957,76.01851 -23.9518,127.88871 -33.02906,207.31669 l 57.40219,9.46086 c 10.40789,-85.15667 37.33574,-162.2703 13.72918,-225.35689 z"
       id="path2-0"
       sodipodi:nodetypes="ccccc" />
    <path
       style="fill:#333333;stroke-width:1.01127"
       d="M 192.10986,508.28047 53.347606,762.61613 73.69995,773.39768 215.09742,510.7521 Z"
       id="path2-0-3" />
    <path
       style="fill:#333333;stroke-width:1.01615"
       d="M 673.27367,517.01543 813.3786,771.3511 792.82932,782.13264 650.06368,519.48705 Z"
       id="path2-0-3-8" />
    <path
       style="fill:#333333;stroke-width:1.01127"
       d="M 426.8844,655.87445 C 286.0988,499.45825 263.34988,547.74442 188.54853,502.78652 l -10.89893,20.99516 c 74.9587,50.48235 40.60722,79.43145 246.18062,156.10074 z"
       id="path2-0-9"
       sodipodi:nodetypes="ccccc" />
    <path
       style="fill:#333333;stroke-width:1.01127"
       d="m 649.89569,517.891 c -82.95571,41.99673 -170.25408,31.37575 -249.35346,132.41244 l 11.3395,20.73725 C 565.04107,645.77704 632.32182,579.24188 667.79672,533.20741 Z"
       id="path2-0-9-7"
       sodipodi:nodetypes="ccccc" />
    <path
       style="fill:#333333;stroke-width:1.01127"
       d="m 478.24144,927.54954 41.95329,53.00517 33.50369,-0.57697 19.01228,-32.65096 -44.38677,-56.26382 z"
       id="path1-4"
       sodipodi:nodetypes="cccccc" />
    <path
       style="fill:#333333;stroke-width:1.01127"
       d="m 753.71942,765.01348 41.95331,53.00521 52.51599,-33.22795 -37.99836,-50.73424 z"
       id="path1-7-1"
       sodipodi:nodetypes="ccccc" />
    <path
       style="fill:#333333;stroke-width:1.01127"
       d="m 552.74857,933.04215 244.1102,-142.7427 -29.01092,-55.88873 c -81.94848,6.58812 -81.97288,32.33263 -233.56954,184.0764 z"
       id="path2-3"
       sodipodi:nodetypes="ccccc" />
    <path
       style="fill:#e6e6e6;stroke-width:1.01127"
       d="m 352.47913,932.54761 -33.66516,40.32636 -145.88238,3.36053 -27.17529,22.89079 207.06794,-0.41425 z"
       id="path3"
       sodipodi:nodetypes="cccccc" />
    <path
       style="fill:#e6e6e6;stroke-width:1.01127"
       d="m 334.08083,917.46501 -16.62166,46.82085 -37.39874,1.08887 9.34969,-41.37661 -10.38856,-18.51053 z"
       id="path4" />
    <path
       style="fill:#e6e6e6;stroke-width:1.01127"
       d="m 374.34378,932.92805 -6.80705,17.26448 33.58966,46.7463 3.27291,-65.23354 -58.01944,-129.17056 -48.68858,85.08655 32.06691,-2.3334 z"
       id="path5"
       sodipodi:nodetypes="cccccccc" />
    <path
       style="fill:#e6e6e6;stroke-width:1.01127"
       d="m 301.33535,843.49229 -14.95127,43.39642 -17.25145,15.67092 -170.21457,-80.76555 78.20669,-21.6982 28.874,10.08793 z"
       id="path6"
       sodipodi:nodetypes="ccccccc" />
    <path
       style="fill:#e6e6e6;stroke-width:1.01127"
       d="m 150.56981,782.76529 -70.28546,36.28451 -51.402812,-28.58779 -51.402804,-98.9577 56.647981,36.28449 11.539414,30.78686 24.127855,15.39341 z"
       id="path7" />
    <path
       style="fill:#e6e6e6;stroke-width:1.01127"
       d="m 46.383677,691.15308 5.604399,47.97234 23.351703,15.66443 46.703391,11.74835 68.18693,-149.7912 -14.011,-194.82642 z"
       id="path8" />
    <path
       style="fill:#e6e6e6;stroke-width:1.01127"
       d="m 202.37742,465.19884 1.58111,111.03452 151.20941,62.54401 46.43153,-21.11323 C 343.52215,537.96136 289.32355,496.02963 202.37742,465.19884 Z"
       id="path9"
       sodipodi:nodetypes="ccccc" />
    <path
       style="fill:#e6e6e6;stroke-width:1.01127"
       d="m 417.1372,615.48735 -56.63135,31.54032 4.18338,68.44997 28.14503,108.32966 50.59387,-102.42311 6.68427,-68.8177 z"
       id="path10"
       sodipodi:nodetypes="ccccccc" />
    <path
       style="fill:#e6e6e6;stroke-width:1.01127"
       d="M 462.03957,653.25791 431.05235,618.82185 C 494.97819,541.14556 561.8326,488.90197 651.39253,458.04803 l 1.25798,104.36166 z"
       id="path11"
       sodipodi:nodetypes="ccccc" />
    <path
       style="fill:#e6e6e6;stroke-width:1.01127"
       d="m 656.61533,424.74181 5.60111,161.65135 76.95585,169.98449 30.79895,9.22326 32.26554,-13.83488 24.93252,-38.43022 z"
       id="path12"
       sodipodi:nodetypes="ccccccc" />
    <path
       style="fill:#e6e6e6;stroke-width:1.01127"
       d="m 718.92131,776.65428 55.74362,6.80018 41.52245,-17.68042 21.44181,-47.34414 39.95015,-36.63891 -23.30427,106.42737 -56.59603,36.6389 z"
       id="path13"
       sodipodi:nodetypes="cccccccc" />
    <path
       style="fill:#e6e6e6;stroke-width:1.01127"
       d="m 776.27247,825.14046 -61.40684,-33.87504 -155.70115,58.91873 25.23632,51.99733 21.699,9.80434 z"
       id="path14"
       sodipodi:nodetypes="cccccc" />
    <path
       style="fill:#e6e6e6;stroke-width:1.01127"
       d="m 510.315,999.92523 -0.2382,-64.32026 32.07258,41.80553 153.94066,0.36491 31.76131,23.88699 z"
       id="path15"
       sodipodi:nodetypes="cccccc" />
    <path
       style="fill:#e6e6e6;stroke-width:1.01127"
       d="m 547.31594,968.85324 37.91963,2.18631 -4.38558,-40.68609 17.82287,-15.71154 -62.79362,6.60148 z"
       id="path16"
       sodipodi:nodetypes="cccccc" />
    <path
       style="fill:#e6e6e6;stroke-width:1.01127"
       d="m 494.76455,948.65571 -30.00143,48.57069 -4.15952,-67.92977 52.04462,-126.08975 50.34061,89.24583 -33.70898,0.92687 -42.10141,39.82172 z"
       id="path17"
       sodipodi:nodetypes="cccccccc" />
    <path
       style="fill:#333333;stroke-width:1.01127"
       d="m 693.95139,486.7891 -29.94689,-15.29906 -26.12127,20.57651 4.6568,68.23441 48.46624,-2.14271 z"
       id="path1-7-5"
       sodipodi:nodetypes="cccccc" />
    <path
       style="fill:#333333;stroke-width:1.01127"
       d="m 613.7403,231.77238 45.73914,289.03546 22.27492,-5.11942 -48.70526,-297.22193 z"
       id="path2-4" />
    <path
       style="fill:#333333;stroke-width:1.01127"
       d="M 108.98267,377.65399 38.846019,275.1911 -8.9968738,308.83422 34.114801,368.80139 Z"
       id="path1-7-5-9"
       sodipodi:nodetypes="ccccc" />
    <path
       style="fill:#333333;stroke-width:1.01127"
       d="M 284.1885,175.37234 C 144.01391,186.39838 52.157826,271.21601 32.783295,303.55039 l 12.266147,20.14952 C 146.67465,295.37353 240.60362,264.64285 302.7632,189.78062 Z"
       id="path2-4-5"
       sodipodi:nodetypes="ccccc" />
    <path
       style="fill:#333333;stroke-width:1.01127"
       d="m 215.53933,527.78218 -30.43633,9.35689 -7.29158,34.99948 53.40237,56.58236 28.76548,-32.67461 z"
       id="path1-7-5-9-7"
       sodipodi:nodetypes="cccccc" />
    <path
       style="fill:#333333;stroke-width:1.01127"
       d="M 23.29817,348.88371 199.12598,576.6482 216.09203,560.67728 33.831012,327.32556 Z"
       id="path2-4-5-5" />
    <path
       style="fill:#e6e6e6;stroke-width:1.01127"
       d="m 424.79116,609.56415 -27.62936,-22.1301 -22.61032,-53.04345 28.17538,31.51239 23.35574,15.68412 31.80532,-15.50933 33.55065,-32.39568 -32.73235,52.36555 z"
       id="path18"
       sodipodi:nodetypes="ccccccccc" />
    <path
       style="fill:#e6e6e6;stroke-width:1.03504"
       d="m 434.19674,503.34692 -34.51055,-24.46754 -24.74098,-48.10085 36.6897,30.02729 23.88094,11.86973 30.14038,-9.71211 42.10561,-36.92004 -36.75102,55.47446 z"
       id="path18-0"
       sodipodi:nodetypes="ccccccccc" />
    <path
       style="fill:#e6e6e6;stroke-width:1.01127"
       d="m 441.75014,462.24787 -30.46919,-9.40007 -48.03616,-45.87968 38.85677,-47.48178 71.15155,2.87308 -1.99851,68.82784 z"
       id="path28"
       sodipodi:nodetypes="ccccccc" />
    <path
       style="fill:#e6e6e6;stroke-width:1.01127"
       d="m 427.09351,573.43739 -28.71633,-25.47669 -18.82273,-52.8839 29.32451,35.85498 22.4991,10.2375 28.22359,-8.24491 42.76184,-36.36402 -35.50902,55.34495 z"
       id="path18-8"
       sodipodi:nodetypes="ccccccccc" />
    <path
       style="fill:#333333;fill-opacity:1;stroke-width:1.34542"
       d="m 234.07909,135.15072 21.75227,7.73752 7.03909,-25.3385 45.40473,-16.44412 22.94419,12.07056 11.62106,-19.808076 -28.90371,-13.927521 -67.52827,21.822277 z"
       id="path42"
       sodipodi:nodetypes="ccccccccc" />
    <path
       style="fill:#e6e6e6;stroke-width:1.01127"
       d="m 283.9817,103.70847 54.44695,46.18753 c 5.99018,17.27405 5.50373,37.98838 7.14117,54.25416 2.84561,28.26706 7.79894,44.46011 3.27287,67.71058 -19.81446,-14.30535 -35.46421,-31.71056 -46.72523,-49.10352 -14.80473,-22.8663 -22.95598,-24.42646 -33.73908,-46.48326 z"
       id="path27"
       sodipodi:nodetypes="ccscscc"
       inkscape:label="path27" />
    <path
       style="fill:#e6e6e6;stroke-width:1.01127"
       d="m 433.85429,536.96444 -28.95405,-18.69821 -30.18837,-52.56981 32.41345,29.21476 27.02993,14.74174 28.74451,-10.06416 37.1146,-34.34339 -36.45929,59.87985 z"
       id="path18-8-2"
       sodipodi:nodetypes="ccccccccc" />
    <path
       style="fill:#e207b6;fill-opacity:1;stroke-width:1.34542"
       d="m 245.1822,128.83619 6.99617,-19.83211 57.28098,-19.983532 23.32052,10.90007 -2.7693,4.995912 -20.25969,-9.537594 -54.51172,19.226554 -5.10135,16.35016 z"
       id="path43" />
    <path
       style="fill:#e6e6e6;stroke-width:1.01127"
       d="m 271.81725,205.25344 -5.82836,51.16219 15.89465,88.97214 72.24625,56.34043 41.36521,-52.19558 63.3863,3.86735 6.40634,-108.98978 -79.81697,-65.88327 -37.15593,-6.87252 17.48514,58.03471 -9.4711,64.82126 -46.62703,-27.40413 z"
       id="path29"
       sodipodi:nodetypes="ccccccccccccc" />
    <path
       style="fill:#333333;fill-opacity:1;stroke-width:1.34542"
       d="m 446.82251,336.77364 1.26686,-84.87231 -55.74155,-53.94984 63.97607,50.66024 z"
       id="path45" />
    <path
       style="fill:#333333;fill-opacity:1;stroke-width:1.34542"
       d="m 353.07536,388.74976 -63.97612,-49.34439 -13.30193,-88.81989 23.43676,88.16196 z"
       id="path46" />
    <path
       style="fill:#e6e6e6;stroke-width:1.01127"
       d="m 269.41648,139.12911 -20.80059,84.64223 58.73106,38.47373 50.16615,203.91083 -77.08456,-169.28445 -73.41386,-51.29832 c 2.52146,-40.77518 0.97772,-81.3281 22.02418,-123.11598 17.00763,-4.11752 29.18327,4.93944 40.37762,16.67196 z"
       id="path19"
       sodipodi:nodetypes="cccccccc" />
    <path
       style="fill:#e6e6e6;stroke-width:1.01127"
       d="m 421.86583,169.15998 -17.20788,86.75253 17.01779,180.45333 -57.67362,-184.92216 15.72388,-64.49203 -58.73108,-67.43428 c 0.004,-25.461396 12.29579,-29.044432 22.02415,-37.191287 38.9978,22.941307 61.08942,53.864447 78.84676,86.833897 z"
       id="path20"
       sodipodi:nodetypes="cccccccc" />
    <path
       style="fill:#e6e6e6;stroke-width:1.01127"
       d="m 216.7937,131.67282 -27.21363,128.15019 -83.7379,37.08836 -158.030066,-24.4802 C 31.630455,184.34958 105.95411,158.37656 216.7937,131.67282 Z"
       id="path21"
       sodipodi:nodetypes="ccccc" />
    <path
       style="fill:#e6e6e6;stroke-width:1.01127"
       d="m 385.64246,103.46348 77.69591,97.49354 110.59128,10.03643 115.3037,-67.63645 C 575.80436,94.095635 503.01635,87.291084 385.64246,103.46348 Z"
       id="path22"
       sodipodi:nodetypes="ccccc" />
    <path
       style="fill:#e6e6e6;stroke-width:1.01127"
       d="m 80.724605,346.07517 -31.777053,-19.98392 -42.8990228,7.49397 -11.916397,29.97593 -43.9774302,-78.49764 88.635461,9.22495 36.004404,16.46153 z"
       id="path23"
       sodipodi:nodetypes="cccccccc" />
    <path
       style="fill:#e6e6e6;stroke-width:1.01181"
       d="m 593.61193,273.71196 19.48207,-33.19014 39.67309,-9.59778 29.00772,16.33281 0.40013,-87.76923 -85.58342,55.3415 -15.75915,31.95804 z"
       id="path23-7"
       sodipodi:nodetypes="cccccccc" />
    <path
       style="fill:#e6e6e6;stroke-width:1.01127"
       d="M 48.947552,334.41787 10.020663,341.91185 4.4596719,372.72045 191.14987,570.89463 213.39382,546.74733 142.68987,417.68435 95.81872,362.72848 Z"
       id="path24" />
    <path
       style="fill:#e6e6e6;stroke-width:1.01127"
       d="m 676.18018,257.83588 4.15939,242.29764 -27.06727,8.21544 -45.06408,-160.3607 -8.55138,-70.09869 18.6497,-30.16737 33.44918,-8.35564 z"
       id="path25"
       sodipodi:nodetypes="cccccccc" />
    <path
       style="fill:#e6e6e6;stroke-width:1.01127"
       d="m 184.6595,567.58858 11.36441,14.66021 14.86114,-2.74879 12.23859,-9.16261 3.49677,-15.57648 -7.86766,-13.74393 -4.37094,-23.82281 32.87778,55.34018 19.35239,14.51497 47.63112,23.36831 3.17881,43.67801 -10.42023,-23.66338 -5.07575,-14.54976 -20.84799,-10.34162 15.59649,25.78391 16.35599,45.30925 -2.63405,56.3481 -10.2704,-24.53575 1.0035,-30.21667 -17.86428,-44.85271 -12.67379,-13.0864 4.88208,13.23919 18.05622,44.37195 -5.05196,59.93177 -8.73475,-28.71553 1.39851,-27.66455 -17.2784,-45.46824 -10.87402,-11.41194 3.77094,10.9829 13.53509,44.92956 -5.33012,53.35128 -7.4135,-27.62921 -0.32928,-23.58139 -16.08009,-44.51941 -8.09145,-9.05446 1.96047,11.03781 14.92511,43.79546 -8.5969,52.17912 -6.10847,-28.46371 2.89995,-22.33513 -17.0055,-42.71203 -17.87517,-38.73613 -37.81462,-39.12292 z"
       id="path26"
       sodipodi:nodetypes="cccccccccccccccccccccccccccccccccccccccccccc" />
    <path
       style="fill:#e6e6e6;stroke-width:1.01334"
       d="m 685.88174,491.26885 -1.02353,18.82201 -13.65974,6.8175 -15.12715,0.0137 -11.60616,-10.51676 -1.31194,-15.9489 -9.82787,-22.00238 2.53689,54.56997 -5.84817,33.94643 -30.15327,26.66791 -12.8707,41.71383 17.01833,-19.27004 6.65994,-14.14496 17.94748,-11.1456 -6.94222,25.74308 0.51681,49.68576 35.48767,60.17491 -6.32908,-30.10388 -15.40334,-34.27686 0.80626,-47.83288 8.70332,-17.80074 -2.26972,15.76987 1.69867,46.66073 37.12533,55.01293 -7.88904,-28.81028 -15.66461,-31.13385 -1.04147,-42.90035 4.79737,-21.8404 1.05746,13.97018 5.16656,46.34268 32.2933,48.19562 -8.26458,-30.05923 -11.5377,-24.39114 -4.53345,-44.28247 4.5898,-18.27984 2.56419,12.91234 4.89523,44.4319 32.79819,47.09126 -9.09118,-30.86893 -11.03831,-22.12666 -2.81741,-42.86155 -5.17349,-54.88322 5.23686,-50.68686 z"
       id="path26-80"
       sodipodi:nodetypes="cccccccccccccccccccccccccccccccccccccccccccc" />
    <path
       style="fill:#333333;stroke-width:1.21222"
       d="m 279.22053,188.85647 9.04724,-6.27657 -1.11836,-22.67292 10.23239,18.65605 3.00612,-6.25827 -3.33485,-5.48923 -2.87215,-31.47358 11.86316,28.45712 0.83012,6.22743 6.92168,1.50583 0.98814,-20.8461 8.96767,17.33932 10.94136,-0.61496 -9.25752,9.32887 6.61899,21.57372 -15.05612,-19.0032 -4.25266,4.50052 4.06602,6.36608 13.14421,34.96669 -21.4649,-30.96325 -3.19697,-7.64363 -5.49971,-0.17746 7.20611,21.96571 -15.53169,-18.52519 z"
       id="path30-5"
       sodipodi:nodetypes="ccccccccccccccccccccccccc" />
    <path
       style="fill:#ff00cc;stroke-width:1.03481"
       d="m 281.723,188.04281 10.22035,-3.20222 -3.88102,-21.47438 6.93825,18.77992 7.93194,-3.71433 -6.83192,-35.77944 11.1458,33.93288 9.85129,-3.46583 -1.08486,-15.89982 5.13665,15.45761 9.92892,-3.60531 -9.11016,6.36088 7.39428,17.70012 -11.92886,-17.41153 -8.91488,3.98987 16.91371,36.7595 -21.38942,-35.34862 -7.31563,3.83886 7.95548,19.07302 -11.30992,-17.33386 z"
       id="path30"
       sodipodi:nodetypes="ccccccccccccccccccccc" />
    <path
       style="fill:#333333;stroke-width:1.43181"
       d="m 425.90252,665.31078 42.59921,11.20263 c 7.32977,10.16452 8.44578,32.33155 -5.09095,48.50636 l -39.69869,-13.03138 c -7.2252,-9.0656 -11.72007,-30.63492 2.19043,-46.67761 z"
       id="path35"
       sodipodi:nodetypes="ccccc" />
    <path
       style="fill:#333333;stroke-width:1.48081"
       d="m 379.56994,656.82278 -44.53071,9.09889 c -12.91251,16.06851 -7.14791,44.47015 1.903,50.7623 l 41.10529,-9.5778 c 7.60594,-9.00988 9.51662,-30.46594 1.52242,-50.28339 z"
       id="path36"
       sodipodi:nodetypes="ccccc" />
    <path
       style="fill:#d400aa;fill-opacity:1;stroke-width:1.48081"
       d="m 336.21407,665.69127 c 7.47224,23.75921 5.99127,35.47105 3.27887,50.42393 l 2.27749,-0.65904 c 4.32001,-24.86713 0.89047,-34.6546 -3.25983,-50.22914 z"
       id="path37"
       sodipodi:nodetypes="ccccc" />
    <path
       style="fill:#d400aa;fill-opacity:1;stroke-width:1.46196"
       d="m 466.06804,675.81144 c -12.57734,15.2516 -10.82183,31.815 -3.46877,48.89069 l -3.93026,-0.90377 c -6.84445,-17.35499 -7.49393,-33.8658 4.43645,-48.6624 z"
       id="path38"
       sodipodi:nodetypes="ccccc" />
    <path
       style="fill:#333333;stroke-width:1.34542"
       d="m 398.25157,653.11632 16.90462,-29.05405 -10.3195,29.58056 -12.1407,169.66738 z"
       id="path39"
       sodipodi:nodetypes="ccccc" />
    <path
       style="fill:#333333;fill-opacity:1;stroke-width:1.34542"
       d="m 277.89593,159.59288 4.67765,-22.4708 -14.03293,-40.083106 7.60117,41.601396 -5.84706,24.9001 z"
       id="path40" />
    <path
       style="fill:#333333;fill-opacity:1;stroke-width:1.34542"
       d="m 330.57645,143.15955 -19.77407,-16.78308 -22.38769,-36.34323 15.40173,38.92574 19.5942,17.01994 z"
       id="path41"
       sodipodi:nodetypes="cccccc" />
    <path
       style="fill:#333333;fill-opacity:0.986842;stroke-width:1.34542"
       d="m -51.995489,175.3767 50.8614066,63.49138 C 18.512325,229.23657 34.782881,216.31032 45.90856,198.36284 L -5.0169483,134.55475 C -26.724503,145.39438 -42.169155,159.10002 -51.995489,175.3767 Z"
       id="path47"
       sodipodi:nodetypes="ccccc" />
    <path
       style="fill:#d400aa;fill-opacity:1;stroke-width:1.34542"
       d="m -49.885515,178.47826 c 0,0 19.669778,-9.6045 27.801888,-16.88327 7.619422,-6.81989 18.9106209,-24.4231 18.9106209,-24.4231 l 2.31042368,2.89489 c 0,0 -11.14187658,17.71463 -18.73351058,24.3803 -8.344203,7.32641 -28.492424,16.28276 -28.492424,16.28276 z"
       id="path48"
       sodipodi:nodetypes="csccscc" />
    <path
       style="fill:#333333;fill-opacity:0.986842;stroke-width:1.34542"
       d="M 91.808756,96.783881 113.34992,176.2911 c 21.71987,-0.48107 41.64931,-5.39967 58.85009,-17.08119 L 150.72454,79.38633 c -24.07607,0.712034 -43.55704,6.69195 -58.915784,17.397551 z"
       id="path47-9"
       sodipodi:nodetypes="ccccc" />
    <path
       style="fill:#d400aa;fill-opacity:1;stroke-width:1.34542"
       d="m 92.518939,100.50927 c 0,0 21.730631,-0.44651 32.012421,-3.652023 9.63358,-3.003433 26.85045,-14.300495 26.85045,-14.300495 l 0.97433,3.62148 c 0,0 -17.12423,11.462025 -26.67194,14.336378 -10.49416,3.15925 -32.407456,2.81137 -32.407456,2.81137 z"
       id="path48-0"
       sodipodi:nodetypes="csccscc" />
    <path
       style="fill:#333333;fill-opacity:0.986842;stroke-width:1.34542"
       d="m 434.21624,37.431094 -1.66621,82.577306 c 20.91467,6.1047 41.35964,7.42274 61.08877,1.44579 l 1.81771,-82.860118 c -23.23363,-6.595911 -43.54688,-6.763005 -61.24027,-1.162978 z"
       id="path47-9-9"
       sodipodi:nodetypes="ccccc" />
    <path
       style="fill:#d400aa;fill-opacity:1;stroke-width:1.34542"
       d="m 433.85195,41.209928 c 0,0 20.91529,6.141004 31.6502,6.181948 10.05812,0.03839 29.69494,-5.565925 29.69494,-5.565925 l -0.0825,3.759253 c 0,0 -19.59437,5.790087 -29.53419,5.654202 -10.92513,-0.149378 -31.79261,-7.105626 -31.79261,-7.105626 z"
       id="path48-0-7"
       sodipodi:nodetypes="csccscc" />
    <path
       style="fill:#333333;fill-opacity:0.986842;stroke-width:1.34542"
       d="m 602.78692,45.948666 -18.12728,80.420774 c 19.23984,10.47962 38.97645,16.17553 59.47025,14.58096 L 662.46187,60.285629 C 641.05169,48.825678 621.21397,44.28405 602.78692,45.948666 Z"
       id="path47-9-9-8"
       sodipodi:nodetypes="ccccc" />
    <path
       style="fill:#d400aa;fill-opacity:1;stroke-width:1.34542"
       d="m 601.67564,49.566741 c 0,0 19.23318,10.515265 29.72625,12.869044 9.83151,2.205414 30.16054,0.955463 30.16054,0.955463 l -0.83173,3.659636 c 0,0 -20.32463,1.440822 -30.02096,-0.834457 -10.65746,-2.500852 -29.68102,-13.803306 -29.68102,-13.803306 z"
       id="path48-0-7-6"
       sodipodi:nodetypes="csccscc" />
  </g>
</svg>
